<svg width="155" height="117" viewBox="0 0 155 117" fill="none" xmlns="http://www.w3.org/2000/svg">
<g clip-path="url(#clip0_401_3161)">
<path d="M0.409923 102.69C2.42992 105.62 4.65992 108.34 7.08992 110.93C9.03992 113 11.6599 116.28 14.7999 116C17.6399 115.75 19.5499 112.69 21.2599 110.73C23.9999 107.59 26.3999 104.17 28.5999 100.64C30.4399 97.69 25.6799 95.68 24.0399 98.31C22.1999 101.25 20.2099 104.07 18.0399 106.75C20.7199 92.16 26.6299 76.52 41.6899 71.32C42.3799 71.08 43.0599 70.89 43.7299 70.73C42.1199 85.31 47.4799 104.28 62.8999 108.24C67.6199 109.45 73.6999 107.17 76.5199 103.16C80.7999 97.09 79.2699 89.62 76.2799 83.31C70.5399 71.19 59.9799 65.84 48.5799 67.2C50.5799 56.05 57.3899 45.78 67.1199 39.77C71.4499 37.1 76.2499 35.91 81.0599 35.93C79.4599 48.57 83.6299 61.78 94.6899 70.21C103.05 76.59 115.29 70.77 116.36 60.74C117.56 49.55 106.58 39.17 97.3099 35.09C93.5399 33.43 89.6599 32.62 85.7999 32.5C86.7299 26.32 89.1599 20.36 93.0399 15.29C103.97 1.02 123.74 0.490002 137.73 10.16C146.14 15.98 148.86 26.19 149.39 35.86C149.48 37.48 154.26 35.19 154.17 33.61C153.37 19.05 147.11 7.75 133.18 2.27C121.69 -2.26 109.06 0.380002 98.9399 6.86C89.7199 12.77 83.7399 22.36 81.6099 32.64C64.3499 34.36 48.3199 49.5 44.4899 66.17C44.3499 66.79 44.2299 67.42 44.1099 68.07C41.7599 68.7 39.3899 69.61 37.0399 70.79C22.2899 78.24 15.9699 94.07 13.1699 109.51C12.4499 108.83 11.7399 108.14 11.0499 107.44C8.84992 105.22 6.94992 102.73 5.17992 100.17C3.43992 97.66 -1.44008 100.03 0.399923 102.69H0.409923ZM104.39 46.26C108.64 50.76 111.64 56.74 111.59 62.99C111.53 70.46 103.49 69.78 98.8799 66.97C95.0999 64.67 92.3699 60.36 90.2299 56.61C86.6499 50.36 85.1099 43.27 85.4599 36.28C92.5999 37.38 99.4299 41 104.4 46.26H104.39ZM74.2499 94.22C74.8599 97.74 74.6199 104.02 70.0799 105.07C66.8699 105.81 63.3699 103.84 60.7899 102.17C54.6799 98.21 51.2499 90.56 49.3399 83.83C48.0499 79.31 47.7099 74.65 48.1799 70.09C61.2499 69.58 71.9999 81.2 74.2499 94.22Z" fill="black"/>
</g>
<defs>
<clipPath id="clip0_401_3161">
<rect width="154.19" height="116.02" fill="white"/>
</clipPath>
</defs>
</svg>
