<svg width="535" height="254" viewBox="0 0 535 254" fill="none" xmlns="http://www.w3.org/2000/svg">
<rect x="27" width="440" height="67" rx="33.5" fill="url(#paint0_linear_206_6039)"/>
<rect x="23.0752" y="187.706" width="502.381" height="66.5703" rx="33.2851" transform="rotate(-5.21641 23.0752 187.706)" fill="url(#paint1_linear_206_6039)"/>
<path d="M99.1113 39.2871C98.8835 39.2871 98.6283 39.278 98.3457 39.2598C98.0632 39.2507 97.8398 39.2415 97.6758 39.2324L97.6211 35.8965C97.7122 35.9056 97.8717 35.9193 98.0996 35.9375C98.3366 35.9466 98.5143 35.9512 98.6328 35.9512C99.3802 35.9512 99.9453 35.7917 100.328 35.4727C100.72 35.1536 101.021 34.6797 101.23 34.0508L101.449 33.4219L95.7617 21.9922L93.4922 21.6914V19.0938H101.764V21.6914L100.355 21.9238L102.98 27.5977L103.309 28.418H103.391L105.797 21.9785L104.525 21.6914V19.0938H112.291V21.6914L110.24 21.9648L104.703 35.0762C104.311 35.9603 103.869 36.7214 103.377 37.3594C102.894 37.9883 102.306 38.4668 101.613 38.7949C100.93 39.123 100.096 39.2871 99.1113 39.2871ZM111.854 44.6875V42.0898L113.74 41.666V27.2285L111.635 26.8047V24.207H117.801L117.979 25.9023C118.398 25.2734 118.904 24.7904 119.496 24.4531C120.089 24.1068 120.809 23.9336 121.656 23.9336C122.832 23.9336 123.839 24.2572 124.678 24.9043C125.525 25.5514 126.173 26.4583 126.619 27.625C127.075 28.7826 127.303 30.1361 127.303 31.6855V31.9727C127.303 33.431 127.075 34.7116 126.619 35.8145C126.173 36.9173 125.521 37.7741 124.664 38.3848C123.816 38.9863 122.796 39.2871 121.602 39.2871C120.836 39.2871 120.161 39.1504 119.578 38.877C119.004 38.5944 118.507 38.1797 118.088 37.6328V41.666L119.893 42.0898V44.6875H111.854ZM120.303 35.9512C121.251 35.9512 121.925 35.5957 122.326 34.8848C122.727 34.1738 122.928 33.2031 122.928 31.9727V31.6855C122.928 30.8105 122.837 30.0449 122.654 29.3887C122.472 28.7324 122.185 28.222 121.793 27.8574C121.41 27.4928 120.904 27.3105 120.275 27.3105C119.792 27.3105 119.364 27.4199 118.99 27.6387C118.617 27.8483 118.316 28.1628 118.088 28.582V34.8438C118.316 35.2083 118.617 35.4863 118.99 35.6777C119.373 35.86 119.811 35.9512 120.303 35.9512ZM136.066 39.2871C134.572 39.2871 133.291 38.9727 132.225 38.3438C131.167 37.7057 130.356 36.8216 129.791 35.6914C129.235 34.5521 128.957 33.235 128.957 31.7402V31.4668C128.957 29.9902 129.235 28.6868 129.791 27.5566C130.356 26.4264 131.167 25.5423 132.225 24.9043C133.282 24.2572 134.553 23.9336 136.039 23.9336C137.525 23.9336 138.796 24.2526 139.854 24.8906C140.911 25.5286 141.717 26.4128 142.273 27.543C142.839 28.6732 143.121 29.9811 143.121 31.4668V31.7402C143.121 33.2259 142.839 34.5384 142.273 35.6777C141.717 36.8079 140.911 37.6921 139.854 38.3301C138.805 38.9681 137.543 39.2871 136.066 39.2871ZM136.066 35.9512C136.704 35.9512 137.219 35.778 137.611 35.4316C138.012 35.0853 138.304 34.5977 138.486 33.9688C138.678 33.3398 138.773 32.597 138.773 31.7402V31.4668C138.773 30.6374 138.678 29.9128 138.486 29.293C138.304 28.6641 138.012 28.1719 137.611 27.8164C137.21 27.4609 136.686 27.2832 136.039 27.2832C135.401 27.2832 134.882 27.4609 134.48 27.8164C134.079 28.1719 133.788 28.6641 133.605 29.293C133.423 29.9128 133.332 30.6374 133.332 31.4668V31.7402C133.332 32.597 133.423 33.3444 133.605 33.9824C133.788 34.6113 134.079 35.099 134.48 35.4453C134.882 35.7826 135.41 35.9512 136.066 35.9512ZM144.994 39V36.416L147.1 35.9922V27.2285L144.994 26.8047V24.207H147.1H153.389C155.367 24.207 156.907 24.5534 158.01 25.2461C159.113 25.9297 159.664 26.9277 159.664 28.2402C159.664 28.9876 159.441 29.6302 158.994 30.168C158.557 30.7057 157.868 31.125 156.93 31.4258C158.178 31.6536 159.085 32.0684 159.65 32.6699C160.215 33.2715 160.498 34.0052 160.498 34.8711C160.498 36.2201 159.969 37.2454 158.912 37.9473C157.864 38.6491 156.342 39 154.346 39H144.994ZM151.461 35.6914H154.332C154.943 35.6914 155.394 35.5775 155.686 35.3496C155.986 35.1126 156.137 34.7663 156.137 34.3105C156.137 33.8639 156 33.5221 155.727 33.2852C155.462 33.0482 155.002 32.9297 154.346 32.9297H151.461V35.6914ZM151.461 30.168H153.525C154.154 30.1589 154.605 30.0449 154.879 29.8262C155.152 29.5983 155.289 29.2702 155.289 28.8418C155.289 27.9668 154.665 27.5293 153.416 27.5293H151.461V30.168ZM169.33 39.2871C167.899 39.2871 166.65 38.9772 165.584 38.3574C164.518 37.7285 163.688 36.8717 163.096 35.7871C162.512 34.6934 162.221 33.4538 162.221 32.0684V31.5352C162.221 30.0586 162.49 28.7507 163.027 27.6113C163.565 26.4629 164.34 25.5651 165.352 24.918C166.363 24.2617 167.576 23.9336 168.988 23.9336C170.328 23.9336 171.458 24.1934 172.379 24.7129C173.299 25.2324 173.997 25.9935 174.471 26.9961C174.954 27.9896 175.195 29.2018 175.195 30.6328V32.957H166.76L166.746 33.0391C166.801 33.6042 166.956 34.1055 167.211 34.543C167.475 34.9714 167.835 35.3132 168.291 35.5684C168.756 35.8236 169.321 35.9512 169.986 35.9512C170.67 35.9512 171.317 35.8691 171.928 35.7051C172.548 35.541 173.172 35.2858 173.801 34.9395L174.895 37.6055C174.257 38.0885 173.464 38.4896 172.516 38.8086C171.577 39.1276 170.515 39.2871 169.33 39.2871ZM166.773 30.1543H171.148V29.7988C171.148 29.2337 171.08 28.7552 170.943 28.3633C170.816 27.9622 170.597 27.6569 170.287 27.4473C169.986 27.2376 169.585 27.1328 169.084 27.1328C168.574 27.1328 168.154 27.2604 167.826 27.5156C167.498 27.7708 167.247 28.1217 167.074 28.5684C166.91 29.015 166.796 29.5208 166.732 30.0859L166.773 30.1543ZM177.273 39V36.416L179.365 35.9922V27.2285L177.273 26.8047V24.207H185.312V26.8047L183.727 27.2285V30.0723H188.088V27.2285L186.543 26.8047V24.207H188.088H192.463H194.568V26.8047L192.463 27.2285V35.9922L194.568 36.416V39H186.543V36.416L188.088 35.9922V33.4219H183.727V35.9922L185.312 36.416V39H177.273ZM205.807 28.8828C207.885 28.8828 209.516 29.334 210.701 30.2363C211.886 31.1387 212.479 32.3464 212.479 33.8594C212.479 35.4271 211.882 36.6758 210.688 37.6055C209.503 38.5352 207.876 39 205.807 39H196.811V36.416L198.916 35.9922V27.2285L196.811 26.8047V24.207H205.396V26.8047L203.291 27.2285V28.8828H205.807ZM205.807 35.6777C206.581 35.6777 207.16 35.5137 207.543 35.1855C207.926 34.8574 208.117 34.4199 208.117 33.873C208.117 33.2897 207.926 32.834 207.543 32.5059C207.169 32.1686 206.59 32 205.807 32H203.291V35.6777H205.807ZM213.914 39V35.2812H218.275V39H213.914ZM213.914 27.9395V24.2207H218.275V27.9395H213.914ZM234.354 39.2871C232.868 39.2871 231.592 38.9818 230.525 38.3711C229.468 37.7604 228.657 36.9173 228.092 35.8418C227.536 34.7663 227.258 33.5312 227.258 32.1367V30.25C227.258 27.944 227.545 26.0345 228.119 24.5215C228.702 22.9993 229.509 21.8236 230.539 20.9941C231.578 20.1556 232.772 19.5996 234.121 19.3262C234.923 19.2077 235.525 19.0345 235.926 18.8066C236.327 18.5788 236.527 18.2096 236.527 17.6992H239.904L239.945 17.7812C239.973 18.6927 239.854 19.4355 239.59 20.0098C239.335 20.584 238.975 21.0397 238.51 21.377C238.045 21.7142 237.507 21.9785 236.896 22.1699C236.295 22.3522 235.652 22.5163 234.969 22.6621C234.057 22.8353 233.324 23.0905 232.768 23.4277C232.221 23.7559 231.806 24.1615 231.523 24.6445C231.241 25.1185 231.049 25.6836 230.949 26.3398L231.004 26.4082C231.496 25.998 232.061 25.6654 232.699 25.4102C233.346 25.1549 234.071 25.0273 234.873 25.0273C236.213 25.0273 237.375 25.319 238.359 25.9023C239.344 26.4857 240.1 27.3014 240.629 28.3496C241.158 29.3887 241.422 30.5918 241.422 31.959V32.2461C241.422 33.6406 241.139 34.8665 240.574 35.9238C240.018 36.9811 239.212 37.806 238.154 38.3984C237.106 38.9909 235.839 39.2871 234.354 39.2871ZM234.354 35.9512C234.992 35.9512 235.507 35.8008 235.898 35.5C236.299 35.1901 236.591 34.7617 236.773 34.2148C236.956 33.6589 237.047 33.0026 237.047 32.2461V31.959C237.047 31.2572 236.951 30.6374 236.76 30.0996C236.577 29.5618 236.286 29.1426 235.885 28.8418C235.493 28.5319 234.973 28.377 234.326 28.377C233.697 28.377 233.182 28.5319 232.781 28.8418C232.38 29.1426 232.089 29.5618 231.906 30.0996C231.724 30.6374 231.633 31.2572 231.633 31.959V32.1367C231.633 32.9023 231.724 33.5723 231.906 34.1465C232.089 34.7207 232.38 35.1673 232.781 35.4863C233.182 35.7962 233.706 35.9512 234.354 35.9512ZM247.984 39.2871C246.526 39.2871 245.355 38.8906 244.471 38.0977C243.596 37.2956 243.158 36.2155 243.158 34.8574C243.158 33.472 243.719 32.3418 244.84 31.4668C245.961 30.5827 247.629 30.1406 249.844 30.1406H251.607V29.1562C251.607 28.5 251.416 27.9577 251.033 27.5293C250.66 27.1009 250.085 26.8867 249.311 26.8867C248.937 26.8867 248.595 26.9323 248.285 27.0234C247.984 27.1146 247.706 27.2467 247.451 27.4199L247.137 29.334H244.02L243.965 25.3691C244.767 24.959 245.624 24.6172 246.535 24.3438C247.447 24.0703 248.458 23.9336 249.57 23.9336C251.548 23.9336 253.111 24.3893 254.26 25.3008C255.408 26.2122 255.982 27.5111 255.982 29.1973V34.9941C255.982 35.2038 255.982 35.4089 255.982 35.6094C255.992 35.8008 256.014 35.9876 256.051 36.1699L257.609 36.416V39H252.359C252.25 38.7904 252.136 38.5443 252.018 38.2617C251.899 37.9792 251.817 37.6966 251.771 37.4141C251.307 37.9883 250.773 38.444 250.172 38.7812C249.57 39.1185 248.841 39.2871 247.984 39.2871ZM249.242 36.1289C249.698 36.1289 250.14 36.0286 250.568 35.8281C250.997 35.6276 251.343 35.3542 251.607 35.0078V32.7656H249.871C249.105 32.7656 248.518 32.9388 248.107 33.2852C247.706 33.6315 247.506 34.0599 247.506 34.5703C247.506 35.0625 247.661 35.4453 247.971 35.7188C248.29 35.9922 248.714 36.1289 249.242 36.1289ZM259.236 39V36.416L261.342 35.9922V27.2285L259.236 26.8047V24.207H267.398V26.8047L265.703 27.2285V29.6621H267.057L269.012 26.627C269.568 25.7428 270.156 25.082 270.775 24.6445C271.404 24.1979 272.17 23.9746 273.072 23.9746C273.61 23.9746 274.079 24.043 274.48 24.1797C274.891 24.3164 275.273 24.4941 275.629 24.7129L274.877 27.748C274.667 27.6842 274.508 27.6387 274.398 27.6113C274.298 27.584 274.184 27.5703 274.057 27.5703C273.756 27.5703 273.464 27.6706 273.182 27.8711C272.899 28.0625 272.648 28.3223 272.43 28.6504L270.789 31.166L273.865 36.0879L275.902 36.416V39H269.873L267.166 33.6816H265.703V35.9922L267.398 36.416V39H259.236ZM282.301 39.2871C280.842 39.2871 279.671 38.8906 278.787 38.0977C277.912 37.2956 277.475 36.2155 277.475 34.8574C277.475 33.472 278.035 32.3418 279.156 31.4668C280.277 30.5827 281.945 30.1406 284.16 30.1406H285.924V29.1562C285.924 28.5 285.732 27.9577 285.35 27.5293C284.976 27.1009 284.402 26.8867 283.627 26.8867C283.253 26.8867 282.911 26.9323 282.602 27.0234C282.301 27.1146 282.023 27.2467 281.768 27.4199L281.453 29.334H278.336L278.281 25.3691C279.083 24.959 279.94 24.6172 280.852 24.3438C281.763 24.0703 282.775 23.9336 283.887 23.9336C285.865 23.9336 287.428 24.3893 288.576 25.3008C289.725 26.2122 290.299 27.5111 290.299 29.1973V34.9941C290.299 35.2038 290.299 35.4089 290.299 35.6094C290.308 35.8008 290.331 35.9876 290.367 36.1699L291.926 36.416V39H286.676C286.566 38.7904 286.452 38.5443 286.334 38.2617C286.215 37.9792 286.133 37.6966 286.088 37.4141C285.623 37.9883 285.09 38.444 284.488 38.7812C283.887 39.1185 283.158 39.2871 282.301 39.2871ZM283.559 36.1289C284.014 36.1289 284.456 36.0286 284.885 35.8281C285.313 35.6276 285.66 35.3542 285.924 35.0078V32.7656H284.188C283.422 32.7656 282.834 32.9388 282.424 33.2852C282.023 33.6315 281.822 34.0599 281.822 34.5703C281.822 35.0625 281.977 35.4453 282.287 35.7188C282.606 35.9922 283.03 36.1289 283.559 36.1289ZM293.416 39L293.348 35.5957L293.744 35.582C294.337 35.582 294.779 35.4408 295.07 35.1582C295.362 34.8665 295.558 34.3516 295.658 33.6133C295.758 32.875 295.809 31.8359 295.809 30.4961V27.2285L293.703 26.8047V24.207H307.662H309.781V26.8047L307.662 27.2285V35.9922L309.781 36.416V39H301.209V36.416L303.314 35.9922V27.5703H300.184V30.4961C300.184 33.4128 299.714 35.5592 298.775 36.9355C297.846 38.3118 296.26 39 294.018 39H293.416ZM316.48 39.2871C315.022 39.2871 313.851 38.8906 312.967 38.0977C312.092 37.2956 311.654 36.2155 311.654 34.8574C311.654 33.472 312.215 32.3418 313.336 31.4668C314.457 30.5827 316.125 30.1406 318.34 30.1406H320.104V29.1562C320.104 28.5 319.912 27.9577 319.529 27.5293C319.156 27.1009 318.581 26.8867 317.807 26.8867C317.433 26.8867 317.091 26.9323 316.781 27.0234C316.48 27.1146 316.202 27.2467 315.947 27.4199L315.633 29.334H312.516L312.461 25.3691C313.263 24.959 314.12 24.6172 315.031 24.3438C315.943 24.0703 316.954 23.9336 318.066 23.9336C320.044 23.9336 321.607 24.3893 322.756 25.3008C323.904 26.2122 324.479 27.5111 324.479 29.1973V34.9941C324.479 35.2038 324.479 35.4089 324.479 35.6094C324.488 35.8008 324.51 35.9876 324.547 36.1699L326.105 36.416V39H320.855C320.746 38.7904 320.632 38.5443 320.514 38.2617C320.395 37.9792 320.313 37.6966 320.268 37.4141C319.803 37.9883 319.27 38.444 318.668 38.7812C318.066 39.1185 317.337 39.2871 316.48 39.2871ZM317.738 36.1289C318.194 36.1289 318.636 36.0286 319.064 35.8281C319.493 35.6276 319.839 35.3542 320.104 35.0078V32.7656H318.367C317.602 32.7656 317.014 32.9388 316.604 33.2852C316.202 33.6315 316.002 34.0599 316.002 34.5703C316.002 35.0625 316.157 35.4453 316.467 35.7188C316.786 35.9922 317.21 36.1289 317.738 36.1289ZM327.732 39V36.416L329.838 35.9922V27.2285L327.732 26.8047V24.207H329.838H336.127C338.105 24.207 339.645 24.5534 340.748 25.2461C341.851 25.9297 342.402 26.9277 342.402 28.2402C342.402 28.9876 342.179 29.6302 341.732 30.168C341.295 30.7057 340.607 31.125 339.668 31.4258C340.917 31.6536 341.824 32.0684 342.389 32.6699C342.954 33.2715 343.236 34.0052 343.236 34.8711C343.236 36.2201 342.708 37.2454 341.65 37.9473C340.602 38.6491 339.08 39 337.084 39H327.732ZM334.199 35.6914H337.07C337.681 35.6914 338.132 35.5775 338.424 35.3496C338.725 35.1126 338.875 34.7663 338.875 34.3105C338.875 33.8639 338.738 33.5221 338.465 33.2852C338.201 33.0482 337.74 32.9297 337.084 32.9297H334.199V35.6914ZM334.199 30.168H336.264C336.893 30.1589 337.344 30.0449 337.617 29.8262C337.891 29.5983 338.027 29.2702 338.027 28.8418C338.027 27.9668 337.403 27.5293 336.154 27.5293H334.199V30.168ZM344.658 44.6875V42.0898L346.545 41.666V27.2285L344.439 26.8047V24.207H350.605L350.783 25.9023C351.202 25.2734 351.708 24.7904 352.301 24.4531C352.893 24.1068 353.613 23.9336 354.461 23.9336C355.637 23.9336 356.644 24.2572 357.482 24.9043C358.33 25.5514 358.977 26.4583 359.424 27.625C359.88 28.7826 360.107 30.1361 360.107 31.6855V31.9727C360.107 33.431 359.88 34.7116 359.424 35.8145C358.977 36.9173 358.326 37.7741 357.469 38.3848C356.621 38.9863 355.6 39.2871 354.406 39.2871C353.641 39.2871 352.966 39.1504 352.383 38.877C351.809 38.5944 351.312 38.1797 350.893 37.6328V41.666L352.697 42.0898V44.6875H344.658ZM353.107 35.9512C354.055 35.9512 354.73 35.5957 355.131 34.8848C355.532 34.1738 355.732 33.2031 355.732 31.9727V31.6855C355.732 30.8105 355.641 30.0449 355.459 29.3887C355.277 28.7324 354.99 28.222 354.598 27.8574C354.215 27.4928 353.709 27.3105 353.08 27.3105C352.597 27.3105 352.169 27.4199 351.795 27.6387C351.421 27.8483 351.12 28.1628 350.893 28.582V34.8438C351.12 35.2083 351.421 35.4863 351.795 35.6777C352.178 35.86 352.615 35.9512 353.107 35.9512ZM361.598 39V36.416L363.689 35.9922V27.2285L361.598 26.8047V24.207H368.078H369.896V26.8047L368.078 27.2285V32.752L368.16 32.7656L372.467 24.207H376.842H378.92V26.8047L376.842 27.2285V35.9922L378.92 36.416V39H370.635V36.416L372.467 35.9922V30.4414L372.385 30.4277L368.078 39H361.598ZM385.77 39.2871C384.311 39.2871 383.14 38.8906 382.256 38.0977C381.381 37.2956 380.943 36.2155 380.943 34.8574C380.943 33.472 381.504 32.3418 382.625 31.4668C383.746 30.5827 385.414 30.1406 387.629 30.1406H389.393V29.1562C389.393 28.5 389.201 27.9577 388.818 27.5293C388.445 27.1009 387.87 26.8867 387.096 26.8867C386.722 26.8867 386.38 26.9323 386.07 27.0234C385.77 27.1146 385.492 27.2467 385.236 27.4199L384.922 29.334H381.805L381.75 25.3691C382.552 24.959 383.409 24.6172 384.32 24.3438C385.232 24.0703 386.243 23.9336 387.355 23.9336C389.333 23.9336 390.896 24.3893 392.045 25.3008C393.193 26.2122 393.768 27.5111 393.768 29.1973V34.9941C393.768 35.2038 393.768 35.4089 393.768 35.6094C393.777 35.8008 393.799 35.9876 393.836 36.1699L395.395 36.416V39H390.145C390.035 38.7904 389.921 38.5443 389.803 38.2617C389.684 37.9792 389.602 37.6966 389.557 37.4141C389.092 37.9883 388.559 38.444 387.957 38.7812C387.355 39.1185 386.626 39.2871 385.77 39.2871ZM387.027 36.1289C387.483 36.1289 387.925 36.0286 388.354 35.8281C388.782 35.6276 389.128 35.3542 389.393 35.0078V32.7656H387.656C386.891 32.7656 386.303 32.9388 385.893 33.2852C385.492 33.6315 385.291 34.0599 385.291 34.5703C385.291 35.0625 385.446 35.4453 385.756 35.7188C386.075 35.9922 386.499 36.1289 387.027 36.1289ZM399.865 39V36.416L401.957 35.9922V27.5293H399.674L399.523 29.4434H396.242V24.207H412.129V29.4434H408.834L408.684 27.5293H406.346V35.9922L408.424 36.416V39H399.865Z" fill="#FFF7F7"/>
<rect width="513.871" height="60.1652" transform="matrix(0.998594 -0.0530018 0.0564333 0.998406 0 75.2812)" fill="url(#paint2_linear_206_6039)"/>
<path d="M57.3876 141.188L445.117 91.9219L452.906 151.581L65.1764 200.847L57.3876 141.188Z" fill="url(#paint3_linear_206_6039)"/>
<path d="M69.0131 226.969C67.5258 227.118 66.2079 226.935 65.0595 226.419C63.9189 225.892 62.9889 225.098 62.2696 224.035C61.5582 222.963 61.0986 221.686 60.8909 220.206L60.8529 219.935C60.6478 218.473 60.7433 217.154 61.1395 215.979C61.5448 214.804 62.2291 213.847 63.1924 213.109C64.1545 212.363 65.3747 211.915 66.8529 211.767C68.3311 211.618 69.6405 211.807 70.7812 212.333C71.9218 212.859 72.8472 213.654 73.5574 214.718C74.2767 215.78 74.7396 217.047 74.946 218.519L74.984 218.789C75.1904 220.261 75.0916 221.589 74.6876 222.773C74.2914 223.948 73.6116 224.904 72.6483 225.642C71.694 226.379 70.4823 226.821 69.0131 226.969ZM68.5497 223.665C69.1845 223.601 69.6728 223.378 70.0147 222.996C70.3656 222.613 70.588 222.101 70.682 221.46C70.7851 220.818 70.7771 220.073 70.6581 219.224L70.6201 218.953C70.5049 218.132 70.309 217.424 70.0324 216.829C69.7637 216.225 69.4051 215.766 68.9567 215.455C68.5083 215.143 67.9621 215.019 67.3182 215.084C66.6834 215.148 66.1912 215.376 65.8415 215.768C65.4919 216.16 65.2701 216.676 65.1761 217.317C65.0808 217.949 65.0908 218.676 65.206 219.498L65.244 219.768C65.363 220.617 65.5575 221.348 65.8275 221.961C66.0963 222.566 66.4542 223.02 66.9014 223.323C67.3473 223.616 67.8967 223.731 68.5497 223.665ZM85.9502 224.978L85.5912 222.419L87.6272 221.789L87.4183 220.299C87.1448 220.382 86.8603 220.452 86.5648 220.509C86.268 220.557 85.9836 220.595 85.7116 220.622C84.2243 220.771 82.9307 220.695 81.8308 220.394C80.7399 220.092 79.8597 219.553 79.19 218.779C78.5281 217.994 78.1079 216.965 77.9293 215.692L77.6881 213.973L75.5498 213.776L75.1908 211.217L81.6252 210.57L83.1624 210.416L83.5213 212.975L82.0412 213.535L82.2824 215.255C82.3659 215.851 82.5179 216.311 82.7384 216.637C82.9575 216.954 83.2671 217.16 83.6669 217.258C84.0746 217.345 84.6004 217.356 85.2443 217.291C85.5527 217.26 85.8416 217.222 86.1111 217.177C86.3885 217.121 86.6678 217.047 86.9491 216.955L86.4097 213.11L84.7865 212.847L84.4256 210.275L92.4379 209.47L92.7988 212.042L90.7628 212.672L91.9803 221.351L94.1341 221.56L94.4931 224.119L85.9502 224.978ZM96.5608 223.911L96.2018 221.352L98.2242 220.724L97.0067 212.045L94.8665 211.834L94.5056 209.262L102.504 208.458L102.865 211.03L101.346 211.609L101.741 214.425L106.081 213.989L105.686 211.173L104.09 210.907L103.729 208.335L105.266 208.18L109.619 207.743L111.714 207.532L112.075 210.105L110.039 210.735L111.256 219.414L113.41 219.623L113.769 222.182L105.784 222.984L105.425 220.425L106.903 219.851L106.546 217.306L102.207 217.742L102.564 220.287L104.201 220.549L104.56 223.107L96.5608 223.911ZM122.773 221.565C121.286 221.715 119.968 221.531 118.82 221.015C117.679 220.489 116.749 219.695 116.03 218.632C115.319 217.559 114.859 216.283 114.651 214.802L114.613 214.532C114.408 213.069 114.504 211.751 114.9 210.576C115.305 209.4 115.989 208.444 116.953 207.706C117.915 206.959 119.135 206.512 120.613 206.363C122.092 206.215 123.401 206.403 124.542 206.93C125.682 207.456 126.608 208.25 127.318 209.314C128.037 210.377 128.5 211.644 128.706 213.115L128.744 213.386C128.951 214.857 128.852 216.185 128.448 217.37C128.052 218.545 127.372 219.501 126.409 220.239C125.454 220.975 124.243 221.417 122.773 221.565ZM122.31 218.262C122.945 218.198 123.433 217.975 123.775 217.593C124.126 217.209 124.348 216.697 124.442 216.056C124.545 215.414 124.538 214.669 124.418 213.821L124.381 213.55C124.265 212.729 124.069 212.021 123.793 211.426C123.524 210.821 123.165 210.363 122.717 210.051C122.269 209.739 121.723 209.616 121.079 209.68C120.444 209.744 119.952 209.972 119.602 210.364C119.252 210.756 119.03 211.273 118.936 211.914C118.841 212.546 118.851 213.273 118.966 214.094L119.004 214.365C119.123 215.213 119.318 215.944 119.588 216.558C119.857 217.163 120.215 217.616 120.662 217.919C121.108 218.213 121.657 218.327 122.31 218.262ZM131.139 213.543L130.672 210.213L138.644 209.412L139.111 212.742L131.139 213.543ZM148.62 218.967C147.495 219.08 146.437 219.008 145.444 218.751C144.452 218.494 143.632 218.059 142.985 217.447C142.346 216.824 141.976 216.024 141.876 215.046L141.878 214.963L146.108 214.538C146.15 214.836 146.265 215.094 146.452 215.313C146.647 215.523 146.908 215.679 147.235 215.784C147.561 215.879 147.937 215.905 148.364 215.863C149.089 215.79 149.588 215.575 149.86 215.218C150.13 214.852 150.231 214.421 150.161 213.924C150.082 213.365 149.856 212.967 149.483 212.729C149.118 212.491 148.596 212.407 147.916 212.475L145.93 212.675L145.563 210.062L147.549 209.862C148.148 209.802 148.569 209.627 148.814 209.337C149.067 209.046 149.16 208.657 149.091 208.169C149.035 207.763 148.854 207.429 148.551 207.166C148.247 206.904 147.764 206.806 147.102 206.873C146.749 206.908 146.443 206.994 146.187 207.129C145.93 207.265 145.739 207.444 145.614 207.667C145.489 207.891 145.447 208.151 145.489 208.449L141.258 208.874L141.22 208.796C141.058 207.906 141.185 207.106 141.6 206.396C142.016 205.686 142.651 205.1 143.506 204.639C144.36 204.169 145.353 203.877 146.487 203.763C148.428 203.568 150.012 203.784 151.24 204.411C152.477 205.028 153.187 205.995 153.372 207.313C153.471 208.017 153.359 208.665 153.038 209.255C152.716 209.846 152.223 210.335 151.56 210.722C153.322 211.149 154.319 212.198 154.554 213.867C154.682 214.779 154.516 215.597 154.056 216.32C153.605 217.034 152.91 217.621 151.972 218.081C151.043 218.541 149.926 218.836 148.62 218.967ZM161.897 217.633C160.446 217.779 159.225 217.503 158.235 216.806C157.253 216.1 156.668 215.074 156.479 213.729C156.287 212.357 156.688 211.182 157.681 210.203C158.674 209.215 160.272 208.611 162.476 208.389L164.231 208.213L164.094 207.238C164.003 206.588 163.737 206.07 163.297 205.684C162.865 205.297 162.264 205.143 161.493 205.22C161.122 205.257 160.788 205.337 160.492 205.458C160.206 205.578 159.947 205.737 159.717 205.934L159.671 207.861L156.569 208.173L155.964 204.252C156.705 203.765 157.51 203.341 158.379 202.979C159.248 202.617 160.235 202.381 161.342 202.27C163.31 202.072 164.928 202.367 166.198 203.155C167.467 203.942 168.219 205.171 168.453 206.841L169.258 212.582C169.287 212.789 169.316 212.992 169.344 213.191C169.379 213.38 169.428 213.562 169.49 213.739L171.075 213.827L171.434 216.386L166.21 216.911C166.072 216.714 165.924 216.482 165.767 216.214C165.61 215.946 165.489 215.675 165.405 215.399C165.022 216.014 164.555 216.519 164.003 216.913C163.451 217.307 162.749 217.547 161.897 217.633ZM162.709 214.38C163.163 214.334 163.589 214.19 163.987 213.949C164.386 213.708 164.692 213.402 164.907 213.033L164.596 210.812L162.868 210.986C162.106 211.063 161.545 211.293 161.185 211.677C160.834 212.06 160.694 212.504 160.765 213.01C160.834 213.497 161.041 213.861 161.387 214.101C161.743 214.339 162.183 214.432 162.709 214.38ZM179.826 215.831C178.339 215.98 177.021 215.797 175.872 215.281C174.732 214.755 173.802 213.96 173.082 212.898C172.371 211.825 171.911 210.548 171.704 209.068L171.666 208.797C171.461 207.335 171.556 206.017 171.952 204.842C172.358 203.666 173.042 202.709 174.005 201.972C174.967 201.225 176.187 200.778 177.666 200.629C179.144 200.48 180.453 200.669 181.594 201.195C182.735 201.721 183.66 202.516 184.37 203.58C185.09 204.643 185.552 205.91 185.759 207.381L185.797 207.652C186.003 209.123 185.904 210.451 185.5 211.636C185.104 212.811 184.424 213.767 183.461 214.504C182.507 215.241 181.295 215.683 179.826 215.831ZM179.362 212.527C179.997 212.463 180.486 212.24 180.827 211.858C181.178 211.475 181.401 210.963 181.495 210.322C181.598 209.68 181.59 208.935 181.471 208.086L181.433 207.816C181.318 206.994 181.122 206.286 180.845 205.692C180.576 205.087 180.218 204.629 179.769 204.317C179.321 204.005 178.775 203.881 178.131 203.946C177.496 204.01 177.004 204.238 176.654 204.63C176.305 205.022 176.083 205.539 175.989 206.18C175.894 206.812 175.904 207.538 176.019 208.36L176.057 208.631C176.176 209.479 176.37 210.21 176.64 210.824C176.909 211.428 177.267 211.882 177.714 212.185C178.16 212.479 178.709 212.593 179.362 212.527ZM196.763 213.84L196.404 211.281L198.44 210.651L198.231 209.162C197.958 209.244 197.673 209.314 197.378 209.371C197.081 209.419 196.796 209.457 196.524 209.484C195.037 209.634 193.743 209.558 192.644 209.256C191.553 208.954 190.672 208.416 190.003 207.641C189.341 206.856 188.921 205.827 188.742 204.555L188.501 202.835L186.363 202.638L186.004 200.079L192.438 199.433L193.975 199.278L194.334 201.837L192.854 202.398L193.095 204.117C193.179 204.713 193.331 205.174 193.551 205.499C193.77 205.816 194.08 206.023 194.48 206.12C194.887 206.207 195.413 206.218 196.057 206.154C196.365 206.123 196.654 206.084 196.924 206.039C197.201 205.984 197.481 205.91 197.762 205.817L197.223 201.972L195.599 201.71L195.238 199.137L203.251 198.332L203.612 200.904L201.576 201.535L202.793 210.213L204.947 210.423L205.306 212.982L196.763 213.84ZM207.374 212.774L207.015 210.215L209.037 209.586L207.82 200.907L205.679 200.697L205.318 198.124L213.317 197.32L213.678 199.893L212.159 200.471L212.554 203.287L216.894 202.851L216.498 200.035L214.902 199.77L214.541 197.197L216.079 197.043L220.432 196.605L222.527 196.395L222.888 198.967L220.851 199.597L222.069 208.276L224.223 208.485L224.582 211.044L216.597 211.847L216.238 209.288L217.716 208.714L217.359 206.168L213.019 206.604L213.376 209.15L215.013 209.411L215.372 211.97L207.374 212.774ZM233.586 210.427C232.099 210.577 230.781 210.394 229.633 209.877C228.492 209.351 227.562 208.557 226.843 207.494C226.131 206.421 225.672 205.145 225.464 203.665L225.426 203.394C225.221 201.932 225.316 200.613 225.713 199.438C226.118 198.263 226.802 197.306 227.766 196.568C228.728 195.822 229.948 195.374 231.426 195.226C232.904 195.077 234.214 195.266 235.354 195.792C236.495 196.318 237.42 197.113 238.131 198.176C238.85 199.239 239.313 200.506 239.519 201.977L239.557 202.248C239.764 203.72 239.665 205.048 239.261 206.232C238.865 207.407 238.185 208.363 237.221 209.101C236.267 209.838 235.055 210.28 233.586 210.427ZM233.123 207.124C233.758 207.06 234.246 206.837 234.588 206.455C234.939 206.072 235.161 205.56 235.255 204.919C235.358 204.277 235.35 203.531 235.231 202.683L235.193 202.412C235.078 201.591 234.882 200.883 234.606 200.288C234.337 199.684 233.978 199.225 233.53 198.913C233.081 198.602 232.535 198.478 231.891 198.543C231.257 198.606 230.764 198.834 230.415 199.227C230.065 199.619 229.843 200.135 229.749 200.776C229.654 201.408 229.664 202.135 229.779 202.956L229.817 203.227C229.936 204.076 230.131 204.807 230.401 205.42C230.669 206.025 231.027 206.479 231.475 206.781C231.92 207.075 232.47 207.189 233.123 207.124ZM249.177 200.512L248.702 197.128L263.448 195.646L263.923 199.03L249.177 200.512ZM274.03 206.074L273.671 203.515L277.04 202.751L275.226 189.821L271.769 190.155L271.427 187.718L279.046 185.579L281.393 202.313L284.88 202.389L285.239 204.948L274.03 206.074ZM293.55 204.401C292.316 204.525 291.147 204.413 290.04 204.067C288.933 203.711 288.012 203.145 287.277 202.367C286.551 201.58 286.121 200.612 285.987 199.463L286.007 199.406L290.188 198.725C290.303 199.546 290.625 200.168 291.153 200.591C291.68 201.005 292.325 201.174 293.086 201.097C293.948 201.01 294.53 200.636 294.833 199.974C295.135 199.312 295.22 198.507 295.087 197.559C294.934 196.467 294.598 195.618 294.081 195.011C293.571 194.394 292.872 194.13 291.984 194.219C291.321 194.286 290.819 194.473 290.476 194.783C290.133 195.092 289.91 195.466 289.806 195.907L285.883 196.068L285.48 184.932L297.165 183.758L297.82 188.429L295.236 188.689L294.678 187.468L289.523 187.986L289.575 192.292C289.796 192.096 290.051 191.915 290.34 191.748C290.639 191.581 290.968 191.438 291.328 191.319C291.689 191.201 292.069 191.121 292.468 191.081C293.752 190.925 294.879 191.063 295.85 191.496C296.82 191.921 297.607 192.61 298.21 193.566C298.812 194.512 299.212 195.689 299.409 197.098C299.584 198.343 299.478 199.493 299.093 200.548C298.717 201.602 298.062 202.473 297.128 203.162C296.203 203.841 295.01 204.254 293.55 204.401ZM308.962 202.851C306.858 203.063 305.095 202.554 303.671 201.324C302.257 200.093 301.366 198.164 300.997 195.537L300.399 191.273C300.031 188.646 300.363 186.594 301.398 185.117C302.431 183.631 303.995 182.783 306.09 182.572C308.167 182.364 309.917 182.879 311.342 184.118C312.765 185.348 313.661 187.276 314.03 189.903L314.628 194.167C314.998 196.803 314.665 198.859 313.631 200.336C312.595 201.804 311.039 202.643 308.962 202.851ZM308.499 199.548C309.297 199.468 309.856 199.064 310.177 198.336C310.507 197.607 310.564 196.471 310.348 194.927L309.654 189.985C309.44 188.46 309.068 187.376 308.536 186.734C308.014 186.091 307.353 185.809 306.555 185.889C305.739 185.971 305.166 186.377 304.836 187.106C304.514 187.825 304.46 188.951 304.676 190.486L305.369 195.428C305.587 196.98 305.957 198.078 306.479 198.721C307 199.355 307.674 199.631 308.499 199.548ZM318.458 201.609L317.942 197.926L322.281 197.49L322.798 201.173L318.458 201.609ZM332.115 200.524C330.011 200.736 328.248 200.227 326.824 198.997C325.41 197.766 324.519 195.837 324.15 193.21L323.552 188.946C323.183 186.319 323.516 184.267 324.551 182.79C325.584 181.304 327.148 180.456 329.243 180.245C331.32 180.037 333.07 180.552 334.495 181.791C335.918 183.021 336.814 184.949 337.182 187.576L337.781 191.84C338.151 194.476 337.818 196.532 336.784 198.009C335.748 199.477 334.192 200.316 332.115 200.524ZM331.652 197.221C332.45 197.141 333.009 196.737 333.33 196.009C333.66 195.28 333.717 194.144 333.5 192.6L332.807 187.658C332.593 186.133 332.22 185.049 331.689 184.407C331.166 183.764 330.506 183.482 329.708 183.562C328.892 183.644 328.319 184.05 327.989 184.779C327.667 185.498 327.613 186.624 327.828 188.159L328.522 193.101C328.739 194.653 329.11 195.751 329.632 196.394C330.153 197.028 330.827 197.304 331.652 197.221ZM348.031 198.925C345.927 199.136 344.164 198.627 342.74 197.397C341.326 196.166 340.435 194.237 340.066 191.611L339.468 187.346C339.099 184.719 339.432 182.667 340.467 181.19C341.5 179.704 343.064 178.856 345.159 178.646C347.235 178.437 348.986 178.952 350.411 180.191C351.834 181.421 352.73 183.349 353.098 185.976L353.697 190.241C354.066 192.876 353.734 194.933 352.7 196.41C351.664 197.878 350.108 198.716 348.031 198.925ZM347.568 195.621C348.366 195.541 348.925 195.137 349.246 194.409C349.576 193.68 349.633 192.544 349.416 191L348.723 186.059C348.509 184.533 348.136 183.449 347.605 182.807C347.082 182.164 346.422 181.882 345.624 181.963C344.808 182.045 344.235 182.45 343.905 183.179C343.582 183.898 343.529 185.025 343.744 186.559L344.438 191.501C344.655 193.053 345.026 194.151 345.548 194.794C346.069 195.428 346.742 195.704 347.568 195.621ZM363.947 197.325C361.843 197.536 360.079 197.027 358.656 195.797C357.242 194.566 356.351 192.638 355.982 190.011L355.384 185.746C355.015 183.119 355.348 181.068 356.383 179.591C357.416 178.105 358.98 177.256 361.075 177.046C363.151 176.837 364.902 177.352 366.327 178.591C367.75 179.821 368.646 181.75 369.014 184.376L369.613 188.641C369.982 191.277 369.65 193.333 368.616 194.81C367.58 196.278 366.024 197.116 363.947 197.325ZM363.484 194.021C364.282 193.941 364.841 193.537 365.162 192.809C365.492 192.08 365.549 190.944 365.332 189.401L364.639 184.459C364.425 182.933 364.052 181.85 363.521 181.207C362.998 180.564 362.338 180.283 361.54 180.363C360.724 180.445 360.151 180.85 359.821 181.579C359.498 182.298 359.445 183.425 359.66 184.959L360.353 189.901C360.571 191.454 360.941 192.551 361.464 193.195C361.985 193.829 362.658 194.104 363.484 194.021ZM380.151 201.12L379.79 198.547L381.608 197.939L379.602 183.641L377.449 183.432L377.088 180.86L383.223 180.243L383.635 181.904C383.965 181.24 384.401 180.711 384.944 180.317C385.485 179.915 386.178 179.672 387.021 179.587C388.191 179.469 389.238 179.689 390.162 180.246C391.096 180.802 391.865 181.635 392.472 182.746C393.086 183.847 393.501 185.164 393.716 186.699L393.756 186.983C393.959 188.427 393.91 189.718 393.61 190.856C393.318 191.993 392.789 192.907 392.021 193.597C391.262 194.278 390.288 194.678 389.1 194.797C388.338 194.873 387.648 194.806 387.029 194.593C386.419 194.371 385.867 194.01 385.374 193.51L385.934 197.504L387.789 197.743L388.149 200.316L380.151 201.12ZM387.344 191.623C388.287 191.528 388.909 191.109 389.209 190.365C389.509 189.621 389.574 188.639 389.403 187.421L389.363 187.136C389.242 186.27 389.044 185.521 388.772 184.889C388.499 184.258 388.143 183.781 387.702 183.459C387.271 183.136 386.742 183.006 386.116 183.069C385.636 183.117 385.225 183.269 384.883 183.523C384.54 183.768 384.285 184.109 384.116 184.547L384.986 190.748C385.264 191.086 385.602 191.332 386 191.484C386.406 191.626 386.854 191.672 387.344 191.623ZM401.289 199.284C400.918 199.321 400.523 199.328 400.106 199.306C399.698 199.283 399.292 199.237 398.887 199.168L398.949 195.976C399.136 195.994 399.321 196.003 399.505 196.003C399.699 196.011 399.882 196.006 400.055 195.989C400.626 195.931 401.106 195.75 401.496 195.446C401.896 195.149 402.142 194.74 402.234 194.218L402.365 193.477L395.838 181.859L393.909 181.778L393.548 179.205L401.846 178.371L402.207 180.944L400.435 181.397L403.457 187.395L403.686 187.852L403.768 187.844L405.37 180.873L403.608 180.803L403.247 178.231L410.892 177.462L411.253 180.035L409.587 180.449L405.987 195.008C405.818 195.702 405.555 196.356 405.2 196.968C404.844 197.581 404.35 198.093 403.718 198.504C403.097 198.923 402.287 199.183 401.289 199.284ZM421.435 191.547C419.957 191.696 418.644 191.521 417.499 191.023C416.362 190.524 415.437 189.77 414.726 188.761C414.023 187.752 413.575 186.557 413.381 185.176L413.119 183.307C412.799 181.023 412.819 179.104 413.18 177.548C413.549 175.982 414.188 174.737 415.098 173.813C416.015 172.879 417.126 172.209 418.43 171.803C419.212 171.605 419.786 171.374 420.154 171.108C420.521 170.842 420.669 170.456 420.599 169.951L423.959 169.613L424.011 169.69C424.165 170.59 424.15 171.338 423.967 171.933C423.793 172.527 423.498 173.014 423.082 173.395C422.666 173.775 422.168 174.091 421.587 174.341C421.014 174.582 420.397 174.809 419.737 175.022C418.854 175.284 418.16 175.61 417.653 176C417.155 176.38 416.799 176.823 416.585 177.329C416.369 177.827 416.257 178.406 416.249 179.066L416.313 179.128C416.745 178.673 417.261 178.287 417.861 177.97C418.469 177.653 419.173 177.454 419.971 177.374C421.304 177.24 422.501 177.412 423.561 177.891C424.622 178.371 425.488 179.103 426.159 180.088C426.83 181.064 427.26 182.229 427.45 183.583L427.489 183.867C427.683 185.248 427.572 186.491 427.157 187.594C426.751 188.697 426.063 189.594 425.093 190.287C424.132 190.978 422.913 191.398 421.435 191.547ZM420.971 188.243C421.606 188.18 422.098 187.979 422.446 187.642C422.802 187.295 423.032 186.842 423.138 186.282C423.242 185.713 423.242 185.054 423.136 184.305L423.097 184.021C422.999 183.326 422.818 182.721 422.553 182.208C422.296 181.694 421.948 181.308 421.507 181.05C421.074 180.782 420.536 180.681 419.892 180.745C419.266 180.808 418.775 181.013 418.419 181.36C418.062 181.698 417.83 182.143 417.723 182.693C417.617 183.244 417.612 183.867 417.71 184.562L417.734 184.738C417.841 185.496 418.024 186.15 418.286 186.701C418.547 187.251 418.899 187.664 419.342 187.94C419.784 188.207 420.327 188.308 420.971 188.243ZM428.992 192.215L434.137 169.991L438.205 169.582L433.059 191.807L428.992 192.215ZM440.657 189.327L440.298 186.768L442.307 186.14L441.09 177.461L438.963 177.25L438.602 174.677L451.756 173.355L452.537 178.92L449.83 179.192L449.353 176.974L445.49 177.362L446.66 185.703L448.8 185.913L449.159 188.472L440.657 189.327ZM462.53 187.416C461.043 187.566 459.725 187.383 458.577 186.866C457.436 186.34 456.506 185.546 455.787 184.483C455.075 183.411 454.616 182.134 454.408 180.654L454.37 180.383C454.165 178.921 454.261 177.602 454.657 176.427C455.062 175.252 455.746 174.295 456.71 173.557C457.672 172.811 458.892 172.363 460.37 172.215C461.848 172.066 463.158 172.255 464.298 172.781C465.439 173.307 466.365 174.102 467.075 175.165C467.794 176.228 468.257 177.495 468.463 178.966L468.501 179.237C468.708 180.709 468.609 182.037 468.205 183.221C467.809 184.396 467.129 185.352 466.166 186.09C465.211 186.827 464 187.269 462.53 187.416ZM462.067 184.113C462.702 184.049 463.19 183.826 463.532 183.444C463.883 183.061 464.105 182.549 464.199 181.908C464.302 181.266 464.294 180.521 464.175 179.672L464.137 179.401C464.022 178.58 463.826 177.872 463.55 177.277C463.281 176.673 462.922 176.214 462.474 175.902C462.026 175.591 461.479 175.467 460.836 175.532C460.201 175.595 459.708 175.823 459.359 176.216C459.009 176.608 458.787 177.124 458.693 177.765C458.598 178.397 458.608 179.124 458.723 179.945L458.761 180.216C458.88 181.065 459.075 181.796 459.345 182.409C459.614 183.014 459.972 183.468 460.419 183.771C460.865 184.064 461.414 184.179 462.067 184.113ZM470.714 190.782L469.313 183.055L470.632 182.922C471.02 182.408 471.328 181.914 471.556 181.443C471.793 180.971 471.959 180.482 472.054 179.979C472.148 179.466 472.188 178.903 472.176 178.291C472.164 177.679 472.106 176.971 472.002 176.167L471.779 174.377L469.652 174.165L469.291 171.593L482.595 170.255L484.704 170.043L485.065 172.616L483.015 173.248L484.187 181.601L486.377 181.381L487.188 189.126L483.107 189.536L482.487 185.122L474.189 185.956L474.809 190.37L470.714 190.782ZM475.599 182.437L479.884 182.006L478.771 174.072L476.173 174.333L476.342 175.731C476.52 177.132 476.535 178.389 476.388 179.502C476.241 180.615 475.978 181.593 475.599 182.437Z" fill="white"/>
<path d="M103.901 174.347C102.416 174.516 101.09 174.351 99.9241 173.852C98.7654 173.343 97.8094 172.563 97.0562 171.513C96.3105 170.453 95.8109 169.187 95.5573 167.714L95.5109 167.444C95.2604 165.989 95.3156 164.673 95.6763 163.496C96.046 162.318 96.702 161.355 97.6443 160.607C98.585 159.85 99.7934 159.387 101.27 159.219C102.746 159.051 104.063 159.221 105.222 159.73C106.381 160.239 107.332 161.019 108.076 162.07C108.829 163.12 109.332 164.377 109.584 165.841L109.63 166.111C109.882 167.575 109.824 168.9 109.456 170.087C109.095 171.264 108.444 172.227 107.502 172.975C106.568 173.722 105.368 174.18 103.901 174.347ZM103.335 171.059C103.969 170.987 104.452 170.758 104.782 170.372C105.122 169.985 105.329 169.472 105.403 168.832C105.487 168.19 105.456 167.447 105.311 166.603L105.264 166.333C105.124 165.516 104.906 164.813 104.61 164.223C104.322 163.624 103.949 163.172 103.49 162.867C103.032 162.562 102.481 162.447 101.838 162.52C101.204 162.592 100.718 162.826 100.38 163.222C100.041 163.617 99.8352 164.135 99.7607 164.776C99.6848 165.407 99.7171 166.132 99.8578 166.949L99.9042 167.219C100.05 168.063 100.267 168.789 100.556 169.397C100.844 169.996 101.217 170.444 101.674 170.74C102.129 171.027 102.683 171.133 103.335 171.059ZM120.805 172.133L120.367 169.586L122.387 168.93L122.132 167.448C121.861 167.534 121.578 167.608 121.284 167.669C120.988 167.721 120.704 167.762 120.432 167.793C118.947 167.962 117.649 167.904 116.538 167.618C115.436 167.332 114.538 166.807 113.843 166.043C113.156 165.27 112.703 164.25 112.485 162.983L112.191 161.272L110.043 161.104L109.605 158.558L116.03 157.826L117.565 157.651L118.003 160.198L116.538 160.777L116.832 162.488C116.934 163.081 117.101 163.538 117.332 163.86C117.561 164.173 117.877 164.375 118.281 164.466C118.692 164.548 119.219 164.552 119.862 164.479C120.17 164.443 120.458 164.401 120.727 164.353C121.003 164.294 121.28 164.216 121.559 164.12L120.901 160.294L119.266 160.054L118.826 157.494L126.827 156.583L127.267 159.143L125.247 159.799L126.734 168.435L128.898 168.615L129.336 171.161L120.805 172.133ZM131.401 170.926L130.963 168.38L132.969 167.725L131.483 159.089L129.332 158.908L128.892 156.348L136.879 155.438L137.32 157.998L135.816 158.595L136.298 161.398L140.632 160.904L140.149 158.102L138.542 157.859L138.102 155.299L139.637 155.124L143.983 154.629L146.075 154.391L146.516 156.951L144.496 157.607L145.983 166.243L148.147 166.423L148.585 168.969L140.611 169.877L140.173 167.331L141.636 166.738L141.2 164.205L136.866 164.699L137.302 167.232L138.95 167.47L139.388 170.017L131.401 170.926ZM157.585 168.233C156.1 168.402 154.775 168.237 153.608 167.738C152.45 167.229 151.494 166.449 150.74 165.399C149.995 164.339 149.495 163.073 149.242 161.6L149.195 161.33C148.945 159.875 149 158.559 149.36 157.382C149.73 156.205 150.386 155.241 151.328 154.493C152.269 153.736 153.478 153.273 154.954 153.105C156.43 152.937 157.747 153.107 158.906 153.616C160.065 154.125 161.016 154.905 161.76 155.956C162.514 157.006 163.016 158.263 163.268 159.727L163.315 159.997C163.567 161.461 163.509 162.786 163.14 163.973C162.78 165.15 162.128 166.113 161.186 166.861C160.253 167.608 159.053 168.066 157.585 168.233ZM157.02 164.945C157.653 164.873 158.136 164.644 158.466 164.258C158.806 163.872 159.013 163.358 159.088 162.718C159.171 162.076 159.14 161.333 158.995 160.489L158.949 160.219C158.808 159.402 158.59 158.699 158.294 158.11C158.007 157.51 157.633 157.058 157.175 156.753C156.716 156.448 156.165 156.333 155.522 156.406C154.888 156.478 154.402 156.712 154.064 157.108C153.726 157.503 153.519 158.021 153.445 158.662C153.369 159.293 153.401 160.018 153.542 160.835L153.588 161.105C153.734 161.949 153.951 162.675 154.24 163.283C154.528 163.882 154.901 164.33 155.358 164.626C155.814 164.913 156.368 165.019 157.02 164.945ZM172.897 158.136L172.318 154.768L187.043 153.091L187.622 156.459L172.897 158.136ZM198.275 163.31L197.795 160.521L203.031 153.042C203.528 152.28 203.909 151.623 204.174 151.071C204.438 150.51 204.609 150.005 204.689 149.556C204.769 149.107 204.773 148.676 204.702 148.263C204.581 147.563 204.28 146.993 203.798 146.553C203.324 146.103 202.697 145.923 201.918 146.011C201.085 146.106 200.504 146.456 200.174 147.062C199.853 147.666 199.776 148.453 199.943 149.423L195.705 149.906L195.664 149.828C195.43 148.628 195.501 147.516 195.879 146.493C196.266 145.469 196.927 144.615 197.862 143.932C198.797 143.248 199.967 142.827 201.37 142.667C202.765 142.508 203.997 142.615 205.068 142.987C206.148 143.359 207.03 143.95 207.714 144.761C208.407 145.57 208.854 146.554 209.053 147.713C209.189 148.503 209.176 149.26 209.015 149.984C208.851 150.699 208.528 151.477 208.046 152.32C207.57 153.152 206.924 154.146 206.107 155.302L203.297 159.331L203.336 159.395L207.886 158.877L207.786 157.089L211.101 156.711L211.968 161.751L198.275 163.31ZM219.583 161.172C218.895 161.25 218.172 161.259 217.413 161.199C216.657 161.148 215.943 161.023 215.271 160.825L215.2 157.673C215.804 157.806 216.42 157.896 217.047 157.944C217.681 157.981 218.266 157.97 218.8 157.909C219.914 157.782 220.725 157.319 221.234 156.519C221.751 155.718 221.886 154.567 221.637 153.066L221.56 152.704C221.185 153.315 220.714 153.794 220.146 154.143C219.587 154.49 218.946 154.705 218.221 154.788C217.089 154.917 216.042 154.761 215.08 154.321C214.125 153.871 213.321 153.171 212.668 152.219C212.013 151.259 211.566 150.083 211.327 148.69C211.099 147.37 211.185 146.151 211.584 145.034C211.981 143.908 212.638 142.977 213.554 142.241C214.479 141.494 215.597 141.046 216.91 140.897C218.251 140.744 219.492 140.928 220.634 141.448C221.775 141.959 222.738 142.779 223.523 143.908C224.307 145.028 224.841 146.418 225.127 148.08L225.897 152.553C226.171 154.143 226.077 155.555 225.615 156.789C225.163 158.022 224.416 159.019 223.374 159.779C222.332 160.538 221.068 161.003 219.583 161.172ZM218.802 151.562C219.291 151.506 219.735 151.355 220.136 151.108C220.537 150.861 220.848 150.55 221.07 150.177L220.706 148.062C220.472 146.705 220.065 145.703 219.482 145.055C218.898 144.398 218.235 144.112 217.492 144.196C216.994 144.253 216.589 144.473 216.276 144.857C215.973 145.24 215.766 145.726 215.655 146.315C215.551 146.895 215.558 147.522 215.674 148.195C215.8 148.932 216.001 149.564 216.277 150.091C216.552 150.618 216.897 151.014 217.312 151.278C217.735 151.532 218.231 151.627 218.802 151.562ZM235.83 159.322C234.598 159.462 233.423 159.367 232.304 159.036C231.184 158.697 230.244 158.144 229.484 157.379C228.732 156.604 228.272 155.644 228.102 154.5L228.12 154.443L232.287 153.708C232.428 154.525 232.769 155.141 233.312 155.556C233.852 155.961 234.503 156.121 235.264 156.034C236.124 155.936 236.696 155.555 236.978 154.891C237.261 154.227 237.321 153.423 237.159 152.48C236.972 151.393 236.61 150.55 236.073 149.952C235.543 149.344 234.835 149.09 233.947 149.191C233.286 149.267 232.789 149.461 232.455 149.773C232.121 150.086 231.909 150.463 231.818 150.904L227.894 151.117L227.147 140.02L238.816 138.691L239.616 143.339L237.035 143.633L236.439 142.423L231.291 143.01L231.475 147.302C231.691 147.104 231.941 146.92 232.225 146.75C232.519 146.579 232.845 146.432 233.202 146.309C233.559 146.186 233.937 146.101 234.336 146.056C235.617 145.883 236.751 146.005 237.737 146.424C238.722 146.834 239.531 147.511 240.164 148.456C240.796 149.391 241.233 150.56 241.474 151.961C241.687 153.201 241.617 154.349 241.264 155.406C240.919 156.461 240.29 157.339 239.376 158.038C238.47 158.728 237.288 159.156 235.83 159.322ZM244.801 158.011L244.17 154.347L248.503 153.853L249.134 157.518L244.801 158.011ZM258.447 156.746C256.346 156.985 254.564 156.501 253.1 155.294C251.646 154.086 250.694 152.175 250.244 149.561L249.513 145.317C249.063 142.703 249.334 140.653 250.324 139.166C251.313 137.67 252.854 136.803 254.946 136.565C257.02 136.329 258.789 136.819 260.254 138.035C261.718 139.242 262.674 141.153 263.124 143.767L263.855 148.011C264.306 150.634 264.037 152.688 263.046 154.175C262.054 155.653 260.521 156.51 258.447 156.746ZM257.881 153.458C258.678 153.367 259.226 152.957 259.525 152.227C259.833 151.496 259.855 150.362 259.591 148.826L258.744 143.908C258.483 142.39 258.076 141.315 257.524 140.681C256.981 140.047 256.311 139.775 255.514 139.866C254.699 139.959 254.137 140.371 253.829 141.102C253.529 141.823 253.51 142.947 253.773 144.474L254.619 149.392C254.885 150.937 255.29 152.027 255.833 152.661C256.374 153.286 257.057 153.552 257.881 153.458ZM274.34 154.936C272.239 155.175 270.457 154.691 268.994 153.484C267.539 152.276 266.587 150.365 266.137 147.751L265.406 143.507C264.957 140.893 265.227 138.842 266.218 137.356C267.207 135.86 268.747 134.993 270.839 134.755C272.913 134.519 274.682 135.009 276.147 136.225C277.611 137.432 278.568 139.343 279.018 141.956L279.748 146.201C280.2 148.824 279.93 150.878 278.94 152.365C277.947 153.843 276.414 154.699 274.34 154.936ZM273.775 151.648C274.572 151.557 275.12 151.147 275.419 150.417C275.727 149.686 275.749 148.552 275.484 147.016L274.638 142.098C274.376 140.58 273.97 139.505 273.417 138.871C272.874 138.237 272.204 137.965 271.407 138.056C270.592 138.149 270.031 138.561 269.723 139.292C269.422 140.013 269.403 141.137 269.666 142.664L270.512 147.582C270.778 149.127 271.183 150.217 271.726 150.851C272.268 151.476 272.95 151.742 273.775 151.648ZM290.234 153.126C288.133 153.365 286.351 152.881 284.887 151.674C283.433 150.466 282.48 148.555 282.03 145.941L281.3 141.697C280.85 139.083 281.12 137.032 282.111 135.546C283.1 134.05 284.64 133.183 286.732 132.945C288.806 132.709 290.576 133.199 292.041 134.415C293.504 135.622 294.461 137.533 294.911 140.146L295.642 144.391C296.093 147.014 295.824 149.068 294.833 150.555C293.841 152.033 292.308 152.889 290.234 153.126ZM289.668 149.838C290.465 149.747 291.013 149.337 291.312 148.607C291.62 147.876 291.642 146.742 291.378 145.206L290.531 140.288C290.27 138.77 289.863 137.694 289.311 137.061C288.768 136.427 288.098 136.155 287.301 136.246C286.486 136.339 285.924 136.751 285.616 137.482C285.315 138.203 285.296 139.327 285.559 140.854L286.406 145.772C286.672 147.317 287.076 148.407 287.619 149.041C288.161 149.666 288.844 149.932 289.668 149.838ZM306.581 156.69L306.141 154.13L307.943 153.499L305.494 139.271L303.331 139.091L302.89 136.531L309.016 135.834L309.48 137.484C309.79 136.817 310.211 136.284 310.742 135.884C311.272 135.476 311.958 135.224 312.801 135.128C313.969 134.995 315.024 135.2 315.967 135.743C316.919 136.284 317.716 137.105 318.358 138.204C319.007 139.293 319.463 140.602 319.726 142.129L319.775 142.412C320.022 143.849 320.013 145.137 319.747 146.275C319.49 147.412 318.988 148.331 318.241 149.029C317.5 149.718 316.537 150.13 315.351 150.265C314.59 150.352 313.897 150.293 313.271 150.09C312.652 149.876 312.088 149.524 311.579 149.032L312.263 153.007L314.128 153.221L314.569 155.781L306.581 156.69ZM313.494 147.124C314.436 147.017 315.046 146.591 315.324 145.845C315.602 145.099 315.636 144.119 315.428 142.907L315.379 142.624C315.23 141.761 315.01 141.017 314.718 140.391C314.425 139.765 314.053 139.294 313.602 138.979C313.16 138.663 312.626 138.541 312.001 138.612C311.521 138.667 311.114 138.823 310.78 139.081C310.444 139.33 310.199 139.674 310.044 140.113L311.106 146.284C311.394 146.617 311.74 146.857 312.144 147.004C312.555 147.14 313.005 147.18 313.494 147.124ZM327.699 154.574C327.328 154.616 326.933 154.629 326.515 154.612C326.105 154.595 325.697 154.554 325.289 154.491L325.253 151.308C325.441 151.323 325.626 151.33 325.811 151.327C326.005 151.332 326.189 151.325 326.361 151.305C326.931 151.24 327.407 151.053 327.788 150.744C328.179 150.443 328.413 150.032 328.49 149.511L328.598 148.77L321.702 137.274L319.767 137.219L319.327 134.659L327.613 133.716L328.054 136.276L326.293 136.751L329.504 142.691L329.748 143.144L329.83 143.135L331.22 136.162L329.453 136.116L329.012 133.556L336.646 132.687L337.087 135.247L335.431 135.683L332.273 150.247C332.125 150.942 331.882 151.597 331.545 152.212C331.207 152.828 330.728 153.345 330.108 153.764C329.498 154.19 328.695 154.46 327.699 154.574ZM347.64 146.588C346.164 146.756 344.844 146.599 343.681 146.118C342.527 145.636 341.578 144.897 340.834 143.901C340.099 142.904 339.614 141.718 339.377 140.344L339.057 138.485C338.666 136.212 338.627 134.298 338.941 132.742C339.262 131.175 339.864 129.925 340.747 128.992C341.637 128.048 342.729 127.365 344.023 126.942C344.8 126.735 345.368 126.496 345.728 126.226C346.088 125.956 346.224 125.57 346.138 125.067L349.493 124.685L349.548 124.761C349.73 125.656 349.738 126.401 349.573 126.997C349.416 127.592 349.136 128.082 348.731 128.467C348.327 128.852 347.837 129.173 347.263 129.431C346.696 129.679 346.086 129.913 345.431 130.134C344.555 130.408 343.869 130.742 343.374 131.138C342.886 131.523 342.543 131.97 342.344 132.478C342.144 132.977 342.05 133.555 342.061 134.213L342.127 134.275C342.547 133.815 343.052 133.423 343.642 133.099C344.242 132.774 344.94 132.567 345.737 132.476C347.069 132.324 348.273 132.48 349.35 132.944C350.427 133.407 351.317 134.125 352.02 135.099C352.721 136.063 353.188 137.219 353.42 138.566L353.469 138.849C353.705 140.223 353.632 141.463 353.25 142.569C352.877 143.674 352.216 144.578 351.266 145.282C350.325 145.984 349.116 146.42 347.64 146.588ZM347.074 143.3C347.708 143.228 348.194 143.021 348.533 142.681C348.879 142.33 349.096 141.875 349.184 141.315C349.271 140.747 349.25 140.09 349.122 139.344L349.073 139.061C348.954 138.369 348.754 137.769 348.472 137.261C348.2 136.752 347.839 136.372 347.39 136.121C346.948 135.859 346.405 135.766 345.762 135.839C345.137 135.91 344.652 136.121 344.306 136.472C343.959 136.814 343.74 137.26 343.65 137.81C343.56 138.361 343.575 138.982 343.694 139.674L343.724 139.849C343.854 140.603 344.058 141.253 344.337 141.799C344.615 142.344 344.981 142.751 345.433 143.02C345.884 143.28 346.431 143.373 347.074 143.3ZM355.23 147.152L359.7 124.923L363.762 124.461L359.292 146.689L355.23 147.152ZM366.826 144.114L366.388 141.568L368.381 140.915L366.894 132.278L364.758 132.096L364.317 129.536L377.453 128.04L378.406 133.577L375.703 133.885L375.157 131.681L371.299 132.12L372.728 140.42L374.878 140.601L375.316 143.147L366.826 144.114ZM388.678 141.914C387.192 142.083 385.867 141.918 384.7 141.419C383.542 140.91 382.586 140.13 381.833 139.081C381.087 138.021 380.587 136.754 380.334 135.281L380.287 135.012C380.037 133.556 380.092 132.24 380.453 131.064C380.822 129.886 381.478 128.923 382.421 128.174C383.361 127.417 384.57 126.954 386.046 126.786C387.522 126.618 388.839 126.789 389.998 127.298C391.157 127.807 392.108 128.587 392.852 129.638C393.606 130.688 394.108 131.945 394.36 133.409L394.407 133.678C394.659 135.142 394.601 136.468 394.232 137.655C393.872 138.831 393.22 139.794 392.278 140.542C391.345 141.29 390.145 141.747 388.678 141.914ZM388.112 138.626C388.746 138.554 389.228 138.325 389.559 137.94C389.898 137.553 390.105 137.039 390.18 136.399C390.263 135.758 390.232 135.015 390.087 134.17L390.041 133.901C389.9 133.083 389.682 132.38 389.387 131.791C389.099 131.192 388.725 130.74 388.267 130.435C387.808 130.13 387.257 130.014 386.614 130.087C385.98 130.159 385.494 130.393 385.156 130.789C384.818 131.185 384.611 131.703 384.537 132.343C384.461 132.975 384.493 133.699 384.634 134.517L384.681 134.786C384.826 135.63 385.043 136.357 385.333 136.965C385.62 137.564 385.993 138.011 386.45 138.307C386.906 138.594 387.46 138.701 388.112 138.626ZM396.978 145.159L395.337 137.474L396.655 137.324C397.027 136.805 397.32 136.309 397.534 135.836C397.757 135.362 397.909 134.873 397.988 134.369C398.066 133.857 398.09 133.295 398.058 132.685C398.027 132.075 397.947 131.37 397.819 130.57L397.54 128.788L395.403 128.605L394.963 126.045L408.248 124.532L410.353 124.293L410.794 126.853L408.76 127.51L410.191 135.823L412.378 135.574L413.429 143.285L409.353 143.749L408.597 139.357L400.311 140.301L401.067 144.693L396.978 145.159ZM401.615 136.773L405.894 136.285L404.535 128.39L401.941 128.685L402.152 130.076C402.374 131.47 402.428 132.724 402.315 133.836C402.201 134.947 401.968 135.926 401.615 136.773Z" fill="white"/>
<path d="M52.4955 112.733L52.3143 110.375L54.3857 109.858L54.305 108.809L54.1412 108.817C52.4936 108.901 51.0193 108.685 49.7185 108.167C48.4176 107.649 47.371 106.873 46.5786 105.837C45.7855 104.791 45.3328 103.537 45.2204 102.074C45.1052 100.575 45.36 99.2523 45.9848 98.1074C46.6188 96.962 47.5359 96.053 48.7362 95.3805C49.9449 94.6984 51.3731 94.3153 53.0206 94.2312L53.1845 94.2228L53.1018 93.1459L50.9676 92.8443L50.7865 90.486L59.3339 90.0498L59.5151 92.4081L57.4574 92.9236L57.5402 94.0006L57.6357 93.9957C59.2833 93.9116 60.7586 94.1419 62.0616 94.6867C63.3645 95.2315 64.4136 96.0401 65.2088 97.1126C66.0124 98.1755 66.4718 99.4567 66.5869 100.956C66.6993 102.419 66.4375 103.71 65.8015 104.828C65.1746 105.946 64.2511 106.832 63.0312 107.488C61.8197 108.133 60.3947 108.498 58.7563 108.582L58.6607 108.586L58.7413 109.636L60.8618 109.938L61.043 112.297L52.4955 112.733ZM53.9171 105.9L54.0809 105.892L53.4128 97.1946L53.2489 97.2029C52.4297 97.2447 51.728 97.4493 51.144 97.8167C50.5599 98.1841 50.1204 98.7083 49.8255 99.3894C49.5299 100.061 49.4194 100.884 49.4941 101.856C49.566 102.792 49.7994 103.569 50.1941 104.188C50.5882 104.797 51.1024 105.245 51.7367 105.532C52.371 105.819 53.0978 105.942 53.9171 105.9ZM58.4366 105.669L58.5595 105.663C59.3787 105.621 60.0811 105.426 60.6665 105.077C61.2604 104.718 61.7012 104.212 61.9892 103.558C62.2764 102.896 62.3844 102.101 62.3132 101.174C62.2378 100.193 62.0066 99.3835 61.6195 98.7464C61.2317 98.1002 60.7155 97.6247 60.0706 97.3201C59.4349 97.0149 58.7074 96.8833 57.8882 96.9251L57.7684 96.9723L58.4366 105.669ZM75.8558 110.624C74.3629 110.7 73.0599 110.452 71.9467 109.879C70.8419 109.297 69.9641 108.457 69.3131 107.359C68.6706 106.251 68.2921 104.952 68.1776 103.462L68.1566 103.189C68.0435 101.717 68.2213 100.403 68.69 99.2477C69.1678 98.092 69.9103 97.1692 70.9173 96.4791C71.9237 95.78 73.1687 95.3926 74.6525 95.3169C76.1362 95.2411 77.4305 95.4944 78.5353 96.0767C79.64 96.6589 80.5134 97.4993 81.1552 98.5979C81.8061 99.6959 82.1885 100.986 82.3023 102.467L82.3232 102.74C82.437 104.221 82.2554 105.544 81.7783 106.709C81.3096 107.864 80.5717 108.787 79.5647 109.477C78.5667 110.166 77.3304 110.549 75.8558 110.624ZM75.6003 107.298C76.2375 107.265 76.7385 107.066 77.1034 106.701C77.4774 106.335 77.7313 105.834 77.8652 105.198C78.0082 104.561 78.0469 103.815 77.9812 102.961L77.9603 102.689C77.8968 101.862 77.7457 101.144 77.507 100.536C77.2768 99.918 76.9478 99.4421 76.5201 99.1081C76.0923 98.7741 75.5553 98.6236 74.909 98.6566C74.2718 98.6891 73.7666 98.8928 73.3933 99.2677C73.02 99.6426 72.7664 100.148 72.6325 100.785C72.498 101.412 72.4624 102.139 72.526 102.966L72.5469 103.239C72.6125 104.093 72.7608 104.833 72.9917 105.46C73.222 106.078 73.5506 106.549 73.9776 106.874C74.404 107.19 74.9449 107.331 75.6003 107.298ZM84.7759 115.574L84.577 112.984L86.4288 112.465L85.3229 98.0704L83.1877 97.7551L82.9888 95.1651L89.1468 94.8508L89.4541 96.5321C89.8247 95.8837 90.2929 95.3762 90.8587 95.0098C91.4239 94.6343 92.1297 94.4249 92.9763 94.3817C94.1505 94.3218 95.1812 94.593 96.0682 95.1955C96.9643 95.7976 97.6801 96.6688 98.2155 97.8093C98.7593 98.9402 99.0905 100.278 99.2092 101.823L99.2312 102.109C99.3429 103.563 99.2134 104.852 98.8427 105.975C98.4812 107.097 97.896 107.985 97.0871 108.637C96.2866 109.28 95.2901 109.632 94.0977 109.693C93.333 109.732 92.649 109.63 92.0454 109.387C91.4503 109.135 90.9225 108.746 90.4619 108.223L90.7708 112.244L92.6056 112.574L92.8046 115.165L84.7759 115.574ZM92.545 106.433C93.4917 106.385 94.1381 105.996 94.4841 105.267C94.8302 104.537 94.9561 103.559 94.8619 102.332L94.8399 102.046C94.7728 101.174 94.6232 100.415 94.3909 99.7699C94.1585 99.1248 93.8327 98.6306 93.4134 98.287C93.0031 97.943 92.484 97.7871 91.8559 97.8191C91.3734 97.8437 90.954 97.9746 90.5975 98.2118C90.2404 98.4398 89.9641 98.7687 89.7686 99.1984L90.2482 105.442C90.5037 105.794 90.8254 106.055 91.2133 106.227C91.6095 106.389 92.0535 106.458 92.545 106.433ZM101.353 109.035L101.155 106.459L103.226 105.929L102.554 97.191L100.419 96.8757L100.22 94.2857L102.323 94.1784L107.675 93.9052L111.895 103.516L111.977 103.512L114.735 93.545L120.21 93.2655L122.285 93.1596L122.484 95.7496L120.441 96.2781L121.113 105.016L123.22 105.333L123.418 107.909L115.676 108.304L115.479 105.728L116.743 105.239L116.332 99.8818L116.25 99.886L113.779 108.401L110.87 108.55L107.273 100.618L107.192 100.636L107.581 105.707L108.925 106.062L109.123 108.639L101.353 109.035ZM130.226 107.849C128.77 107.923 127.57 107.588 126.626 106.842C125.691 106.087 125.171 105.032 125.067 103.678C124.961 102.297 125.434 101.142 126.487 100.212C127.539 99.2733 129.171 98.7476 131.383 98.6347L133.144 98.5448L133.069 97.5633C133.019 96.909 132.786 96.378 132.371 95.9704C131.965 95.5623 131.375 95.378 130.601 95.4175C130.228 95.4366 129.89 95.4994 129.587 95.6061C129.294 95.7123 129.027 95.8582 128.785 96.0439L128.618 97.9684L125.504 98.1273L125.146 94.1768C125.916 93.727 126.745 93.3426 127.634 93.0235C128.524 92.7044 129.524 92.5165 130.634 92.4598C132.61 92.359 134.206 92.7337 135.422 93.584C136.639 94.4342 137.312 95.7 137.441 97.3812L137.885 103.161C137.901 103.37 137.917 103.575 137.932 103.774C137.956 103.965 137.993 104.15 138.044 104.33L139.619 104.496L139.817 107.072L134.574 107.34C134.448 107.136 134.316 106.897 134.176 106.621C134.036 106.345 133.932 106.068 133.865 105.788C133.445 106.385 132.947 106.866 132.372 107.233C131.797 107.6 131.082 107.805 130.226 107.849ZM131.241 104.636C131.696 104.613 132.13 104.49 132.542 104.269C132.955 104.047 133.28 103.756 133.517 103.398L133.345 101.162L131.611 101.251C130.847 101.29 130.273 101.492 129.89 101.858C129.516 102.224 129.348 102.662 129.387 103.171C129.425 103.661 129.609 104.035 129.939 104.292C130.279 104.548 130.713 104.663 131.241 104.636ZM155.05 106.582C153.557 106.658 152.254 106.41 151.141 105.837C150.036 105.255 149.158 104.415 148.507 103.317C147.864 102.209 147.486 100.91 147.371 99.4199L147.35 99.1472C147.237 97.675 147.415 96.3613 147.884 95.206C148.362 94.0504 149.104 93.1275 150.111 92.4375C151.117 91.7383 152.363 91.3509 153.846 91.2752C155.33 91.1995 156.624 91.4527 157.729 92.035C158.834 92.6173 159.707 93.4577 160.349 94.5562C161 95.6543 161.382 96.944 161.496 98.4253L161.517 98.6979C161.631 100.179 161.449 101.502 160.972 102.667C160.503 103.822 159.766 104.745 158.758 105.435C157.761 106.125 156.524 106.507 155.05 106.582ZM154.794 103.256C155.431 103.224 155.932 103.025 156.297 102.659C156.671 102.294 156.925 101.792 157.059 101.156C157.202 100.519 157.241 99.7738 157.175 98.9195L157.154 98.6469C157.091 97.8199 156.939 97.1023 156.701 96.4941C156.471 95.8763 156.142 95.4004 155.714 95.0665C155.286 94.7325 154.749 94.582 154.103 94.615C153.466 94.6475 152.96 94.8512 152.587 95.226C152.214 95.6009 151.96 96.1065 151.826 96.7429C151.692 97.3701 151.656 98.0972 151.72 98.9242L151.741 99.1969C151.806 100.051 151.955 100.792 152.186 101.419C152.416 102.036 152.744 102.508 153.171 102.833C153.598 103.148 154.139 103.29 154.794 103.256ZM170.984 105.769C169.5 105.845 168.202 105.605 167.091 105.051C165.988 104.496 165.113 103.697 164.466 102.653C163.829 101.609 163.457 100.392 163.35 99.0013L163.205 97.1201C163.029 94.8209 163.169 92.9024 163.627 91.3645C164.093 89.8171 164.808 88.6037 165.773 87.7242C166.747 86.8351 167.897 86.2199 169.223 85.8785C170.015 85.7195 170.602 85.5162 170.985 85.2686C171.368 85.0209 171.54 84.6426 171.501 84.1337L174.874 83.9616L174.921 84.0413C175.018 84.9487 174.957 85.6954 174.737 86.2814C174.526 86.8669 174.201 87.3397 173.763 87.6996C173.325 88.0596 172.808 88.3505 172.212 88.5725C171.626 88.7849 170.996 88.9812 170.325 89.1615C169.428 89.3806 168.715 89.6725 168.185 90.037C167.664 90.3921 167.281 90.8176 167.036 91.3137C166.79 91.8006 166.642 92.3738 166.592 93.0333L166.652 93.0987C167.112 92.6646 167.651 92.3041 168.269 92.0171C168.896 91.7297 169.61 91.5655 170.411 91.5246C171.749 91.4564 172.932 91.6879 173.959 92.2194C174.987 92.7508 175.805 93.5256 176.413 94.5438C177.021 95.5528 177.377 96.739 177.482 98.1021L177.504 98.3884C177.611 99.7788 177.422 101.016 176.939 102.099C176.465 103.181 175.722 104.045 174.712 104.689C173.71 105.333 172.468 105.693 170.984 105.769ZM170.728 102.443C171.366 102.41 171.868 102.234 172.237 101.914C172.614 101.585 172.872 101.143 173.012 100.588C173.152 100.025 173.192 99.3657 173.134 98.6114L173.112 98.3251C173.059 97.6254 172.916 97.0123 172.683 96.4858C172.46 95.959 172.137 95.5558 171.713 95.2763C171.298 94.9873 170.767 94.8593 170.121 94.8923C169.493 94.9243 168.99 95.1051 168.614 95.4345C168.236 95.7548 167.977 96.1878 167.836 96.7332C167.695 97.2787 167.652 97.9013 167.705 98.6011L167.719 98.7783C167.778 99.5417 167.92 100.205 168.146 100.768C168.372 101.331 168.698 101.762 169.123 102.06C169.547 102.348 170.082 102.476 170.728 102.443ZM184.377 110.778C184.004 110.798 183.61 110.786 183.196 110.743C182.79 110.7 182.388 110.634 181.988 110.545L182.25 107.356C182.435 107.383 182.619 107.401 182.803 107.41C182.996 107.428 183.179 107.432 183.352 107.423C183.925 107.394 184.416 107.237 184.824 106.951C185.241 106.674 185.512 106.277 185.637 105.76L185.813 105.026L180.03 93.0865L178.111 92.9107L177.912 90.3207L186.241 89.8956L186.44 92.4856L184.645 92.851L187.283 98.9978L187.484 99.4666L187.565 99.4624L189.599 92.5707L187.846 92.4139L187.647 89.8238L195.321 89.4322L195.52 92.0223L193.832 92.3547L189.33 106.735C189.118 107.421 188.815 108.061 188.423 108.656C188.03 109.251 187.505 109.738 186.849 110.119C186.202 110.507 185.379 110.727 184.377 110.778ZM206.039 103.693L205.841 101.116L207.912 100.586L207.796 99.0868C207.518 99.1557 207.23 99.2115 206.932 99.2541C206.633 99.2876 206.347 99.3113 206.074 99.3252C204.581 99.4014 203.296 99.2617 202.217 98.9062C201.148 98.5502 200.304 97.9684 199.684 97.1606C199.073 96.3433 198.719 95.294 198.62 94.0126L198.487 92.2814L196.367 91.979L196.169 89.4027L202.627 89.073L204.17 88.9943L204.368 91.5707L202.856 92.0584L202.989 93.7896C203.035 94.3894 203.158 94.8576 203.358 95.1941C203.557 95.5215 203.852 95.7436 204.245 95.8604C204.646 95.9677 205.17 96.0048 205.816 95.9718C206.126 95.956 206.416 95.9321 206.688 95.9C206.968 95.8583 207.251 95.7982 207.538 95.7197L207.24 91.8483L205.638 91.5059L205.439 88.9159L213.481 88.5054L213.68 91.0955L211.61 91.6254L212.281 100.363L214.416 100.679L214.614 103.255L206.039 103.693ZM223.58 103.085C222.15 103.158 220.88 102.912 219.767 102.349C218.654 101.776 217.76 100.964 217.085 99.9128C216.419 98.852 216.033 97.6309 215.926 96.2496L215.886 95.718C215.773 94.2457 215.941 92.9279 216.391 91.7645C216.84 90.5921 217.545 89.6574 218.506 88.9606C219.466 88.2547 220.651 87.8658 222.062 87.7938C223.4 87.7255 224.549 87.9269 225.508 88.398C226.467 88.8691 227.222 89.5924 227.772 90.5679C228.331 91.5338 228.665 92.7302 228.774 94.157L228.952 96.4744L220.528 96.9043L220.52 96.9868C220.618 97.5474 220.811 98.0394 221.1 98.4626C221.397 98.8762 221.782 99.1987 222.257 99.4299C222.741 99.6607 223.315 99.7591 223.979 99.7252C224.662 99.6904 225.302 99.5756 225.899 99.3809C226.506 99.1857 227.11 98.8994 227.711 98.522L229.008 101.124C228.408 101.639 227.647 102.079 226.724 102.445C225.811 102.811 224.763 103.024 223.58 103.085ZM220.327 94.1091L224.696 93.8861L224.669 93.5317C224.625 92.9682 224.521 92.4946 224.354 92.1108C224.196 91.7175 223.954 91.4242 223.628 91.2309C223.312 91.0372 222.903 90.9532 222.403 90.9787C221.893 91.0047 221.484 91.1533 221.176 91.4245C220.868 91.6957 220.644 92.0584 220.506 92.5125C220.376 92.9662 220.301 93.4763 220.28 94.043L220.327 94.1091ZM231.491 102.394L231.293 99.8173L233.349 99.2881L232.678 90.5501L230.556 90.2342L230.358 87.6441L238.386 87.2344L238.585 89.8244L237.034 90.3278L237.251 93.1632L241.607 92.9409L241.389 90.1055L239.814 89.7617L239.615 87.1717L241.158 87.0929L245.527 86.87L247.63 86.7626L247.829 89.3527L245.759 89.8826L246.43 98.6205L248.565 98.9358L248.763 101.512L240.748 101.921L240.55 99.3448L242.061 98.8435L241.864 96.2807L237.508 96.503L237.705 99.0658L239.321 99.4075L239.519 101.984L231.491 102.394ZM250.907 101.403L250.709 98.8264L252.765 98.2972L252.094 89.5592L249.973 89.2433L249.774 86.6532L256.246 86.3229L258.062 86.2303L258.261 88.8203L256.477 89.3355L256.9 94.8428L256.983 94.8522L260.629 86.0993L264.998 85.8763L267.073 85.7703L267.272 88.3604L265.229 88.8889L265.901 97.6268L268.009 97.9435L268.206 100.52L259.932 100.942L259.734 98.3657L261.531 97.8498L261.106 92.3153L261.023 92.3059L257.379 101.072L250.907 101.403ZM270.473 100.404L270.275 97.8278L271.718 97.5215L273.176 94.3679C272.341 93.9726 271.685 93.4587 271.207 92.8262C270.728 92.1846 270.457 91.4504 270.393 90.6234C270.318 89.6419 270.52 88.7648 271 87.9922C271.479 87.2105 272.189 86.5813 273.13 86.1044C274.081 85.6271 275.216 85.3548 276.536 85.2874L285.206 84.8449L285.405 87.435L283.348 87.9642L284.02 96.7021L286.141 97.0181L286.339 99.5945L278.338 100.003L278.14 97.4264L279.678 96.9237L279.524 94.9198L277.803 95.0076L275.771 100.134L270.473 100.404ZM277.051 92.1721L279.304 92.0572L279.029 88.4857L276.79 88.5999C276.107 88.6348 275.59 88.8528 275.237 89.254C274.883 89.6461 274.724 90.0739 274.759 90.5374C274.795 91.0009 275.013 91.4003 275.414 91.7357C275.822 92.0615 276.368 92.207 277.051 92.1721ZM295.146 99.145L294.948 96.5686L297.005 96.0394L296.333 87.3015L294.212 86.9855L294.013 84.3955L300.485 84.0652L302.301 83.9725L302.5 86.5625L300.716 87.0778L301.139 92.585L301.222 92.5944L304.868 83.8415L309.237 83.6185L311.313 83.5126L311.512 86.1026L309.469 86.6311L310.14 95.369L312.248 95.6857L312.446 98.2621L304.171 98.6844L303.973 96.108L305.771 95.592L305.345 90.0576L305.263 90.0481L301.618 98.8147L295.146 99.145ZM328.156 97.7477C326.718 97.8211 325.451 97.5664 324.355 96.9837C323.268 96.3914 322.399 95.5508 321.749 94.4618C321.107 93.3633 320.731 92.0915 320.62 90.6465L320.592 90.2785C320.479 88.8153 320.666 87.5057 321.153 86.3495C321.64 85.1934 322.378 84.2708 323.367 83.5817C324.356 82.8925 325.551 82.5122 326.953 82.4407C328.318 82.371 329.509 82.5201 330.524 82.888C331.539 83.2558 332.362 83.6791 332.993 84.1578L333.279 88.5909L330.002 88.7582L329.251 86.1279C329.055 85.9554 328.803 85.8178 328.493 85.7149C328.184 85.6121 327.897 85.5675 327.633 85.5809C326.923 85.6172 326.358 85.8148 325.938 86.1738C325.526 86.5233 325.24 87.0214 325.079 87.6682C324.928 88.3146 324.888 89.1104 324.961 90.0555L324.989 90.4236C325.065 91.4141 325.25 92.2076 325.542 92.8039C325.834 93.3912 326.191 93.8154 326.613 94.0767C327.044 94.3284 327.487 94.4427 327.942 94.4195C328.588 94.3865 329.081 94.1971 329.42 93.8514C329.767 93.4961 329.999 93.0053 330.115 92.3789L333.816 92.1901L333.876 92.2691C333.771 93.3876 333.515 94.3449 333.11 95.141C332.714 95.9276 332.117 96.542 331.319 96.9841C330.521 97.4263 329.467 97.6808 328.156 97.7477ZM339.426 96.8851L339.228 94.3088L341.285 93.7796L340.637 85.3415L338.357 85.4579L338.353 87.374L335.076 87.5412L334.675 82.3203L350.541 81.5106L350.942 86.7315L347.651 86.8995L347.355 84.9987L345.02 85.1178L345.668 93.5559L347.776 93.8725L347.974 96.4489L339.426 96.8851ZM359.998 96.1227C358.505 96.1989 357.202 95.9506 356.089 95.3779C354.984 94.7956 354.106 93.9555 353.455 92.8574C352.813 91.7497 352.434 90.4507 352.32 88.9603L352.299 88.6877C352.185 87.2155 352.363 85.9017 352.832 84.7465C353.31 83.5908 354.052 82.668 355.059 81.9779C356.066 81.2788 357.311 80.8914 358.794 80.8157C360.278 80.7399 361.572 80.9932 362.677 81.5755C363.782 82.1577 364.655 82.9981 365.297 84.0967C365.948 85.1948 366.33 86.4845 366.444 87.9658L366.465 88.2384C366.579 89.7197 366.397 91.0428 365.92 92.2075C365.452 93.3628 364.714 94.2854 363.707 94.9754C362.709 95.665 361.472 96.0474 359.998 96.1227ZM359.742 92.7965C360.379 92.764 360.88 92.5651 361.245 92.1998C361.619 91.834 361.873 91.3329 362.007 90.6966C362.15 90.0598 362.189 89.3142 362.123 88.46L362.102 88.1874C362.039 87.3604 361.888 86.6428 361.649 86.0346C361.419 85.4168 361.09 84.9409 360.662 84.6069C360.234 84.2729 359.697 84.1224 359.051 84.1554C358.414 84.1879 357.909 84.3916 357.535 84.7665C357.162 85.1414 356.908 85.647 356.774 86.2833C356.64 86.9106 356.604 87.6377 356.668 88.4647L356.689 88.7373C356.754 89.5916 356.903 90.3321 357.134 90.959C357.364 91.5768 357.693 92.0481 358.12 92.373C358.546 92.6888 359.087 92.83 359.742 92.7965ZM368.796 95.3862L368.598 92.8099L370.655 92.2807L369.984 83.5427L367.862 83.2268L367.663 80.6367L374.135 80.3064L375.951 80.2138L376.15 82.8038L374.367 83.319L374.79 88.8263L374.873 88.8357L378.518 80.0828L382.888 79.8598L384.963 79.7538L385.162 82.3439L383.119 82.8724L383.79 91.6103L385.898 91.927L386.096 94.5034L377.822 94.9256L377.624 92.3492L379.421 91.8333L378.996 86.2988L378.913 86.2894L375.268 95.0559L368.796 95.3862ZM388.335 94.3891L388.137 91.8127L390.208 91.2828L389.536 82.5449L387.401 82.2296L387.202 79.6396L389.305 79.5323L394.657 79.2591L398.877 88.8697L398.959 88.8655L401.717 78.8988L407.192 78.6194L409.267 78.5135L409.466 81.1035L407.423 81.632L408.095 90.3699L410.202 90.6866L410.4 93.263L402.658 93.6581L402.461 91.0817L403.725 90.5929L403.314 85.2357L403.232 85.2398L400.761 93.755L397.852 93.9034L394.255 85.9717L394.174 85.9895L394.563 91.0605L395.907 91.4162L396.104 93.9926L388.335 94.3891ZM419.366 93.0928C417.873 93.169 416.57 92.9207 415.457 92.348C414.352 91.7658 413.474 90.9256 412.823 89.8275C412.181 88.7199 411.802 87.4209 411.688 85.9305L411.667 85.6578C411.554 84.1856 411.731 82.8719 412.2 81.7167C412.678 80.561 413.42 79.6381 414.427 78.9481C415.434 78.249 416.679 77.8615 418.162 77.7858C419.646 77.7101 420.94 77.9633 422.045 78.5456C423.15 79.1279 424.023 79.9683 424.665 81.0668C425.316 82.1649 425.698 83.4546 425.812 84.9359L425.833 85.2085C425.947 86.6899 425.765 88.0129 425.288 89.1777C424.82 90.3329 424.082 91.2555 423.075 91.9456C422.077 92.6351 420.84 93.0176 419.366 93.0928ZM419.11 89.7667C419.747 89.7342 420.248 89.5352 420.613 89.1699C420.987 88.8042 421.241 88.3031 421.375 87.6667C421.518 87.0299 421.557 86.2844 421.491 85.4301L421.47 85.1575C421.407 84.3305 421.256 83.6129 421.017 83.0047C420.787 82.3869 420.458 81.9111 420.03 81.5771C419.602 81.2431 419.065 81.0926 418.419 81.1256C417.782 81.1581 417.277 81.3618 416.903 81.7366C416.53 82.1115 416.276 82.6171 416.143 83.2535C416.008 83.8807 415.972 84.6079 416.036 85.4349L416.057 85.7075C416.123 86.5617 416.271 87.3023 416.502 87.9291C416.732 88.5469 417.061 89.0182 417.488 89.3431C417.914 89.659 418.455 89.8001 419.11 89.7667ZM434.959 92.297C433.521 92.3704 432.254 92.1158 431.158 91.533C430.071 90.9408 429.202 90.1001 428.552 89.0111C427.91 87.9126 427.533 86.6408 427.422 85.1959L427.394 84.8278C427.282 83.3647 427.469 82.055 427.956 80.8989C428.443 79.7427 429.181 78.8201 430.169 78.131C431.158 77.4419 432.354 77.0616 433.755 76.99C435.121 76.9203 436.311 77.0694 437.326 77.4373C438.342 77.8052 439.165 78.2285 439.795 78.7072L440.081 83.1403L436.804 83.3075L436.054 80.6772C435.858 80.5047 435.605 80.3671 435.295 80.2643C434.986 80.1615 434.699 80.1168 434.435 80.1303C433.725 80.1665 433.16 80.3641 432.74 80.7231C432.328 81.0726 432.042 81.5708 431.882 82.2176C431.73 82.8639 431.691 83.6597 431.763 84.6048L431.792 84.9729C431.868 85.9635 432.052 86.7569 432.345 87.3533C432.636 87.9405 432.993 88.3648 433.416 88.6261C433.846 88.8778 434.289 88.992 434.744 88.9688C435.39 88.9358 435.883 88.7465 436.222 88.4007C436.569 88.0454 436.801 87.5546 436.918 86.9283L440.618 86.7394L440.679 86.8184C440.573 87.9369 440.317 88.8942 439.913 89.6904C439.516 90.477 438.919 91.0913 438.121 91.5335C437.324 91.9756 436.27 92.2301 434.959 92.297ZM446.229 91.4345L446.031 88.8581L448.087 88.3289L447.439 79.8909L445.159 80.0072L445.155 81.9233L441.878 82.0906L441.477 76.8696L457.343 76.0599L457.744 81.2809L454.454 81.4488L454.157 79.548L451.822 79.6672L452.47 88.1052L454.578 88.4219L454.776 90.9983L446.229 91.4345ZM468.584 80.1666C470.659 80.0607 472.323 80.4273 473.576 81.2666C474.828 82.1059 475.512 83.2799 475.628 84.7885C475.748 86.3516 475.248 87.627 474.126 88.6148C473.014 89.6022 471.425 90.1486 469.359 90.254L460.374 90.7126L460.176 88.1362L462.247 87.6063L461.575 78.8683L459.44 78.5531L459.241 75.963L467.816 75.5254L468.015 78.1155L465.945 78.6454L466.071 80.2948L468.584 80.1666ZM469.104 86.9415C469.878 86.902 470.443 86.709 470.801 86.3623C471.158 86.0156 471.315 85.5696 471.274 85.0244C471.229 84.4428 471.003 83.9981 470.595 83.6905C470.196 83.3733 469.605 83.2347 468.823 83.2746L466.31 83.4028L466.592 87.0698L469.104 86.9415ZM477.456 89.8408L477.171 86.133L481.526 85.9107L481.811 89.6185L477.456 89.8408ZM476.608 78.8128L476.324 75.1049L480.679 74.8826L480.964 78.5905L476.608 78.8128Z" fill="white"/>
<defs>
<linearGradient id="paint0_linear_206_6039" x1="27" y1="33.5" x2="467" y2="33.5" gradientUnits="userSpaceOnUse">
<stop stop-color="#8E2DE2"/>
<stop offset="1" stop-color="#4A00E0"/>
</linearGradient>
<linearGradient id="paint1_linear_206_6039" x1="374.742" y1="254.276" x2="374.742" y2="254.276" gradientUnits="userSpaceOnUse">
<stop stop-color="#8E2DE2"/>
<stop offset="1" stop-color="#4A00E0"/>
</linearGradient>
<linearGradient id="paint2_linear_206_6039" x1="0" y1="30.0826" x2="513.871" y2="30.0826" gradientUnits="userSpaceOnUse">
<stop stop-color="#6025F5"/>
<stop offset="1" stop-color="#FF5555"/>
</linearGradient>
<linearGradient id="paint3_linear_206_6039" x1="61.282" y1="171.017" x2="448.838" y2="120.419" gradientUnits="userSpaceOnUse">
<stop offset="1" stop-color="#F80759"/>
</linearGradient>
</defs>
</svg>
