<svg width="310" height="148" viewBox="0 0 310 148" fill="none" xmlns="http://www.w3.org/2000/svg">
<rect x="28" width="237" height="38" rx="19" fill="url(#paint0_linear_224_1706)"/>
<path d="M69.96 23.1436C69.846 23.1436 69.7161 23.139 69.5703 23.1299C69.429 23.1208 69.3219 23.1139 69.249 23.1094L69.2354 21.585C69.2855 21.5941 69.3721 21.6009 69.4951 21.6055C69.6182 21.61 69.7116 21.6123 69.7754 21.6123C70.1354 21.6123 70.4066 21.5326 70.5889 21.373C70.7712 21.2135 70.9215 20.972 71.04 20.6484L71.1904 20.2725L68.333 14.3936L67.2734 14.25V13.0469H71.1836V14.25L70.4453 14.3662L71.8057 17.3877L72.0449 18.0029H72.0859L73.4395 14.3867L72.749 14.25V13.0469H76.4746V14.25L75.5039 14.3799L72.667 21.1133C72.4756 21.5462 72.2637 21.9154 72.0312 22.2207C71.7988 22.5215 71.5163 22.7516 71.1836 22.9111C70.8555 23.0661 70.4476 23.1436 69.96 23.1436ZM76.3105 25.8438V24.6406L77.2744 24.4355V17.0117L76.208 16.8066V15.6035H79.1064L79.2021 16.4648C79.4209 16.1458 79.6852 15.8997 79.9951 15.7266C80.305 15.5534 80.6742 15.4668 81.1025 15.4668C81.6995 15.4668 82.21 15.6309 82.6338 15.959C83.0576 16.2826 83.3812 16.736 83.6045 17.3193C83.8324 17.9027 83.9463 18.584 83.9463 19.3633V19.5068C83.9463 20.236 83.8324 20.874 83.6045 21.4209C83.3812 21.9632 83.0553 22.387 82.627 22.6924C82.2031 22.9932 81.6904 23.1436 81.0889 23.1436C80.6924 23.1436 80.3415 23.0729 80.0361 22.9316C79.7354 22.7858 79.4779 22.5739 79.2637 22.2959V24.4355L80.2275 24.6406V25.8438H76.3105ZM80.4941 21.6123C81.0046 21.6123 81.3737 21.4232 81.6016 21.0449C81.834 20.6667 81.9502 20.154 81.9502 19.5068V19.3633C81.9502 18.8939 81.8978 18.486 81.793 18.1396C81.6882 17.7887 81.5264 17.5153 81.3076 17.3193C81.0934 17.1188 80.8177 17.0186 80.4805 17.0186C80.207 17.0186 79.9655 17.0801 79.7559 17.2031C79.5508 17.3262 79.3867 17.5016 79.2637 17.7295V20.9697C79.3867 21.1794 79.5508 21.3389 79.7559 21.4482C79.9655 21.5576 80.2116 21.6123 80.4941 21.6123ZM88.458 23.1436C87.7288 23.1436 87.1022 22.984 86.5781 22.665C86.054 22.346 85.653 21.904 85.375 21.3389C85.097 20.7692 84.958 20.1152 84.958 19.377V19.2334C84.958 18.4997 85.097 17.8503 85.375 17.2852C85.653 16.7155 86.0518 16.2712 86.5713 15.9521C87.0954 15.6286 87.7197 15.4668 88.4443 15.4668C89.1781 15.4668 89.8047 15.6286 90.3242 15.9521C90.8438 16.2712 91.2425 16.7132 91.5205 17.2783C91.7985 17.8434 91.9375 18.4951 91.9375 19.2334V19.377C91.9375 20.1152 91.7985 20.7692 91.5205 21.3389C91.2425 21.904 90.8438 22.346 90.3242 22.665C89.8047 22.984 89.1826 23.1436 88.458 23.1436ZM88.458 21.6123C88.8044 21.6123 89.0869 21.5189 89.3057 21.332C89.5244 21.1452 89.6862 20.8854 89.791 20.5527C89.8958 20.2155 89.9482 19.8236 89.9482 19.377V19.2334C89.9482 18.7959 89.8958 18.4108 89.791 18.0781C89.6862 17.7409 89.5221 17.4788 89.2988 17.292C89.0801 17.1006 88.7952 17.0049 88.4443 17.0049C88.1025 17.0049 87.82 17.1006 87.5967 17.292C87.3734 17.4788 87.2093 17.7409 87.1045 18.0781C87.0042 18.4108 86.9541 18.7959 86.9541 19.2334V19.377C86.9541 19.8236 87.0042 20.2155 87.1045 20.5527C87.2093 20.89 87.3734 21.152 87.5967 21.3389C87.82 21.5212 88.1071 21.6123 88.458 21.6123ZM92.9697 23V21.8037L94.0361 21.5986V17.0117L92.9697 16.8066V15.6035H94.0361H97.126C98.1104 15.6035 98.876 15.7744 99.4229 16.1162C99.9743 16.458 100.25 16.9616 100.25 17.627C100.25 17.9915 100.141 18.3105 99.9219 18.584C99.7031 18.8529 99.3704 19.0602 98.9238 19.2061C99.5117 19.32 99.9424 19.5296 100.216 19.835C100.494 20.1357 100.633 20.5003 100.633 20.9287C100.633 21.6032 100.371 22.1182 99.8467 22.4736C99.3271 22.8245 98.5798 23 97.6045 23H92.9697ZM96.0254 21.4824H97.5977C97.9486 21.4824 98.2083 21.4186 98.377 21.291C98.5501 21.1589 98.6367 20.9629 98.6367 20.7031C98.6367 20.4525 98.557 20.2588 98.3975 20.1221C98.238 19.9854 97.9736 19.917 97.6045 19.917H96.0254V21.4824ZM96.0254 18.6182H97.1807C97.5544 18.6136 97.8255 18.5498 97.9941 18.4268C98.1673 18.2992 98.2539 18.1146 98.2539 17.873C98.2539 17.3763 97.8825 17.1279 97.1396 17.1279H96.0254V18.6182ZM105.083 23.1436C104.377 23.1436 103.759 22.9886 103.23 22.6787C102.702 22.3643 102.292 21.9336 102 21.3867C101.713 20.8398 101.569 20.2155 101.569 19.5137V19.2402C101.569 18.5065 101.706 17.8571 101.979 17.292C102.253 16.7223 102.638 16.2757 103.135 15.9521C103.636 15.6286 104.226 15.4668 104.905 15.4668C105.575 15.4668 106.138 15.599 106.594 15.8633C107.049 16.1276 107.396 16.5081 107.633 17.0049C107.87 17.5016 107.988 18.1032 107.988 18.8096V19.8965H103.641L103.627 19.9375C103.654 20.2611 103.734 20.5505 103.866 20.8057C104.003 21.0563 104.194 21.2546 104.44 21.4004C104.687 21.5417 104.985 21.6123 105.336 21.6123C105.701 21.6123 106.04 21.5667 106.354 21.4756C106.674 21.3799 106.983 21.2409 107.284 21.0586L107.824 22.2891C107.519 22.5352 107.134 22.7402 106.669 22.9043C106.209 23.0638 105.68 23.1436 105.083 23.1436ZM103.654 18.5771H106.122V18.3994C106.122 18.0986 106.081 17.8411 105.999 17.627C105.922 17.4082 105.794 17.2396 105.616 17.1211C105.443 17.0026 105.217 16.9434 104.939 16.9434C104.675 16.9434 104.452 17.014 104.27 17.1553C104.087 17.292 103.944 17.4811 103.839 17.7227C103.739 17.9642 103.67 18.2376 103.634 18.543L103.654 18.5771ZM109.062 23V21.8037L110.128 21.5986V17.0117L109.062 16.8066V15.6035H112.979V16.8066L112.117 17.0117V18.5977H114.551V17.0117L113.696 16.8066V15.6035H114.551H116.547H117.613V16.8066L116.547 17.0117V21.5986L117.613 21.8037V23H113.696V21.8037L114.551 21.5986V20.1289H112.117V21.5986L112.979 21.8037V23H109.062ZM123.232 17.9893C124.235 17.9893 125.019 18.2148 125.584 18.666C126.154 19.1126 126.438 19.7096 126.438 20.457C126.438 21.2227 126.154 21.8379 125.584 22.3027C125.014 22.7676 124.23 23 123.232 23H118.782V21.8037L119.849 21.5986V17.0117L118.782 16.8066V15.6035H122.911V16.8066L121.845 17.0117V17.9893H123.232ZM123.232 21.4756C123.643 21.4756 123.948 21.3844 124.148 21.2021C124.349 21.0153 124.449 20.7715 124.449 20.4707C124.449 20.1608 124.349 19.9102 124.148 19.7188C123.952 19.5273 123.647 19.4316 123.232 19.4316H121.845V21.4756H123.232ZM127.354 23V21.25H129.344V23H127.354ZM127.354 17.3604V15.6104H129.344V17.3604H127.354ZM137.383 23.1436C136.654 23.1436 136.027 22.9909 135.503 22.6855C134.983 22.3802 134.585 21.9587 134.307 21.4209C134.029 20.8786 133.89 20.2588 133.89 19.5615V18.6113C133.89 17.4993 134.033 16.5697 134.32 15.8223C134.607 15.0749 135.008 14.4915 135.523 14.0723C136.038 13.6484 136.633 13.3704 137.308 13.2383C137.75 13.1654 138.076 13.0697 138.285 12.9512C138.499 12.8281 138.606 12.6299 138.606 12.3564H140.151L140.172 12.3975C140.181 12.8441 140.124 13.2064 140.001 13.4844C139.882 13.7624 139.712 13.9834 139.488 14.1475C139.265 14.3115 138.998 14.4414 138.688 14.5371C138.383 14.6283 138.053 14.708 137.697 14.7764C137.246 14.863 136.875 14.9928 136.583 15.166C136.296 15.3346 136.073 15.5488 135.913 15.8086C135.758 16.0684 135.651 16.3783 135.592 16.7383L135.619 16.7725C135.87 16.5492 136.166 16.3669 136.508 16.2256C136.85 16.0843 137.228 16.0137 137.643 16.0137C138.303 16.0137 138.875 16.1595 139.358 16.4512C139.841 16.7428 140.213 17.1484 140.473 17.668C140.737 18.1829 140.869 18.7799 140.869 19.459V19.6025C140.869 20.2998 140.73 20.915 140.452 21.4482C140.174 21.9814 139.775 22.3984 139.256 22.6992C138.736 22.9954 138.112 23.1436 137.383 23.1436ZM137.383 21.6123C137.725 21.6123 138.005 21.5303 138.224 21.3662C138.447 21.1976 138.611 20.9629 138.716 20.6621C138.821 20.3568 138.873 20.0036 138.873 19.6025V19.459C138.873 19.0853 138.818 18.7549 138.709 18.4678C138.604 18.1807 138.44 17.9574 138.217 17.7979C137.998 17.6338 137.715 17.5518 137.369 17.5518C137.027 17.5518 136.747 17.6338 136.528 17.7979C136.31 17.9574 136.148 18.1807 136.043 18.4678C135.938 18.7549 135.886 19.0853 135.886 19.459V19.5615C135.886 19.9671 135.936 20.3249 136.036 20.6348C136.141 20.9447 136.303 21.1862 136.521 21.3594C136.745 21.528 137.032 21.6123 137.383 21.6123ZM144.198 23.1436C143.465 23.1436 142.881 22.9476 142.448 22.5557C142.015 22.1592 141.799 21.6214 141.799 20.9424C141.799 20.2451 142.081 19.68 142.646 19.2471C143.212 18.8096 144.039 18.5908 145.128 18.5908H146.105V18.0439C146.105 17.6885 146.001 17.4014 145.791 17.1826C145.586 16.9593 145.276 16.8477 144.861 16.8477C144.647 16.8477 144.456 16.875 144.287 16.9297C144.118 16.9798 143.964 17.0527 143.822 17.1484L143.665 18.126H142.229L142.202 16.2051C142.59 15.9863 143.009 15.8086 143.46 15.6719C143.911 15.5352 144.415 15.4668 144.971 15.4668C145.937 15.4668 146.7 15.6924 147.261 16.1436C147.821 16.5902 148.102 17.2305 148.102 18.0645V21.1133C148.102 21.2135 148.102 21.3138 148.102 21.4141C148.106 21.5098 148.115 21.6032 148.129 21.6943L148.901 21.8037V23H146.427C146.377 22.8724 146.326 22.7357 146.276 22.5898C146.226 22.444 146.19 22.2982 146.167 22.1523C145.93 22.4531 145.65 22.6947 145.326 22.877C145.007 23.0547 144.631 23.1436 144.198 23.1436ZM144.731 21.667C145.009 21.667 145.274 21.6055 145.524 21.4824C145.775 21.3548 145.969 21.1885 146.105 20.9834V19.8145H145.121C144.684 19.8145 144.351 19.9147 144.123 20.1152C143.9 20.3158 143.788 20.5573 143.788 20.8398C143.788 21.1042 143.87 21.3092 144.034 21.4551C144.203 21.5964 144.435 21.667 144.731 21.667ZM149.804 23V21.8037L150.87 21.5986V17.0117L149.804 16.8066V15.6035H153.769V16.8066L152.859 17.0117V18.4199H153.543L154.65 16.7793C154.928 16.3509 155.218 16.0296 155.519 15.8154C155.819 15.5967 156.184 15.4873 156.612 15.4873C156.868 15.4873 157.089 15.5192 157.275 15.583C157.462 15.6468 157.645 15.7334 157.822 15.8428L157.487 17.2236C157.36 17.1917 157.271 17.1712 157.221 17.1621C157.175 17.1484 157.118 17.1416 157.05 17.1416C156.895 17.1416 156.744 17.194 156.599 17.2988C156.453 17.4036 156.325 17.5358 156.216 17.6953L155.259 19.0898L156.975 21.6396L157.979 21.8037V23H155.238L153.625 20.2314H152.859V21.5986L153.769 21.8037V23H149.804ZM161.179 23.1436C160.445 23.1436 159.862 22.9476 159.429 22.5557C158.996 22.1592 158.779 21.6214 158.779 20.9424C158.779 20.2451 159.062 19.68 159.627 19.2471C160.192 18.8096 161.019 18.5908 162.108 18.5908H163.086V18.0439C163.086 17.6885 162.981 17.4014 162.771 17.1826C162.566 16.9593 162.257 16.8477 161.842 16.8477C161.628 16.8477 161.436 16.875 161.268 16.9297C161.099 16.9798 160.944 17.0527 160.803 17.1484L160.646 18.126H159.21L159.183 16.2051C159.57 15.9863 159.989 15.8086 160.44 15.6719C160.892 15.5352 161.395 15.4668 161.951 15.4668C162.917 15.4668 163.681 15.6924 164.241 16.1436C164.802 16.5902 165.082 17.2305 165.082 18.0645V21.1133C165.082 21.2135 165.082 21.3138 165.082 21.4141C165.087 21.5098 165.096 21.6032 165.109 21.6943L165.882 21.8037V23H163.407C163.357 22.8724 163.307 22.7357 163.257 22.5898C163.207 22.444 163.17 22.2982 163.147 22.1523C162.91 22.4531 162.63 22.6947 162.307 22.877C161.988 23.0547 161.612 23.1436 161.179 23.1436ZM161.712 21.667C161.99 21.667 162.254 21.6055 162.505 21.4824C162.756 21.3548 162.949 21.1885 163.086 20.9834V19.8145H162.102C161.664 19.8145 161.331 19.9147 161.104 20.1152C160.88 20.3158 160.769 20.5573 160.769 20.8398C160.769 21.1042 160.851 21.3092 161.015 21.4551C161.183 21.5964 161.416 21.667 161.712 21.667ZM166.688 23L166.661 21.4277L166.88 21.4209C167.185 21.4209 167.415 21.3411 167.57 21.1816C167.725 21.0221 167.83 20.7487 167.885 20.3613C167.944 19.974 167.974 19.4385 167.974 18.7549V17.0117L166.907 16.8066V15.6035H173.736H174.803V16.8066L173.736 17.0117V21.5986L174.803 21.8037V23H170.681V21.8037L171.747 21.5986V17.1484H169.97V18.7549C169.97 20.2132 169.744 21.2865 169.293 21.9746C168.846 22.6582 168.083 23 167.003 23H166.688ZM178.187 23.1436C177.453 23.1436 176.869 22.9476 176.437 22.5557C176.004 22.1592 175.787 21.6214 175.787 20.9424C175.787 20.2451 176.07 19.68 176.635 19.2471C177.2 18.8096 178.027 18.5908 179.116 18.5908H180.094V18.0439C180.094 17.6885 179.989 17.4014 179.779 17.1826C179.574 16.9593 179.264 16.8477 178.85 16.8477C178.635 16.8477 178.444 16.875 178.275 16.9297C178.107 16.9798 177.952 17.0527 177.811 17.1484L177.653 18.126H176.218L176.19 16.2051C176.578 15.9863 176.997 15.8086 177.448 15.6719C177.899 15.5352 178.403 15.4668 178.959 15.4668C179.925 15.4668 180.688 15.6924 181.249 16.1436C181.81 16.5902 182.09 17.2305 182.09 18.0645V21.1133C182.09 21.2135 182.09 21.3138 182.09 21.4141C182.094 21.5098 182.104 21.6032 182.117 21.6943L182.89 21.8037V23H180.415C180.365 22.8724 180.315 22.7357 180.265 22.5898C180.215 22.444 180.178 22.2982 180.155 22.1523C179.918 22.4531 179.638 22.6947 179.314 22.877C178.995 23.0547 178.619 23.1436 178.187 23.1436ZM178.72 21.667C178.998 21.667 179.262 21.6055 179.513 21.4824C179.763 21.3548 179.957 21.1885 180.094 20.9834V19.8145H179.109C178.672 19.8145 178.339 19.9147 178.111 20.1152C177.888 20.3158 177.776 20.5573 177.776 20.8398C177.776 21.1042 177.858 21.3092 178.022 21.4551C178.191 21.5964 178.424 21.667 178.72 21.667ZM183.792 23V21.8037L184.858 21.5986V17.0117L183.792 16.8066V15.6035H184.858H187.948C188.933 15.6035 189.698 15.7744 190.245 16.1162C190.797 16.458 191.072 16.9616 191.072 17.627C191.072 17.9915 190.963 18.3105 190.744 18.584C190.525 18.8529 190.193 19.0602 189.746 19.2061C190.334 19.32 190.765 19.5296 191.038 19.835C191.316 20.1357 191.455 20.5003 191.455 20.9287C191.455 21.6032 191.193 22.1182 190.669 22.4736C190.149 22.8245 189.402 23 188.427 23H183.792ZM186.848 21.4824H188.42C188.771 21.4824 189.031 21.4186 189.199 21.291C189.372 21.1589 189.459 20.9629 189.459 20.7031C189.459 20.4525 189.379 20.2588 189.22 20.1221C189.06 19.9854 188.796 19.917 188.427 19.917H186.848V21.4824ZM186.848 18.6182H188.003C188.377 18.6136 188.648 18.5498 188.816 18.4268C188.99 18.2992 189.076 18.1146 189.076 17.873C189.076 17.3763 188.705 17.1279 187.962 17.1279H186.848V18.6182ZM192.234 25.8438V24.6406L193.198 24.4355V17.0117L192.132 16.8066V15.6035H195.03L195.126 16.4648C195.345 16.1458 195.609 15.8997 195.919 15.7266C196.229 15.5534 196.598 15.4668 197.026 15.4668C197.623 15.4668 198.134 15.6309 198.558 15.959C198.981 16.2826 199.305 16.736 199.528 17.3193C199.756 17.9027 199.87 18.584 199.87 19.3633V19.5068C199.87 20.236 199.756 20.874 199.528 21.4209C199.305 21.9632 198.979 22.387 198.551 22.6924C198.127 22.9932 197.614 23.1436 197.013 23.1436C196.616 23.1436 196.265 23.0729 195.96 22.9316C195.659 22.7858 195.402 22.5739 195.188 22.2959V24.4355L196.151 24.6406V25.8438H192.234ZM196.418 21.6123C196.928 21.6123 197.298 21.4232 197.525 21.0449C197.758 20.6667 197.874 20.154 197.874 19.5068V19.3633C197.874 18.8939 197.822 18.486 197.717 18.1396C197.612 17.7887 197.45 17.5153 197.231 17.3193C197.017 17.1188 196.742 17.0186 196.404 17.0186C196.131 17.0186 195.889 17.0801 195.68 17.2031C195.475 17.3262 195.311 17.5016 195.188 17.7295V20.9697C195.311 21.1794 195.475 21.3389 195.68 21.4482C195.889 21.5576 196.135 21.6123 196.418 21.6123ZM200.772 23V21.8037L201.839 21.5986V17.0117L200.772 16.8066V15.6035H203.835H204.792V16.8066L203.835 17.0117V20.0947L203.876 20.1016L206.282 15.6035H208.278H209.338V16.8066L208.278 17.0117V21.5986L209.338 21.8037V23H205.325V21.8037L206.282 21.5986V18.502L206.241 18.4951L203.835 23H200.772ZM212.79 23.1436C212.056 23.1436 211.473 22.9476 211.04 22.5557C210.607 22.1592 210.391 21.6214 210.391 20.9424C210.391 20.2451 210.673 19.68 211.238 19.2471C211.803 18.8096 212.631 18.5908 213.72 18.5908H214.697V18.0439C214.697 17.6885 214.592 17.4014 214.383 17.1826C214.178 16.9593 213.868 16.8477 213.453 16.8477C213.239 16.8477 213.048 16.875 212.879 16.9297C212.71 16.9798 212.555 17.0527 212.414 17.1484L212.257 18.126H210.821L210.794 16.2051C211.181 15.9863 211.601 15.8086 212.052 15.6719C212.503 15.5352 213.007 15.4668 213.562 15.4668C214.529 15.4668 215.292 15.6924 215.853 16.1436C216.413 16.5902 216.693 17.2305 216.693 18.0645V21.1133C216.693 21.2135 216.693 21.3138 216.693 21.4141C216.698 21.5098 216.707 21.6032 216.721 21.6943L217.493 21.8037V23H215.019C214.968 22.8724 214.918 22.7357 214.868 22.5898C214.818 22.444 214.782 22.2982 214.759 22.1523C214.522 22.4531 214.242 22.6947 213.918 22.877C213.599 23.0547 213.223 23.1436 212.79 23.1436ZM213.323 21.667C213.601 21.667 213.866 21.6055 214.116 21.4824C214.367 21.3548 214.561 21.1885 214.697 20.9834V19.8145H213.713C213.275 19.8145 212.943 19.9147 212.715 20.1152C212.492 20.3158 212.38 20.5573 212.38 20.8398C212.38 21.1042 212.462 21.3092 212.626 21.4551C212.795 21.5964 213.027 21.667 213.323 21.667ZM219.824 23V21.8037L220.884 21.5986V17.1279H219.646L219.571 18.126H218.04V15.6035H225.765V18.126H224.233L224.151 17.1279H222.887V21.5986L223.946 21.8037V23H219.824Z" fill="#FFF7F7"/>
<rect width="271.194" height="38.2396" rx="19.1198" transform="matrix(0.995897 -0.0904944 0.0913433 0.99582 14.374 109.818)" fill="url(#paint1_linear_224_1706)"/>
<path d="M0 45.8835L283.893 21.5868L287.11 57.6278L3.21712 81.9246L0 45.8835Z" fill="url(#paint2_linear_224_1706)"/>
<path d="M26.2603 84.1702L246.616 53.0267L251.846 88.8335L31.4901 119.977L26.2603 84.1702Z" fill="url(#paint3_linear_224_1706)"/>
<path d="M46.4659 130.043C45.74 130.113 45.1011 130.013 44.5492 129.745C43.9972 129.477 43.5561 129.075 43.2258 128.539C42.8951 127.998 42.6948 127.36 42.6249 126.625L42.6113 126.482C42.5418 125.752 42.6186 125.092 42.8419 124.503C43.0647 123.91 43.4195 123.43 43.9065 123.063C44.3976 122.691 45.0038 122.471 45.7252 122.402C46.4556 122.333 47.0947 122.435 47.6426 122.708C48.19 122.976 48.6288 123.378 48.9591 123.915C49.2894 124.451 49.4895 125.086 49.5594 125.821L49.573 125.964C49.6429 126.699 49.5665 127.363 49.3437 127.957C49.1205 128.546 48.7654 129.024 48.2784 129.39C47.7914 129.757 47.1873 129.975 46.4659 130.043ZM46.3209 128.519C46.6657 128.486 46.9381 128.367 47.1382 128.16C47.3382 127.953 47.4747 127.679 47.5475 127.338C47.6199 126.992 47.635 126.597 47.5927 126.153L47.5791 126.01C47.5376 125.574 47.449 125.196 47.3131 124.875C47.1768 124.549 46.9887 124.303 46.7487 124.139C46.5128 123.969 46.2202 123.9 45.8709 123.934C45.5306 123.966 45.2584 124.088 45.0542 124.3C44.8496 124.507 44.7111 124.783 44.6387 125.129C44.5704 125.47 44.557 125.858 44.5984 126.293L44.612 126.436C44.6543 126.881 44.7413 127.266 44.8731 127.592C45.0094 127.918 45.1975 128.164 45.4375 128.328C45.6771 128.489 45.9715 128.552 46.3209 128.519ZM55.0473 129.083L54.934 127.892L55.9762 127.587L55.8868 126.648C55.7224 126.7 55.5526 126.743 55.3774 126.778C55.2017 126.809 55.0255 126.833 54.8485 126.849C54.1408 126.917 53.5277 126.872 53.0092 126.715C52.4907 126.559 52.0801 126.284 51.7772 125.892C51.4739 125.495 51.2923 124.981 51.2323 124.351L51.1449 123.432L50.0707 123.328L49.9573 122.137L52.9993 121.848L53.8499 121.767L53.9632 122.958L53.132 123.243L53.2194 124.161C53.2501 124.484 53.3198 124.736 53.4287 124.918C53.5371 125.095 53.695 125.215 53.9024 125.278C54.1139 125.335 54.3807 125.349 54.7028 125.318C54.8888 125.3 55.0649 125.275 55.2311 125.24C55.4017 125.206 55.5715 125.162 55.7405 125.11L55.5417 123.02L54.6648 122.898L54.5509 121.7L58.457 121.328L58.571 122.526L57.5288 122.831L57.9633 127.398L59.0443 127.501L59.1576 128.692L55.0473 129.083ZM60.2669 128.586L60.1536 127.395L61.1958 127.09L60.7613 122.524L59.6803 122.421L59.5663 121.223L63.4657 120.852L63.5796 122.05L62.7416 122.335L62.8918 123.914L65.3145 123.684L65.1643 122.105L64.2942 121.982L64.1802 120.784L65.0309 120.703L67.018 120.514L68.0796 120.413L68.1936 121.611L67.1514 121.916L67.5858 126.482L68.6669 126.585L68.7802 127.776L64.8808 128.147L64.7675 126.956L65.5987 126.671L65.4595 125.208L63.0369 125.438L63.1761 126.902L64.053 127.024L64.1663 128.215L60.2669 128.586ZM73.2784 127.492C72.5525 127.561 71.9136 127.462 71.3617 127.194C70.8097 126.926 70.3686 126.524 70.0383 125.988C69.7076 125.447 69.5073 124.809 69.4374 124.074L69.4238 123.931C69.3543 123.201 69.4311 122.541 69.6544 121.952C69.8772 121.359 70.232 120.879 70.719 120.512C71.2101 120.14 71.8163 119.92 72.5377 119.851C73.2681 119.782 73.9072 119.884 74.4551 120.156C75.0025 120.425 75.4413 120.827 75.7716 121.363C76.1019 121.9 76.302 122.535 76.3719 123.27L76.3855 123.413C76.4554 124.148 76.379 124.812 76.1562 125.406C75.933 125.995 75.5779 126.472 75.0909 126.839C74.6039 127.206 73.9998 127.424 73.2784 127.492ZM73.1334 125.968C73.4782 125.935 73.7506 125.815 73.9507 125.609C74.1507 125.402 74.2872 125.128 74.36 124.787C74.4324 124.441 74.4475 124.046 74.4052 123.601L74.3916 123.459C74.3501 123.023 74.2615 122.645 74.1256 122.323C73.9893 121.998 73.8012 121.752 73.5612 121.587C73.3253 121.418 73.0327 121.349 72.6834 121.383C72.3431 121.415 72.0709 121.537 71.8667 121.749C71.6621 121.956 71.5236 122.232 71.4512 122.578C71.3829 122.919 71.3695 123.307 71.4109 123.742L71.4245 123.885C71.4668 124.33 71.5538 124.715 71.6856 125.041C71.8219 125.367 72.01 125.612 72.25 125.777C72.4896 125.938 72.784 126.001 73.1334 125.968ZM77.6982 123.425L77.5526 121.894L81.3907 121.529L81.5364 123.06L77.6982 123.425ZM86.2145 126.255C85.6564 126.308 85.1356 126.27 84.6519 126.142C84.1723 126.009 83.7804 125.788 83.4763 125.478C83.1717 125.164 83.0052 124.761 82.9767 124.269L82.9796 124.228L84.9055 124.044C84.9215 124.212 84.9813 124.36 85.085 124.487C85.1928 124.61 85.3365 124.702 85.5163 124.762C85.696 124.823 85.9061 124.842 86.1465 124.819C86.5367 124.782 86.8141 124.666 86.9787 124.472C87.1475 124.273 87.2191 124.039 87.1937 123.772C87.1643 123.463 87.052 123.245 86.8567 123.117C86.6614 122.989 86.3755 122.943 85.9989 122.979L84.9373 123.08L84.8169 121.814L85.8785 121.713C86.2142 121.681 86.4548 121.587 86.6002 121.432C86.7452 121.271 86.8051 121.06 86.7801 120.797C86.7581 120.565 86.6624 120.377 86.493 120.233C86.3233 120.085 86.0569 120.028 85.6939 120.062C85.4898 120.082 85.3115 120.133 85.1592 120.216C85.011 120.294 84.8974 120.399 84.8183 120.53C84.7433 120.656 84.7136 120.801 84.7291 120.964L82.8033 121.148L82.7858 121.108C82.7258 120.67 82.805 120.275 83.0234 119.925C83.246 119.57 83.5707 119.278 83.9976 119.049C84.429 118.821 84.9261 118.68 85.4886 118.626C86.4323 118.536 87.194 118.651 87.7738 118.972C88.3577 119.287 88.6812 119.776 88.7442 120.438C88.7775 120.787 88.7077 121.112 88.5348 121.412C88.3615 121.708 88.1055 121.952 87.7667 122.145C88.6345 122.364 89.1081 122.892 89.1876 123.726C89.2316 124.189 89.1355 124.599 88.8994 124.955C88.6677 125.312 88.3201 125.603 87.8565 125.831C87.397 126.053 86.8496 126.194 86.2145 126.255ZM92.823 125.633C92.0925 125.702 91.4933 125.562 91.0251 125.213C90.5566 124.86 90.2902 124.345 90.2258 123.669C90.1598 122.975 90.3876 122.385 90.9091 121.901C91.4302 121.412 92.2329 121.116 93.3172 121.012L94.2904 120.92L94.2386 120.375C94.2049 120.021 94.0734 119.746 93.844 119.548C93.6186 119.345 93.2996 119.263 92.8867 119.302C92.6735 119.323 92.4855 119.368 92.3229 119.438C92.1597 119.504 92.0124 119.591 91.8808 119.7L91.8169 120.688L90.3878 120.824L90.1786 118.914C90.5435 118.66 90.9441 118.443 91.3803 118.265C91.8165 118.086 92.3113 117.97 92.8648 117.917C93.8266 117.826 94.6079 117.978 95.2087 118.374C95.809 118.766 96.1486 119.376 96.2276 120.207L96.5164 123.242C96.5259 123.342 96.5354 123.441 96.5449 123.541C96.5585 123.636 96.5764 123.728 96.5987 123.818L97.378 123.853L97.4913 125.044L95.0279 125.279C94.9659 125.156 94.903 125.025 94.8393 124.885C94.7756 124.744 94.7255 124.602 94.689 124.459C94.4815 124.781 94.2254 125.048 93.9206 125.26C93.6198 125.468 93.254 125.592 92.823 125.633ZM93.2139 124.112C93.4907 124.086 93.748 124 93.9858 123.853C94.2233 123.703 94.4003 123.519 94.517 123.302L94.4063 122.138L93.4263 122.231C92.9908 122.273 92.6691 122.404 92.4613 122.625C92.258 122.846 92.1697 123.097 92.1964 123.378C92.2215 123.641 92.3226 123.838 92.4997 123.967C92.6809 124.092 92.919 124.14 93.2139 124.112ZM101.724 124.786C100.998 124.855 100.359 124.755 99.8074 124.487C99.2555 124.22 98.8144 123.817 98.4841 123.281C98.1534 122.74 97.9531 122.103 97.8831 121.368L97.8695 121.225C97.8 120.494 97.8769 119.835 98.1001 119.246C98.3229 118.652 98.6778 118.172 99.1648 117.805C99.6558 117.434 100.262 117.213 100.983 117.145C101.714 117.075 102.353 117.177 102.901 117.45C103.448 117.718 103.887 118.121 104.217 118.657C104.548 119.193 104.748 119.829 104.818 120.564L104.831 120.707C104.901 121.441 104.825 122.106 104.602 122.699C104.379 123.288 104.024 123.766 103.537 124.133C103.05 124.499 102.446 124.717 101.724 124.786ZM101.579 123.261C101.924 123.229 102.196 123.109 102.396 122.902C102.596 122.695 102.733 122.421 102.806 122.08C102.878 121.735 102.893 121.34 102.851 120.895L102.837 120.752C102.796 120.317 102.707 119.938 102.571 119.617C102.435 119.291 102.247 119.046 102.007 118.881C101.771 118.711 101.478 118.643 101.129 118.676C100.789 118.708 100.517 118.83 100.312 119.042C100.108 119.249 99.9693 119.526 99.8969 119.871C99.8286 120.212 99.8152 120.6 99.8567 121.036L99.8703 121.179C99.9126 121.623 99.9996 122.009 100.131 122.335C100.268 122.661 100.456 122.906 100.696 123.071C100.935 123.231 101.23 123.295 101.579 123.261ZM110.306 123.825L110.192 122.634L111.234 122.329L111.145 121.39C110.981 121.442 110.811 121.486 110.636 121.521C110.46 121.551 110.284 121.575 110.107 121.592C109.399 121.659 108.786 121.614 108.267 121.458C107.749 121.301 107.338 121.026 107.035 120.634C106.732 120.237 106.551 119.723 106.491 119.093L106.403 118.174L105.329 118.07L105.216 116.879L108.258 116.59L109.108 116.509L109.221 117.7L108.39 117.985L108.478 118.904C108.508 119.226 108.578 119.478 108.687 119.66C108.795 119.837 108.953 119.957 109.161 120.02C109.372 120.078 109.639 120.091 109.961 120.06C110.147 120.043 110.323 120.017 110.489 119.983C110.66 119.948 110.83 119.905 110.999 119.852L110.8 117.763L109.923 117.64L109.809 116.442L113.715 116.071L113.829 117.268L112.787 117.574L113.222 122.14L114.303 122.243L114.416 123.434L110.306 123.825ZM115.525 123.328L115.412 122.138L116.454 121.832L116.02 117.266L114.938 117.163L114.825 115.965L118.724 115.594L118.838 116.792L118 117.078L118.15 118.656L120.573 118.426L120.423 116.847L119.552 116.724L119.438 115.526L120.289 115.445L122.276 115.256L123.338 115.155L123.452 116.353L122.41 116.658L122.844 121.224L123.925 121.328L124.038 122.518L120.139 122.889L120.026 121.699L120.857 121.413L120.718 119.95L118.295 120.181L118.434 121.644L119.311 121.767L119.425 122.957L115.525 123.328ZM128.537 122.235C127.811 122.304 127.172 122.204 126.62 121.936C126.068 121.668 125.627 121.266 125.297 120.73C124.966 120.189 124.766 119.551 124.696 118.816L124.682 118.674C124.613 117.943 124.689 117.283 124.913 116.695C125.135 116.101 125.49 115.621 125.977 115.254C126.468 114.883 127.075 114.662 127.796 114.594C128.526 114.524 129.165 114.626 129.713 114.899C130.261 115.167 130.7 115.569 131.03 116.106C131.36 116.642 131.56 117.278 131.63 118.012L131.644 118.155C131.714 118.89 131.637 119.555 131.414 120.148C131.191 120.737 130.836 121.215 130.349 121.582C129.862 121.948 129.258 122.166 128.537 122.235ZM128.392 120.71C128.736 120.677 129.009 120.558 129.209 120.351C129.409 120.144 129.545 119.87 129.618 119.529C129.691 119.184 129.706 118.788 129.663 118.344L129.65 118.201C129.608 117.765 129.52 117.387 129.384 117.066C129.248 116.74 129.059 116.495 128.819 116.33C128.584 116.16 128.291 116.092 127.942 116.125C127.601 116.157 127.329 116.279 127.125 116.491C126.92 116.698 126.782 116.975 126.709 117.32C126.641 117.661 126.628 118.049 126.669 118.485L126.683 118.627C126.725 119.072 126.812 119.457 126.944 119.784C127.08 120.109 127.268 120.355 127.508 120.52C127.748 120.68 128.042 120.744 128.392 120.71ZM136.545 117.201L136.398 115.65L143.781 114.947L143.929 116.499L136.545 117.201ZM149.007 120.143L148.893 118.952L150.548 118.588L149.91 111.878L148.215 112.04L148.107 110.903L151.718 109.887L152.528 118.4L154.222 118.445L154.335 119.636L149.007 120.143ZM158.473 119.386C157.869 119.444 157.305 119.385 156.781 119.211C156.26 119.031 155.832 118.747 155.498 118.358C155.163 117.968 154.975 117.483 154.933 116.901L154.944 116.865L156.84 116.589C156.882 117.029 157.04 117.362 157.313 117.588C157.586 117.809 157.924 117.9 158.328 117.862C158.79 117.818 159.117 117.62 159.308 117.267C159.499 116.915 159.569 116.476 159.519 115.949C159.465 115.378 159.303 114.931 159.034 114.608C158.766 114.286 158.398 114.147 157.93 114.192C157.554 114.227 157.27 114.325 157.079 114.485C156.893 114.645 156.768 114.849 156.705 115.098L154.938 115.149L154.985 109.576L160.688 109.033L160.903 111.293L159.678 111.409L159.437 110.759L156.77 111.013L156.708 113.326C156.822 113.224 156.955 113.131 157.107 113.048C157.259 112.96 157.424 112.887 157.602 112.829C157.783 112.766 157.979 112.724 158.187 112.705C158.821 112.631 159.373 112.706 159.843 112.932C160.317 113.152 160.694 113.501 160.973 113.978C161.256 114.454 161.431 115.044 161.498 115.747C161.559 116.383 161.483 116.964 161.273 117.492C161.066 118.016 160.727 118.446 160.256 118.784C159.788 119.117 159.194 119.318 158.473 119.386ZM166.197 118.651C165.162 118.75 164.311 118.49 163.644 117.871C162.975 117.248 162.579 116.281 162.454 114.97L162.246 112.785C162.122 111.479 162.327 110.457 162.861 109.719C163.399 108.977 164.183 108.556 165.213 108.458C166.238 108.361 167.085 108.626 167.754 109.254C168.427 109.876 168.825 110.841 168.949 112.148L169.157 114.332C169.282 115.643 169.075 116.668 168.536 117.406C168.002 118.139 167.222 118.554 166.197 118.651ZM166.052 117.127C166.496 117.085 166.817 116.871 167.014 116.486C167.211 116.101 167.271 115.509 167.195 114.711L166.95 112.132C166.875 111.342 166.702 110.777 166.431 110.437C166.161 110.096 165.803 109.947 165.359 109.99C164.91 110.032 164.587 110.246 164.39 110.631C164.193 111.016 164.132 111.603 164.207 112.393L164.453 114.972C164.529 115.77 164.7 116.34 164.965 116.681C165.236 117.022 165.598 117.17 166.052 117.127ZM171.001 118.05L170.835 116.308L172.816 116.119L172.981 117.862L171.001 118.05ZM177.711 117.556C176.677 117.654 175.826 117.394 175.158 116.776C174.49 116.152 174.093 115.185 173.969 113.874L173.761 111.69C173.636 110.383 173.841 109.361 174.375 108.624C174.914 107.881 175.698 107.461 176.728 107.363C177.753 107.265 178.6 107.53 179.268 108.158C179.941 108.781 180.34 109.745 180.464 111.052L180.672 113.236C180.796 114.548 180.589 115.572 180.051 116.31C179.516 117.043 178.736 117.458 177.711 117.556ZM177.566 116.031C178.011 115.989 178.331 115.776 178.528 115.391C178.725 115.006 178.785 114.414 178.71 113.615L178.464 111.036C178.389 110.247 178.216 109.682 177.946 109.341C177.675 109.001 177.318 108.852 176.873 108.894C176.424 108.937 176.101 109.151 175.904 109.536C175.707 109.921 175.646 110.508 175.722 111.297L175.967 113.876C176.043 114.675 176.214 115.245 176.48 115.585C176.75 115.926 177.112 116.075 177.566 116.031ZM185.673 116.798C184.639 116.897 183.788 116.637 183.12 116.018C182.452 115.395 182.055 114.428 181.931 113.117L181.723 110.932C181.598 109.626 181.803 108.604 182.337 107.866C182.876 107.124 183.66 106.703 184.69 106.605C185.715 106.508 186.562 106.773 187.23 107.4C187.903 108.023 188.302 108.988 188.426 110.294L188.634 112.479C188.759 113.79 188.552 114.815 188.013 115.552C187.478 116.285 186.698 116.701 185.673 116.798ZM185.528 115.274C185.973 115.232 186.293 115.018 186.49 114.633C186.687 114.248 186.748 113.656 186.672 112.858L186.426 110.279C186.351 109.489 186.178 108.924 185.908 108.584C185.637 108.243 185.28 108.094 184.835 108.137C184.386 108.179 184.063 108.393 183.866 108.778C183.669 109.163 183.609 109.75 183.684 110.54L183.929 113.119C184.005 113.917 184.176 114.487 184.442 114.828C184.712 115.168 185.074 115.317 185.528 115.274ZM193.635 116.041C192.601 116.139 191.75 115.879 191.082 115.26C190.414 114.637 190.017 113.67 189.893 112.359L189.685 110.175C189.561 108.868 189.765 107.846 190.3 107.108C190.838 106.366 191.622 105.946 192.652 105.848C193.677 105.75 194.524 106.015 195.193 106.643C195.865 107.266 196.264 108.23 196.388 109.537L196.596 111.721C196.721 113.032 196.514 114.057 195.975 114.795C195.44 115.528 194.661 115.943 193.635 116.041ZM193.49 114.516C193.935 114.474 194.256 114.26 194.452 113.875C194.649 113.49 194.71 112.899 194.634 112.1L194.388 109.521C194.313 108.732 194.14 108.167 193.87 107.826C193.599 107.486 193.242 107.337 192.797 107.379C192.348 107.422 192.025 107.636 191.828 108.02C191.632 108.405 191.571 108.993 191.646 109.782L191.891 112.361C191.967 113.16 192.138 113.729 192.404 114.07C192.674 114.411 193.037 114.559 193.49 114.516ZM201.629 117.993L201.515 116.795L202.455 116.499L201.751 109.109L200.67 109.006L200.556 107.808L203.442 107.534L203.619 108.382C203.806 108.044 204.046 107.774 204.338 107.572C204.63 107.37 204.99 107.249 205.416 107.208C206.01 107.152 206.534 107.267 206.987 107.553C207.44 107.835 207.805 108.256 208.082 108.816C208.364 109.375 208.542 110.042 208.616 110.818L208.63 110.961C208.699 111.687 208.646 112.333 208.471 112.899C208.3 113.46 208.016 113.912 207.618 114.257C207.225 114.597 206.728 114.795 206.13 114.852C205.735 114.889 205.379 114.852 205.062 114.741C204.748 114.624 204.472 114.437 204.232 114.181L204.435 116.311L205.414 116.424L205.528 117.622L201.629 117.993ZM205.392 113.384C205.901 113.335 206.25 113.112 206.441 112.714C206.637 112.316 206.704 111.794 206.643 111.15L206.629 111.007C206.585 110.54 206.494 110.139 206.357 109.804C206.219 109.464 206.032 109.207 205.796 109.033C205.563 108.854 205.279 108.78 204.944 108.812C204.672 108.838 204.437 108.922 204.24 109.064C204.047 109.206 203.901 109.397 203.8 109.635L204.107 112.861C204.249 113.058 204.427 113.201 204.642 113.29C204.861 113.379 205.111 113.411 205.392 113.384ZM212.102 117.14C211.929 117.157 211.744 117.158 211.546 117.145C211.353 117.136 211.168 117.115 210.991 117.081L211.077 115.603C211.164 115.613 211.261 115.618 211.366 115.617C211.471 115.616 211.563 115.612 211.64 115.605C211.926 115.578 212.166 115.479 212.36 115.31C212.555 115.14 212.686 114.91 212.755 114.62L212.875 114.148L209.829 108.265L208.912 108.222L208.798 107.024L212.704 106.652L212.818 107.85L211.932 108.072L213.398 111.208L213.579 111.595L213.62 111.592L214.64 107.8L213.75 107.761L213.636 106.564L217.277 106.217L217.391 107.415L216.572 107.61L214.441 115.022C214.337 115.376 214.192 115.703 214.006 116.005C213.824 116.31 213.578 116.565 213.268 116.768C212.962 116.971 212.574 117.095 212.102 117.14ZM222.197 113.323C221.471 113.392 220.833 113.3 220.282 113.045C219.736 112.79 219.299 112.409 218.971 111.9C218.643 111.386 218.446 110.782 218.38 110.088L218.29 109.142C218.185 108.035 218.239 107.096 218.454 106.325C218.669 105.554 219.013 104.935 219.486 104.469C219.959 103.998 220.525 103.665 221.184 103.47C221.617 103.355 221.932 103.229 222.13 103.091C222.331 102.948 222.419 102.741 222.393 102.469L223.931 102.322L223.955 102.361C224.007 102.805 223.984 103.171 223.888 103.459C223.797 103.747 223.647 103.984 223.441 104.168C223.234 104.353 222.981 104.507 222.681 104.632C222.386 104.751 222.065 104.862 221.717 104.964C221.276 105.093 220.919 105.257 220.645 105.457C220.375 105.652 220.173 105.887 220.039 106.16C219.909 106.434 219.832 106.752 219.807 107.116L219.837 107.148C220.066 106.902 220.343 106.692 220.67 106.519C220.997 106.346 221.367 106.24 221.78 106.201C222.438 106.138 223.021 106.229 223.529 106.474C224.038 106.718 224.446 107.087 224.754 107.579C225.066 108.067 225.254 108.649 225.318 109.325L225.332 109.468C225.398 110.162 225.318 110.788 225.092 111.345C224.865 111.902 224.508 112.355 224.019 112.703C223.53 113.047 222.923 113.254 222.197 113.323ZM222.052 111.799C222.392 111.766 222.663 111.658 222.865 111.474C223.072 111.285 223.213 111.036 223.289 110.727C223.364 110.413 223.383 110.056 223.345 109.657L223.331 109.514C223.296 109.142 223.21 108.818 223.074 108.543C222.942 108.267 222.758 108.06 222.521 107.922C222.287 107.78 221.998 107.725 221.653 107.758C221.313 107.79 221.042 107.898 220.84 108.082C220.637 108.262 220.497 108.5 220.42 108.795C220.343 109.091 220.322 109.425 220.357 109.797L220.367 109.899C220.405 110.303 220.489 110.654 220.618 110.953C220.752 111.252 220.936 111.477 221.17 111.629C221.408 111.775 221.702 111.832 222.052 111.799ZM226 113.675L229.066 102.527L230.897 102.353L227.831 113.501L226 113.675ZM231.901 112.256L231.788 111.065L232.823 110.76L232.389 106.194L231.314 106.09L231.2 104.892L237.652 104.279L237.898 106.871L236.653 106.99L236.471 105.943L234.389 106.141L234.81 110.571L235.884 110.675L235.998 111.866L231.901 112.256ZM242.714 111.371C241.988 111.44 241.35 111.341 240.798 111.073C240.246 110.805 239.805 110.403 239.474 109.866C239.144 109.326 238.943 108.688 238.873 107.953L238.86 107.81C238.79 107.079 238.867 106.42 239.09 105.831C239.313 105.237 239.668 104.757 240.155 104.391C240.646 104.019 241.252 103.799 241.974 103.73C242.704 103.66 243.343 103.762 243.891 104.035C244.438 104.303 244.877 104.706 245.208 105.242C245.538 105.778 245.738 106.414 245.808 107.149L245.821 107.292C245.891 108.027 245.815 108.691 245.592 109.284C245.369 109.873 245.014 110.351 244.527 110.718C244.04 111.085 243.436 111.302 242.714 111.371ZM242.569 109.847C242.914 109.814 243.187 109.694 243.387 109.487C243.587 109.281 243.723 109.007 243.796 108.665C243.868 108.32 243.883 107.925 243.841 107.48L243.828 107.337C243.786 106.902 243.697 106.523 243.562 106.202C243.425 105.876 243.237 105.631 242.997 105.466C242.761 105.296 242.469 105.228 242.119 105.261C241.779 105.294 241.507 105.416 241.303 105.627C241.098 105.834 240.96 106.111 240.887 106.456C240.819 106.797 240.805 107.185 240.847 107.621L240.86 107.764C240.903 108.208 240.99 108.594 241.122 108.92C241.258 109.246 241.446 109.491 241.686 109.656C241.926 109.816 242.22 109.88 242.569 109.847ZM246.776 113.065L246.27 109.337L246.91 109.276C247.11 109.023 247.272 108.781 247.397 108.549C247.521 108.313 247.614 108.066 247.677 107.809C247.739 107.546 247.775 107.257 247.786 106.94C247.801 106.618 247.793 106.246 247.762 105.823L247.687 104.738L246.626 104.633L246.512 103.436L253.004 102.818L254.066 102.717L254.18 103.914L253.138 104.22L253.56 108.657L254.628 108.555L254.847 112.297L252.996 112.473L252.786 110.268L248.424 110.683L248.634 112.888L246.776 113.065ZM249.183 109.066L251.586 108.838L251.182 104.591L249.684 104.734L249.749 105.634C249.801 106.366 249.773 107.016 249.667 107.585C249.561 108.149 249.399 108.643 249.183 109.066Z" fill="white"/>
<path d="M63.3288 100.388C62.6044 100.471 61.9637 100.384 61.4065 100.127C60.8494 99.8704 60.4004 99.4772 60.0596 98.9476C59.7183 98.4134 59.5054 97.7797 59.4209 97.0462L59.4045 96.9036C59.3205 96.1747 59.3843 95.5137 59.5959 94.9205C59.8069 94.3227 60.1522 93.8357 60.6318 93.4594C61.1154 93.078 61.7172 92.8458 62.437 92.7629C63.1659 92.679 63.807 92.768 64.3601 93.03C64.9127 93.2875 65.3594 93.6811 65.7002 94.2106C66.0411 94.7402 66.2537 95.3718 66.3381 96.1052L66.3546 96.2478C66.439 96.9812 66.3758 97.6468 66.1648 98.2445C65.9532 98.8377 65.6077 99.3225 65.128 99.6989C64.6484 100.075 64.0487 100.305 63.3288 100.388ZM63.1536 98.8665C63.4977 98.8269 63.7677 98.7018 63.9637 98.4911C64.1596 98.2805 64.2906 98.0039 64.3567 97.6614C64.4222 97.3144 64.4295 96.919 64.3784 96.4754L64.3619 96.3328C64.3119 95.8981 64.2158 95.5216 64.0736 95.203C63.9309 94.88 63.7379 94.6385 63.4947 94.4784C63.2555 94.3133 62.9616 94.2508 62.613 94.2909C62.2734 94.33 62.0037 94.4574 61.8037 94.6731C61.6033 94.8843 61.4703 95.1634 61.4047 95.5104C61.3432 95.8523 61.3374 96.2406 61.3875 96.6753L61.4039 96.8179C61.455 97.2616 61.5496 97.6452 61.6878 97.9687C61.8305 98.2918 62.0235 98.5333 62.2667 98.6934C62.5094 98.849 62.805 98.9067 63.1536 98.8665ZM71.8895 99.2574L71.7526 98.069L72.7886 97.7433L72.6807 96.8061C72.5173 96.8616 72.3484 96.9086 72.1739 96.947C71.9989 96.9809 71.8231 97.0081 71.6466 97.0284C70.9403 97.1097 70.3264 97.0772 69.805 96.9308C69.2835 96.7844 68.8675 96.5181 68.5569 96.1318C68.2459 95.741 68.0541 95.231 67.9816 94.6016L67.8761 93.6849L66.8 93.6023L66.6631 92.4139L69.6987 92.0643L70.5476 91.9666L70.6845 93.155L69.859 93.4565L69.9646 94.3733C70.0016 94.6947 70.0764 94.9453 70.1888 95.125C70.3007 95.3002 70.461 95.4171 70.6696 95.4757C70.8822 95.5292 71.1492 95.5374 71.4706 95.5004C71.6562 95.479 71.8318 95.4496 71.9972 95.4122C72.1672 95.3743 72.3361 95.3274 72.5039 95.2713L72.2639 93.1865L71.3847 93.0813L71.2471 91.886L75.1452 91.4372L75.2828 92.6324L74.2469 92.9581L74.7716 97.5149L75.8544 97.5967L75.9913 98.7851L71.8895 99.2574ZM77.0982 98.6576L76.9614 97.4692L77.9973 97.1435L77.4726 92.5867L76.3897 92.5049L76.2521 91.3097L80.1434 90.8616L80.281 92.0568L79.4488 92.3591L79.6302 93.9346L82.0478 93.6562L81.8664 92.0807L80.9941 91.9747L80.8564 90.7795L81.7053 90.6817L83.6883 90.4534L84.7477 90.3314L84.8854 91.5266L83.8494 91.8524L84.3741 96.4092L85.457 96.4909L85.5939 97.6793L81.7026 98.1274L81.5657 96.939L82.3911 96.6375L82.223 95.1774L79.8054 95.4558L79.9735 96.9159L80.8527 97.0211L80.9895 98.2095L77.0982 98.6576ZM90.0856 97.3066C89.3612 97.39 88.7204 97.3032 88.1633 97.0463C87.6062 96.7893 87.1572 96.396 86.8164 95.8665C86.475 95.3323 86.2621 94.6986 86.1777 93.9651L86.1613 93.8225C86.0773 93.0936 86.1411 92.4325 86.3526 91.8394C86.5636 91.2416 86.909 90.7546 87.3886 90.3782C87.8722 89.9968 88.474 89.7647 89.1938 89.6818C89.9227 89.5979 90.5637 89.6869 91.1169 89.9489C91.6695 90.2064 92.1162 90.5999 92.457 91.1295C92.7978 91.6591 93.0105 92.2906 93.0949 93.0241L93.1113 93.1667C93.1958 93.9001 93.1325 94.5657 92.9215 95.1634C92.71 95.7566 92.3644 96.2414 91.8848 96.6177C91.4052 96.9941 90.8054 97.2237 90.0856 97.3066ZM89.9104 95.7854C90.2545 95.7458 90.5245 95.6207 90.7204 95.41C90.9164 95.1994 91.0474 94.9228 91.1135 94.5803C91.179 94.2333 91.1862 93.8379 91.1352 93.3943L91.1187 93.2516C91.0687 92.817 90.9726 92.4404 90.8304 92.1219C90.6877 91.7989 90.4947 91.5573 90.2515 91.3973C90.0123 91.2321 89.7184 91.1697 89.3698 91.2098C89.0302 91.2489 88.7605 91.3763 88.5605 91.592C88.36 91.8032 88.227 92.0823 88.1615 92.4293C88.0999 92.7712 88.0942 93.1595 88.1442 93.5942L88.1607 93.7368C88.2118 94.1805 88.3064 94.5641 88.4446 94.8876C88.5873 95.2107 88.7802 95.4522 89.0235 95.6123C89.2662 95.7678 89.5618 95.8256 89.9104 95.7854ZM97.9929 92.116L97.8146 90.5676L105.183 89.7192L105.361 91.2675L97.9929 92.116ZM110.592 94.8008L110.442 93.5037L113.251 89.6915C113.535 89.2827 113.754 88.9341 113.908 88.6456C114.063 88.3526 114.166 88.0907 114.217 87.86C114.272 87.6243 114.287 87.3955 114.262 87.1736C114.218 86.7888 114.069 86.4756 113.817 86.234C113.568 85.9919 113.232 85.8954 112.806 85.9444C112.349 85.9971 112.02 86.1863 111.819 86.5123C111.617 86.8336 111.546 87.2547 111.606 87.7753L109.678 87.9974L109.659 87.9582C109.577 87.3622 109.642 86.8111 109.854 86.3049C110.071 85.7938 110.416 85.3686 110.891 85.0295C111.37 84.6899 111.956 84.4802 112.649 84.4005C113.328 84.3223 113.924 84.3775 114.436 84.5662C114.953 84.7499 115.368 85.0439 115.68 85.4483C115.993 85.8527 116.182 86.3401 116.248 86.9105C116.293 87.3044 116.266 87.6837 116.165 88.0485C116.065 88.4088 115.887 88.7985 115.633 89.2177C115.378 89.637 115.044 90.1227 114.631 90.6749L112.947 92.9607L112.964 92.9931L115.524 92.6983L115.517 91.7426L117.052 91.5659L117.335 94.0242L110.592 94.8008ZM121.202 93.7234C120.858 93.7631 120.499 93.7678 120.124 93.7376C119.754 93.7114 119.407 93.6481 119.083 93.5477L119.142 92.089C119.44 92.1603 119.741 92.2081 120.047 92.2326C120.356 92.252 120.656 92.245 120.946 92.2116C121.521 92.1454 121.951 91.8963 122.236 91.4644C122.521 91.0325 122.62 90.3995 122.533 89.5654L122.502 89.4175C122.313 89.7283 122.071 89.9764 121.776 90.1618C121.485 90.3421 121.154 90.4536 120.782 90.4964C120.198 90.5636 119.669 90.487 119.194 90.2664C118.723 90.0408 118.336 89.6886 118.033 89.2097C117.734 88.7257 117.544 88.1306 117.463 87.4243C117.386 86.7588 117.46 86.1425 117.684 85.5754C117.912 85.0078 118.257 84.5414 118.72 84.1762C119.186 83.8059 119.739 83.5841 120.377 83.5106C121.052 83.4329 121.663 83.5208 122.21 83.7743C122.758 84.0277 123.208 84.4346 123.562 84.9948C123.915 85.5551 124.14 86.254 124.237 87.0915L124.484 89.2375C124.582 90.0887 124.505 90.8361 124.254 91.4798C124.007 92.1229 123.619 92.6378 123.09 93.0244C122.565 93.406 121.936 93.639 121.202 93.7234ZM121.043 88.9938C121.346 88.9589 121.611 88.8665 121.837 88.7166C122.062 88.5622 122.235 88.3726 122.356 88.1476L122.234 87.0882C122.15 86.3593 121.96 85.8238 121.664 85.4818C121.367 85.1352 121.001 84.9869 120.567 85.037C120.304 85.0672 120.081 85.1846 119.898 85.3892C119.715 85.5892 119.582 85.8499 119.5 86.1713C119.422 86.4877 119.404 86.8292 119.446 87.196C119.492 87.5944 119.581 87.935 119.715 88.2178C119.853 88.5001 120.033 88.7087 120.255 88.8437C120.477 88.9787 120.74 89.0288 121.043 88.9938ZM129.277 92.7936C128.675 92.863 128.11 92.8157 127.581 92.6517C127.057 92.4827 126.624 92.2068 126.282 91.8242C125.94 91.4416 125.742 90.9597 125.689 90.3787L125.699 90.3431L127.589 90.0291C127.64 90.4683 127.804 90.798 128.081 91.0183C128.359 91.2341 128.699 91.3188 129.102 91.2724C129.563 91.2193 129.886 91.0147 130.07 90.6586C130.254 90.3026 130.315 89.862 130.255 89.3368C130.189 88.7663 130.019 88.3226 129.744 88.0057C129.469 87.6887 129.098 87.557 128.632 87.6107C128.256 87.654 127.974 87.7576 127.787 87.9214C127.604 88.0846 127.483 88.2912 127.425 88.5411L125.659 88.6274L125.595 83.0541L131.286 82.3988L131.546 84.6535L130.324 84.7942L130.07 84.149L127.408 84.4556L127.393 86.7694C127.504 86.6648 127.636 86.5694 127.786 86.4833C127.936 86.3926 128.1 86.3164 128.276 86.2548C128.457 86.1882 128.651 86.1429 128.859 86.1189C129.491 86.0323 130.045 86.097 130.519 86.3131C130.998 86.524 131.381 86.8652 131.669 87.3367C131.962 87.8076 132.149 88.3939 132.23 89.0956C132.303 89.7295 132.239 90.3125 132.039 90.8448C131.843 91.372 131.512 91.8091 131.048 92.1562C130.587 92.4983 129.997 92.7107 129.277 92.7936ZM133.831 92.1247L133.631 90.3862L135.607 90.1587L135.807 91.8972L133.831 92.1247ZM140.53 91.4979C139.497 91.6167 138.641 91.3735 137.961 90.7683C137.281 90.1585 136.866 89.1994 136.715 87.891L136.464 85.7111C136.314 84.4072 136.498 83.3813 137.018 82.6334C137.541 81.8804 138.317 81.4448 139.345 81.3264C140.368 81.2086 141.22 81.4568 141.901 82.0711C142.585 82.6804 143.003 83.6369 143.153 84.9408L143.404 87.1207C143.555 88.4292 143.368 89.4576 142.844 90.206C142.324 90.9494 141.553 91.38 140.53 91.4979ZM140.354 89.9767C140.798 89.9256 141.115 89.7056 141.304 89.3168C141.493 88.9281 141.542 88.3353 141.45 87.5385L141.153 84.9646C141.063 84.1769 140.879 83.6155 140.602 83.2804C140.325 82.9453 139.964 82.8033 139.521 82.8544C139.072 82.906 138.754 83.1262 138.564 83.515C138.375 83.9038 138.326 84.492 138.417 85.2798L138.713 87.8536C138.805 88.6504 138.987 89.2166 139.26 89.5522C139.537 89.8873 139.902 90.0288 140.354 89.9767ZM148.475 90.5829C147.443 90.7018 146.587 90.4586 145.907 89.8533C145.227 89.2436 144.811 88.2845 144.661 86.9761L144.409 84.7961C144.259 83.4923 144.444 82.4664 144.963 81.7184C145.487 80.9655 146.262 80.5298 147.29 80.4115C148.313 80.2936 149.165 80.5419 149.846 81.1562C150.531 81.7654 150.949 82.722 151.099 84.0259L151.35 86.2058C151.5 87.5142 151.314 88.5426 150.79 89.2911C150.27 90.0345 149.498 90.4651 148.475 90.5829ZM148.3 89.0617C148.744 89.0106 149.06 88.7907 149.249 88.4019C149.438 88.0131 149.487 87.4203 149.395 86.6235L149.099 84.0497C149.008 83.2619 148.824 82.7005 148.547 82.3654C148.27 82.0303 147.91 81.8884 147.466 81.9394C147.018 81.9911 146.699 82.2113 146.51 82.6C146.321 82.9888 146.272 83.5771 146.362 84.3648L146.659 86.9387C146.75 87.7355 146.933 88.3017 147.205 88.6373C147.482 88.9724 147.847 89.1138 148.3 89.0617ZM156.421 89.668C155.388 89.7868 154.532 89.5436 153.853 88.9384C153.172 88.3286 152.757 87.3695 152.606 86.0611L152.355 83.8812C152.205 82.5773 152.39 81.5514 152.909 80.8035C153.432 80.0505 154.208 79.6149 155.236 79.4965C156.259 79.3787 157.111 79.6269 157.792 80.2412C158.477 80.8505 158.894 81.807 159.044 83.1109L159.295 85.2908C159.446 86.5993 159.259 87.6277 158.735 88.3761C158.215 89.1195 157.444 89.5501 156.421 89.668ZM156.245 88.1468C156.689 88.0957 157.006 87.8757 157.195 87.487C157.384 87.0982 157.433 86.5054 157.341 85.7086L157.045 83.1347C156.954 82.347 156.77 81.7856 156.493 81.4505C156.216 81.1154 155.855 80.9734 155.412 81.0245C154.963 81.0761 154.645 81.2963 154.455 81.6851C154.266 82.0739 154.217 82.6621 154.308 83.4499L154.604 86.0237C154.696 86.8205 154.878 87.3867 155.151 87.7223C155.428 88.0574 155.793 88.1989 156.245 88.1468ZM164.451 91.4613L164.313 90.2661L165.247 89.9521L164.398 82.577L163.315 82.4952L163.178 81.3L166.057 80.9684L166.251 81.8132C166.432 81.4712 166.666 81.1965 166.954 80.989C167.242 80.7815 167.599 80.6533 168.024 80.6043C168.618 80.536 169.143 80.6406 169.602 80.918C170.06 81.191 170.433 81.6045 170.722 82.1584C171.015 82.7119 171.206 83.3757 171.295 84.1499L171.312 84.2925C171.395 85.0168 171.355 85.6637 171.191 86.2331C171.031 86.7974 170.756 87.2557 170.365 87.608C169.979 87.9553 169.487 88.1634 168.889 88.2322C168.495 88.2775 168.138 88.2475 167.819 88.1421C167.503 88.0316 167.223 87.8506 166.979 87.5989L167.224 89.7245L168.205 89.818L168.342 91.0132L164.451 91.4613ZM168.123 86.779C168.63 86.7206 168.975 86.4905 169.158 86.0887C169.346 85.6863 169.403 85.1637 169.329 84.5208L169.312 84.3782C169.259 83.9119 169.16 83.5127 169.016 83.1806C168.872 82.844 168.68 82.5908 168.44 82.4212C168.204 82.2465 167.919 82.1784 167.584 82.217C167.312 82.2483 167.079 82.337 166.885 82.4832C166.696 82.6289 166.553 82.822 166.456 83.0625L166.827 86.2814C166.973 86.4756 167.155 86.6153 167.371 86.7005C167.592 86.7852 167.842 86.8113 168.123 86.779ZM174.905 90.4019C174.733 90.4218 174.548 90.427 174.35 90.4178C174.156 90.4125 173.971 90.3949 173.793 90.3649L173.85 88.8858C173.938 88.894 174.035 88.8966 174.14 88.8937C174.245 88.8907 174.336 88.8848 174.413 88.876C174.698 88.8431 174.936 88.74 175.127 88.5666C175.319 88.3932 175.445 88.1607 175.508 87.8691L175.619 87.3953L172.457 81.5732L171.539 81.5482L171.402 80.353L175.3 79.9041L175.437 81.0993L174.557 81.3384L176.084 84.4448L176.273 84.829L176.314 84.8243L177.258 81.0136L176.368 80.9922L176.23 79.797L179.863 79.3786L180.001 80.5738L179.186 80.7847L177.202 88.2383C177.105 88.5935 176.967 88.9237 176.786 89.2289C176.611 89.5381 176.37 89.7975 176.064 90.007C175.762 90.2161 175.376 90.3477 174.905 90.4019ZM184.923 86.3859C184.198 86.4693 183.558 86.3893 183.003 86.1459C182.452 85.902 182.007 85.5289 181.67 85.0264C181.331 84.5195 181.123 83.9196 181.043 83.227L180.934 82.283C180.807 81.1783 180.843 80.2383 181.043 79.463C181.243 78.6876 181.574 78.0623 182.038 77.5868C182.501 77.1069 183.06 76.7627 183.715 76.5542C184.146 76.4312 184.458 76.2989 184.653 76.1572C184.852 76.0104 184.936 75.8012 184.904 75.5296L186.439 75.3529L186.464 75.3913C186.524 75.8339 186.509 76.2003 186.419 76.4906C186.333 76.7803 186.188 77.0194 185.985 77.208C185.782 77.3965 185.532 77.556 185.235 77.6866C184.942 77.812 184.623 77.9291 184.278 78.0376C183.84 78.1753 183.486 78.3468 183.216 78.5522C182.95 78.7526 182.752 78.9909 182.624 79.2672C182.499 79.543 182.428 79.8631 182.411 80.2275L182.442 80.2584C182.665 80.0078 182.939 79.7929 183.262 79.6134C183.585 79.434 183.953 79.3205 184.365 79.2731C185.022 79.1975 185.607 79.2769 186.12 79.5114C186.633 79.7459 187.048 80.1064 187.366 80.5928C187.687 81.0741 187.887 81.6521 187.965 82.3267L187.981 82.4693C188.061 83.162 187.993 83.7891 187.778 84.3506C187.563 84.9121 187.214 85.3719 186.733 85.7302C186.25 86.0839 185.647 86.3025 184.923 86.3859ZM184.748 84.8647C185.087 84.8256 185.356 84.712 185.555 84.524C185.757 84.3309 185.893 84.079 185.963 83.7682C186.032 83.4529 186.044 83.096 185.998 82.6976L185.982 82.555C185.939 82.1838 185.847 81.8618 185.705 81.5891C185.568 81.3158 185.38 81.1128 185.14 80.9799C184.904 80.8419 184.614 80.7927 184.269 80.8323C183.93 80.8714 183.661 80.985 183.462 81.173C183.263 81.3565 183.128 81.5968 183.057 81.8941C182.986 82.1913 182.971 82.5255 183.014 82.8967L183.026 82.9986C183.072 83.4015 183.163 83.7512 183.298 84.0476C183.437 84.3435 183.626 84.5649 183.863 84.7119C184.104 84.8539 184.399 84.9048 184.748 84.8647ZM188.732 86.6628L191.577 75.4562L193.404 75.2458L190.559 86.4525L188.732 86.6628ZM194.604 85.1265L194.467 83.9381L195.496 83.6132L194.972 79.0564L193.895 78.9738L193.758 77.7786L200.196 77.0373L200.494 79.6247L199.251 79.7678L199.048 78.7245L196.97 78.9638L197.479 83.3848L198.555 83.4673L198.692 84.6558L194.604 85.1265ZM205.398 84.0281C204.673 84.1115 204.033 84.0248 203.476 83.7678C202.918 83.5108 202.469 83.1176 202.129 82.588C201.787 82.0538 201.574 81.4201 201.49 80.6866L201.473 80.544C201.39 79.8151 201.453 79.1541 201.665 78.5609C201.876 77.9631 202.221 77.4761 202.701 77.0998C203.184 76.7184 203.786 76.4862 204.506 76.4033C205.235 76.3194 205.876 76.4084 206.429 76.6704C206.982 76.9279 207.428 77.3214 207.769 77.851C208.11 78.3806 208.323 79.0121 208.407 79.7456L208.424 79.8882C208.508 80.6216 208.445 81.2872 208.234 81.8849C208.022 82.4781 207.677 82.9629 207.197 83.3392C206.717 83.7156 206.118 83.9452 205.398 84.0281ZM205.223 82.5069C205.567 82.4673 205.837 82.3422 206.033 82.1315C206.229 81.9209 206.36 81.6443 206.426 81.3018C206.491 80.9548 206.498 80.5594 206.447 80.1158L206.431 79.9731C206.381 79.5385 206.285 79.162 206.143 78.8434C206 78.5204 205.807 78.2789 205.564 78.1188C205.324 77.9537 205.031 77.8912 204.682 77.9313C204.342 77.9704 204.073 78.0978 203.873 78.3135C203.672 78.5247 203.539 78.8038 203.474 79.1508C203.412 79.4927 203.406 79.881 203.456 80.3157L203.473 80.4583C203.524 80.902 203.619 81.2856 203.757 81.6091C203.899 81.9322 204.092 82.1737 204.336 82.3338C204.578 82.4894 204.874 82.5471 205.223 82.5069ZM209.492 85.6416L208.913 81.9237L209.551 81.8502C209.746 81.5938 209.904 81.3486 210.024 81.1146C210.143 80.8761 210.231 80.6273 210.289 80.3684C210.345 80.105 210.376 79.8147 210.381 79.4976C210.39 79.1755 210.374 78.8034 210.335 78.3813L210.238 77.2984L209.175 77.2143L209.038 76.0191L215.516 75.2731L216.576 75.1511L216.713 76.3463L215.677 76.672L216.187 81.0998L217.254 80.977L217.546 84.7142L215.699 84.9269L215.446 82.7266L211.093 83.2278L211.346 85.4281L209.492 85.6416ZM211.82 81.5958L214.217 81.3198L213.729 77.0822L212.235 77.2542L212.318 78.153C212.384 78.884 212.369 79.5348 212.274 80.1053C212.179 80.6714 212.028 81.1682 211.82 81.5958Z" fill="white"/>
<path d="M34.6695 65.9504L34.566 64.8478L35.6086 64.544L35.5536 63.9587L35.4447 63.9689C34.6371 64.0447 33.9086 63.9643 33.2593 63.7278C32.6096 63.4867 32.0826 63.115 31.6784 62.6128C31.2784 62.1057 31.0445 61.4914 30.9767 60.77C30.9073 60.0304 31.0236 59.3672 31.3255 58.7804C31.6274 58.1936 32.0725 57.717 32.6606 57.3505C33.2532 56.9836 33.9534 56.7623 34.761 56.6865L34.8699 56.6762L34.8137 56.0773L33.7328 55.9728L33.6293 54.8702L37.7333 54.4849L37.8368 55.5875L36.7942 55.8914L36.8505 56.4903L36.9321 56.4826C37.7398 56.4068 38.4689 56.494 39.1195 56.7442C39.7696 56.9898 40.2977 57.3728 40.7035 57.8931C41.109 58.4089 41.3464 59.0366 41.4159 59.7762C41.4836 60.4976 41.3659 61.1449 41.0626 61.7181C40.7594 62.2913 40.3088 62.757 39.7108 63.1152C39.1173 63.473 38.4189 63.6897 37.6158 63.7651L37.5342 63.7727L37.5891 64.358L38.67 64.4625L38.7735 65.5651L34.6695 65.9504ZM35.3163 62.6009L35.4252 62.5907L34.9996 58.0579L34.8907 58.0681C34.4461 58.1098 34.0689 58.2368 33.7593 58.4489C33.4496 58.6611 33.2202 58.9481 33.0711 59.31C32.9261 59.6669 32.8768 60.0927 32.9233 60.5872C32.968 61.0636 33.0944 61.4592 33.3024 61.7738C33.5146 62.0834 33.7921 62.3091 34.135 62.4509C34.4779 62.5926 34.8716 62.6426 35.3163 62.6009ZM37.4057 62.4047L37.501 62.3958C37.9411 62.3544 38.3164 62.2322 38.627 62.0292C38.937 61.8215 39.165 61.5438 39.3109 61.196C39.4608 60.8431 39.5137 60.4308 39.4694 59.9589C39.4225 59.4598 39.2923 59.0486 39.0789 58.7254C38.8696 58.3971 38.5933 58.1599 38.25 58.0136C37.9062 57.8628 37.5143 57.808 37.0742 57.8494L36.9802 57.8719L37.4057 62.4047ZM46.1574 64.4256C45.4314 64.4938 44.7926 64.3935 44.241 64.1249C43.6894 63.8563 43.2488 63.4536 42.9192 62.917C42.5891 62.3758 42.3896 61.7377 42.3206 61.0026L42.3072 60.8597C42.2386 60.1292 42.3163 59.4696 42.5402 58.881C42.7638 58.2879 43.1193 57.8082 43.6067 57.442C44.0983 57.0709 44.7047 56.8515 45.4262 56.7837C46.1567 56.7151 46.7957 56.8176 47.3432 57.0912C47.8903 57.3603 48.3286 57.7631 48.6582 58.2998C48.9878 58.8364 49.1871 59.4723 49.2561 60.2073L49.2695 60.3503C49.3386 61.0853 49.2613 61.7494 49.0378 62.3426C48.8138 62.9312 48.4581 63.4086 47.9707 63.7747C47.4832 64.1409 46.8788 64.3579 46.1574 64.4256ZM46.0142 62.9011C46.3591 62.8687 46.6316 62.7493 46.832 62.5428C47.0323 62.3363 47.1691 62.0625 47.2424 61.7215C47.3152 61.376 47.3307 60.9809 47.289 60.5362L47.2756 60.3933C47.2347 59.9577 47.1465 59.5792 47.0111 59.2577C46.8752 58.9318 46.6873 58.6862 46.4475 58.5211C46.2119 58.3509 45.9193 58.2823 45.5699 58.3151C45.2296 58.347 44.9573 58.4687 44.7528 58.6802C44.548 58.8871 44.4091 59.1633 44.3363 59.5089C44.2676 59.8495 44.2537 60.2376 44.2945 60.6731L44.308 60.8161C44.3497 61.2607 44.4363 61.6462 44.5676 61.9726C44.7035 62.2986 44.8913 62.5442 45.1311 62.7093C45.3705 62.8699 45.6649 62.9339 46.0142 62.9011ZM50.6635 66.7146L50.5511 65.5168L51.4915 65.2225L50.7976 57.8312L49.7167 57.7267L49.6042 56.5288L52.49 56.2579L52.6658 57.1065C52.8538 56.7684 53.0939 56.4987 53.3863 56.2973C53.6786 56.0959 54.0381 55.9752 54.4646 55.9352C55.059 55.8794 55.5825 55.995 56.0351 56.2821C56.4873 56.5646 56.8519 56.9858 57.1287 57.5457C57.4101 58.1052 57.5872 58.7729 57.6601 59.5488L57.6735 59.6917C57.7417 60.4177 57.6879 61.0636 57.5121 61.6293C57.3405 62.1902 57.0557 62.6426 56.6577 62.9866C56.2638 63.3257 55.7674 63.5234 55.1685 63.5796C54.7738 63.6167 54.4178 63.5791 54.1006 63.467C53.7875 63.3499 53.5113 63.163 53.2721 62.9063L53.4721 65.0365L54.4509 65.1506L54.5634 66.3485L50.6635 66.7146ZM54.4333 62.1106C54.9414 62.0629 55.2913 61.8401 55.4828 61.4422C55.6788 61.0439 55.7466 60.5226 55.6861 59.8783L55.6727 59.7354C55.6288 59.268 55.5385 58.8668 55.4018 58.5318C55.2646 58.1922 55.078 57.9351 54.8419 57.7604C54.6099 57.5808 54.326 57.5068 53.9903 57.5383C53.718 57.5638 53.4833 57.6477 53.2861 57.7898C53.0934 57.9315 52.9465 58.1215 52.8452 58.3598L53.1481 61.5859C53.2902 61.7831 53.4685 61.9266 53.6829 62.0163C53.9018 62.1056 54.1519 62.1371 54.4333 62.1106ZM58.9392 63.0814L58.8274 61.8904L59.87 61.5865L59.4412 57.0197L58.3603 56.9152L58.2479 55.7173L59.3096 55.6176L61.7666 55.387L64.1192 60.2607L64.16 60.2568L65.5779 55.0291L68.0689 54.7953L69.1239 54.6962L69.2363 55.8941L68.2006 56.1973L68.6293 60.7641L69.7034 60.8693L69.8152 62.0603L66.0243 62.4162L65.9125 61.2252L66.642 60.9507L66.3615 57.9629L66.32 57.9599L65.0238 62.5102L63.6898 62.6354L61.6179 58.4837L61.5777 58.4944L61.8505 61.4006L62.6252 61.5338L62.737 62.7249L58.9392 63.0814ZM73.2317 61.8838C72.5012 61.9523 71.9021 61.8118 71.4344 61.462C70.9663 61.1077 70.7005 60.5926 70.637 59.9165C70.5718 59.2223 70.8003 58.6333 71.3225 58.1494C71.8442 57.661 72.6473 57.3659 73.7317 57.2641L74.705 57.1727L74.6539 56.6282C74.6206 56.2743 74.4894 55.9982 74.2603 55.8C74.0352 55.5969 73.7162 55.5147 73.3034 55.5534C73.0901 55.5735 72.9021 55.6186 72.7393 55.6888C72.5761 55.7545 72.4287 55.8415 72.297 55.95L72.2318 56.938L70.8025 57.0722L70.5958 55.1622C70.961 54.9082 71.3618 54.6921 71.7982 54.5138C72.2346 54.3355 72.7296 54.2204 73.2832 54.1684C74.2451 54.0781 75.0262 54.2314 75.6264 54.6282C76.2263 55.0204 76.5652 55.6317 76.6431 56.462L76.9281 59.4975C76.9375 59.5973 76.9469 59.6972 76.9562 59.797C76.9697 59.8918 76.9875 59.984 77.0097 60.0735L77.789 60.1102L77.9008 61.3012L75.437 61.5325C75.3752 61.4102 75.3125 61.2787 75.2489 61.1382C75.1854 60.9977 75.1355 60.8559 75.0991 60.7129C74.8913 61.0345 74.6348 61.3012 74.3297 61.5129C74.0287 61.7197 73.6627 61.8433 73.2317 61.8838ZM73.6245 60.3638C73.9013 60.3378 74.1587 60.2519 74.3968 60.1059C74.6344 59.9555 74.8117 59.7718 74.9286 59.5548L74.8194 58.391L73.8393 58.483C73.4037 58.5239 73.0819 58.6548 72.8737 58.8757C72.6701 59.0962 72.5816 59.3472 72.608 59.6285C72.6327 59.8916 72.7335 60.0882 72.9105 60.218C73.0916 60.3429 73.3296 60.3915 73.6245 60.3638ZM85.5505 60.7272C84.8246 60.7954 84.1858 60.6951 83.6342 60.4265C83.0825 60.1579 82.6419 59.7553 82.3123 59.2186C81.9823 58.6774 81.7828 58.0393 81.7138 57.3043L81.7004 57.1613C81.6318 56.4308 81.7095 55.7713 81.9334 55.1826C82.157 54.5895 82.5124 54.1098 82.9999 53.7437C83.4914 53.3725 84.0979 53.1531 84.8194 53.0854C85.5499 53.0168 86.1889 53.1193 86.7364 53.3929C87.2835 53.6619 87.7218 54.0648 88.0514 54.6014C88.381 55.1381 88.5803 55.7739 88.6493 56.5089L88.6627 56.6519C88.7317 57.3869 88.6545 58.051 88.4309 58.6442C88.207 59.2328 87.8513 59.7102 87.3639 60.0764C86.8764 60.4425 86.272 60.6595 85.5505 60.7272ZM85.4074 59.2027C85.7522 59.1703 86.0248 59.0509 86.2252 58.8444C86.4255 58.6379 86.5623 58.3642 86.6355 58.0231C86.7084 57.6776 86.7239 57.2825 86.6822 56.8378L86.6688 56.6949C86.6279 56.2593 86.5397 55.8808 86.4042 55.5594C86.2683 55.2334 86.0805 54.9878 85.8407 54.8227C85.605 54.6526 85.3125 54.5839 84.9631 54.6167C84.6228 54.6487 84.3505 54.7703 84.146 54.9818C83.9412 55.1887 83.8023 55.4649 83.7295 55.8105C83.6607 56.1511 83.6468 56.5392 83.6877 56.9748L83.7011 57.1177C83.7429 57.5623 83.8294 57.9479 83.9608 58.2743C84.0967 58.6002 84.2845 58.8458 84.5243 59.0109C84.7637 59.1716 85.058 59.2355 85.4074 59.2027ZM93.5068 59.9803C92.7808 60.0484 92.1426 59.955 91.5923 59.7C91.0465 59.4445 90.6101 59.0621 90.283 58.5527C89.9556 58.0387 89.7592 57.4346 89.6941 56.7404L89.6053 55.7944C89.5013 54.6873 89.5573 53.7482 89.7733 52.9773C89.9893 52.2063 90.3341 51.5881 90.8076 51.1225C91.2807 50.6524 91.8469 50.32 92.506 50.1254C92.9393 50.0115 93.2548 49.8857 93.4524 49.7482C93.6542 49.6056 93.7423 49.3982 93.7167 49.126L95.2549 48.9816L95.2791 49.0205C95.33 49.4643 95.3071 49.8304 95.2106 50.1186C95.1186 50.4065 94.9691 50.6425 94.7621 50.8268C94.5551 51.011 94.3018 51.1652 94.0022 51.2895C93.7068 51.4087 93.3853 51.519 93.0377 51.6203C92.5966 51.7487 92.239 51.9127 91.9648 52.1124C91.6947 52.3071 91.4924 52.5413 91.3579 52.8148C91.2279 53.0879 91.1502 53.4065 91.1249 53.7704L91.1553 53.8019C91.384 53.5562 91.6619 53.347 91.989 53.1744C92.316 53.0018 92.686 52.8961 93.0989 52.8573C93.7569 52.7955 94.3399 52.8873 94.8481 53.1325C95.3564 53.3778 95.7641 53.7469 96.0713 54.2398C96.3826 54.7278 96.5699 55.3099 96.6334 55.9859L96.6468 56.1289C96.712 56.8231 96.6311 57.4486 96.4042 58.0055C96.1773 58.5623 95.8192 59.0148 95.3301 59.3628C94.8405 59.7063 94.2327 59.9121 93.5068 59.9803ZM93.3636 58.4557C93.7039 58.4238 93.9753 58.3159 94.1778 58.1321C94.3843 57.9434 94.5257 57.6943 94.602 57.3851C94.6778 57.0713 94.697 56.7147 94.6595 56.3155L94.6461 56.1725C94.6111 55.8005 94.5258 55.4766 94.3901 55.201C94.2589 54.9249 94.0747 54.7179 93.8374 54.58C93.6043 54.4371 93.3153 54.3819 92.9705 54.4142C92.6302 54.4462 92.3588 54.554 92.1563 54.7378C91.9535 54.9171 91.8132 55.1545 91.7357 55.4502C91.6582 55.7458 91.6369 56.0797 91.6718 56.4518L91.6814 56.5538C91.7193 56.9577 91.8027 57.3092 91.9315 57.6083C92.0648 57.9071 92.2485 58.1324 92.4824 58.2844C92.7205 58.4314 93.0143 58.4885 93.3636 58.4557ZM100.136 62.2141C99.9638 62.2303 99.7785 62.2317 99.5804 62.2182C99.3873 62.2089 99.2022 62.1874 99.0251 62.1537L99.1129 60.6761C99.2009 60.6861 99.2974 60.6908 99.4026 60.6901C99.5078 60.6894 99.599 60.6854 99.6762 60.6781C99.962 60.6513 100.202 60.5532 100.397 60.3839C100.592 60.2146 100.723 59.9848 100.792 59.6945L100.913 59.2232L97.8745 53.3359L96.9572 53.2915L96.8447 52.0937L100.751 51.7269L100.864 52.9248L99.9782 53.1452L101.44 56.2831L101.621 56.6712L101.662 56.6674L102.686 52.8773L101.796 52.8372L101.684 51.6394L105.325 51.2975L105.437 52.4954L104.618 52.689L102.478 60.0992C102.374 60.4523 102.228 60.7795 102.042 61.0809C101.86 61.3863 101.613 61.6406 101.303 61.8437C100.997 62.0463 100.608 62.1698 100.136 62.2141ZM110.862 58.2067L110.75 57.0156L111.793 56.7118L111.705 55.7725C111.54 55.8246 111.371 55.868 111.195 55.9028C111.02 55.933 110.843 55.9564 110.666 55.973C109.958 56.0395 109.345 55.994 108.827 55.8367C108.309 55.6794 107.899 55.4044 107.596 55.0116C107.293 54.6144 107.112 54.1004 107.053 53.4697L106.967 52.5509L105.893 52.4458L105.781 51.2547L108.823 50.9691L109.674 50.8892L109.786 52.0803L108.954 52.3643L109.041 53.2831C109.071 53.6053 109.14 53.8574 109.249 54.0394C109.357 54.2169 109.515 54.3372 109.722 54.4001C109.934 54.4581 110.2 54.4719 110.523 54.4417C110.709 54.4242 110.885 54.3985 111.051 54.3646C111.222 54.3303 111.391 54.2869 111.56 54.2344L111.364 52.1449L110.488 52.0213L110.375 50.8234L114.282 50.4566L114.394 51.6545L113.352 51.9584L113.78 56.5252L114.861 56.6297L114.973 57.8207L110.862 58.2067ZM119.472 57.5426C118.768 57.6086 118.139 57.5121 117.584 57.2529C117.028 56.9893 116.579 56.5988 116.238 56.0816C115.901 55.564 115.7 54.9558 115.634 54.257L115.609 53.9848C115.54 53.2543 115.615 52.5949 115.835 52.0067C116.054 51.414 116.395 50.9333 116.86 50.5648C117.329 50.1958 117.901 49.9795 118.577 49.916C119.244 49.8534 119.817 49.9324 120.295 50.153C120.774 50.3735 121.154 50.72 121.437 51.1924C121.719 51.6649 121.893 52.2527 121.959 52.956L122.061 54.0382L117.732 54.4445L117.722 54.4867C117.78 54.8063 117.886 55.0869 118.042 55.3287C118.201 55.5654 118.41 55.7449 118.669 55.8671C118.927 55.9848 119.231 56.0272 119.58 55.9944C119.943 55.9603 120.277 55.8832 120.582 55.7631C120.89 55.638 121.186 55.4706 121.468 55.261L122.121 56.4356C121.84 56.7092 121.476 56.9493 121.028 57.1561C120.585 57.358 120.066 57.4868 119.472 57.5426ZM117.622 53.1297L120.079 52.899L120.063 52.7221C120.035 52.4226 119.97 52.1701 119.868 51.9645C119.77 51.754 119.628 51.598 119.44 51.4966C119.256 51.3949 119.026 51.357 118.749 51.3829C118.486 51.4077 118.27 51.4989 118.102 51.6566C117.933 51.8097 117.808 52.0114 117.726 52.2617C117.649 52.5116 117.607 52.7902 117.599 53.0976L117.622 53.1297ZM123.419 57.0278L123.308 55.8367L124.35 55.5329L123.921 50.966L122.84 50.8615L122.728 49.6637L126.628 49.2975L126.74 50.4954L125.902 50.7801L126.05 52.3591L128.473 52.1316L128.325 50.5526L127.455 50.4283L127.342 49.2304L128.193 49.1506L130.181 48.964L131.242 48.8643L131.355 50.0622L130.312 50.366L130.741 54.9329L131.822 55.0374L131.934 56.2284L128.034 56.5945L127.922 55.4035L128.754 55.1194L128.616 53.6562L126.193 53.8836L126.331 55.3469L127.207 55.4706L127.319 56.6616L123.419 57.0278ZM133.057 56.123L132.945 54.9319L133.987 54.6281L133.559 50.0612L132.478 49.9567L132.365 48.7589L135.414 48.4726L136.367 48.3832L136.48 49.581L135.546 49.8747L135.834 52.9442L135.876 52.9471L137.851 48.2439L139.838 48.0573L140.893 47.9583L141.006 49.1561L139.97 49.4593L140.399 54.0262L141.473 54.1313L141.585 55.3224L137.589 55.6974L137.478 54.5064L138.411 54.2127L138.122 51.1296L138.08 51.1266L136.106 55.8367L133.057 56.123ZM142.708 55.2169L142.596 54.0259L143.367 53.8299L144.152 52.0946C143.715 51.9297 143.37 51.6897 143.116 51.3748C142.866 51.055 142.721 50.6818 142.681 50.2553C142.636 49.7743 142.726 49.3379 142.95 48.9461C143.174 48.5543 143.512 48.2342 143.965 47.9857C144.417 47.7327 144.963 47.5761 145.603 47.5161L149.904 47.1123L150.017 48.3101L148.981 48.6133L149.41 53.1802L150.484 53.2853L150.596 54.4764L146.703 54.8418L146.591 53.6508L147.429 53.3661L147.318 52.1819L146.243 52.2828L145.158 54.9869L142.708 55.2169ZM145.892 50.9631L147.192 50.8411L147.011 48.915L145.745 49.0338C145.373 49.0688 145.095 49.1956 144.909 49.4144C144.724 49.6332 144.643 49.8697 144.667 50.1238C144.691 50.3779 144.809 50.5911 145.022 50.7633C145.239 50.9306 145.529 50.9972 145.892 50.9631ZM155.067 54.0565L154.955 52.8655L155.998 52.5616L155.569 47.9948L154.488 47.8903L154.376 46.6924L157.425 46.4062L158.378 46.3167L158.49 47.5146L157.557 47.8082L157.845 50.8777L157.886 50.8807L159.862 46.1774L161.849 45.9909L162.904 45.8918L163.016 47.0897L161.981 47.3929L162.409 51.9597L163.483 52.0649L163.595 53.2559L159.6 53.631L159.488 52.4399L160.422 52.1463L160.133 49.0632L160.091 49.0602L158.116 53.7703L155.067 54.0565ZM171.463 52.6615C170.755 52.7279 170.128 52.6266 169.58 52.3576C169.038 52.0881 168.602 51.6873 168.273 51.1552C167.943 50.6185 167.745 49.9895 167.677 49.2681L167.658 49.0639C167.59 48.3379 167.67 47.6827 167.899 47.0982C168.128 46.5137 168.484 46.0385 168.967 45.6728C169.449 45.3025 170.037 45.0848 170.732 45.0196C171.394 44.9574 171.973 45.0083 172.469 45.1723C172.969 45.3313 173.382 45.5329 173.707 45.777L173.892 47.8882L172.394 48.0287L172.005 46.7401C171.886 46.6414 171.74 46.5659 171.565 46.5136C171.391 46.4613 171.218 46.4433 171.045 46.4595C170.682 46.4935 170.389 46.6126 170.166 46.8167C169.947 47.0203 169.794 47.2956 169.708 47.6424C169.621 47.9893 169.6 48.4009 169.645 48.8773L169.664 49.0815C169.712 49.5851 169.816 49.9941 169.979 50.3085C170.14 50.6183 170.337 50.8401 170.57 50.9739C170.807 51.1073 171.061 51.1612 171.333 51.1356C171.683 51.1028 171.953 50.9859 172.145 50.7848C172.341 50.5788 172.461 50.3042 172.507 49.9612L174.208 49.8015L174.233 49.8404C174.205 50.3694 174.093 50.8354 173.897 51.2382C173.706 51.6407 173.411 51.9636 173.013 52.207C172.619 52.4499 172.103 52.6014 171.463 52.6615ZM177.071 51.9907L176.959 50.7997L177.995 50.4965L177.577 46.0453L176.345 46.161L176.364 47.1617L174.839 47.3048L174.603 44.7934L182.294 44.0714L182.53 46.5828L181.005 46.7259L180.83 45.7399L179.571 45.8581L179.989 50.3093L181.063 50.4144L181.175 51.6054L177.071 51.9907ZM187.137 51.1899C186.411 51.2581 185.772 51.1578 185.221 50.8892C184.669 50.6206 184.228 50.2179 183.899 49.6813C183.569 49.1401 183.369 48.502 183.3 47.767L183.287 47.624C183.218 46.8935 183.296 46.234 183.52 45.6453C183.743 45.0522 184.099 44.5725 184.586 44.2063C185.078 43.8352 185.684 43.6158 186.406 43.548C187.136 43.4795 187.775 43.582 188.323 43.8555C188.87 44.1246 189.308 44.5274 189.638 45.0641C189.967 45.6007 190.167 46.2366 190.236 46.9716L190.249 47.1146C190.318 47.8496 190.241 48.5137 190.017 49.1069C189.793 49.6955 189.438 50.1729 188.95 50.539C188.463 50.9052 187.858 51.1222 187.137 51.1899ZM186.994 49.6654C187.339 49.633 187.611 49.5136 187.812 49.3071C188.012 49.1006 188.149 48.8269 188.222 48.4858C188.295 48.1403 188.31 47.7452 188.269 47.3005L188.255 47.1576C188.214 46.722 188.126 46.3435 187.991 46.0221C187.855 45.6961 187.667 45.4505 187.427 45.2854C187.192 45.1153 186.899 45.0466 186.55 45.0794C186.209 45.1113 185.937 45.233 185.733 45.4445C185.528 45.6514 185.389 45.9276 185.316 46.2732C185.247 46.6138 185.233 47.0019 185.274 47.4374L185.288 47.5804C185.329 48.025 185.416 48.4106 185.547 48.7369C185.683 49.0629 185.871 49.3085 186.111 49.4736C186.35 49.6343 186.645 49.6982 186.994 49.6654ZM191.575 50.6291L191.463 49.438L192.505 49.1342L192.077 44.5674L190.996 44.4629L190.883 43.265L193.932 42.9787L194.885 42.8893L194.998 44.0871L194.064 44.3808L194.352 47.4503L194.394 47.4533L196.369 42.75L198.356 42.5634L199.411 42.4644L199.524 43.6622L198.488 43.9654L198.917 48.5323L199.991 48.6374L200.103 49.8285L196.108 50.2035L195.996 49.0125L196.929 48.7189L196.64 45.6357L196.598 45.6328L194.624 50.3428L191.575 50.6291ZM201.266 49.7192L201.155 48.5281L202.197 48.2243L201.768 43.6575L200.688 43.553L200.575 42.3551L201.637 42.2554L204.094 42.0247L206.446 46.8984L206.487 46.8946L207.905 41.6669L210.396 41.4331L211.451 41.334L211.564 42.5319L210.528 42.8351L210.957 47.4019L212.031 47.5071L212.142 48.6981L208.352 49.054L208.24 47.863L208.969 47.5885L208.689 44.6007L208.647 44.5977L207.351 49.148L206.017 49.2732L203.945 45.1215L203.905 45.1322L204.178 48.0383L204.952 48.1716L205.064 49.3626L201.266 49.7192ZM216.607 48.4232C215.881 48.4913 215.242 48.3911 214.691 48.1225C214.139 47.8538 213.698 47.4512 213.369 46.9145C213.039 46.3734 212.839 45.7352 212.77 45.0002L212.757 44.8573C212.688 44.1268 212.766 43.4672 212.99 42.8786C213.213 42.2854 213.569 41.8058 214.056 41.4396C214.548 41.0685 215.154 40.849 215.876 40.7813C216.606 40.7127 217.245 40.8152 217.793 41.0888C218.34 41.3578 218.778 41.7607 219.108 42.2973C219.437 42.834 219.637 43.4698 219.706 44.2049L219.719 44.3478C219.788 45.0829 219.711 45.747 219.487 46.3401C219.263 46.9287 218.908 47.4061 218.42 47.7723C217.933 48.1385 217.328 48.3554 216.607 48.4232ZM216.464 46.8986C216.809 46.8662 217.081 46.7468 217.282 46.5403C217.482 46.3339 217.619 46.0601 217.692 45.7191C217.765 45.3735 217.78 44.9784 217.739 44.5337L217.725 44.3908C217.684 43.9552 217.596 43.5767 217.461 43.2553C217.325 42.9293 217.137 42.6838 216.897 42.5186C216.662 42.3485 216.369 42.2798 216.02 42.3126C215.679 42.3446 215.407 42.4663 215.203 42.6777C214.998 42.8846 214.859 43.1609 214.786 43.5064C214.717 43.847 214.703 44.2351 214.744 44.6707L214.758 44.8136C214.799 45.2583 214.886 45.6438 215.017 45.9702C215.153 46.2962 215.341 46.5417 215.581 46.7069C215.82 46.8675 216.115 46.9314 216.464 46.8986ZM224.454 47.6864C223.747 47.7529 223.119 47.6516 222.572 47.3825C222.029 47.113 221.594 46.7123 221.264 46.1801C220.935 45.6435 220.736 45.0145 220.668 44.293L220.649 44.0888C220.581 43.3629 220.662 42.7076 220.89 42.1231C221.119 41.5386 221.475 41.0635 221.958 40.6977C222.441 40.3275 223.029 40.1097 223.723 40.0445C224.386 39.9824 224.965 40.0333 225.461 40.1972C225.961 40.3563 226.374 40.5578 226.699 40.802L226.883 42.9131L225.386 43.0537L224.997 41.765C224.878 41.6664 224.731 41.5909 224.557 41.5386C224.383 41.4863 224.209 41.4682 224.037 41.4844C223.674 41.5185 223.381 41.6376 223.157 41.8416C222.938 42.0453 222.786 42.3205 222.699 42.6674C222.613 43.0142 222.592 43.4258 222.637 43.9023L222.656 44.1064C222.703 44.6101 222.808 45.0191 222.97 45.3334C223.132 45.6432 223.329 45.865 223.561 45.9988C223.798 46.1322 224.053 46.1862 224.325 46.1606C224.674 46.1278 224.945 46.0109 225.136 45.8098C225.332 45.6037 225.453 45.3292 225.499 44.9862L227.2 44.8264L227.224 44.8654C227.196 45.3944 227.084 45.8603 226.889 46.2632C226.698 46.6656 226.403 46.9885 226.005 47.2319C225.611 47.4749 225.094 47.6264 224.454 47.6864ZM230.063 47.0157L229.951 45.8246L230.987 45.5214L230.569 41.0703L229.337 41.186L229.355 42.1867L227.831 42.3298L227.595 39.8184L235.286 39.0963L235.522 41.6077L233.997 41.7509L233.822 40.7649L232.563 40.8831L232.981 45.3342L234.055 45.4393L234.167 46.6304L230.063 47.0157ZM240.96 40.9598C241.959 40.8661 242.76 41.0174 243.365 41.4138C243.974 41.8052 244.313 42.373 244.383 43.1171C244.455 43.8794 244.229 44.5185 243.705 45.0346C243.181 45.5507 242.422 45.8553 241.429 45.9486L236.998 46.3646L236.886 45.1735L237.929 44.8697L237.5 40.3028L236.419 40.1983L236.307 39.0005L240.418 38.6145L240.53 39.8124L239.487 40.1163L239.579 41.0895L240.96 40.9598ZM241.286 44.4309C241.695 44.3925 241.99 44.2733 242.173 44.073C242.355 43.8682 242.432 43.6161 242.404 43.3167C242.375 43.0081 242.252 42.7679 242.034 42.5961C241.821 42.4239 241.508 42.3571 241.095 42.3959L239.714 42.5256L239.905 44.5606L241.286 44.4309ZM245.533 45.5633L245.369 43.821L247.35 43.635L247.513 45.3774L245.533 45.5633ZM245.006 39.9484L244.842 38.206L246.823 38.0201L246.986 39.7624L245.006 39.9484Z" fill="white"/>
<defs>
<linearGradient id="paint0_linear_224_1706" x1="28" y1="19" x2="265" y2="19" gradientUnits="userSpaceOnUse">
<stop stop-color="#8E2DE2"/>
<stop offset="1" stop-color="#4A00E0"/>
</linearGradient>
<linearGradient id="paint1_linear_224_1706" x1="189.836" y1="38.2396" x2="189.836" y2="38.2396" gradientUnits="userSpaceOnUse">
<stop stop-color="#8E2DE2"/>
<stop offset="1" stop-color="#4A00E0"/>
</linearGradient>
<linearGradient id="paint2_linear_224_1706" x1="-4.05072" y1="69.0017" x2="279.75" y2="43.6688" gradientUnits="userSpaceOnUse">
<stop stop-color="#6025F5"/>
<stop offset="1" stop-color="#FF5555"/>
</linearGradient>
<linearGradient id="paint3_linear_224_1706" x1="28.8752" y1="102.074" x2="249.082" y2="69.9106" gradientUnits="userSpaceOnUse">
<stop offset="1" stop-color="#F80759"/>
</linearGradient>
</defs>
</svg>
