<svg width="233" height="123" viewBox="0 0 233 123" fill="none" xmlns="http://www.w3.org/2000/svg">
<rect x="16.6562" width="197" height="32" rx="16" fill="url(#paint0_linear_145_9812)"/>
<path d="M45.9819 20.1128C45.8924 20.1128 45.7904 20.1092 45.6758 20.1021C45.5648 20.0949 45.4806 20.0895 45.4233 20.0859L45.4126 18.8882C45.452 18.8953 45.52 18.9007 45.6167 18.9043C45.7134 18.9079 45.7868 18.9097 45.8369 18.9097C46.1198 18.9097 46.3328 18.847 46.4761 18.7217C46.6193 18.5964 46.7375 18.4066 46.8306 18.1523L46.9487 17.8569L44.7036 13.2378L43.8711 13.125V12.1797H46.9434V13.125L46.3633 13.2163L47.4321 15.5903L47.6201 16.0737H47.6523L48.7158 13.2324L48.1733 13.125V12.1797H51.1006V13.125L50.3379 13.2271L48.1089 18.5176C47.9585 18.8577 47.792 19.1478 47.6094 19.3877C47.4268 19.624 47.2048 19.8049 46.9434 19.9302C46.6855 20.0519 46.3651 20.1128 45.9819 20.1128ZM50.9717 22.2344V21.2891L51.729 21.1279V15.2949L50.8911 15.1338V14.1885H53.1685L53.2437 14.8652C53.4155 14.6146 53.6232 14.4212 53.8667 14.2852C54.1102 14.1491 54.4002 14.0811 54.7368 14.0811C55.2059 14.0811 55.6069 14.21 55.9399 14.4678C56.2729 14.722 56.5272 15.0783 56.7026 15.5366C56.8817 15.995 56.9712 16.5303 56.9712 17.1426V17.2554C56.9712 17.8283 56.8817 18.3296 56.7026 18.7593C56.5272 19.1854 56.2712 19.5184 55.9346 19.7583C55.6016 19.9946 55.1987 20.1128 54.7261 20.1128C54.4146 20.1128 54.1388 20.0573 53.8989 19.9463C53.6626 19.8317 53.4603 19.6652 53.292 19.4468V21.1279L54.0493 21.2891V22.2344H50.9717ZM54.2588 18.9097C54.6598 18.9097 54.9499 18.7611 55.1289 18.4639C55.3115 18.1667 55.4028 17.7638 55.4028 17.2554V17.1426C55.4028 16.7738 55.3617 16.4533 55.2793 16.1812C55.1969 15.9054 55.0698 15.6906 54.8979 15.5366C54.7297 15.3791 54.513 15.3003 54.248 15.3003C54.0332 15.3003 53.8434 15.3486 53.6787 15.4453C53.5176 15.542 53.3887 15.6799 53.292 15.8589V18.4048C53.3887 18.5695 53.5176 18.6948 53.6787 18.7808C53.8434 18.8667 54.0368 18.9097 54.2588 18.9097ZM60.5161 20.1128C59.9432 20.1128 59.4508 19.9875 59.0391 19.7368C58.6273 19.4862 58.3122 19.1388 58.0938 18.6948C57.8753 18.2472 57.7661 17.7334 57.7661 17.1533V17.0405C57.7661 16.464 57.8753 15.9538 58.0938 15.5098C58.3122 15.0622 58.6255 14.7131 59.0337 14.4624C59.4455 14.2082 59.936 14.0811 60.5054 14.0811C61.0819 14.0811 61.5742 14.2082 61.9824 14.4624C62.3906 14.7131 62.7039 15.0604 62.9224 15.5044C63.1408 15.9484 63.25 16.4604 63.25 17.0405V17.1533C63.25 17.7334 63.1408 18.2472 62.9224 18.6948C62.7039 19.1388 62.3906 19.4862 61.9824 19.7368C61.5742 19.9875 61.0854 20.1128 60.5161 20.1128ZM60.5161 18.9097C60.7882 18.9097 61.0103 18.8363 61.1821 18.6895C61.354 18.5426 61.4811 18.3385 61.5635 18.0771C61.6458 17.8122 61.687 17.5042 61.687 17.1533V17.0405C61.687 16.6968 61.6458 16.3942 61.5635 16.1328C61.4811 15.8678 61.3522 15.6619 61.1768 15.5151C61.0049 15.3647 60.7811 15.2896 60.5054 15.2896C60.2368 15.2896 60.0148 15.3647 59.8394 15.5151C59.6639 15.6619 59.535 15.8678 59.4526 16.1328C59.3739 16.3942 59.3345 16.6968 59.3345 17.0405V17.1533C59.3345 17.5042 59.3739 17.8122 59.4526 18.0771C59.535 18.3421 59.6639 18.548 59.8394 18.6948C60.0148 18.8381 60.2404 18.9097 60.5161 18.9097ZM64.061 20V19.0601L64.8989 18.8989V15.2949L64.061 15.1338V14.1885H64.8989H67.3267C68.1001 14.1885 68.7017 14.3228 69.1313 14.5913C69.5646 14.8599 69.7812 15.2555 69.7812 15.7783C69.7812 16.0648 69.6953 16.3154 69.5234 16.5303C69.3516 16.7415 69.0902 16.9045 68.7393 17.019C69.2012 17.1086 69.5396 17.2733 69.7544 17.5132C69.9728 17.7495 70.082 18.036 70.082 18.3726C70.082 18.9025 69.8761 19.3071 69.4644 19.5864C69.0562 19.8621 68.4689 20 67.7026 20H64.061ZM66.4619 18.8076H67.6973C67.973 18.8076 68.1771 18.7575 68.3096 18.6572C68.4456 18.5534 68.5137 18.3994 68.5137 18.1953C68.5137 17.9984 68.451 17.8462 68.3257 17.7388C68.2004 17.6313 67.9927 17.5776 67.7026 17.5776H66.4619V18.8076ZM66.4619 16.5571H67.3696C67.6632 16.5535 67.8763 16.5034 68.0088 16.4067C68.1449 16.3065 68.2129 16.1615 68.2129 15.9717C68.2129 15.5814 67.9211 15.3862 67.3374 15.3862H66.4619V16.5571ZM73.5786 20.1128C73.0236 20.1128 72.5384 19.991 72.123 19.7476C71.7077 19.5005 71.3854 19.1621 71.1562 18.7324C70.9307 18.3027 70.8179 17.8122 70.8179 17.2607V17.0459C70.8179 16.4694 70.9253 15.9591 71.1401 15.5151C71.355 15.0675 71.6576 14.7166 72.0479 14.4624C72.4417 14.2082 72.9054 14.0811 73.439 14.0811C73.9653 14.0811 74.4076 14.1849 74.7656 14.3926C75.1237 14.6003 75.3958 14.8993 75.582 15.2896C75.7682 15.6799 75.8613 16.1525 75.8613 16.7075V17.5615H72.4453L72.4346 17.5938C72.4561 17.848 72.5187 18.0754 72.6226 18.2759C72.73 18.4728 72.8804 18.6286 73.0737 18.7432C73.2671 18.8542 73.5016 18.9097 73.7773 18.9097C74.0638 18.9097 74.3306 18.8739 74.5776 18.8022C74.8283 18.7271 75.0718 18.6178 75.3081 18.4746L75.7324 19.4414C75.4925 19.6348 75.1899 19.7959 74.8247 19.9248C74.4631 20.0501 74.0477 20.1128 73.5786 20.1128ZM72.4561 16.5249H74.395V16.3853C74.395 16.1489 74.3628 15.9466 74.2983 15.7783C74.2375 15.6064 74.1372 15.474 73.9976 15.3809C73.8615 15.2878 73.6842 15.2412 73.4658 15.2412C73.2581 15.2412 73.0827 15.2967 72.9395 15.4077C72.7962 15.5151 72.6834 15.6637 72.6011 15.8535C72.5223 16.0433 72.4686 16.2581 72.4399 16.498L72.4561 16.5249ZM76.7046 20V19.0601L77.5425 18.8989V15.2949L76.7046 15.1338V14.1885H79.7822V15.1338L79.1055 15.2949V16.541H81.0176V15.2949L80.3462 15.1338V14.1885H81.0176H82.5859H83.4238V15.1338L82.5859 15.2949V18.8989L83.4238 19.0601V20H80.3462V19.0601L81.0176 18.8989V17.7441H79.1055V18.8989L79.7822 19.0601V20H76.7046ZM87.8389 16.063C88.6266 16.063 89.2425 16.2402 89.6865 16.5947C90.1341 16.9456 90.3579 17.4147 90.3579 18.002C90.3579 18.6035 90.1341 19.0869 89.6865 19.4521C89.2389 19.8174 88.623 20 87.8389 20H84.3423V19.0601L85.1802 18.8989V15.2949L84.3423 15.1338V14.1885H87.5864V15.1338L86.7485 15.2949V16.063H87.8389ZM87.8389 18.8022C88.1611 18.8022 88.401 18.7306 88.5586 18.5874C88.7161 18.4406 88.7949 18.249 88.7949 18.0127C88.7949 17.7692 88.7161 17.5723 88.5586 17.4219C88.4046 17.2715 88.1647 17.1963 87.8389 17.1963H86.7485V18.8022H87.8389ZM91.0776 20V18.625H92.6406V20H91.0776ZM91.0776 15.5688V14.1938H92.6406V15.5688H91.0776ZM98.957 20.1128C98.3841 20.1128 97.8918 19.9928 97.48 19.7529C97.0718 19.513 96.7585 19.1818 96.54 18.7593C96.3216 18.3332 96.2124 17.8462 96.2124 17.2983V16.5518C96.2124 15.6781 96.3252 14.9476 96.5508 14.3604C96.7764 13.7731 97.0915 13.3148 97.4961 12.9854C97.9007 12.6523 98.368 12.4339 98.8979 12.3301C99.2453 12.2728 99.5013 12.1976 99.666 12.1045C99.8343 12.0078 99.9185 11.8521 99.9185 11.6372H101.132L101.148 11.6694C101.156 12.0203 101.111 12.305 101.014 12.5234C100.921 12.7419 100.787 12.9155 100.611 13.0444C100.436 13.1733 100.226 13.2754 99.9829 13.3506C99.743 13.4222 99.4834 13.4849 99.2041 13.5386C98.8496 13.6066 98.5578 13.7087 98.3286 13.8447C98.103 13.9772 97.9276 14.1455 97.8022 14.3496C97.6805 14.5537 97.5964 14.7972 97.5498 15.0801L97.5713 15.1069C97.7682 14.9315 98.001 14.7882 98.2695 14.6772C98.5381 14.5662 98.8353 14.5107 99.1611 14.5107C99.6803 14.5107 100.13 14.6253 100.509 14.8545C100.889 15.0837 101.181 15.4023 101.385 15.8105C101.592 16.2152 101.696 16.6842 101.696 17.2178V17.3306C101.696 17.8784 101.587 18.3618 101.369 18.7808C101.15 19.1997 100.837 19.5273 100.429 19.7637C100.021 19.9964 99.5299 20.1128 98.957 20.1128ZM98.957 18.9097C99.2256 18.9097 99.4458 18.8452 99.6177 18.7163C99.7931 18.5838 99.922 18.3994 100.004 18.1631C100.087 17.9232 100.128 17.6457 100.128 17.3306V17.2178C100.128 16.9242 100.085 16.6646 99.999 16.439C99.9167 16.2134 99.7878 16.0379 99.6123 15.9126C99.4404 15.7837 99.2184 15.7192 98.9463 15.7192C98.6777 15.7192 98.4575 15.7837 98.2856 15.9126C98.1138 16.0379 97.9867 16.2134 97.9043 16.439C97.8219 16.6646 97.7808 16.9242 97.7808 17.2178V17.2983C97.7808 17.617 97.8201 17.8981 97.8989 18.1416C97.9813 18.3851 98.1084 18.5749 98.2803 18.7109C98.4557 18.8434 98.6813 18.9097 98.957 18.9097ZM104.312 20.1128C103.736 20.1128 103.277 19.9588 102.937 19.6509C102.597 19.3394 102.427 18.9168 102.427 18.3833C102.427 17.8354 102.649 17.3914 103.093 17.0513C103.537 16.7075 104.187 16.5356 105.042 16.5356H105.811V16.106C105.811 15.8267 105.728 15.6011 105.563 15.4292C105.402 15.2537 105.159 15.166 104.833 15.166C104.665 15.166 104.514 15.1875 104.382 15.2305C104.249 15.2699 104.128 15.3271 104.017 15.4023L103.893 16.1704H102.765L102.744 14.6611C103.048 14.4893 103.377 14.3496 103.732 14.2422C104.086 14.1348 104.482 14.0811 104.919 14.0811C105.678 14.0811 106.278 14.2583 106.718 14.6128C107.159 14.9637 107.379 15.4668 107.379 16.1221V18.5176C107.379 18.5964 107.379 18.6751 107.379 18.7539C107.382 18.8291 107.39 18.9025 107.4 18.9741L108.007 19.0601V20H106.063C106.024 19.8997 105.984 19.7923 105.945 19.6777C105.905 19.5632 105.877 19.4486 105.859 19.334C105.673 19.5703 105.452 19.7601 105.198 19.9033C104.948 20.043 104.652 20.1128 104.312 20.1128ZM104.731 18.9526C104.949 18.9526 105.157 18.9043 105.354 18.8076C105.551 18.7074 105.703 18.5767 105.811 18.4155V17.4971H105.037C104.693 17.4971 104.432 17.5758 104.253 17.7334C104.077 17.891 103.99 18.0807 103.99 18.3027C103.99 18.5104 104.054 18.6715 104.183 18.7861C104.316 18.8971 104.498 18.9526 104.731 18.9526ZM108.716 20V19.0601L109.554 18.8989V15.2949L108.716 15.1338V14.1885H111.832V15.1338L111.117 15.2949V16.4014H111.654L112.524 15.1123C112.743 14.7757 112.97 14.5233 113.207 14.355C113.443 14.1831 113.729 14.0972 114.066 14.0972C114.266 14.0972 114.44 14.1222 114.587 14.1724C114.734 14.2225 114.877 14.2905 115.017 14.3765L114.753 15.4614C114.653 15.4364 114.583 15.4202 114.544 15.4131C114.508 15.4023 114.463 15.397 114.41 15.397C114.288 15.397 114.17 15.4382 114.055 15.5205C113.941 15.6029 113.84 15.7067 113.754 15.832L113.002 16.9277L114.351 18.9312L115.14 19.0601V20H112.986L111.719 17.8247H111.117V18.8989L111.832 19.0601V20H108.716ZM117.654 20.1128C117.077 20.1128 116.619 19.9588 116.279 19.6509C115.939 19.3394 115.769 18.9168 115.769 18.3833C115.769 17.8354 115.991 17.3914 116.435 17.0513C116.879 16.7075 117.528 16.5356 118.384 16.5356H119.152V16.106C119.152 15.8267 119.07 15.6011 118.905 15.4292C118.744 15.2537 118.501 15.166 118.175 15.166C118.007 15.166 117.856 15.1875 117.724 15.2305C117.591 15.2699 117.469 15.3271 117.358 15.4023L117.235 16.1704H116.107L116.085 14.6611C116.39 14.4893 116.719 14.3496 117.074 14.2422C117.428 14.1348 117.824 14.0811 118.261 14.0811C119.02 14.0811 119.62 14.2583 120.06 14.6128C120.5 14.9637 120.721 15.4668 120.721 16.1221V18.5176C120.721 18.5964 120.721 18.6751 120.721 18.7539C120.724 18.8291 120.731 18.9025 120.742 18.9741L121.349 19.0601V20H119.405C119.365 19.8997 119.326 19.7923 119.287 19.6777C119.247 19.5632 119.219 19.4486 119.201 19.334C119.014 19.5703 118.794 19.7601 118.54 19.9033C118.289 20.043 117.994 20.1128 117.654 20.1128ZM118.073 18.9526C118.291 18.9526 118.499 18.9043 118.696 18.8076C118.893 18.7074 119.045 18.5767 119.152 18.4155V17.4971H118.379C118.035 17.4971 117.774 17.5758 117.595 17.7334C117.419 17.891 117.332 18.0807 117.332 18.3027C117.332 18.5104 117.396 18.6715 117.525 18.7861C117.657 18.8971 117.84 18.9526 118.073 18.9526ZM121.983 20L121.961 18.7646L122.133 18.7593C122.373 18.7593 122.554 18.6966 122.676 18.5713C122.798 18.446 122.88 18.2311 122.923 17.9268C122.969 17.6224 122.993 17.2017 122.993 16.6646V15.2949L122.155 15.1338V14.1885H127.521H128.358V15.1338L127.521 15.2949V18.8989L128.358 19.0601V20H125.12V19.0601L125.958 18.8989V15.4023H124.561V16.6646C124.561 17.8104 124.384 18.6536 124.029 19.1943C123.678 19.7314 123.079 20 122.23 20H121.983ZM131.017 20.1128C130.441 20.1128 129.982 19.9588 129.642 19.6509C129.302 19.3394 129.132 18.9168 129.132 18.3833C129.132 17.8354 129.354 17.3914 129.798 17.0513C130.242 16.7075 130.892 16.5356 131.748 16.5356H132.516V16.106C132.516 15.8267 132.433 15.6011 132.269 15.4292C132.107 15.2537 131.864 15.166 131.538 15.166C131.37 15.166 131.219 15.1875 131.087 15.2305C130.954 15.2699 130.833 15.3271 130.722 15.4023L130.598 16.1704H129.47L129.449 14.6611C129.753 14.4893 130.083 14.3496 130.437 14.2422C130.792 14.1348 131.187 14.0811 131.624 14.0811C132.383 14.0811 132.983 14.2583 133.423 14.6128C133.864 14.9637 134.084 15.4668 134.084 16.1221V18.5176C134.084 18.5964 134.084 18.6751 134.084 18.7539C134.088 18.8291 134.095 18.9025 134.105 18.9741L134.712 19.0601V20H132.768C132.729 19.8997 132.689 19.7923 132.65 19.6777C132.611 19.5632 132.582 19.4486 132.564 19.334C132.378 19.5703 132.158 19.7601 131.903 19.9033C131.653 20.043 131.357 20.1128 131.017 20.1128ZM131.436 18.9526C131.654 18.9526 131.862 18.9043 132.059 18.8076C132.256 18.7074 132.408 18.5767 132.516 18.4155V17.4971H131.742C131.398 17.4971 131.137 17.5758 130.958 17.7334C130.783 17.891 130.695 18.0807 130.695 18.3027C130.695 18.5104 130.759 18.6715 130.888 18.7861C131.021 18.8971 131.203 18.9526 131.436 18.9526ZM135.421 20V19.0601L136.259 18.8989V15.2949L135.421 15.1338V14.1885H136.259H138.687C139.46 14.1885 140.062 14.3228 140.492 14.5913C140.925 14.8599 141.142 15.2555 141.142 15.7783C141.142 16.0648 141.056 16.3154 140.884 16.5303C140.712 16.7415 140.451 16.9045 140.1 17.019C140.562 17.1086 140.9 17.2733 141.115 17.5132C141.333 17.7495 141.442 18.036 141.442 18.3726C141.442 18.9025 141.236 19.3071 140.825 19.5864C140.417 19.8621 139.829 20 139.063 20H135.421ZM137.822 18.8076H139.058C139.333 18.8076 139.537 18.7575 139.67 18.6572C139.806 18.5534 139.874 18.3994 139.874 18.1953C139.874 17.9984 139.811 17.8462 139.686 17.7388C139.561 17.6313 139.353 17.5776 139.063 17.5776H137.822V18.8076ZM137.822 16.5571H138.73C139.024 16.5535 139.237 16.5034 139.369 16.4067C139.505 16.3065 139.573 16.1615 139.573 15.9717C139.573 15.5814 139.281 15.3862 138.698 15.3862H137.822V16.5571ZM142.055 22.2344V21.2891L142.812 21.1279V15.2949L141.974 15.1338V14.1885H144.251L144.327 14.8652C144.499 14.6146 144.706 14.4212 144.95 14.2852C145.193 14.1491 145.483 14.0811 145.82 14.0811C146.289 14.0811 146.69 14.21 147.023 14.4678C147.356 14.722 147.61 15.0783 147.786 15.5366C147.965 15.995 148.054 16.5303 148.054 17.1426V17.2554C148.054 17.8283 147.965 18.3296 147.786 18.7593C147.61 19.1854 147.354 19.5184 147.018 19.7583C146.685 19.9946 146.282 20.1128 145.809 20.1128C145.498 20.1128 145.222 20.0573 144.982 19.9463C144.746 19.8317 144.543 19.6652 144.375 19.4468V21.1279L145.132 21.2891V22.2344H142.055ZM145.342 18.9097C145.743 18.9097 146.033 18.7611 146.212 18.4639C146.395 18.1667 146.486 17.7638 146.486 17.2554V17.1426C146.486 16.7738 146.445 16.4533 146.362 16.1812C146.28 15.9054 146.153 15.6906 145.981 15.5366C145.813 15.3791 145.596 15.3003 145.331 15.3003C145.116 15.3003 144.926 15.3486 144.762 15.4453C144.601 15.542 144.472 15.6799 144.375 15.8589V18.4048C144.472 18.5695 144.601 18.6948 144.762 18.7808C144.926 18.8667 145.12 18.9097 145.342 18.9097ZM148.763 20V19.0601L149.601 18.8989V15.2949L148.763 15.1338V14.1885H151.169H151.921V15.1338L151.169 15.2949V17.7173L151.202 17.7227L153.092 14.1885H154.661H155.493V15.1338L154.661 15.2949V18.8989L155.493 19.0601V20H152.34V19.0601L153.092 18.8989V16.4658L153.06 16.4604L151.169 20H148.763ZM158.206 20.1128C157.629 20.1128 157.171 19.9588 156.831 19.6509C156.49 19.3394 156.32 18.9168 156.32 18.3833C156.32 17.8354 156.542 17.3914 156.986 17.0513C157.43 16.7075 158.08 16.5356 158.936 16.5356H159.704V16.106C159.704 15.8267 159.622 15.6011 159.457 15.4292C159.296 15.2537 159.052 15.166 158.727 15.166C158.558 15.166 158.408 15.1875 158.275 15.2305C158.143 15.2699 158.021 15.3271 157.91 15.4023L157.787 16.1704H156.659L156.637 14.6611C156.942 14.4893 157.271 14.3496 157.625 14.2422C157.98 14.1348 158.376 14.0811 158.812 14.0811C159.572 14.0811 160.171 14.2583 160.612 14.6128C161.052 14.9637 161.272 15.4668 161.272 16.1221V18.5176C161.272 18.5964 161.272 18.6751 161.272 18.7539C161.276 18.8291 161.283 18.9025 161.294 18.9741L161.901 19.0601V20H159.957C159.917 19.8997 159.878 19.7923 159.838 19.6777C159.799 19.5632 159.77 19.4486 159.752 19.334C159.566 19.5703 159.346 19.7601 159.092 19.9033C158.841 20.043 158.546 20.1128 158.206 20.1128ZM158.625 18.9526C158.843 18.9526 159.051 18.9043 159.248 18.8076C159.444 18.7074 159.597 18.5767 159.704 18.4155V17.4971H158.931C158.587 17.4971 158.326 17.5758 158.146 17.7334C157.971 17.891 157.883 18.0807 157.883 18.3027C157.883 18.5104 157.948 18.6715 158.077 18.7861C158.209 18.8971 158.392 18.9526 158.625 18.9526ZM163.732 20V19.0601L164.565 18.8989V15.3862H163.593L163.534 16.1704H162.331V14.1885H168.4V16.1704H167.197L167.132 15.3862H166.139V18.8989L166.971 19.0601V20H163.732Z" fill="#FFF7F7"/>
<rect width="216.978" height="31.8365" rx="15.9183" transform="matrix(0.995897 -0.0904944 0.0913433 0.99582 7.65771 91.2966)" fill="url(#paint1_linear_145_9812)"/>
<path d="M0 37.7117L229.634 18.0586L232.312 48.0647L2.67842 67.7178L0 37.7117Z" fill="url(#paint2_linear_145_9812)"/>
<path d="M22.1538 69.1716L190.693 45.3516L195.047 75.1626L26.5079 98.9827L22.1538 69.1716Z" fill="url(#paint3_linear_145_9812)"/>
<path d="M33.8994 109.355C33.3291 109.41 32.8271 109.331 32.3934 109.121C31.9598 108.91 31.6132 108.594 31.3537 108.173C31.0938 107.748 30.9364 107.247 30.8815 106.67L30.8708 106.557C30.8162 105.983 30.8766 105.465 31.052 105.002C31.227 104.536 31.5059 104.159 31.8885 103.871C32.2743 103.579 32.7507 103.406 33.3174 103.352C33.8913 103.297 34.3935 103.377 34.824 103.591C35.2541 103.802 35.5989 104.118 35.8584 104.54C36.1179 104.961 36.2751 105.46 36.33 106.038L36.3407 106.15C36.3957 106.728 36.3356 107.25 36.1606 107.716C35.9852 108.179 35.7062 108.554 35.3236 108.842C34.9409 109.13 34.4662 109.301 33.8994 109.355ZM33.7855 108.158C34.0564 108.132 34.2705 108.038 34.4277 107.875C34.5848 107.713 34.6921 107.498 34.7493 107.23C34.8062 106.958 34.818 106.648 34.7848 106.298L34.7741 106.186C34.7415 105.844 34.6719 105.546 34.5651 105.294C34.458 105.038 34.3102 104.845 34.1216 104.716C33.9363 104.582 33.7064 104.529 33.4319 104.555C33.1646 104.58 32.9507 104.676 32.7902 104.842C32.6295 105.005 32.5207 105.222 32.4638 105.494C32.4101 105.762 32.3996 106.067 32.4321 106.409L32.4428 106.521C32.476 106.87 32.5444 107.173 32.6479 107.43C32.755 107.686 32.9029 107.878 33.0914 108.008C33.2797 108.134 33.511 108.184 33.7855 108.158ZM40.642 108.6L40.5529 107.665L41.3718 107.425L41.3016 106.687C41.1724 106.728 41.039 106.762 40.9013 106.79C40.7633 106.814 40.6248 106.832 40.4858 106.846C39.9297 106.899 39.448 106.863 39.0406 106.74C38.6332 106.617 38.3106 106.402 38.0726 106.093C37.8343 105.781 37.6916 105.378 37.6445 104.882L37.5758 104.161L36.7317 104.079L36.6427 103.143L39.0328 102.916L39.7012 102.852L39.7902 103.788L39.1371 104.012L39.2058 104.734C39.2299 104.987 39.2847 105.185 39.3702 105.328C39.4554 105.467 39.5795 105.561 39.7424 105.611C39.9086 105.656 40.1182 105.667 40.3713 105.643C40.5175 105.629 40.6558 105.608 40.7863 105.582C40.9204 105.554 41.0539 105.52 41.1866 105.479L41.0304 103.837L40.3414 103.741L40.2519 102.8L43.321 102.508L43.4106 103.449L42.5917 103.689L42.9331 107.276L43.7825 107.357L43.8715 108.293L40.642 108.6ZM44.7431 108.21L44.654 107.275L45.4729 107.035L45.1315 103.447L44.2821 103.366L44.1926 102.425L47.2564 102.133L47.3459 103.074L46.6875 103.299L46.8055 104.539L48.709 104.358L48.591 103.118L47.9074 103.021L47.8178 102.08L48.4862 102.016L50.0475 101.868L50.8816 101.788L50.9712 102.73L50.1523 102.969L50.4937 106.557L51.3431 106.638L51.4321 107.574L48.3683 107.865L48.2793 106.93L48.9324 106.706L48.823 105.556L46.9195 105.737L47.0289 106.887L47.7178 106.983L47.8069 107.919L44.7431 108.21ZM54.9664 107.351C54.3961 107.405 53.8941 107.327 53.4604 107.116C53.0267 106.906 52.6801 106.59 52.4206 106.169C52.1608 105.744 52.0034 105.243 51.9485 104.665L51.9378 104.553C51.8832 103.979 51.9436 103.461 52.1189 102.998C52.294 102.532 52.5728 102.154 52.9555 101.866C53.3413 101.574 53.8176 101.401 54.3844 101.347C54.9583 101.293 55.4605 101.373 55.8909 101.587C56.321 101.798 56.6658 102.114 56.9253 102.535C57.1848 102.957 57.3421 103.456 57.397 104.033L57.4077 104.146C57.4626 104.723 57.4026 105.245 57.2275 105.711C57.0521 106.174 56.7731 106.549 56.3905 106.838C56.0079 107.126 55.5332 107.297 54.9664 107.351ZM54.8525 106.153C55.1234 106.127 55.3374 106.033 55.4946 105.871C55.6518 105.708 55.759 105.493 55.8163 105.225C55.8731 104.954 55.885 104.643 55.8517 104.294L55.841 104.181C55.8085 103.839 55.7388 103.542 55.6321 103.29C55.525 103.034 55.3772 102.841 55.1886 102.711C55.0033 102.578 54.7733 102.524 54.4989 102.55C54.2315 102.576 54.0176 102.672 53.8572 102.838C53.6964 103.001 53.5876 103.218 53.5307 103.49C53.4771 103.757 53.4665 104.062 53.4991 104.404L53.5098 104.517C53.543 104.866 53.6114 105.169 53.7149 105.425C53.822 105.681 53.9698 105.874 54.1584 106.003C54.3466 106.129 54.578 106.179 54.8525 106.153ZM58.4391 104.156L58.3247 102.952L61.3403 102.666L61.4548 103.869L58.4391 104.156ZM65.1304 106.378C64.692 106.42 64.2828 106.391 63.9027 106.29C63.5259 106.186 63.218 106.012 62.979 105.768C62.7397 105.521 62.6089 105.205 62.5865 104.818L62.5888 104.786L64.102 104.642C64.1145 104.774 64.1615 104.89 64.243 104.99C64.3277 105.086 64.4406 105.158 64.5819 105.206C64.7231 105.254 64.8882 105.268 65.0771 105.25C65.3836 105.221 65.6016 105.13 65.731 104.978C65.8635 104.821 65.9198 104.638 65.8998 104.428C65.8767 104.185 65.7885 104.014 65.6351 103.913C65.4816 103.813 65.257 103.777 64.9611 103.805L64.127 103.884L64.0324 102.89L64.8665 102.81C65.1303 102.785 65.3193 102.711 65.4335 102.589C65.5474 102.463 65.5946 102.297 65.5749 102.09C65.5576 101.908 65.4824 101.761 65.3493 101.647C65.2159 101.531 65.0066 101.486 64.7215 101.513C64.5611 101.528 64.421 101.568 64.3013 101.634C64.1849 101.695 64.0956 101.777 64.0335 101.881C63.9746 101.98 63.9512 102.093 63.9634 102.222L62.4502 102.366L62.4365 102.335C62.3893 101.99 62.4516 101.68 62.6232 101.405C62.7981 101.126 63.0532 100.897 63.3886 100.717C63.7276 100.537 64.1181 100.427 64.5601 100.384C65.3016 100.314 65.9001 100.404 66.3557 100.656C66.8144 100.904 67.0686 101.288 67.1181 101.808C67.1442 102.083 67.0894 102.338 66.9536 102.574C66.8174 102.806 66.6163 102.998 66.3501 103.149C67.0319 103.322 67.4041 103.736 67.4665 104.392C67.5011 104.755 67.4256 105.077 67.24 105.358C67.058 105.637 66.7849 105.867 66.4206 106.045C66.0595 106.22 65.6295 106.331 65.1304 106.378ZM70.3228 105.89C69.7489 105.944 69.2781 105.834 68.9103 105.56C68.5421 105.282 68.3328 104.878 68.2822 104.347C68.2304 103.801 68.4093 103.338 68.8191 102.957C69.2286 102.573 69.8593 102.341 70.7112 102.259L71.4758 102.187L71.4351 101.759C71.4087 101.481 71.3053 101.264 71.125 101.109C70.948 100.949 70.6973 100.885 70.3729 100.916C70.2054 100.932 70.0577 100.967 69.9299 101.023C69.8017 101.075 69.686 101.143 69.5826 101.228L69.5324 102.005L68.4095 102.112L68.2452 100.611C68.5319 100.411 68.8466 100.241 69.1893 100.1C69.532 99.96 69.9208 99.869 70.3557 99.8276C71.1114 99.7557 71.7253 99.8754 72.1973 100.187C72.669 100.494 72.9359 100.974 72.9979 101.626L73.2248 104.011C73.2323 104.09 73.2398 104.168 73.2472 104.246C73.2579 104.321 73.272 104.393 73.2895 104.464L73.9018 104.492L73.9909 105.427L72.0553 105.612C72.0066 105.516 71.9572 105.412 71.9071 105.302C71.857 105.192 71.8177 105.08 71.789 104.968C71.626 105.221 71.4248 105.431 71.1852 105.597C70.9489 105.76 70.6615 105.858 70.3228 105.89ZM70.63 104.695C70.8475 104.674 71.0496 104.607 71.2365 104.492C71.4231 104.373 71.5622 104.229 71.6539 104.058L71.5669 103.144L70.7969 103.217C70.4547 103.25 70.202 103.353 70.0386 103.527C69.8789 103.7 69.8095 103.897 69.8306 104.118C69.8502 104.325 69.9297 104.479 70.0689 104.581C70.2113 104.679 70.3983 104.717 70.63 104.695ZM77.3166 105.224C76.7463 105.279 76.2443 105.2 75.8106 104.99C75.3769 104.779 75.0304 104.463 74.7709 104.042C74.511 103.617 74.3536 103.116 74.2987 102.539L74.288 102.426C74.2334 101.852 74.2938 101.334 74.4692 100.871C74.6442 100.405 74.9231 100.028 75.3057 99.7397C75.6915 99.4476 76.1679 99.2746 76.7346 99.2207C77.3085 99.1661 77.8107 99.246 78.2412 99.4604C78.6713 99.6713 79.0161 99.9874 79.2756 100.409C79.5351 100.83 79.6923 101.329 79.7472 101.907L79.7579 102.019C79.8129 102.597 79.7528 103.119 79.5778 103.585C79.4024 104.047 79.1234 104.423 78.7407 104.711C78.3581 104.999 77.8834 105.17 77.3166 105.224ZM77.2027 104.027C77.4736 104.001 77.6877 103.907 77.8448 103.744C78.002 103.582 78.1093 103.367 78.1665 103.099C78.2234 102.827 78.2352 102.517 78.202 102.167L78.1913 102.055C78.1587 101.713 78.0891 101.415 77.9823 101.163C77.8752 100.907 77.7274 100.714 77.5388 100.585C77.3535 100.451 77.1236 100.398 76.8491 100.424C76.5817 100.449 76.3679 100.545 76.2074 100.711C76.0467 100.874 75.9379 101.091 75.881 101.363C75.8273 101.631 75.8168 101.936 75.8493 102.278L75.86 102.39C75.8932 102.739 75.9616 103.042 76.0651 103.299C76.1722 103.555 76.32 103.747 76.5086 103.877C76.6969 104.003 76.9282 104.053 77.2027 104.027ZM84.0592 104.469L83.9701 103.534L84.789 103.294L84.7188 102.556C84.5896 102.597 84.4562 102.631 84.3185 102.659C84.1805 102.683 84.042 102.701 83.903 102.715C83.3469 102.768 82.8652 102.732 82.4578 102.609C82.0504 102.486 81.7278 102.271 81.4898 101.962C81.2515 101.65 81.1088 101.247 81.0617 100.751L80.993 100.029L80.1489 99.9479L80.0599 99.0122L82.45 98.7848L83.1184 98.7212L83.2074 99.6569L82.5543 99.8809L82.623 100.603C82.647 100.856 82.7019 101.054 82.7874 101.197C82.8726 101.336 82.9967 101.43 83.1596 101.48C83.3258 101.525 83.5354 101.536 83.7885 101.512C83.9347 101.498 84.073 101.477 84.2035 101.451C84.3376 101.423 84.4711 101.389 84.6038 101.348L84.4476 99.7062L83.7586 99.6099L83.6691 98.6688L86.7382 98.3768L86.8278 99.3178L86.0089 99.5576L86.3503 103.145L87.1997 103.226L87.2887 104.162L84.0592 104.469ZM88.1603 104.079L88.0712 103.144L88.8901 102.904L88.5487 99.316L87.6993 99.2349L87.6098 98.2939L90.6736 98.0023L90.7631 98.9434L90.1047 99.1679L90.2227 100.408L92.1262 100.227L92.0082 98.9868L91.3246 98.89L91.235 97.9489L91.9034 97.8853L93.4647 97.7368L94.2988 97.6574L94.3884 98.5985L93.5695 98.8382L93.9109 102.426L94.7603 102.507L94.8493 103.443L91.7855 103.734L91.6965 102.799L92.3496 102.575L92.2402 101.425L90.3367 101.606L90.446 102.756L91.135 102.852L91.2241 103.788L88.1603 104.079ZM98.3836 103.22C97.8133 103.274 97.3113 103.196 96.8776 102.985C96.4439 102.775 96.0973 102.459 95.8378 102.038C95.578 101.613 95.4206 101.112 95.3657 100.534L95.355 100.422C95.3004 99.8479 95.3608 99.3296 95.5361 98.8669C95.7112 98.4007 95.99 98.0234 96.3726 97.7353C96.7585 97.4432 97.2348 97.2702 97.8016 97.2162C98.3755 97.1616 98.8777 97.2415 99.3081 97.456C99.7382 97.6668 100.083 97.9829 100.343 98.4042C100.602 98.8256 100.759 99.325 100.814 99.9024L100.825 100.015C100.88 100.592 100.82 101.114 100.645 101.58C100.469 102.043 100.19 102.418 99.8077 102.707C99.4251 102.995 98.9504 103.166 98.3836 103.22ZM98.2696 102.022C98.5406 101.996 98.7546 101.902 98.9118 101.74C99.069 101.577 99.1762 101.362 99.2334 101.094C99.2903 100.823 99.3022 100.512 99.2689 100.163L99.2582 100.05C99.2257 99.7083 99.156 99.411 99.0493 99.1585C98.9422 98.9026 98.7944 98.7098 98.6058 98.5803C98.4204 98.4468 98.1905 98.3932 97.9161 98.4193C97.6487 98.4447 97.4348 98.5406 97.2744 98.7069C97.1136 98.8697 97.0048 99.0869 96.9479 99.3585C96.8943 99.6262 96.8837 99.9311 96.9163 100.273L96.927 100.386C96.9602 100.735 97.0286 101.038 97.1321 101.294C97.2392 101.55 97.387 101.743 97.5756 101.872C97.7638 101.998 97.9952 102.048 98.2696 102.022ZM104.676 99.2652L104.56 98.0461L110.361 97.4941L110.477 98.7132L104.676 99.2652ZM114.467 101.576L114.378 100.64L115.678 100.355L115.177 95.0828L113.845 95.2095L113.76 94.3166L116.598 93.5179L117.234 100.207L118.565 100.242L118.654 101.178L114.467 101.576ZM121.905 100.982C121.431 101.027 120.988 100.981 120.575 100.844C120.166 100.703 119.83 100.48 119.567 100.174C119.304 99.8678 119.157 99.4862 119.124 99.029L119.132 99.0012L120.622 98.7839C120.655 99.1297 120.779 99.3913 120.993 99.5687C121.208 99.7425 121.474 99.8143 121.791 99.7841C122.154 99.7495 122.411 99.5938 122.561 99.317C122.711 99.0401 122.766 98.695 122.727 98.2815C122.684 97.8323 122.557 97.4811 122.346 97.2279C122.135 96.9746 121.846 96.8654 121.479 96.9003C121.183 96.9285 120.96 97.0055 120.81 97.1312C120.664 97.2566 120.566 97.417 120.516 97.6124L119.128 97.6528L119.164 93.2737L123.645 92.8473L123.814 94.6225L122.852 94.7141L122.663 94.2033L120.567 94.4027L120.518 96.2202C120.608 96.1397 120.712 96.0668 120.832 96.0015C120.951 95.9326 121.081 95.8753 121.22 95.8297C121.363 95.7801 121.516 95.7475 121.68 95.7319C122.178 95.6738 122.612 95.7332 122.982 95.9103C123.354 96.0835 123.65 96.3574 123.869 96.7323C124.092 97.1067 124.229 97.5702 124.282 98.1227C124.329 98.6218 124.27 99.0788 124.105 99.4938C123.943 99.9049 123.676 100.243 123.306 100.509C122.939 100.77 122.472 100.928 121.905 100.982ZM127.974 100.404C127.161 100.482 126.492 100.277 125.968 99.7914C125.443 99.3018 125.131 98.5419 125.033 97.5117L124.87 95.7954C124.772 94.7688 124.933 93.9657 125.353 93.3862C125.776 92.8029 126.392 92.4727 127.201 92.3957C128.006 92.3191 128.672 92.5273 129.197 93.0205C129.726 93.5097 130.039 94.2676 130.137 95.2942L130.3 97.0106C130.398 98.0408 130.235 98.8458 129.812 99.4256C129.392 100.001 128.779 100.328 127.974 100.404ZM127.86 99.2067C128.209 99.1735 128.461 99.0056 128.616 98.7031C128.77 98.4007 128.818 97.9358 128.758 97.3084L128.565 95.2819C128.506 94.6616 128.371 94.2178 128.158 93.9502C127.946 93.6827 127.665 93.5655 127.315 93.5988C126.962 93.6324 126.709 93.8004 126.554 94.1028C126.399 94.4053 126.351 94.8667 126.41 95.4869L126.603 97.5134C126.663 98.1408 126.797 98.5884 127.006 98.8563C127.219 99.1238 127.503 99.2406 127.86 99.2067ZM131.749 99.9319L131.618 98.5631L133.174 98.4151L133.305 99.7839L131.749 99.9319ZM137.021 99.5436C136.208 99.6209 135.539 99.4166 135.015 98.9306C134.49 98.441 134.178 97.6811 134.08 96.6509L133.917 94.9346C133.819 93.908 133.98 93.1049 134.4 92.5254C134.823 91.9421 135.439 91.6119 136.248 91.5349C137.053 91.4583 137.719 91.6665 138.244 92.1597C138.773 92.6489 139.086 93.4068 139.184 94.4334L139.347 96.1498C139.445 97.18 139.282 97.985 138.859 98.5648C138.439 99.1407 137.826 99.467 137.021 99.5436ZM136.907 98.3459C137.256 98.3127 137.508 98.1448 137.663 97.8423C137.817 97.5399 137.865 97.075 137.805 96.4476L137.612 94.4211C137.553 93.8008 137.418 93.357 137.205 93.0894C136.993 92.8219 136.712 92.7047 136.362 92.738C136.009 92.7716 135.756 92.9396 135.601 93.242C135.446 93.5445 135.398 94.0059 135.457 94.6261L135.65 96.6526C135.71 97.28 135.844 97.7276 136.053 97.9955C136.266 98.263 136.55 98.3798 136.907 98.3459ZM143.277 98.9484C142.464 99.0257 141.795 98.8214 141.271 98.3353C140.746 97.8458 140.434 97.0859 140.336 96.0557L140.173 94.3393C140.075 93.3127 140.236 92.5097 140.656 91.9302C141.079 91.3468 141.695 91.0167 142.504 90.9397C143.309 90.863 143.975 91.0713 144.5 91.5644C145.029 92.0537 145.342 92.8116 145.439 93.8382L145.603 95.5546C145.701 96.5848 145.538 97.3898 145.115 97.9696C144.695 98.5455 144.082 98.8717 143.277 98.9484ZM143.163 97.7507C143.512 97.7174 143.764 97.5496 143.919 97.2471C144.073 96.9446 144.121 96.4797 144.061 95.8523L143.868 93.8259C143.809 93.2056 143.673 92.7617 143.461 92.4942C143.248 92.2266 142.968 92.1095 142.618 92.1427C142.265 92.1763 142.012 92.3443 141.857 92.6468C141.702 92.9493 141.654 93.4106 141.713 94.0309L141.906 96.0574C141.966 96.6847 142.1 97.1324 142.309 97.4002C142.522 97.6678 142.806 97.7846 143.163 97.7507ZM149.532 98.3531C148.72 98.4305 148.051 98.2261 147.526 97.7401C147.001 97.2505 146.69 96.4906 146.592 95.4605L146.429 93.7441C146.331 92.7175 146.492 91.9144 146.912 91.335C147.334 90.7516 147.951 90.4214 148.76 90.3444C149.565 90.2678 150.231 90.476 150.756 90.9692C151.285 91.4584 151.598 92.2164 151.695 93.243L151.859 94.9593C151.957 95.9895 151.794 96.7945 151.371 97.3743C150.951 97.9502 150.338 98.2765 149.532 98.3531ZM149.419 97.1554C149.768 97.1222 150.02 96.9543 150.175 96.6519C150.329 96.3494 150.377 95.8845 150.317 95.2571L150.124 93.2306C150.065 92.6104 149.929 92.1665 149.717 91.8989C149.504 91.6314 149.223 91.5143 148.874 91.5475C148.521 91.5811 148.267 91.7491 148.113 92.0516C147.958 92.354 147.91 92.8154 147.969 93.4356L148.162 95.4621C148.222 96.0895 148.356 96.5371 148.565 96.805C148.778 97.0725 149.062 97.1893 149.419 97.1554ZM155.813 99.8867L155.723 98.9457L156.462 98.7135L155.91 92.9068L155.06 92.8257L154.971 91.8847L157.238 91.6689L157.377 92.3355C157.524 92.0697 157.712 91.8576 157.942 91.6991C158.171 91.5405 158.454 91.4453 158.789 91.4135C159.256 91.369 159.667 91.4594 160.023 91.6845C160.379 91.906 160.666 92.2366 160.884 92.6763C161.105 93.1156 161.245 93.64 161.303 94.2496L161.314 94.3619C161.368 94.9322 161.326 95.4397 161.189 95.8844C161.055 96.3252 160.831 96.681 160.519 96.9517C160.21 97.2185 159.82 97.3743 159.349 97.4191C159.039 97.4486 158.76 97.4195 158.51 97.3317C158.264 97.24 158.047 97.0934 157.859 96.8919L158.018 98.5655L158.787 98.6542L158.877 99.5952L155.813 99.8867ZM158.77 96.2656C159.17 96.2276 159.444 96.0522 159.594 95.7394C159.748 95.4263 159.801 95.0166 159.753 94.5104L159.742 94.3981C159.707 94.031 159.636 93.7158 159.528 93.4527C159.42 93.186 159.273 92.9842 159.087 92.8472C158.905 92.7063 158.682 92.6484 158.418 92.6735C158.204 92.6939 158.02 92.76 157.865 92.8718C157.713 92.9833 157.598 93.1328 157.519 93.3201L157.76 95.8546C157.872 96.0094 158.012 96.122 158.181 96.1923C158.353 96.2622 158.549 96.2867 158.77 96.2656ZM164.042 99.2171C163.906 99.23 163.761 99.2312 163.605 99.2209C163.453 99.2137 163.308 99.197 163.169 99.1707L163.236 98.0096C163.305 98.0174 163.381 98.021 163.464 98.0203C163.547 98.0197 163.618 98.0165 163.679 98.0107C163.903 97.9893 164.092 97.912 164.245 97.7788C164.398 97.6456 164.501 97.4649 164.555 97.2367L164.649 96.8663L162.256 92.2436L161.535 92.2096L161.446 91.2686L164.515 90.9765L164.604 91.9176L163.909 92.0917L165.06 94.5557L165.203 94.8605L165.235 94.8574L166.036 91.8785L165.337 91.8479L165.247 90.9068L168.108 90.6347L168.198 91.5757L167.554 91.7287L165.88 97.5531C165.798 97.8306 165.684 98.0878 165.538 98.3248C165.395 98.565 165.202 98.765 164.958 98.9249C164.718 99.0844 164.413 99.1818 164.042 99.2171ZM171.974 96.2179C171.403 96.2722 170.902 96.1994 170.469 95.9996C170.04 95.7994 169.697 95.4994 169.439 95.0994C169.181 94.6959 169.027 94.2215 168.975 93.6761L168.904 92.9329C168.821 92.0631 168.864 91.3252 169.033 90.7193C169.202 90.1133 169.473 89.6272 169.844 89.2609C170.215 88.8911 170.66 88.6294 171.178 88.4758C171.518 88.3859 171.766 88.2868 171.921 88.1785C172.079 88.0663 172.148 87.9033 172.128 87.6894L173.336 87.5744L173.355 87.605C173.396 87.9536 173.378 88.2413 173.303 88.4679C173.231 88.6941 173.113 88.8797 172.951 89.0247C172.789 89.1696 172.59 89.291 172.354 89.389C172.122 89.483 171.87 89.5699 171.597 89.6499C171.25 89.7512 170.97 89.8804 170.754 90.0376C170.542 90.1908 170.384 90.375 170.278 90.59C170.176 90.8048 170.116 91.0551 170.096 91.3411L170.12 91.3658C170.299 91.1725 170.518 91.0079 170.774 90.8719C171.031 90.736 171.322 90.6526 171.646 90.6217C172.163 90.5726 172.621 90.6441 173.021 90.8362C173.42 91.0284 173.741 91.318 173.983 91.7051C174.228 92.0882 174.376 92.5453 174.426 93.0765L174.437 93.1888C174.489 93.7341 174.426 94.2257 174.248 94.6635C174.07 95.1012 173.79 95.4571 173.406 95.731C173.021 96.0014 172.544 96.1637 171.974 96.2179ZM171.86 95.0202C172.127 94.9948 172.34 94.9098 172.499 94.7652C172.661 94.6166 172.772 94.4209 172.832 94.1778C172.891 93.9312 172.906 93.651 172.876 93.3373L172.865 93.225C172.837 92.9327 172.77 92.6784 172.663 92.4619C172.56 92.2452 172.415 92.0827 172.228 91.9746C172.045 91.8625 171.818 91.8194 171.547 91.8452C171.279 91.8706 171.066 91.9556 170.907 92.1002C170.748 92.2413 170.638 92.428 170.578 92.6603C170.517 92.8927 170.501 93.155 170.528 93.4473L170.536 93.5276C170.566 93.8448 170.632 94.1209 170.734 94.3558C170.839 94.5904 170.983 94.7673 171.167 94.8865C171.354 95.0018 171.585 95.0463 171.86 95.0202ZM174.962 96.4947L177.371 87.7354L178.81 87.5986L176.4 96.3579L174.962 96.4947ZM179.598 95.3792L179.509 94.4434L180.323 94.2042L179.981 90.6164L179.137 90.5348L179.048 89.5938L184.117 89.1115L184.311 91.1487L183.332 91.2418L183.189 90.4191L181.553 90.5748L181.884 94.0556L182.728 94.1372L182.817 95.0729L179.598 95.3792ZM188.095 94.6841C187.524 94.7383 187.022 94.6602 186.589 94.4497C186.155 94.2392 185.808 93.9232 185.549 93.5019C185.289 93.077 185.132 92.5758 185.077 91.9984L185.066 91.8861C185.011 91.3122 185.072 90.7939 185.247 90.3312C185.422 89.8649 185.701 89.4877 186.084 89.1995C186.47 88.9074 186.946 88.7344 187.513 88.6805C188.087 88.6259 188.589 88.7058 189.019 88.9202C189.449 89.131 189.794 89.4471 190.054 89.8685C190.313 90.2898 190.47 90.7892 190.525 91.3667L190.536 91.4789C190.591 92.0564 190.531 92.5783 190.356 93.0445C190.18 93.5073 189.901 93.8827 189.519 94.1709C189.136 94.4591 188.661 94.6301 188.095 94.6841ZM187.981 93.4863C188.252 93.4606 188.466 93.3665 188.623 93.204C188.78 93.0416 188.887 92.8264 188.944 92.5584C189.001 92.2868 189.013 91.9763 188.98 91.627L188.969 91.5147C188.937 91.1725 188.867 90.8752 188.76 90.6228C188.653 90.3668 188.505 90.174 188.317 90.0445C188.131 89.9111 187.902 89.8574 187.627 89.8835C187.36 89.909 187.146 90.0048 186.985 90.1712C186.825 90.3339 186.716 90.5511 186.659 90.8227C186.605 91.0904 186.595 91.3953 186.627 91.7375L186.638 91.8498C186.671 92.1992 186.74 92.502 186.843 92.7583C186.95 93.0143 187.098 93.207 187.287 93.3366C187.475 93.4625 187.706 93.5125 187.981 93.4863ZM191.286 96.0152L190.888 93.0856L191.391 93.0378C191.548 92.8394 191.676 92.6492 191.774 92.4672C191.871 92.2817 191.944 92.0877 191.994 91.8852C192.042 91.6791 192.071 91.4516 192.08 91.2026C192.092 90.9497 192.085 90.6571 192.061 90.3249L192.001 89.4727L191.168 89.3901L191.079 88.4491L196.18 87.9637L197.014 87.8844L197.103 88.8254L196.284 89.0652L196.616 92.5514L197.455 92.4715L197.627 95.4118L196.173 95.5502L196.008 93.8178L192.581 94.1439L192.746 95.8763L191.286 96.0152ZM193.177 92.8732L195.065 92.6936L194.747 89.3571L193.571 89.469L193.622 90.1764C193.663 90.7516 193.641 91.2626 193.558 91.7094C193.474 92.1526 193.347 92.5405 193.177 92.8732Z" fill="white"/>
<path d="M48.1314 83.1802C47.5622 83.2457 47.0587 83.1776 46.621 82.9757C46.1832 82.7738 45.8305 82.4648 45.5627 82.0487C45.2945 81.629 45.1272 81.131 45.0609 80.5547L45.048 80.4427C44.982 79.87 45.0321 79.3506 45.1983 78.8845C45.3641 78.4149 45.6354 78.0322 46.0123 77.7365C46.3923 77.4368 46.8651 77.2544 47.4307 77.1893C48.0034 77.1233 48.5071 77.1933 48.9417 77.3992C49.3759 77.6015 49.7268 77.9107 49.9946 78.3268C50.2624 78.7429 50.4295 79.2391 50.4958 79.8154L50.5087 79.9274C50.5751 80.5037 50.5254 81.0266 50.3596 81.4963C50.1934 81.9624 49.9219 82.3433 49.545 82.639C49.1682 82.9347 48.697 83.1151 48.1314 83.1802ZM47.9937 81.985C48.2641 81.9538 48.4762 81.8555 48.6302 81.69C48.7841 81.5245 48.8871 81.3072 48.939 81.0381C48.9905 80.7655 48.9962 80.4548 48.956 80.1062L48.9431 79.9942C48.9038 79.6527 48.8283 79.3568 48.7166 79.1065C48.6044 78.8527 48.4528 78.6629 48.2617 78.5372C48.0738 78.4074 47.8428 78.3583 47.5689 78.3899C47.3021 78.4206 47.0902 78.5207 46.9331 78.6901C46.7756 78.8561 46.6711 79.0754 46.6196 79.348C46.5712 79.6167 46.5667 79.9218 46.606 80.2633L46.6189 80.3753C46.6591 80.7239 46.7334 81.0254 46.842 81.2796C46.9541 81.5334 47.1057 81.7232 47.2968 81.849C47.4875 81.9712 47.7198 82.0165 47.9937 81.985ZM54.8576 82.2921L54.7501 81.3583L55.564 81.1024L55.4793 80.3661C55.3509 80.4097 55.2182 80.4466 55.0811 80.4768C54.9436 80.5034 54.8055 80.5248 54.6668 80.5407C54.1118 80.6046 53.6295 80.5791 53.2198 80.4641C52.81 80.349 52.4832 80.1398 52.2392 79.8363C51.9948 79.5292 51.8441 79.1285 51.7871 78.634L51.7042 77.9137L50.8587 77.8488L50.7512 76.9151L53.1363 76.6404L53.8033 76.5636L53.9108 77.4974L53.2623 77.7343L53.3452 78.4546C53.3743 78.7072 53.433 78.904 53.5214 79.0452C53.6093 79.1829 53.7352 79.2747 53.8991 79.3207C54.0661 79.3628 54.2759 79.3693 54.5285 79.3402C54.6743 79.3234 54.8123 79.3003 54.9422 79.2709C55.0758 79.2411 55.2085 79.2042 55.3404 79.1602L55.1518 77.5221L54.461 77.4394L54.3529 76.5003L57.4156 76.1476L57.5238 77.0867L56.7098 77.3427L57.1221 80.923L57.9729 80.9872L58.0805 81.921L54.8576 82.2921ZM58.9502 81.8208L58.8427 80.8871L59.6566 80.6311L59.2443 77.0508L58.3935 76.9866L58.2854 76.0475L61.3428 75.6954L61.451 76.6345L60.7971 76.872L60.9396 78.1099L62.8392 77.8912L62.6966 76.6533L62.0112 76.57L61.9031 75.6309L62.5701 75.5541L64.1281 75.3747L64.9605 75.2788L65.0686 76.2179L64.2547 76.4739L64.667 80.0542L65.5178 80.1184L65.6253 81.0522L62.5679 81.4043L62.4604 80.4705L63.1089 80.2336L62.9768 79.0864L61.0773 79.3051L61.2094 80.4523L61.9001 80.535L62.0076 81.4688L58.9502 81.8208ZM69.1545 80.7593C68.5854 80.8249 68.0819 80.7567 67.6442 80.5548C67.2064 80.3529 66.8537 80.0439 66.5859 79.6278C66.3177 79.2081 66.1504 78.7101 66.084 78.1339L66.0711 78.0218C66.0052 77.4491 66.0553 76.9297 66.2215 76.4636C66.3873 75.994 66.6586 75.6113 67.0355 75.3156C67.4155 75.0159 67.8883 74.8335 68.4539 74.7684C69.0266 74.7025 69.5302 74.7724 69.9648 74.9783C70.399 75.1806 70.75 75.4898 71.0178 75.9059C71.2856 76.322 71.4527 76.8182 71.519 77.3945L71.5319 77.5065C71.5983 78.0828 71.5486 78.6058 71.3828 79.0754C71.2166 79.5415 70.9451 79.9224 70.5682 80.2181C70.1914 80.5138 69.7201 80.6942 69.1545 80.7593ZM69.0169 79.5641C69.2873 79.533 69.4994 79.4347 69.6534 79.2691C69.8073 79.1036 69.9102 78.8863 69.9622 78.6172C70.0137 78.3446 70.0193 78.0339 69.9792 77.6853L69.9663 77.5733C69.927 77.2318 69.8515 76.9359 69.7397 76.6857C69.6276 76.4318 69.476 76.2421 69.2849 76.1163C69.0969 75.9865 68.866 75.9374 68.5921 75.969C68.3253 75.9997 68.1134 76.0998 67.9563 76.2693C67.7988 76.4352 67.6943 76.6545 67.6428 76.9271C67.5944 77.1958 67.5899 77.5009 67.6292 77.8424L67.6421 77.9545C67.6822 78.3031 67.7566 78.6045 67.8652 78.8587C67.9773 79.1125 68.1289 79.3023 68.32 79.4281C68.5107 79.5503 68.743 79.5956 69.0169 79.5641ZM75.3675 76.681L75.2274 75.4644L81.0167 74.7978L81.1568 76.0143L75.3675 76.681ZM85.2665 78.7905L85.1492 77.7713L87.3562 74.776C87.5787 74.4548 87.7508 74.1809 87.8725 73.9542C87.9937 73.724 88.0746 73.5183 88.115 73.337C88.1585 73.1518 88.1703 72.972 88.1502 72.7977C88.1154 72.4953 87.9987 72.2492 87.8003 72.0594C87.6054 71.8692 87.3407 71.7934 87.0063 71.8319C86.647 71.8733 86.3884 72.022 86.2305 72.2781C86.0721 72.5306 86.0165 72.8614 86.0636 73.2705L84.5483 73.445L84.5339 73.4142C84.4692 72.9458 84.5202 72.5128 84.6871 72.1152C84.8571 71.7135 85.1286 71.3795 85.5016 71.1131C85.8782 70.8462 86.3386 70.6815 86.8829 70.6188C87.4164 70.5574 87.8846 70.6008 88.2873 70.749C88.6932 70.8933 89.019 71.1243 89.2646 71.4421C89.5103 71.7598 89.6589 72.1428 89.7105 72.591C89.7462 72.9005 89.7246 73.1985 89.6459 73.4851C89.5667 73.7682 89.4272 74.0744 89.2272 74.4038C89.0273 74.7332 88.7648 75.1148 88.44 75.5487L87.1167 77.3447L87.1304 77.3702L89.1421 77.1385L89.1367 76.3876L90.3426 76.2487L90.565 78.1803L85.2665 78.7905ZM93.6033 77.944C93.333 77.9751 93.0505 77.9788 92.7558 77.9551C92.4651 77.9345 92.1926 77.8848 91.9384 77.8059L91.9849 76.6598C92.2184 76.7158 92.4552 76.7534 92.6953 76.7726C92.9385 76.7878 93.174 76.7824 93.4017 76.7561C93.8534 76.7041 94.1913 76.5084 94.4154 76.169C94.6394 75.8297 94.7173 75.3323 94.6491 74.6769L94.6249 74.5608C94.4764 74.805 94.2862 74.9999 94.0542 75.1455C93.8254 75.2872 93.5652 75.3748 93.2735 75.4084C92.8146 75.4613 92.3986 75.4011 92.0254 75.2278C91.6554 75.0505 91.3514 74.7737 91.1134 74.3974C90.8786 74.0172 90.7292 73.5496 90.6653 72.9947C90.6051 72.4718 90.6629 71.9875 90.8387 71.542C91.018 71.096 91.2894 70.7295 91.6528 70.4426C92.0194 70.1517 92.4535 69.9773 92.955 69.9196C93.4851 69.8585 93.9652 69.9276 94.3954 70.1268C94.8256 70.3259 95.1796 70.6456 95.4574 71.0858C95.7352 71.526 95.912 72.0751 95.9877 72.7332L96.1819 74.4193C96.2589 75.0881 96.1986 75.6753 96.0009 76.1811C95.8068 76.6864 95.5019 77.091 95.0864 77.3948C94.6739 77.6946 94.1796 77.8776 93.6033 77.944ZM93.4782 74.2279C93.7165 74.2004 93.9244 74.1278 94.1019 74.0101C94.279 73.8887 94.415 73.7397 94.51 73.563L94.4141 72.7306C94.3482 72.1579 94.1988 71.7371 93.966 71.4684C93.7328 71.1961 93.4454 71.0796 93.104 71.1189C92.8976 71.1427 92.7226 71.2349 92.5789 71.3956C92.4348 71.5528 92.3305 71.7576 92.2658 72.0102C92.2044 72.2588 92.1902 72.5271 92.2234 72.8153C92.2594 73.1283 92.3299 73.3959 92.4348 73.6181C92.5432 73.8399 92.6846 74.0038 92.8591 74.1099C93.0335 74.216 93.2398 74.2553 93.4782 74.2279ZM99.9476 77.2134C99.4745 77.2679 99.0305 77.2307 98.6156 77.1019C98.2038 76.9691 97.8635 76.7524 97.5946 76.4517C97.3257 76.1511 97.1703 75.7725 97.1286 75.3159L97.1362 75.288L98.6216 75.0413C98.6613 75.3863 98.7903 75.6454 99.0085 75.8185C99.2262 75.9881 99.4934 76.0547 99.81 76.0182C100.173 75.9764 100.426 75.8157 100.571 75.5359C100.715 75.2562 100.764 74.91 100.716 74.4973C100.665 74.0491 100.531 73.7005 100.315 73.4514C100.099 73.2024 99.8073 73.099 99.4409 73.1412C99.1456 73.1751 98.9243 73.2565 98.7769 73.3852C98.6331 73.5135 98.5383 73.6758 98.4924 73.8721L97.1053 73.9399L97.0552 69.561L101.527 69.0461L101.731 70.8176L100.77 70.9282L100.571 70.4212L98.4796 70.6621L98.4672 72.4801C98.5551 72.3979 98.6582 72.323 98.7766 72.2553C98.8945 72.184 99.0228 72.1242 99.1614 72.0758C99.3031 72.0234 99.4558 71.9878 99.6195 71.969C100.116 71.901 100.551 71.9518 100.924 72.1216C101.3 72.2873 101.601 72.5554 101.827 72.9258C102.057 73.2958 102.204 73.7565 102.268 74.3079C102.325 74.8059 102.275 75.264 102.118 75.6822C101.964 76.0964 101.704 76.4399 101.339 76.7126C100.977 76.9814 100.513 77.1483 99.9476 77.2134ZM103.526 76.6879L103.368 75.3219L104.921 75.1431L105.078 76.5091L103.526 76.6879ZM108.789 76.1953C107.978 76.2887 107.305 76.0976 106.771 75.6221C106.237 75.143 105.91 74.3894 105.792 73.3614L105.595 71.6486C105.477 70.6241 105.622 69.818 106.03 69.2304C106.441 68.6387 107.051 68.2964 107.858 68.2035C108.662 68.1109 109.331 68.3059 109.866 68.7886C110.404 69.2673 110.733 70.0189 110.85 71.0433L111.048 72.7562C111.166 73.7842 111.019 74.5922 110.608 75.1803C110.199 75.7644 109.593 76.1027 108.789 76.1953ZM108.651 75.0001C109 74.9599 109.249 74.7871 109.397 74.4817C109.546 74.1762 109.584 73.7104 109.512 73.0844L109.279 71.0621C109.208 70.4431 109.064 70.002 108.846 69.7387C108.628 69.4754 108.345 69.3639 107.996 69.404C107.644 69.4446 107.394 69.6176 107.245 69.9231C107.096 70.2285 107.058 70.6907 107.129 71.3097L107.362 73.332C107.434 73.958 107.577 74.4029 107.791 74.6666C108.009 74.9299 108.296 75.041 108.651 75.0001ZM115.032 75.4764C114.221 75.5698 113.548 75.3787 113.014 74.9032C112.48 74.4241 112.153 73.6705 112.035 72.6425L111.838 70.9297C111.72 69.9052 111.865 69.0991 112.273 68.5115C112.684 67.9199 113.293 67.5776 114.101 67.4846C114.905 67.392 115.574 67.587 116.109 68.0697C116.647 68.5484 116.975 69.3 117.093 70.3245L117.291 72.0373C117.409 73.0653 117.262 73.8733 116.851 74.4614C116.442 75.0455 115.836 75.3838 115.032 75.4764ZM114.894 74.2812C115.243 74.241 115.492 74.0682 115.64 73.7628C115.789 73.4573 115.827 72.9915 115.755 72.3655L115.522 70.3432C115.451 69.7242 115.306 69.2831 115.089 69.0198C114.871 68.7566 114.588 68.645 114.239 68.6851C113.887 68.7257 113.637 68.8987 113.488 69.2042C113.339 69.5096 113.301 69.9718 113.372 70.5908L113.605 72.6131C113.677 73.2392 113.82 73.684 114.034 73.9477C114.252 74.211 114.539 74.3222 114.894 74.2812ZM121.275 74.7575C120.464 74.8509 119.791 74.6598 119.257 74.1843C118.723 73.7052 118.396 72.9516 118.278 71.9236L118.081 70.2108C117.963 69.1863 118.108 68.3802 118.516 67.7926C118.927 67.201 119.536 66.8587 120.344 66.7657C121.148 66.6731 121.817 66.8681 122.352 67.3508C122.89 67.8295 123.218 68.5811 123.336 69.6056L123.534 71.3184C123.652 72.3464 123.505 73.1545 123.094 73.7425C122.685 74.3266 122.079 74.665 121.275 74.7575ZM121.137 73.5623C121.486 73.5222 121.735 73.3494 121.883 73.0439C122.032 72.7384 122.07 72.2726 121.998 71.6466L121.765 69.6243C121.694 69.0053 121.549 68.5642 121.332 68.3009C121.114 68.0377 120.831 67.9261 120.482 67.9662C120.13 68.0068 119.88 68.1798 119.731 68.4853C119.582 68.7907 119.544 69.253 119.615 69.8719L119.848 71.8942C119.92 72.5203 120.063 72.9651 120.277 73.2288C120.495 73.4921 120.782 73.6033 121.137 73.5623ZM127.585 76.1666L127.476 75.2275L128.21 74.9808L127.543 69.186L126.692 69.1218L126.584 68.1827L128.846 67.9222L128.999 68.5859C129.141 68.3172 129.325 68.1014 129.551 67.9384C129.777 67.7753 130.058 67.6746 130.392 67.6361C130.858 67.5824 131.271 67.6646 131.632 67.8826C131.992 68.0971 132.285 68.4219 132.512 68.8572C132.742 69.292 132.892 69.8136 132.962 70.4219L132.975 70.5339C133.041 71.1031 133.009 71.6113 132.88 72.0587C132.755 72.5021 132.538 72.8622 132.232 73.139C131.928 73.4119 131.541 73.5754 131.072 73.6294C130.762 73.6651 130.482 73.6415 130.231 73.5586C129.983 73.4718 129.763 73.3296 129.571 73.1318L129.763 74.802L130.534 74.8754L130.642 75.8145L127.585 76.1666ZM130.47 72.4877C130.868 72.4418 131.139 72.261 131.283 71.9452C131.431 71.6291 131.475 71.2185 131.417 70.7133L131.404 70.6013C131.362 70.2349 131.284 69.9212 131.171 69.6603C131.058 69.3958 130.907 69.1969 130.719 69.0636C130.534 68.9264 130.309 68.8729 130.046 68.9032C129.833 68.9278 129.65 68.9975 129.497 69.1124C129.348 69.2269 129.236 69.3786 129.16 69.5675L129.451 72.0967C129.566 72.2493 129.709 72.359 129.879 72.426C130.052 72.4925 130.249 72.5131 130.47 72.4877ZM135.799 75.3342C135.663 75.3498 135.518 75.3539 135.362 75.3467C135.21 75.3425 135.064 75.3287 134.925 75.3051L134.969 74.143C135.039 74.1494 135.115 74.1515 135.197 74.1492C135.28 74.1469 135.351 74.1422 135.412 74.1353C135.636 74.1095 135.823 74.0284 135.973 73.8922C136.123 73.756 136.223 73.5733 136.272 73.3441L136.359 72.9719L133.875 68.3974L133.154 68.3777L133.046 67.4386L136.109 67.0859L136.217 68.0251L135.525 68.2129L136.725 70.6536L136.873 70.9555L136.905 70.9518L137.647 67.9577L136.948 67.9409L136.84 67.0018L139.694 66.673L139.802 67.6122L139.162 67.7778L137.603 73.6342C137.527 73.9133 137.418 74.1727 137.277 74.4125C137.139 74.6555 136.95 74.8593 136.709 75.024C136.472 75.1882 136.169 75.2916 135.799 75.3342ZM143.669 72.1787C143.1 72.2443 142.597 72.1814 142.161 71.9902C141.728 71.7986 141.379 71.5054 141.113 71.1106C140.848 70.7123 140.684 70.241 140.621 69.6967L140.535 68.9551C140.436 68.0871 140.464 67.3485 140.621 66.7393C140.778 66.1301 141.038 65.6388 141.403 65.2652C141.767 64.8881 142.206 64.6177 142.72 64.4539C143.059 64.3572 143.305 64.2532 143.458 64.1419C143.614 64.0266 143.68 63.8623 143.655 63.6488L144.861 63.51L144.881 63.5401C144.928 63.8879 144.916 64.1758 144.845 64.4039C144.777 64.6315 144.664 64.8194 144.504 64.9675C144.345 65.1157 144.148 65.241 143.915 65.3436C143.685 65.4422 143.434 65.5341 143.163 65.6194C142.818 65.7276 142.54 65.8623 142.328 66.0237C142.119 66.1811 141.964 66.3684 141.863 66.5855C141.765 66.8022 141.71 67.0537 141.696 67.3401L141.72 67.3643C141.896 67.1674 142.111 66.9985 142.365 66.8575C142.619 66.7165 142.908 66.6274 143.231 66.5901C143.747 66.5307 144.207 66.5932 144.61 66.7774C145.013 66.9616 145.34 67.2448 145.589 67.627C145.842 68.0052 145.999 68.4593 146.06 68.9894L146.072 69.1014C146.135 69.6457 146.082 70.1384 145.913 70.5796C145.744 71.0208 145.47 71.3821 145.092 71.6636C144.713 71.9415 144.239 72.1132 143.669 72.1787ZM143.532 70.9835C143.799 70.9528 144.01 70.8636 144.166 70.7159C144.325 70.5642 144.432 70.3662 144.487 70.122C144.541 69.8743 144.55 69.5939 144.514 69.2808L144.501 69.1688C144.468 68.8771 144.396 68.6241 144.284 68.4098C144.177 68.1952 144.029 68.0356 143.84 67.9312C143.654 67.8228 143.427 67.7841 143.156 67.8153C142.889 67.846 142.678 67.9352 142.522 68.0829C142.366 68.2271 142.259 68.4159 142.203 68.6495C142.147 68.883 142.136 69.1456 142.17 69.4373L142.179 69.5173C142.215 69.8339 142.287 70.1087 142.393 70.3415C142.502 70.574 142.65 70.748 142.837 70.8635C143.026 70.9751 143.258 71.0151 143.532 70.9835ZM146.663 72.3963L148.898 63.5911L150.333 63.4258L148.098 72.2311L146.663 72.3963ZM151.276 71.1893L151.169 70.2555L151.977 70.0002L151.565 66.4199L150.719 66.355L150.611 65.4159L155.67 64.8334L155.904 66.8664L154.927 66.9788L154.768 66.1591L153.135 66.3472L153.535 69.8208L154.381 69.8856L154.488 70.8194L151.276 71.1893ZM159.757 70.3262C159.188 70.3918 158.684 70.3236 158.247 70.1217C157.809 69.9198 157.456 69.6108 157.188 69.1947C156.92 68.775 156.753 68.277 156.686 67.7008L156.674 67.5887C156.608 67.016 156.658 66.4966 156.824 66.0305C156.99 65.5609 157.261 65.1782 157.638 64.8825C158.018 64.5828 158.491 64.4004 159.056 64.3353C159.629 64.2694 160.133 64.3393 160.567 64.5452C161.001 64.7475 161.352 65.0567 161.62 65.4728C161.888 65.8889 162.055 66.3851 162.121 66.9614L162.134 67.0734C162.201 67.6497 162.151 68.1727 161.985 68.6423C161.819 69.1084 161.548 69.4893 161.171 69.785C160.794 70.0807 160.323 70.2611 159.757 70.3262ZM159.619 69.131C159.89 69.0999 160.102 69.0015 160.256 68.836C160.41 68.6705 160.513 68.4532 160.565 68.1841C160.616 67.9115 160.622 67.6008 160.582 67.2522L160.569 67.1402C160.529 66.7987 160.454 66.5028 160.342 66.2526C160.23 65.9987 160.078 65.809 159.887 65.6832C159.699 65.5534 159.468 65.5043 159.195 65.5359C158.928 65.5666 158.716 65.6667 158.559 65.8362C158.401 66.0021 158.297 66.2214 158.245 66.494C158.197 66.7627 158.192 67.0678 158.232 67.4093L158.245 67.5214C158.285 67.87 158.359 68.1714 158.468 68.4256C158.58 68.6794 158.731 68.8692 158.922 68.995C159.113 69.1172 159.345 69.1625 159.619 69.131ZM162.974 71.594L162.519 68.6728L163.02 68.615C163.174 68.4135 163.297 68.2209 163.392 68.037C163.485 67.8496 163.555 67.6542 163.6 67.4508C163.644 67.2438 163.669 67.0157 163.672 66.7666C163.679 66.5135 163.667 66.2211 163.636 65.8895L163.56 65.0386L162.725 64.9725L162.617 64.0334L167.707 63.4473L168.54 63.3514L168.648 64.2905L167.834 64.5464L168.234 68.0254L169.072 67.9289L169.302 70.8653L167.851 71.0324L167.652 69.3036L164.232 69.6974L164.431 71.4262L162.974 71.594ZM164.803 68.4152L166.686 68.1983L166.303 64.8687L165.129 65.0039L165.194 65.71C165.246 66.2844 165.235 66.7957 165.16 67.244C165.085 67.6888 164.966 68.0792 164.803 68.4152Z" fill="white"/>
<path d="M29.65 54.33L29.5686 53.4637L30.3878 53.2249L30.3446 52.7651L30.2591 52.7731C29.6245 52.8327 29.0521 52.7695 28.5419 52.5836C28.0314 52.3942 27.6174 52.1022 27.2998 51.7076C26.9855 51.3092 26.8017 50.8265 26.7485 50.2597C26.6939 49.6786 26.7853 49.1575 27.0225 48.6964C27.2598 48.2354 27.6094 47.8609 28.0715 47.573C28.5372 47.2847 29.0873 47.1108 29.7219 47.0512L29.8074 47.0431L29.7632 46.5726L28.914 46.4905L28.8326 45.6241L32.0572 45.3214L32.1386 46.1877L31.3194 46.4265L31.3636 46.897L31.4277 46.891C32.0623 46.8314 32.6352 46.8999 33.1464 47.0965C33.6572 47.2895 34.0721 47.5904 34.391 47.9993C34.7096 48.4045 34.8961 48.8977 34.9507 49.4788C35.0039 50.0457 34.9114 50.5543 34.6731 51.0046C34.4349 51.455 34.0808 51.8209 33.6109 52.1023C33.1446 52.3835 32.5959 52.5537 31.9649 52.6129L31.9008 52.619L31.9439 53.0789L32.7932 53.161L32.8746 54.0273L29.65 54.33ZM30.1581 51.6982L30.2437 51.6902L29.9093 48.1287L29.8238 48.1367C29.4744 48.1695 29.1781 48.2693 28.9348 48.436C28.6915 48.6027 28.5112 48.8282 28.3941 49.1125C28.2801 49.393 28.2414 49.7275 28.2779 50.1161C28.313 50.4904 28.4124 50.8012 28.5758 51.0484C28.7425 51.2917 28.9606 51.469 29.23 51.5804C29.4994 51.6917 29.8088 51.731 30.1581 51.6982ZM31.7999 51.5441L31.8747 51.5371C32.2205 51.5046 32.5154 51.4086 32.7594 51.249C33.003 51.0859 33.1821 50.8677 33.2967 50.5944C33.4146 50.3172 33.4561 49.9932 33.4213 49.6224C33.3845 49.2302 33.2822 48.9072 33.1145 48.6532C32.95 48.3953 32.7329 48.2089 32.4632 48.0939C32.1931 47.9754 31.8852 47.9324 31.5393 47.9649L31.4655 47.9826L31.7999 51.5441ZM38.6761 53.1319C38.1057 53.1855 37.6038 53.1067 37.1704 52.8957C36.737 52.6846 36.3908 52.3682 36.1318 51.9466C35.8725 51.5214 35.7158 51.02 35.6615 50.4425L35.651 50.3302C35.5971 49.7562 35.6582 49.238 35.8341 48.7755C36.0097 48.3094 36.2891 47.9326 36.672 47.6448C37.0583 47.3532 37.5348 47.1808 38.1016 47.1276C38.6756 47.0737 39.1777 47.1543 39.6079 47.3692C40.0377 47.5806 40.3821 47.8971 40.6411 48.3188C40.9001 48.7404 41.0567 49.24 41.1109 49.8176L41.1214 49.9299C41.1756 50.5074 41.1149 51.0292 40.9393 51.4953C40.7633 51.9577 40.4839 52.3328 40.1009 52.6205C39.7179 52.9083 39.243 53.0787 38.6761 53.1319ZM38.5637 51.9341C38.8346 51.9086 39.0488 51.8148 39.2062 51.6526C39.3636 51.4903 39.4711 51.2753 39.5286 51.0073C39.5859 50.7358 39.5981 50.4253 39.5653 50.076L39.5547 49.9637C39.5226 49.6214 39.4533 49.324 39.3469 49.0715C39.2401 48.8154 39.0925 48.6224 38.9041 48.4927C38.7189 48.359 38.4891 48.305 38.2146 48.3308C37.9472 48.3559 37.7332 48.4515 37.5726 48.6177C37.4116 48.7802 37.3025 48.9973 37.2453 49.2688C37.1913 49.5364 37.1804 49.8413 37.2125 50.1836L37.223 50.2959C37.2558 50.6452 37.3238 50.9482 37.427 51.2046C37.5338 51.4607 37.6814 51.6537 37.8698 51.7834C38.0579 51.9096 38.2892 51.9599 38.5637 51.9341ZM42.2167 54.9304L42.1283 53.9893L42.8673 53.7581L42.322 47.9506L41.4728 47.8685L41.3844 46.9273L43.6518 46.7144L43.7899 47.3812C43.9376 47.1156 44.1263 46.9037 44.356 46.7454C44.5857 46.5872 44.8681 46.4923 45.2032 46.4609C45.6702 46.417 46.0816 46.5079 46.4372 46.7335C46.7925 46.9554 47.079 47.2864 47.2965 47.7263C47.5176 48.1659 47.6567 48.6905 47.714 49.3002L47.7245 49.4125C47.7781 49.9829 47.7358 50.4903 47.5977 50.9349C47.4629 51.3755 47.2391 51.731 46.9264 52.0013C46.6169 52.2677 46.2269 52.423 45.7563 52.4672C45.4462 52.4963 45.1665 52.4669 44.9172 52.3788C44.6712 52.2868 44.4542 52.1399 44.2663 51.9382L44.4234 53.612L45.1925 53.7016L45.2808 54.6428L42.2167 54.9304ZM45.1786 51.313C45.5779 51.2756 45.8528 51.1005 46.0033 50.7879C46.1573 50.4749 46.2106 50.0653 46.163 49.5591L46.1525 49.4468C46.118 49.0796 46.0471 48.7643 45.9396 48.5011C45.8319 48.2343 45.6852 48.0323 45.4997 47.895C45.3174 47.7539 45.0944 47.6957 44.8306 47.7205C44.6167 47.7406 44.4322 47.8064 44.2773 47.9181C44.1259 48.0294 44.0104 48.1787 43.9309 48.366L44.1689 50.9007C44.2805 51.0557 44.4206 51.1684 44.589 51.2389C44.7611 51.3091 44.9576 51.3338 45.1786 51.313ZM48.719 52.0758L48.6312 51.14L49.4503 50.9012L49.1135 47.313L48.2642 47.2309L48.1758 46.2897L49.01 46.2114L50.9405 46.0301L52.789 49.8595L52.8211 49.8565L53.9352 45.749L55.8924 45.5652L56.7212 45.4874L56.8096 46.4286L55.9958 46.6668L56.3327 50.2551L57.1766 50.3377L57.2645 51.2735L54.2859 51.5531L54.198 50.6173L54.7712 50.4017L54.5508 48.0541L54.5182 48.0517L53.4998 51.6269L52.4516 51.7254L50.8237 48.4633L50.7921 48.4717L51.0065 50.7551L51.6151 50.8598L51.703 51.7956L48.719 52.0758ZM59.9488 51.1348C59.3748 51.1887 58.9041 51.0782 58.5366 50.8034C58.1688 50.525 57.96 50.1203 57.9101 49.5891C57.8589 49.0436 58.0385 48.5808 58.4487 48.2006C58.8587 47.8169 59.4897 47.585 60.3417 47.505L61.1064 47.4332L61.0662 47.0054C61.0401 46.7273 60.9371 46.5104 60.757 46.3547C60.5802 46.1951 60.3295 46.1305 60.0051 46.161C59.8376 46.1767 59.6898 46.2121 59.562 46.2673C59.4337 46.3189 59.3179 46.3873 59.2144 46.4726L59.1632 47.2488L58.0402 47.3542L57.8777 45.8536C58.1647 45.654 58.4796 45.4842 58.8225 45.3441C59.1654 45.204 59.5543 45.1136 59.9893 45.0727C60.7451 45.0018 61.3588 45.1222 61.8304 45.4339C62.3017 45.7421 62.568 46.2225 62.6292 46.8749L62.8532 49.2599C62.8605 49.3383 62.8679 49.4167 62.8752 49.4952C62.8858 49.5697 62.8998 49.6421 62.9172 49.7124L63.5295 49.7412L63.6174 50.6771L61.6816 50.8588C61.633 50.7627 61.5837 50.6594 61.5338 50.549C61.4839 50.4386 61.4446 50.3272 61.4161 50.2148C61.2528 50.4675 61.0513 50.677 60.8116 50.8434C60.5751 51.0059 60.2875 51.103 59.9488 51.1348ZM60.2575 49.9405C60.4749 49.9201 60.6772 49.8526 60.8642 49.7379C61.0509 49.6197 61.1902 49.4753 61.2821 49.3049L61.1963 48.3904L60.4262 48.4627C60.084 48.4949 59.8311 48.5977 59.6676 48.7713C59.5076 48.9446 59.438 49.1417 59.4588 49.3628C59.4782 49.5695 59.5574 49.7239 59.6964 49.826C59.8387 49.9241 60.0257 49.9623 60.2575 49.9405ZM69.6279 50.2261C69.0575 50.2796 68.5556 50.2009 68.1222 49.9898C67.6888 49.7787 67.3426 49.4624 67.0836 49.0407C66.8243 48.6155 66.6675 48.1141 66.6133 47.5366L66.6028 47.4243C66.5489 46.8503 66.6099 46.3321 66.7859 45.8696C66.9615 45.4036 67.2408 45.0267 67.6238 44.739C68.01 44.4474 68.4866 44.275 69.0534 44.2217C69.6274 44.1679 70.1295 44.2484 70.5596 44.4634C70.9895 44.6748 71.3339 44.9913 71.5929 45.4129C71.8518 45.8346 72.0084 46.3342 72.0627 46.9117L72.0732 47.024C72.1274 47.6015 72.0667 48.1233 71.8911 48.5894C71.7151 49.0519 71.4356 49.427 71.0527 49.7147C70.6697 50.0024 70.1948 50.1729 69.6279 50.2261ZM69.5155 49.0282C69.7864 49.0028 70.0006 48.9089 70.158 48.7467C70.3154 48.5845 70.4229 48.3694 70.4804 48.1014C70.5376 47.8299 70.5499 47.5195 70.5171 47.1701L70.5065 47.0578C70.4744 46.7156 70.4051 46.4182 70.2987 46.1656C70.1919 45.9095 70.0443 45.7166 69.8559 45.5868C69.6707 45.4531 69.4409 45.3992 69.1664 45.4249C68.899 45.45 68.685 45.5457 68.5244 45.7118C68.3634 45.8744 68.2543 46.0914 68.1971 46.3629C68.1431 46.6305 68.1321 46.9355 68.1643 47.2777L68.1748 47.39C68.2076 47.7394 68.2756 48.0423 68.3788 48.2987C68.4856 48.5549 68.6332 48.7478 68.8216 48.8776C69.0097 49.0038 69.2409 49.054 69.5155 49.0282ZM75.8792 49.6392C75.3088 49.6927 74.8074 49.6193 74.375 49.4189C73.9462 49.2182 73.6033 48.9178 73.3463 48.5175C73.089 48.1137 72.9348 47.639 72.8835 47.0936L72.8138 46.3503C72.7321 45.4804 72.7761 44.7426 72.9458 44.1368C73.1155 43.5311 73.3864 43.0453 73.7585 42.6795C74.1302 42.3101 74.575 42.049 75.0929 41.8961C75.4334 41.8065 75.6813 41.7077 75.8366 41.5997C75.9951 41.4877 76.0643 41.3247 76.0442 41.1108L77.2528 40.9974L77.2718 41.0279C77.3118 41.3766 77.2938 41.6643 77.218 41.8908C77.1457 42.1169 77.0282 42.3024 76.8656 42.4471C76.703 42.5919 76.5039 42.7131 76.2685 42.8107C76.0364 42.9044 75.7838 42.9911 75.5107 43.0706C75.1641 43.1715 74.8831 43.3004 74.6677 43.4573C74.4555 43.6103 74.2965 43.7942 74.1908 44.0092C74.0887 44.2237 74.0277 44.474 74.0077 44.76L74.0316 44.7848C74.2113 44.5917 74.4297 44.4273 74.6867 44.2917C74.9437 44.1561 75.2344 44.073 75.5588 44.0426C76.0757 43.994 76.5339 44.0661 76.9332 44.2588C77.3325 44.4515 77.6528 44.7415 77.8942 45.1288C78.1388 45.5123 78.286 45.9696 78.3359 46.5008L78.3464 46.6131C78.3976 47.1585 78.3341 47.65 78.1558 48.0876C77.9775 48.5251 77.6962 48.8806 77.3118 49.154C76.9272 49.4239 76.4496 49.5856 75.8792 49.6392ZM75.7668 48.4413C76.0342 48.4162 76.2474 48.3315 76.4065 48.187C76.5688 48.0387 76.6799 47.8431 76.7398 47.6001C76.7993 47.3535 76.8144 47.0734 76.7849 46.7597L76.7744 46.6474C76.747 46.355 76.6799 46.1006 76.5733 45.884C76.4702 45.6671 76.3254 45.5045 76.139 45.3961C75.9559 45.2838 75.7288 45.2404 75.4579 45.2659C75.1905 45.291 74.9773 45.3757 74.8182 45.5201C74.6588 45.661 74.5486 45.8475 74.4877 46.0798C74.4268 46.3121 74.4101 46.5744 74.4375 46.8668L74.445 46.947C74.4748 47.2643 74.5403 47.5405 74.6415 47.7755C74.7463 48.0102 74.8906 48.1873 75.0744 48.3067C75.2615 48.4222 75.4923 48.4671 75.7668 48.4413ZM81.0881 51.3943C80.9526 51.4071 80.807 51.4081 80.6514 51.3976C80.4997 51.3902 80.3542 51.3733 80.2151 51.3468L80.2841 50.1859C80.3532 50.1938 80.429 50.1975 80.5117 50.1969C80.5944 50.1963 80.666 50.1932 80.7266 50.1875C80.9512 50.1664 81.14 50.0893 81.2929 49.9563C81.4459 49.8233 81.5494 49.6427 81.6035 49.4146L81.6982 49.0443L79.3111 44.4186L78.5903 44.3837L78.5019 43.4426L81.5714 43.1544L81.6598 44.0956L80.964 44.2688L82.1125 46.7342L82.2545 47.0392L82.2865 47.0362L83.0913 44.0583L82.3924 44.0268L82.3041 43.0856L85.165 42.817L85.2534 43.7582L84.6095 43.9104L82.9281 49.7327C82.8463 50.0101 82.7319 50.2672 82.5851 50.5039C82.4422 50.7439 82.2488 50.9437 82.0048 51.1033C81.7644 51.2625 81.4588 51.3595 81.0881 51.3943ZM89.5157 48.2456L89.4279 47.3098L90.247 47.0711L90.1777 46.3331C90.0485 46.374 89.915 46.4081 89.7773 46.4354C89.6393 46.4592 89.5008 46.4776 89.3617 46.4906C88.8056 46.5428 88.3239 46.5071 87.9167 46.3835C87.5095 46.2599 87.1871 46.0438 86.9495 45.7353C86.7116 45.4231 86.5694 45.0193 86.5229 44.5237L86.4551 43.8018L85.6112 43.7192L85.5233 42.7834L87.9137 42.559L88.5821 42.4962L88.67 43.432L88.0166 43.6552L88.0844 44.3771C88.1081 44.6303 88.1627 44.8283 88.2481 44.9714C88.3331 45.1109 88.457 45.2053 88.6199 45.2548C88.786 45.3003 88.9957 45.3112 89.2488 45.2874C89.3949 45.2737 89.5333 45.2535 89.6639 45.2269C89.798 45.1999 89.9315 45.1658 90.0643 45.1245L89.9101 43.4828L89.2213 43.3857L89.1329 42.4445L92.2024 42.1563L92.2908 43.0975L91.4716 43.3362L91.8085 46.9245L92.6578 47.0066L92.7456 47.9424L89.5157 48.2456ZM96.2802 47.7238C95.7277 47.7757 95.2332 47.6999 94.7969 47.4963C94.3603 47.2891 94.0078 46.9823 93.7395 46.5759C93.4747 46.1692 93.3165 45.6914 93.265 45.1423L93.2449 44.9284C93.191 44.3545 93.2503 43.8364 93.4227 43.3743C93.5948 42.9085 93.8632 42.5309 94.228 42.2413C94.5964 41.9513 95.0462 41.7814 95.5774 41.7316C96.1015 41.6824 96.5515 41.7444 96.9274 41.9177C97.3033 42.091 97.6022 42.3633 97.8241 42.7345C98.0459 43.1056 98.1828 43.5675 98.2347 44.1201L98.3145 44.9704L94.9134 45.2897L94.9057 45.3228C94.9509 45.5739 95.0345 45.7944 95.1567 45.9843C95.282 46.1704 95.4463 46.3114 95.6496 46.4074C95.8524 46.4999 96.0911 46.5332 96.3656 46.5074C96.6509 46.4806 96.9131 46.4201 97.1524 46.3257C97.3949 46.2274 97.6271 46.0959 97.849 45.9312L98.3619 46.8541C98.1411 47.069 97.8549 47.2577 97.5033 47.4202C97.155 47.5788 96.7473 47.68 96.2802 47.7238ZM94.8272 44.2566L96.7577 44.0754L96.7447 43.9363C96.7226 43.701 96.6716 43.5026 96.5917 43.3411C96.515 43.1756 96.4028 43.0531 96.2551 42.9735C96.1109 42.8935 95.9301 42.8637 95.7126 42.8841C95.5058 42.9036 95.3363 42.9752 95.2041 43.0991C95.0715 43.2195 94.9731 43.3779 94.9089 43.5746C94.8482 43.7709 94.8148 43.9898 94.8087 44.2314L94.8272 44.2566ZM99.382 47.3194L99.2941 46.3835L100.113 46.1448L99.7764 42.5566L98.9271 42.4745L98.8388 41.5333L101.903 41.2456L101.991 42.1868L101.333 42.4105L101.449 43.6511L103.353 43.4724L103.236 42.2317L102.553 42.1341L102.464 41.1929L103.133 41.1301L104.694 40.9835L105.529 40.9052L105.617 41.8464L104.798 42.0851L105.135 45.6734L105.984 45.7555L106.072 46.6913L103.008 46.979L102.92 46.0431L103.573 45.82L103.465 44.6702L101.561 44.849L101.669 45.9987L102.358 46.0959L102.446 47.0317L99.382 47.3194ZM106.954 46.6085L106.866 45.6726L107.685 45.4339L107.349 41.8457L106.499 41.7635L106.411 40.8224L108.807 40.5975L109.555 40.5272L109.644 41.4683L108.91 41.6991L109.137 44.1108L109.169 44.1131L110.721 40.4177L112.283 40.2711L113.111 40.1933L113.2 41.1345L112.386 41.3727L112.723 44.9609L113.567 45.0436L113.655 45.9794L110.516 46.2741L110.428 45.3383L111.161 45.1075L110.934 42.6851L110.901 42.6828L109.35 46.3835L106.954 46.6085ZM114.537 45.8965L114.449 44.9607L115.055 44.8067L115.672 43.4433C115.329 43.3137 115.057 43.1252 114.858 42.8778C114.662 42.6264 114.548 42.3332 114.516 41.9981C114.481 41.6202 114.551 41.2773 114.727 40.9695C114.903 40.6617 115.169 40.4101 115.525 40.2149C115.88 40.0161 116.309 39.8931 116.812 39.8459L120.192 39.5286L120.28 40.4698L119.466 40.708L119.803 44.2962L120.647 44.3788L120.735 45.3147L117.676 45.6018L117.588 44.666L118.247 44.4423L118.16 43.5119L117.315 43.5912L116.462 45.7158L114.537 45.8965ZM117.039 42.5543L118.061 42.4584L117.919 40.945L116.924 41.0384C116.632 41.0658 116.413 41.1655 116.267 41.3375C116.121 41.5094 116.058 41.6952 116.076 41.8948C116.095 42.0944 116.188 42.2619 116.356 42.3973C116.526 42.5287 116.754 42.581 117.039 42.5543ZM124.248 44.9848L124.16 44.049L124.98 43.8102L124.643 40.222L123.793 40.1399L123.705 39.1987L126.101 38.9738L126.849 38.9035L126.938 39.8447L126.204 40.0754L126.431 42.4872L126.463 42.4895L128.015 38.7941L129.577 38.6475L130.406 38.5697L130.494 39.5108L129.68 39.7491L130.017 43.3373L130.861 43.4199L130.949 44.3558L127.81 44.6505L127.722 43.7146L128.455 43.4839L128.228 41.0615L128.195 41.0591L126.644 44.7599L124.248 44.9848ZM137.13 43.8887C136.574 43.9409 136.081 43.8613 135.651 43.6499C135.225 43.4382 134.883 43.1233 134.624 42.7052C134.365 42.2835 134.209 41.7893 134.156 41.2224L134.141 41.062C134.087 40.4916 134.15 39.9768 134.33 39.5175C134.51 39.0583 134.79 38.685 135.169 38.3976C135.548 38.1066 136.01 37.9356 136.556 37.8844C137.076 37.8355 137.532 37.8755 137.921 38.0043C138.314 38.1293 138.638 38.2877 138.894 38.4795L139.039 40.1382L137.862 40.2487L137.557 39.2362C137.463 39.1587 137.348 39.0993 137.211 39.0582C137.074 39.0172 136.938 39.003 136.802 39.0157C136.517 39.0425 136.287 39.136 136.111 39.2964C135.939 39.4564 135.819 39.6726 135.751 39.9451C135.683 40.2177 135.667 40.5411 135.702 40.9154L135.717 41.0758C135.754 41.4716 135.837 41.7929 135.964 42.0399C136.091 42.2833 136.246 42.4576 136.429 42.5627C136.615 42.6675 136.815 42.7099 137.029 42.6898C137.303 42.6641 137.516 42.5722 137.666 42.4142C137.82 42.2523 137.915 42.0366 137.951 41.7671L139.288 41.6416L139.307 41.6721C139.285 42.0878 139.197 42.4539 139.043 42.7704C138.893 43.0866 138.661 43.3404 138.348 43.5316C138.039 43.7225 137.633 43.8415 137.13 43.8887ZM141.537 43.3617L141.449 42.4259L142.263 42.1876L141.935 38.6903L140.967 38.7812L140.981 39.5674L139.783 39.6799L139.598 37.7066L145.641 37.1393L145.826 39.1126L144.628 39.225L144.491 38.4503L143.501 38.5432L143.83 42.0405L144.674 42.1231L144.762 43.059L141.537 43.3617ZM149.446 42.7325C148.875 42.786 148.374 42.7073 147.94 42.4962C147.507 42.2851 147.161 41.9688 146.902 41.5471C146.642 41.1219 146.486 40.6205 146.431 40.043L146.421 39.9307C146.367 39.3567 146.428 38.8385 146.604 38.376C146.779 37.91 147.059 37.5331 147.442 37.2454C147.828 36.9538 148.305 36.7814 148.871 36.7281C149.445 36.6743 149.947 36.7548 150.378 36.9698C150.807 37.1812 151.152 37.4977 151.411 37.9193C151.67 38.341 151.826 38.8406 151.881 39.4181L151.891 39.5304C151.945 40.1079 151.885 40.6297 151.709 41.0958C151.533 41.5583 151.254 41.9334 150.871 42.2211C150.488 42.5088 150.013 42.6792 149.446 42.7325ZM149.333 41.5346C149.604 41.5092 149.819 41.4153 149.976 41.2531C150.133 41.0909 150.241 40.8758 150.298 40.6078C150.356 40.3363 150.368 40.0259 150.335 39.6765L150.324 39.5642C150.292 39.222 150.223 38.9246 150.117 38.672C150.01 38.4159 149.862 38.223 149.674 38.0932C149.489 37.9595 149.259 37.9056 148.984 37.9313C148.717 37.9564 148.503 38.0521 148.342 38.2182C148.181 38.3808 148.072 38.5978 148.015 38.8693C147.961 39.1369 147.95 39.4419 147.982 39.7841L147.993 39.8964C148.026 40.2458 148.094 40.5487 148.197 40.8051C148.304 41.0613 148.451 41.2542 148.64 41.384C148.828 41.5102 149.059 41.5604 149.333 41.5346ZM152.933 42.2918L152.845 41.356L153.664 41.1173L153.327 37.529L152.478 37.4469L152.389 36.5057L154.785 36.2808L155.534 36.2105L155.622 37.1517L154.889 37.3824L155.115 39.7942L155.148 39.7965L156.7 36.1011L158.261 35.9545L159.09 35.8767L159.178 36.8179L158.364 37.0561L158.701 40.6443L159.545 40.7269L159.633 41.6628L156.494 41.9575L156.406 41.0216L157.14 40.7909L156.912 38.3685L156.88 38.3661L155.328 42.0669L152.933 42.2918ZM160.548 41.5769L160.46 40.6411L161.279 40.4023L160.942 36.8141L160.093 36.732L160.004 35.7908L160.839 35.7125L162.769 35.5313L164.618 39.3606L164.65 39.3576L165.764 35.2501L167.721 35.0664L168.55 34.9885L168.638 35.9297L167.824 36.168L168.161 39.7562L169.005 39.8388L169.093 40.7746L166.114 41.0543L166.027 40.1184L166.6 39.9028L166.379 37.5552L166.347 37.5529L165.328 41.1281L164.28 41.2265L162.652 37.9645L162.621 37.9728L162.835 40.2562L163.444 40.3609L163.532 41.2968L160.548 41.5769ZM172.601 40.5586C172.03 40.6121 171.529 40.5334 171.095 40.3223C170.662 40.1113 170.316 39.7949 170.057 39.3733C169.797 38.948 169.641 38.4467 169.586 37.8691L169.576 37.7568C169.522 37.1828 169.583 36.6646 169.759 36.2021C169.934 35.7361 170.214 35.3592 170.597 35.0715C170.983 34.7799 171.46 34.6075 172.026 34.5543C172.6 34.5004 173.102 34.5809 173.533 34.7959C173.962 35.0073 174.307 35.3238 174.566 35.7454C174.825 36.1671 174.981 36.6667 175.036 37.2442L175.046 37.3565C175.1 37.9341 175.04 38.4559 174.864 38.9219C174.688 39.3844 174.409 39.7595 174.026 40.0472C173.643 40.3349 173.168 40.5054 172.601 40.5586ZM172.488 39.3607C172.759 39.3353 172.974 39.2415 173.131 39.0792C173.288 38.917 173.396 38.7019 173.453 38.434C173.511 38.1624 173.523 37.852 173.49 37.5026L173.479 37.3903C173.447 37.0481 173.378 36.7507 173.272 36.4981C173.165 36.242 173.017 36.0491 172.829 35.9193C172.644 35.7856 172.414 35.7317 172.139 35.7575C171.872 35.7826 171.658 35.8782 171.497 36.0443C171.336 36.2069 171.227 36.4239 171.17 36.6954C171.116 36.963 171.105 37.268 171.137 37.6102L171.148 37.7225C171.181 38.0719 171.249 38.3748 171.352 38.6313C171.459 38.8874 171.606 39.0803 171.795 39.2101C171.983 39.3363 172.214 39.3865 172.488 39.3607ZM178.767 39.9797C178.21 40.0319 177.717 39.9523 177.288 39.7409C176.861 39.5292 176.519 39.2143 176.26 38.7962C176.001 38.3746 175.845 37.8803 175.792 37.3135L175.777 37.1531C175.723 36.5826 175.787 36.0678 175.966 35.6086C176.146 35.1493 176.426 34.776 176.805 34.4886C177.184 34.1977 177.647 34.0266 178.192 33.9754C178.713 33.9265 179.168 33.9665 179.557 34.0954C179.95 34.2203 180.275 34.3787 180.53 34.5705L180.675 36.2293L179.498 36.3397L179.193 35.3272C179.099 35.2497 178.984 35.1904 178.847 35.1493C178.71 35.1082 178.574 35.094 178.439 35.1067C178.153 35.1335 177.923 35.2271 177.747 35.3874C177.575 35.5474 177.456 35.7637 177.388 36.0362C177.32 36.3087 177.303 36.6321 177.338 37.0065L177.353 37.1669C177.391 37.5626 177.473 37.884 177.6 38.1309C177.728 38.3743 177.882 38.5486 178.065 38.6538C178.251 38.7586 178.451 38.8009 178.665 38.7809C178.939 38.7551 179.152 38.6632 179.303 38.5052C179.456 38.3433 179.551 38.1276 179.587 37.8581L180.924 37.7326L180.943 37.7632C180.921 38.1788 180.833 38.5449 180.679 38.8615C180.529 39.1777 180.298 39.4314 179.985 39.6226C179.675 39.8135 179.269 39.9325 178.767 39.9797ZM183.173 39.4527L183.085 38.5169L183.899 38.2787L183.571 34.7813L182.603 34.8722L182.617 35.6585L181.42 35.7709L181.234 33.7977L187.277 33.2304L187.462 35.2036L186.264 35.3161L186.127 34.5414L185.138 34.6342L185.466 38.1316L186.31 38.2142L186.398 39.15L183.173 39.4527ZM191.736 34.6945C192.52 34.6209 193.15 34.7398 193.625 35.0512C194.103 35.3588 194.37 35.8049 194.425 36.3895C194.481 36.9885 194.304 37.4907 193.892 37.8961C193.481 38.3016 192.884 38.541 192.104 38.6143L188.622 38.9411L188.535 38.0053L189.354 37.7666L189.017 34.1783L188.168 34.0962L188.079 33.1551L191.309 32.8518L191.397 33.793L190.578 34.0317L190.65 34.7964L191.736 34.6945ZM191.992 37.4218C192.313 37.3917 192.545 37.2979 192.688 37.1406C192.831 36.9797 192.892 36.7816 192.87 36.5463C192.847 36.3039 192.75 36.1152 192.579 35.9802C192.412 35.8449 192.166 35.7924 191.842 35.8229L190.756 35.9248L190.906 37.5237L191.992 37.4218ZM195.328 38.3116L195.2 36.9426L196.756 36.7965L196.884 38.1655L195.328 38.3116ZM194.914 33.8998L194.786 32.5308L196.342 32.3847L196.47 33.7537L194.914 33.8998Z" fill="white"/>
<defs>
<linearGradient id="paint0_linear_145_9812" x1="16.6562" y1="16" x2="213.656" y2="16" gradientUnits="userSpaceOnUse">
<stop stop-color="#8E2DE2"/>
<stop offset="1" stop-color="#4A00E0"/>
</linearGradient>
<linearGradient id="paint1_linear_145_9812" x1="151.884" y1="31.8365" x2="151.884" y2="31.8365" gradientUnits="userSpaceOnUse">
<stop stop-color="#8E2DE2"/>
<stop offset="1" stop-color="#4A00E0"/>
</linearGradient>
<linearGradient id="paint2_linear_145_9812" x1="-3.22876" y1="56.9464" x2="226.33" y2="36.4554" gradientUnits="userSpaceOnUse">
<stop stop-color="#6025F5"/>
<stop offset="1" stop-color="#FF5555"/>
</linearGradient>
<linearGradient id="paint3_linear_145_9812" x1="24.3309" y1="84.0771" x2="192.756" y2="59.4773" gradientUnits="userSpaceOnUse">
<stop offset="1" stop-color="#F80759"/>
</linearGradient>
</defs>
</svg>
