<svg width="458" height="226" viewBox="0 0 458 226" fill="none" xmlns="http://www.w3.org/2000/svg">
<rect x="23.6387" width="390" height="59" rx="29.5" fill="url(#paint0_linear_228_1678)"/>
<rect x="20.4512" y="166.36" width="425.819" height="59" rx="29.5" transform="rotate(-5.21641 20.4512 166.36)" fill="url(#paint1_linear_228_1678)"/>
<path d="M86.8773 35.2461C86.682 35.2461 86.4633 35.2383 86.2211 35.2227C85.9789 35.2148 85.7875 35.207 85.6469 35.1992L85.6 32.3398C85.6781 32.3477 85.8148 32.3594 86.0101 32.375C86.2133 32.3828 86.3656 32.3867 86.4672 32.3867C87.1078 32.3867 87.5922 32.25 87.9203 31.9766C88.2562 31.7031 88.514 31.2969 88.6937 30.7578L88.8812 30.2188L84.0062 20.4219L82.0609 20.1641V17.9375H89.1508V20.1641L87.9437 20.3633L90.1937 25.2266L90.475 25.9297H90.5453L92.6078 20.4102L91.5179 20.1641V17.9375H98.1742V20.1641L96.4164 20.3984L91.6703 31.6367C91.3344 32.3945 90.9554 33.0469 90.5336 33.5938C90.1195 34.1328 89.6156 34.543 89.0219 34.8242C88.4359 35.1055 87.7211 35.2461 86.8773 35.2461ZM97.7992 39.875V37.6484L99.4164 37.2852V24.9102L97.6117 24.5469V22.3203H102.897L103.049 23.7734C103.409 23.2344 103.842 22.8203 104.35 22.5312C104.858 22.2344 105.475 22.0859 106.202 22.0859C107.209 22.0859 108.073 22.3633 108.791 22.918C109.518 23.4727 110.073 24.25 110.455 25.25C110.846 26.2422 111.041 27.4023 111.041 28.7305V28.9766C111.041 30.2266 110.846 31.3242 110.455 32.2695C110.073 33.2148 109.514 33.9492 108.78 34.4727C108.053 34.9883 107.178 35.2461 106.155 35.2461C105.498 35.2461 104.92 35.1289 104.42 34.8945C103.928 34.6523 103.502 34.2969 103.143 33.8281V37.2852L104.69 37.6484V39.875H97.7992ZM105.041 32.3867C105.854 32.3867 106.432 32.082 106.776 31.4727C107.12 30.8633 107.291 30.0312 107.291 28.9766V28.7305C107.291 27.9805 107.213 27.3242 107.057 26.7617C106.901 26.1992 106.655 25.7617 106.319 25.4492C105.991 25.1367 105.557 24.9805 105.018 24.9805C104.604 24.9805 104.237 25.0742 103.916 25.2617C103.596 25.4414 103.338 25.7109 103.143 26.0703V31.4375C103.338 31.75 103.596 31.9883 103.916 32.1523C104.245 32.3086 104.62 32.3867 105.041 32.3867ZM118.553 35.2461C117.272 35.2461 116.174 34.9766 115.26 34.4375C114.354 33.8906 113.659 33.1328 113.174 32.1641C112.698 31.1875 112.459 30.0586 112.459 28.7773V28.543C112.459 27.2773 112.698 26.1602 113.174 25.1914C113.659 24.2227 114.354 23.4648 115.26 22.918C116.166 22.3633 117.256 22.0859 118.53 22.0859C119.803 22.0859 120.893 22.3594 121.799 22.9062C122.705 23.4531 123.397 24.2109 123.873 25.1797C124.358 26.1484 124.6 27.2695 124.6 28.543V28.7773C124.6 30.0508 124.358 31.1758 123.873 32.1523C123.397 33.1211 122.705 33.8789 121.799 34.4258C120.901 34.9727 119.819 35.2461 118.553 35.2461ZM118.553 32.3867C119.1 32.3867 119.541 32.2383 119.877 31.9414C120.221 31.6445 120.471 31.2266 120.627 30.6875C120.791 30.1484 120.873 29.5117 120.873 28.7773V28.543C120.873 27.832 120.791 27.2109 120.627 26.6797C120.471 26.1406 120.221 25.7188 119.877 25.4141C119.534 25.1094 119.084 24.957 118.53 24.957C117.983 24.957 117.537 25.1094 117.194 25.4141C116.85 25.7188 116.6 26.1406 116.444 26.6797C116.287 27.2109 116.209 27.832 116.209 28.543V28.7773C116.209 29.5117 116.287 30.1523 116.444 30.6992C116.6 31.2383 116.85 31.6562 117.194 31.9531C117.537 32.2422 117.991 32.3867 118.553 32.3867ZM126.205 35V32.7852L128.01 32.4219V24.9102L126.205 24.5469V22.3203H128.01H133.401C135.096 22.3203 136.416 22.6172 137.362 23.2109C138.307 23.7969 138.78 24.6523 138.78 25.7773C138.78 26.418 138.588 26.9688 138.205 27.4297C137.83 27.8906 137.241 28.25 136.436 28.5078C137.506 28.7031 138.284 29.0586 138.768 29.5742C139.252 30.0898 139.495 30.7188 139.495 31.4609C139.495 32.6172 139.041 33.4961 138.135 34.0977C137.237 34.6992 135.932 35 134.221 35H126.205ZM131.748 32.1641H134.209C134.733 32.1641 135.12 32.0664 135.37 31.8711C135.627 31.668 135.756 31.3711 135.756 30.9805C135.756 30.5977 135.639 30.3047 135.405 30.1016C135.178 29.8984 134.784 29.7969 134.221 29.7969H131.748V32.1641ZM131.748 27.4297H133.518C134.057 27.4219 134.444 27.3242 134.678 27.1367C134.912 26.9414 135.03 26.6602 135.03 26.293C135.03 25.543 134.495 25.168 133.424 25.168H131.748V27.4297ZM147.065 35.2461C145.838 35.2461 144.768 34.9805 143.854 34.4492C142.94 33.9102 142.229 33.1758 141.721 32.2461C141.221 31.3086 140.971 30.2461 140.971 29.0586V28.6016C140.971 27.3359 141.202 26.2148 141.662 25.2383C142.123 24.2539 142.787 23.4844 143.655 22.9297C144.522 22.3672 145.561 22.0859 146.772 22.0859C147.92 22.0859 148.889 22.3086 149.678 22.7539C150.467 23.1992 151.065 23.8516 151.471 24.7109C151.885 25.5625 152.092 26.6016 152.092 27.8281V29.8203H144.862L144.85 29.8906C144.897 30.375 145.03 30.8047 145.248 31.1797C145.475 31.5469 145.784 31.8398 146.174 32.0586C146.573 32.2773 147.057 32.3867 147.627 32.3867C148.213 32.3867 148.768 32.3164 149.291 32.1758C149.823 32.0352 150.358 31.8164 150.897 31.5195L151.834 33.8047C151.287 34.2188 150.608 34.5625 149.795 34.8359C148.991 35.1094 148.08 35.2461 147.065 35.2461ZM144.873 27.418H148.623V27.1133C148.623 26.6289 148.565 26.2188 148.448 25.8828C148.338 25.5391 148.151 25.2773 147.885 25.0977C147.627 24.918 147.284 24.8281 146.854 24.8281C146.416 24.8281 146.057 24.9375 145.776 25.1562C145.495 25.375 145.28 25.6758 145.131 26.0586C144.991 26.4414 144.893 26.875 144.838 27.3594L144.873 27.418ZM153.873 35V32.7852L155.666 32.4219V24.9102L153.873 24.5469V22.3203H160.764V24.5469L159.405 24.9102V27.3477H163.143V24.9102L161.819 24.5469V22.3203H163.143H166.893H168.698V24.5469L166.893 24.9102V32.4219L168.698 32.7852V35H161.819V32.7852L163.143 32.4219V30.2188H159.405V32.4219L160.764 32.7852V35H153.873ZM178.33 26.3281C180.112 26.3281 181.51 26.7148 182.526 27.4883C183.541 28.2617 184.049 29.2969 184.049 30.5938C184.049 31.9375 183.537 33.0078 182.514 33.8047C181.498 34.6016 180.104 35 178.33 35H170.62V32.7852L172.424 32.4219V24.9102L170.62 24.5469V22.3203H177.979V24.5469L176.174 24.9102V26.3281H178.33ZM178.33 32.1523C178.995 32.1523 179.491 32.0117 179.819 31.7305C180.147 31.4492 180.311 31.0742 180.311 30.6055C180.311 30.1055 180.147 29.7148 179.819 29.4336C179.498 29.1445 179.002 29 178.33 29H176.174V32.1523H178.33ZM185.28 35V31.8125H189.018V35H185.28ZM185.28 25.5195V22.332H189.018V25.5195H185.28ZM202.799 35.2461C201.526 35.2461 200.432 34.9844 199.518 34.4609C198.612 33.9375 197.916 33.2148 197.432 32.293C196.955 31.3711 196.717 30.3125 196.717 29.1172V27.5C196.717 25.5234 196.963 23.8867 197.455 22.5898C197.955 21.2852 198.647 20.2773 199.53 19.5664C200.42 18.8477 201.444 18.3711 202.6 18.1367C203.287 18.0352 203.803 17.8867 204.147 17.6914C204.491 17.4961 204.662 17.1797 204.662 16.7422H207.557L207.592 16.8125C207.616 17.5938 207.514 18.2305 207.287 18.7227C207.069 19.2148 206.76 19.6055 206.362 19.8945C205.963 20.1836 205.502 20.4102 204.979 20.5742C204.463 20.7305 203.912 20.8711 203.327 20.9961C202.545 21.1445 201.916 21.3633 201.44 21.6523C200.971 21.9336 200.616 22.2812 200.373 22.6953C200.131 23.1016 199.967 23.5859 199.881 24.1484L199.928 24.207C200.35 23.8555 200.834 23.5703 201.381 23.3516C201.936 23.1328 202.557 23.0234 203.245 23.0234C204.393 23.0234 205.389 23.2734 206.233 23.7734C207.077 24.2734 207.725 24.9727 208.178 25.8711C208.631 26.7617 208.858 27.793 208.858 28.9648V29.2109C208.858 30.4062 208.616 31.457 208.131 32.3633C207.655 33.2695 206.963 33.9766 206.057 34.4844C205.159 34.9922 204.073 35.2461 202.799 35.2461ZM202.799 32.3867C203.346 32.3867 203.787 32.2578 204.123 32C204.467 31.7344 204.717 31.3672 204.873 30.8984C205.03 30.4219 205.108 29.8594 205.108 29.2109V28.9648C205.108 28.3633 205.026 27.832 204.862 27.3711C204.705 26.9102 204.455 26.5508 204.112 26.293C203.776 26.0273 203.33 25.8945 202.776 25.8945C202.237 25.8945 201.795 26.0273 201.452 26.293C201.108 26.5508 200.858 26.9102 200.702 27.3711C200.545 27.832 200.467 28.3633 200.467 28.9648V29.1172C200.467 29.7734 200.545 30.3477 200.702 30.8398C200.858 31.332 201.108 31.7148 201.452 31.9883C201.795 32.2539 202.245 32.3867 202.799 32.3867ZM214.483 35.2461C213.233 35.2461 212.229 34.9062 211.471 34.2266C210.721 33.5391 210.346 32.6133 210.346 31.4492C210.346 30.2617 210.827 29.293 211.787 28.543C212.748 27.7852 214.178 27.4062 216.077 27.4062H217.588V26.5625C217.588 26 217.424 25.5352 217.096 25.168C216.776 24.8008 216.284 24.6172 215.62 24.6172C215.299 24.6172 215.006 24.6562 214.741 24.7344C214.483 24.8125 214.245 24.9258 214.026 25.0742L213.756 26.7148H211.084L211.037 23.3164C211.725 22.9648 212.459 22.6719 213.241 22.4375C214.022 22.2031 214.889 22.0859 215.842 22.0859C217.537 22.0859 218.877 22.4766 219.862 23.2578C220.846 24.0391 221.338 25.1523 221.338 26.5977V31.5664C221.338 31.7461 221.338 31.9219 221.338 32.0938C221.346 32.2578 221.366 32.418 221.397 32.5742L222.733 32.7852V35H218.233C218.139 34.8203 218.041 34.6094 217.94 34.3672C217.838 34.125 217.768 33.8828 217.729 33.6406C217.33 34.1328 216.873 34.5234 216.358 34.8125C215.842 35.1016 215.217 35.2461 214.483 35.2461ZM215.561 32.5391C215.952 32.5391 216.33 32.4531 216.698 32.2812C217.065 32.1094 217.362 31.875 217.588 31.5781V29.6562H216.1C215.444 29.6562 214.94 29.8047 214.588 30.1016C214.245 30.3984 214.073 30.7656 214.073 31.2031C214.073 31.625 214.205 31.9531 214.471 32.1875C214.745 32.4219 215.108 32.5391 215.561 32.5391ZM224.127 35V32.7852L225.932 32.4219V24.9102L224.127 24.5469V22.3203H231.123V24.5469L229.67 24.9102V26.9961H230.83L232.506 24.3945C232.983 23.6367 233.487 23.0703 234.018 22.6953C234.557 22.3125 235.213 22.1211 235.987 22.1211C236.448 22.1211 236.85 22.1797 237.194 22.2969C237.545 22.4141 237.873 22.5664 238.178 22.7539L237.534 25.3555C237.354 25.3008 237.217 25.2617 237.123 25.2383C237.037 25.2148 236.94 25.2031 236.83 25.2031C236.573 25.2031 236.323 25.2891 236.08 25.4609C235.838 25.625 235.623 25.8477 235.436 26.1289L234.03 28.2852L236.666 32.5039L238.412 32.7852V35H233.245L230.924 30.4414H229.67V32.4219L231.123 32.7852V35H224.127ZM243.897 35.2461C242.647 35.2461 241.643 34.9062 240.885 34.2266C240.135 33.5391 239.76 32.6133 239.76 31.4492C239.76 30.2617 240.241 29.293 241.202 28.543C242.162 27.7852 243.592 27.4062 245.491 27.4062H247.002V26.5625C247.002 26 246.838 25.5352 246.51 25.168C246.19 24.8008 245.698 24.6172 245.034 24.6172C244.713 24.6172 244.42 24.6562 244.155 24.7344C243.897 24.8125 243.659 24.9258 243.44 25.0742L243.17 26.7148H240.498L240.452 23.3164C241.139 22.9648 241.873 22.6719 242.655 22.4375C243.436 22.2031 244.303 22.0859 245.256 22.0859C246.952 22.0859 248.291 22.4766 249.276 23.2578C250.26 24.0391 250.752 25.1523 250.752 26.5977V31.5664C250.752 31.7461 250.752 31.9219 250.752 32.0938C250.76 32.2578 250.78 32.418 250.811 32.5742L252.147 32.7852V35H247.647C247.553 34.8203 247.455 34.6094 247.354 34.3672C247.252 34.125 247.182 33.8828 247.143 33.6406C246.745 34.1328 246.287 34.5234 245.772 34.8125C245.256 35.1016 244.631 35.2461 243.897 35.2461ZM244.975 32.5391C245.366 32.5391 245.745 32.4531 246.112 32.2812C246.479 32.1094 246.776 31.875 247.002 31.5781V29.6562H245.514C244.858 29.6562 244.354 29.8047 244.002 30.1016C243.659 30.3984 243.487 30.7656 243.487 31.2031C243.487 31.625 243.62 31.9531 243.885 32.1875C244.159 32.4219 244.522 32.5391 244.975 32.5391ZM253.424 35L253.366 32.082L253.705 32.0703C254.213 32.0703 254.592 31.9492 254.842 31.707C255.092 31.457 255.26 31.0156 255.346 30.3828C255.432 29.75 255.475 28.8594 255.475 27.7109V24.9102L253.67 24.5469V22.3203H265.635H267.452V24.5469L265.635 24.9102V32.4219L267.452 32.7852V35H260.104V32.7852L261.909 32.4219V25.2031H259.225V27.7109C259.225 30.2109 258.823 32.0508 258.018 33.2305C257.221 34.4102 255.862 35 253.94 35H253.424ZM273.194 35.2461C271.944 35.2461 270.94 34.9062 270.182 34.2266C269.432 33.5391 269.057 32.6133 269.057 31.4492C269.057 30.2617 269.537 29.293 270.498 28.543C271.459 27.7852 272.889 27.4062 274.787 27.4062H276.299V26.5625C276.299 26 276.135 25.5352 275.807 25.168C275.487 24.8008 274.995 24.6172 274.33 24.6172C274.01 24.6172 273.717 24.6562 273.452 24.7344C273.194 24.8125 272.955 24.9258 272.737 25.0742L272.467 26.7148H269.795L269.748 23.3164C270.436 22.9648 271.17 22.6719 271.952 22.4375C272.733 22.2031 273.6 22.0859 274.553 22.0859C276.248 22.0859 277.588 22.4766 278.573 23.2578C279.557 24.0391 280.049 25.1523 280.049 26.5977V31.5664C280.049 31.7461 280.049 31.9219 280.049 32.0938C280.057 32.2578 280.077 32.418 280.108 32.5742L281.444 32.7852V35H276.944C276.85 34.8203 276.752 34.6094 276.651 34.3672C276.549 34.125 276.479 33.8828 276.44 33.6406C276.041 34.1328 275.584 34.5234 275.069 34.8125C274.553 35.1016 273.928 35.2461 273.194 35.2461ZM274.272 32.5391C274.662 32.5391 275.041 32.4531 275.409 32.2812C275.776 32.1094 276.073 31.875 276.299 31.5781V29.6562H274.811C274.155 29.6562 273.651 29.8047 273.299 30.1016C272.955 30.3984 272.784 30.7656 272.784 31.2031C272.784 31.625 272.916 31.9531 273.182 32.1875C273.455 32.4219 273.819 32.5391 274.272 32.5391ZM282.838 35V32.7852L284.643 32.4219V24.9102L282.838 24.5469V22.3203H284.643H290.034C291.729 22.3203 293.049 22.6172 293.995 23.2109C294.94 23.7969 295.412 24.6523 295.412 25.7773C295.412 26.418 295.221 26.9688 294.838 27.4297C294.463 27.8906 293.873 28.25 293.069 28.5078C294.139 28.7031 294.916 29.0586 295.401 29.5742C295.885 30.0898 296.127 30.7188 296.127 31.4609C296.127 32.6172 295.674 33.4961 294.768 34.0977C293.87 34.6992 292.565 35 290.854 35H282.838ZM288.381 32.1641H290.842C291.366 32.1641 291.752 32.0664 292.002 31.8711C292.26 31.668 292.389 31.3711 292.389 30.9805C292.389 30.5977 292.272 30.3047 292.037 30.1016C291.811 29.8984 291.416 29.7969 290.854 29.7969H288.381V32.1641ZM288.381 27.4297H290.151C290.69 27.4219 291.077 27.3242 291.311 27.1367C291.545 26.9414 291.662 26.6602 291.662 26.293C291.662 25.543 291.127 25.168 290.057 25.168H288.381V27.4297ZM297.346 39.875V37.6484L298.963 37.2852V24.9102L297.159 24.5469V22.3203H302.444L302.596 23.7734C302.955 23.2344 303.389 22.8203 303.897 22.5312C304.405 22.2344 305.022 22.0859 305.748 22.0859C306.756 22.0859 307.62 22.3633 308.338 22.918C309.065 23.4727 309.62 24.25 310.002 25.25C310.393 26.2422 310.588 27.4023 310.588 28.7305V28.9766C310.588 30.2266 310.393 31.3242 310.002 32.2695C309.62 33.2148 309.061 33.9492 308.327 34.4727C307.6 34.9883 306.725 35.2461 305.702 35.2461C305.045 35.2461 304.467 35.1289 303.967 34.8945C303.475 34.6523 303.049 34.2969 302.69 33.8281V37.2852L304.237 37.6484V39.875H297.346ZM304.588 32.3867C305.401 32.3867 305.979 32.082 306.323 31.4727C306.666 30.8633 306.838 30.0312 306.838 28.9766V28.7305C306.838 27.9805 306.76 27.3242 306.604 26.7617C306.448 26.1992 306.202 25.7617 305.866 25.4492C305.537 25.1367 305.104 24.9805 304.565 24.9805C304.151 24.9805 303.784 25.0742 303.463 25.2617C303.143 25.4414 302.885 25.7109 302.69 26.0703V31.4375C302.885 31.75 303.143 31.9883 303.463 32.1523C303.791 32.3086 304.166 32.3867 304.588 32.3867ZM311.866 35V32.7852L313.659 32.4219V24.9102L311.866 24.5469V22.3203H317.42H318.979V24.5469L317.42 24.9102V29.6445L317.491 29.6562L321.182 22.3203H324.932H326.713V24.5469L324.932 24.9102V32.4219L326.713 32.7852V35H319.612V32.7852L321.182 32.4219V27.6641L321.112 27.6523L317.42 35H311.866ZM332.584 35.2461C331.334 35.2461 330.33 34.9062 329.573 34.2266C328.823 33.5391 328.448 32.6133 328.448 31.4492C328.448 30.2617 328.928 29.293 329.889 28.543C330.85 27.7852 332.28 27.4062 334.178 27.4062H335.69V26.5625C335.69 26 335.526 25.5352 335.198 25.168C334.877 24.8008 334.385 24.6172 333.721 24.6172C333.401 24.6172 333.108 24.6562 332.842 24.7344C332.584 24.8125 332.346 24.9258 332.127 25.0742L331.858 26.7148H329.186L329.139 23.3164C329.827 22.9648 330.561 22.6719 331.342 22.4375C332.123 22.2031 332.991 22.0859 333.944 22.0859C335.639 22.0859 336.979 22.4766 337.963 23.2578C338.948 24.0391 339.44 25.1523 339.44 26.5977V31.5664C339.44 31.7461 339.44 31.9219 339.44 32.0938C339.448 32.2578 339.467 32.418 339.498 32.5742L340.834 32.7852V35H336.334C336.241 34.8203 336.143 34.6094 336.041 34.3672C335.94 34.125 335.87 33.8828 335.83 33.6406C335.432 34.1328 334.975 34.5234 334.459 34.8125C333.944 35.1016 333.319 35.2461 332.584 35.2461ZM333.662 32.5391C334.053 32.5391 334.432 32.4531 334.799 32.2812C335.166 32.1094 335.463 31.875 335.69 31.5781V29.6562H334.202C333.545 29.6562 333.041 29.8047 332.69 30.1016C332.346 30.3984 332.174 30.7656 332.174 31.2031C332.174 31.625 332.307 31.9531 332.573 32.1875C332.846 32.4219 333.209 32.5391 333.662 32.5391ZM344.666 35V32.7852L346.459 32.4219V25.168H344.502L344.373 26.8086H341.561V22.3203H355.178V26.8086H352.354L352.225 25.168H350.221V32.4219L352.002 32.7852V35H344.666Z" fill="#FFF7F7"/>
<rect width="455.435" height="53.3233" transform="matrix(0.998594 -0.0530018 0.0564333 0.998406 0 66.7205)" fill="url(#paint2_linear_228_1678)"/>
<path d="M50.8616 125.132L394.499 81.4687L401.402 134.343L57.7647 178.007L50.8616 125.132Z" fill="url(#paint3_linear_228_1678)"/>
<path d="M62.843 202.118C61.5675 202.239 60.4492 202.075 59.4882 201.625C58.5342 201.166 57.7703 200.477 57.1963 199.559C56.6294 198.632 56.2852 197.531 56.1639 196.255L56.1417 196.022C56.0218 194.762 56.1532 193.627 56.5359 192.618C56.9263 191.607 57.5467 190.787 58.3971 190.157C59.2467 189.519 60.3054 189.14 61.5731 189.019C62.8408 188.898 63.9517 189.067 64.9056 189.526C65.8596 189.984 66.6197 190.673 67.1859 191.593C67.7598 192.511 68.1071 193.604 68.2277 194.872L68.2499 195.105C68.3705 196.373 68.236 197.516 67.8463 198.534C67.4636 199.543 66.8471 200.363 65.9967 200.994C65.1542 201.623 64.1029 201.998 62.843 202.118ZM62.5721 199.271C63.1165 199.219 63.5419 199.03 63.8482 198.702C64.1623 198.374 64.3716 197.935 64.4761 197.383C64.5883 196.831 64.6097 196.189 64.5401 195.458L64.5179 195.225C64.4506 194.517 64.3101 193.907 64.0964 193.393C63.8898 192.871 63.601 192.475 63.2299 192.204C62.8589 191.934 62.3972 191.825 61.845 191.877C61.3006 191.929 60.8717 192.123 60.5584 192.459C60.2451 192.794 60.0361 193.238 59.9317 193.79C59.8264 194.333 59.8075 194.959 59.8748 195.667L59.897 195.9C59.9666 196.631 60.105 197.261 60.3124 197.791C60.519 198.313 60.8075 198.705 61.1778 198.968C61.5474 199.223 62.0121 199.324 62.5721 199.271ZM77.3789 200.487L77.1691 198.283L78.9313 197.75L78.8092 196.467C78.5725 196.536 78.327 196.595 78.0725 196.643C77.8173 196.683 77.5731 196.714 77.3398 196.736C76.0643 196.857 74.9627 196.786 74.035 196.521C73.1151 196.255 72.3839 195.787 71.8414 195.117C71.3059 194.438 70.986 193.55 70.8817 192.453L70.7407 190.972L68.9225 190.792L68.7127 188.587L74.2307 188.062L75.549 187.936L75.7588 190.141L74.4738 190.617L74.6148 192.098C74.6636 192.612 74.776 193.009 74.9519 193.29C75.1271 193.564 75.3835 193.744 75.7213 193.829C76.066 193.906 76.5145 193.919 77.0667 193.866C77.3312 193.841 77.5793 193.809 77.8111 193.772C78.05 193.725 78.2913 193.663 78.535 193.585L78.2198 190.272L76.8437 190.038L76.6328 187.821L83.5042 187.168L83.7151 189.384L81.9529 189.917L82.6644 197.395L84.4954 197.585L84.7052 199.79L77.3789 200.487ZM86.4784 199.622L86.2686 197.417L88.0191 196.885L87.3076 189.407L85.4883 189.215L85.2774 186.999L92.137 186.346L92.3479 188.563L91.0291 189.053L91.26 191.48L94.9814 191.126L94.7506 188.699L93.3979 188.463L93.187 186.246L94.5053 186.121L98.2384 185.766L100.035 185.595L100.246 187.811L98.4837 188.344L99.1952 195.822L101.026 196.013L101.236 198.217L94.388 198.869L94.1782 196.664L95.4621 196.177L95.2534 193.984L91.5319 194.338L91.7406 196.531L93.1283 196.764L93.3381 198.969L86.4784 199.622ZM108.947 197.731C107.672 197.852 106.553 197.688 105.592 197.238C104.638 196.779 103.875 196.091 103.301 195.172C102.734 194.245 102.39 193.144 102.268 191.868L102.246 191.635C102.126 190.375 102.257 189.24 102.64 188.231C103.031 187.221 103.651 186.4 104.501 185.77C105.351 185.132 106.41 184.753 107.677 184.632C108.945 184.512 110.056 184.681 111.01 185.139C111.964 185.598 112.724 186.287 113.29 187.206C113.864 188.124 114.211 189.217 114.332 190.485L114.354 190.719C114.475 191.986 114.34 193.129 113.951 194.147C113.568 195.157 112.951 195.977 112.101 196.607C111.258 197.236 110.207 197.611 108.947 197.731ZM108.676 194.884C109.221 194.833 109.646 194.643 109.952 194.316C110.267 193.988 110.476 193.548 110.58 192.996C110.693 192.444 110.714 191.803 110.644 191.072L110.622 190.838C110.555 190.13 110.414 189.52 110.201 189.007C109.994 188.485 109.705 188.088 109.334 187.818C108.963 187.547 108.502 187.438 107.949 187.49C107.405 187.542 106.976 187.736 106.663 188.072C106.349 188.408 106.14 188.851 106.036 189.403C105.931 189.947 105.912 190.572 105.979 191.28L106.001 191.513C106.071 192.244 106.209 192.875 106.417 193.404C106.623 193.926 106.912 194.319 107.282 194.582C107.652 194.837 108.116 194.938 108.676 194.884ZM116.393 190.866L116.12 187.996L122.956 187.346L123.229 190.215L116.393 190.866ZM131.113 195.622C130.148 195.714 129.247 195.646 128.41 195.42C127.572 195.194 126.888 194.815 126.359 194.285C125.837 193.746 125.552 193.055 125.503 192.212L125.508 192.141L129.136 191.796C129.16 192.053 129.248 192.276 129.4 192.465C129.558 192.646 129.775 192.783 130.051 192.874C130.326 192.958 130.646 192.982 131.011 192.948C131.634 192.888 132.067 192.706 132.313 192.4C132.558 192.086 132.66 191.716 132.619 191.288C132.573 190.806 132.395 190.462 132.085 190.256C131.783 190.049 131.34 189.973 130.757 190.029L129.054 190.191L128.84 187.939L130.543 187.777C131.056 187.729 131.423 187.58 131.642 187.331C131.87 187.082 131.963 186.748 131.924 186.328C131.89 185.978 131.749 185.689 131.5 185.461C131.251 185.234 130.842 185.147 130.274 185.201C129.971 185.23 129.707 185.302 129.483 185.418C129.258 185.534 129.088 185.687 128.973 185.878C128.858 186.07 128.813 186.294 128.837 186.551L125.209 186.896L125.179 186.828C125.075 186.061 125.213 185.373 125.595 184.764C125.976 184.155 126.541 183.654 127.288 183.261C128.035 182.86 128.894 182.613 129.866 182.521C131.531 182.363 132.875 182.556 133.9 183.102C134.932 183.64 135.503 184.476 135.611 185.612C135.668 186.218 135.549 186.775 135.252 187.282C134.955 187.789 134.516 188.208 133.935 188.538C135.423 188.914 136.235 189.822 136.372 191.26C136.446 192.046 136.274 192.749 135.854 193.37C135.442 193.982 134.826 194.484 134.008 194.876C133.198 195.267 132.233 195.515 131.113 195.622ZM142.499 194.539C141.254 194.657 140.223 194.414 139.404 193.809C138.592 193.196 138.131 192.309 138.021 191.151C137.909 189.968 138.295 188.959 139.181 188.121C140.066 187.275 141.453 186.763 143.343 186.583L144.848 186.44L144.768 185.6C144.715 185.04 144.507 184.593 144.146 184.258C143.792 183.923 143.285 183.787 142.624 183.85C142.305 183.88 142.017 183.947 141.76 184.05C141.511 184.152 141.284 184.287 141.08 184.456L140.967 186.115L138.308 186.368L137.939 182.989C138.59 182.574 139.293 182.213 140.049 181.905C140.805 181.598 141.657 181.399 142.606 181.309C144.293 181.148 145.664 181.41 146.718 182.095C147.772 182.779 148.367 183.841 148.504 185.28L148.975 190.226C148.992 190.405 149.009 190.58 149.025 190.751C149.048 190.914 149.083 191.071 149.129 191.224L150.479 191.307L150.688 193.512L146.209 193.938C146.098 193.768 145.981 193.568 145.857 193.336C145.733 193.105 145.64 192.87 145.578 192.633C145.228 193.161 144.81 193.593 144.324 193.929C143.838 194.266 143.23 194.469 142.499 194.539ZM143.316 191.742C143.705 191.705 144.074 191.583 144.423 191.377C144.772 191.171 145.045 190.91 145.243 190.593L145.061 188.68L143.579 188.821C142.926 188.883 142.438 189.078 142.117 189.407C141.802 189.735 141.666 190.117 141.708 190.553C141.748 190.973 141.911 191.287 142.197 191.495C142.492 191.702 142.865 191.785 143.316 191.742ZM157.875 193.076C156.599 193.197 155.481 193.033 154.52 192.583C153.566 192.124 152.802 191.435 152.228 190.517C151.661 189.59 151.317 188.489 151.196 187.213L151.173 186.98C151.054 185.72 151.185 184.585 151.568 183.576C151.958 182.565 152.578 181.745 153.429 181.115C154.278 180.477 155.337 180.097 156.605 179.977C157.873 179.856 158.983 180.025 159.937 180.484C160.891 180.942 161.651 181.631 162.218 182.551C162.792 183.469 163.139 184.562 163.259 185.83L163.282 186.063C163.402 187.331 163.268 188.474 162.878 189.492C162.495 190.501 161.879 191.321 161.028 191.952C160.186 192.581 159.135 192.956 157.875 193.076ZM157.604 190.229C158.148 190.177 158.574 189.988 158.88 189.66C159.194 189.332 159.403 188.893 159.508 188.341C159.62 187.789 159.641 187.147 159.572 186.416L159.55 186.183C159.482 185.475 159.342 184.865 159.128 184.351C158.922 183.829 158.633 183.433 158.262 183.162C157.891 182.892 157.429 182.783 156.877 182.835C156.332 182.887 155.903 183.081 155.59 183.417C155.277 183.752 155.068 184.196 154.963 184.748C154.858 185.291 154.839 185.917 154.907 186.625L154.929 186.858C154.998 187.589 155.137 188.219 155.344 188.749C155.551 189.271 155.839 189.663 156.21 189.926C156.579 190.181 157.044 190.282 157.604 190.229ZM172.411 191.445L172.201 189.24L173.963 188.708L173.841 187.425C173.604 187.494 173.359 187.553 173.104 187.601C172.849 187.641 172.605 187.672 172.372 187.694C171.096 187.815 169.994 187.744 169.067 187.479C168.147 187.213 167.416 186.745 166.873 186.075C166.338 185.396 166.018 184.508 165.913 183.411L165.772 181.93L163.954 181.75L163.744 179.545L169.262 179.02L170.581 178.894L170.791 181.099L169.506 181.575L169.647 183.056C169.695 183.569 169.808 183.967 169.984 184.248C170.159 184.522 170.415 184.702 170.753 184.787C171.098 184.864 171.546 184.877 172.098 184.824C172.363 184.799 172.611 184.767 172.843 184.73C173.082 184.683 173.323 184.621 173.567 184.543L173.251 181.23L171.875 180.996L171.665 178.779L178.536 178.126L178.747 180.342L176.985 180.875L177.696 188.353L179.527 188.543L179.737 190.748L172.411 191.445ZM181.51 190.58L181.3 188.375L183.051 187.843L182.339 180.365L180.52 180.173L180.309 177.957L187.169 177.304L187.38 179.521L186.061 180.011L186.292 182.438L190.013 182.084L189.782 179.657L188.43 179.421L188.219 177.204L189.537 177.079L193.27 176.724L195.067 176.553L195.278 178.769L193.515 179.302L194.227 186.78L196.058 186.971L196.268 189.175L189.42 189.827L189.21 187.622L190.494 187.135L190.285 184.942L186.564 185.296L186.772 187.489L188.16 187.722L188.37 189.927L181.51 190.58ZM203.979 188.689C202.703 188.81 201.585 188.646 200.624 188.196C199.67 187.737 198.906 187.049 198.332 186.13C197.765 185.203 197.421 184.102 197.3 182.826L197.278 182.593C197.158 181.333 197.289 180.198 197.672 179.189C198.062 178.179 198.683 177.358 199.533 176.728C200.383 176.09 201.441 175.711 202.709 175.59C203.977 175.47 205.088 175.639 206.042 176.097C206.996 176.556 207.756 177.245 208.322 178.164C208.896 179.082 209.243 180.175 209.364 181.443L209.386 181.677C209.507 182.944 209.372 184.087 208.982 185.105C208.6 186.115 207.983 186.935 207.133 187.565C206.29 188.194 205.239 188.569 203.979 188.689ZM203.708 185.842C204.253 185.791 204.678 185.601 204.984 185.274C205.298 184.946 205.508 184.506 205.612 183.954C205.724 183.402 205.746 182.761 205.676 182.029L205.654 181.796C205.587 181.088 205.446 180.478 205.232 179.965C205.026 179.443 204.737 179.046 204.366 178.776C203.995 178.505 203.533 178.396 202.981 178.448C202.437 178.5 202.008 178.694 201.694 179.03C201.381 179.366 201.172 179.809 201.068 180.361C200.962 180.905 200.944 181.53 201.011 182.238L201.033 182.471C201.103 183.202 201.241 183.833 201.448 184.362C201.655 184.884 201.943 185.277 202.314 185.54C202.683 185.795 203.148 185.896 203.708 185.842ZM217.665 180.23L217.388 177.313L230.034 176.11L230.311 179.026L217.665 180.23ZM238.674 185.141L238.464 182.936L241.37 182.294L240.309 171.153L237.345 171.424L237.145 169.324L243.731 167.52L245.103 181.939L248.077 182.021L248.287 184.226L238.674 185.141ZM255.403 183.796C254.345 183.897 253.351 183.795 252.419 183.491C251.487 183.18 250.722 182.688 250.125 182.015C249.534 181.333 249.203 180.497 249.133 179.507L249.152 179.459L252.747 178.893C252.814 179.601 253.065 180.138 253.501 180.504C253.935 180.863 254.479 181.012 255.132 180.95C255.871 180.879 256.382 180.56 256.665 179.991C256.949 179.423 257.052 178.73 256.974 177.914C256.884 176.973 256.63 176.24 256.211 175.714C255.8 175.181 255.213 174.95 254.45 175.023C253.883 175.077 253.447 175.236 253.142 175.5C252.838 175.765 252.633 176.086 252.528 176.465L249.172 176.584L249.249 166.995L259.27 166.041L259.653 170.066L257.436 170.277L257.006 169.223L252.585 169.644L252.467 173.351C252.663 173.184 252.887 173.029 253.141 172.887C253.402 172.745 253.689 172.623 254.001 172.523C254.313 172.422 254.64 172.356 254.982 172.323C256.085 172.195 257.042 172.32 257.855 172.698C258.667 173.068 259.313 173.665 259.791 174.491C260.269 175.309 260.566 176.324 260.682 177.537C260.784 178.611 260.65 179.601 260.281 180.507C259.92 181.412 259.328 182.159 258.505 182.748C257.689 183.327 256.655 183.677 255.403 183.796ZM268.621 182.538C266.816 182.71 265.33 182.263 264.161 181.197C263 180.13 262.312 178.465 262.097 176.202L261.747 172.527C261.532 170.264 261.893 168.499 262.832 167.233C263.771 165.958 265.138 165.236 266.935 165.065C268.716 164.895 270.191 165.348 271.36 166.421C272.529 167.487 273.221 169.152 273.436 171.415L273.786 175.09C274.002 177.361 273.641 179.13 272.702 180.396C271.762 181.655 270.402 182.369 268.621 182.538ZM268.35 179.692C269.034 179.627 269.527 179.282 269.829 178.657C270.138 178.031 270.229 177.053 270.103 175.723L269.698 171.465C269.573 170.15 269.295 169.215 268.866 168.66C268.444 168.104 267.891 167.858 267.206 167.923C266.506 167.99 266.002 168.336 265.693 168.962C265.39 169.579 265.302 170.549 265.428 171.871L265.833 176.129C265.96 177.467 266.235 178.414 266.657 178.97C267.078 179.519 267.642 179.759 268.35 179.692ZM276.775 181.515L276.473 178.342L280.195 177.988L280.497 181.161L276.775 181.515ZM288.476 180.649C286.672 180.821 285.185 180.374 284.017 179.308C282.856 178.241 282.168 176.576 281.952 174.313L281.603 170.638C281.387 168.375 281.749 166.61 282.688 165.344C283.626 164.069 284.994 163.347 286.79 163.176C288.571 163.006 290.046 163.458 291.216 164.532C292.385 165.598 293.077 167.263 293.292 169.526L293.642 173.201C293.858 175.472 293.496 177.24 292.557 178.507C291.618 179.766 290.257 180.48 288.476 180.649ZM288.205 177.803C288.89 177.738 289.383 177.392 289.684 176.767C289.994 176.142 290.085 175.164 289.958 173.834L289.553 169.576C289.428 168.261 289.151 167.326 288.721 166.771C288.3 166.214 287.747 165.969 287.062 166.034C286.362 166.1 285.858 166.447 285.548 167.073C285.246 167.69 285.158 168.66 285.284 169.982L285.689 174.24C285.816 175.578 286.09 176.525 286.512 177.081C286.933 177.629 287.498 177.87 288.205 177.803ZM302.126 179.351C300.321 179.522 298.835 179.075 297.666 178.009C296.505 176.942 295.817 175.277 295.602 173.014L295.252 169.339C295.037 167.076 295.398 165.311 296.337 164.045C297.275 162.771 298.643 162.048 300.439 161.877C302.22 161.708 303.696 162.16 304.865 163.233C306.034 164.299 306.726 165.964 306.941 168.227L307.291 171.902C307.507 174.173 307.146 175.942 306.207 177.208C305.267 178.467 303.907 179.181 302.126 179.351ZM301.855 176.504C302.539 176.439 303.032 176.094 303.334 175.469C303.643 174.843 303.734 173.865 303.608 172.535L303.203 168.277C303.078 166.962 302.8 166.028 302.371 165.472C301.949 164.916 301.396 164.67 300.711 164.735C300.011 164.802 299.507 165.148 299.198 165.774C298.895 166.391 298.807 167.361 298.933 168.683L299.338 172.941C299.465 174.279 299.74 175.226 300.162 175.782C300.583 176.331 301.147 176.571 301.855 176.504ZM315.775 178.052C313.97 178.224 312.484 177.776 311.315 176.71C310.154 175.644 309.466 173.979 309.251 171.716L308.901 168.041C308.686 165.778 309.048 164.013 309.987 162.746C310.925 161.472 312.292 160.749 314.089 160.578C315.87 160.409 317.345 160.861 318.514 161.935C319.683 163.001 320.375 164.665 320.591 166.929L320.94 170.603C321.156 172.874 320.795 174.643 319.856 175.91C318.916 177.168 317.556 177.882 315.775 178.052ZM315.504 175.205C316.188 175.14 316.681 174.795 316.983 174.17C317.292 173.544 317.384 172.566 317.257 171.236L316.852 166.978C316.727 165.664 316.45 164.729 316.02 164.173C315.598 163.617 315.045 163.371 314.361 163.437C313.661 163.503 313.156 163.849 312.847 164.475C312.545 165.093 312.456 166.062 312.582 167.384L312.987 171.643C313.115 172.98 313.389 173.927 313.811 174.484C314.232 175.032 314.796 175.273 315.504 175.205ZM329.466 181.399L329.255 179.182L330.831 178.668L329.658 166.348L327.827 166.158L327.617 163.941L332.878 163.44L333.167 164.873C333.474 164.302 333.866 163.849 334.344 163.513C334.822 163.169 335.422 162.963 336.146 162.894C337.149 162.799 338.034 162.993 338.803 163.477C339.578 163.96 340.204 164.682 340.68 165.641C341.163 166.592 341.467 167.728 341.593 169.05L341.616 169.295C341.735 170.54 341.644 171.651 341.345 172.629C341.053 173.606 340.567 174.39 339.885 174.981C339.211 175.563 338.364 175.903 337.345 175.999C336.692 176.062 336.105 176 335.586 175.814C335.073 175.619 334.615 175.306 334.213 174.873L334.54 178.315L336.115 178.53L336.326 180.746L329.466 181.399ZM335.966 173.258C336.775 173.181 337.322 172.823 337.606 172.184C337.891 171.545 337.983 170.7 337.883 169.65L337.86 169.405C337.789 168.659 337.649 168.013 337.44 167.468C337.231 166.923 336.945 166.51 336.581 166.231C336.225 165.951 335.778 165.837 335.241 165.888C334.829 165.927 334.473 166.055 334.171 166.272C333.87 166.481 333.638 166.774 333.478 167.15L333.986 172.493C334.21 172.786 334.49 172.999 334.824 173.132C335.166 173.256 335.546 173.298 335.966 173.258ZM347.583 179.922C347.264 179.953 346.927 179.957 346.572 179.936C346.225 179.914 345.88 179.873 345.536 179.811L345.71 177.063C345.869 177.08 346.027 177.088 346.184 177.089C346.349 177.097 346.506 177.094 346.654 177.08C347.144 177.033 347.561 176.88 347.905 176.619C348.257 176.366 348.483 176.015 348.581 175.566L348.721 174.929L343.587 164.893L341.943 164.814L341.732 162.598L348.849 161.921L349.06 164.137L347.53 164.518L349.883 169.698L350.062 170.093L350.132 170.086L351.763 164.092L350.261 164.023L350.05 161.806L356.607 161.183L356.818 163.399L355.379 163.748L351.756 176.265C351.585 176.862 351.336 177.423 351.009 177.948C350.683 178.474 350.242 178.912 349.687 179.263C349.14 179.621 348.439 179.841 347.583 179.922ZM365.076 173.361C363.808 173.482 362.694 173.325 361.735 172.89C360.783 172.455 360.022 171.801 359.453 170.93C358.891 170.057 358.554 169.026 358.44 167.836L358.287 166.226C358.1 164.258 358.19 162.605 358.557 161.268C358.931 159.922 359.524 158.853 360.336 158.062C361.154 157.262 362.128 156.69 363.257 156.347C363.931 156.181 364.431 155.985 364.754 155.758C365.078 155.531 365.219 155.199 365.178 154.764L368.059 154.49L368.101 154.556C368.198 155.332 368.158 155.975 367.979 156.487C367.807 156.997 367.537 157.416 367.168 157.741C366.799 158.067 366.361 158.336 365.856 158.549C365.357 158.753 364.822 158.945 364.251 159.125C363.487 159.347 362.882 159.624 362.435 159.957C361.995 160.282 361.674 160.661 361.472 161.096C361.269 161.524 361.152 162.022 361.12 162.59L361.172 162.644C361.558 162.254 362.014 161.924 362.537 161.654C363.069 161.384 363.677 161.216 364.361 161.151C365.504 161.042 366.52 161.197 367.407 161.615C368.294 162.033 369.006 162.667 369.542 163.519C370.078 164.362 370.401 165.368 370.512 166.534L370.535 166.779C370.649 167.969 370.507 169.038 370.111 169.986C369.722 170.933 369.101 171.703 368.247 172.294C367.4 172.885 366.343 173.24 365.076 173.361ZM364.805 170.515C365.349 170.463 365.776 170.293 366.086 170.004C366.403 169.707 366.618 169.318 366.729 168.836C366.839 168.347 366.864 167.78 366.802 167.134L366.779 166.889C366.722 166.29 366.59 165.769 366.383 165.326C366.184 164.882 365.901 164.548 365.534 164.324C365.175 164.091 364.719 164.001 364.167 164.054C363.63 164.105 363.203 164.279 362.886 164.576C362.568 164.865 362.353 165.246 362.241 165.72C362.13 166.194 362.102 166.73 362.159 167.329L362.174 167.481C362.236 168.134 362.368 168.698 362.57 169.173C362.772 169.648 363.057 170.006 363.425 170.246C363.793 170.477 364.253 170.567 364.805 170.515ZM371.502 173.974L376.735 154.865L380.224 154.533L374.991 173.642L371.502 173.974ZM381.571 171.544L381.362 169.339L383.1 168.809L382.389 161.331L380.581 161.138L380.37 158.922L391.652 157.848L392.108 162.643L389.786 162.864L389.463 160.952L386.15 161.268L386.834 168.454L388.653 168.646L388.863 170.851L381.571 171.544ZM400.319 170.008C399.043 170.129 397.925 169.965 396.964 169.515C396.01 169.056 395.246 168.368 394.672 167.449C394.105 166.522 393.761 165.421 393.64 164.145L393.618 163.912C393.498 162.652 393.629 161.517 394.012 160.508C394.402 159.497 395.023 158.677 395.873 158.047C396.723 157.409 397.781 157.03 399.049 156.909C400.317 156.788 401.427 156.957 402.381 157.416C403.335 157.874 404.096 158.563 404.662 159.483C405.236 160.401 405.583 161.494 405.704 162.762L405.726 162.995C405.846 164.263 405.712 165.406 405.322 166.424C404.939 167.433 404.323 168.253 403.473 168.884C402.63 169.513 401.579 169.888 400.319 170.008ZM400.048 167.161C400.592 167.109 401.018 166.92 401.324 166.592C401.638 166.264 401.847 165.825 401.952 165.273C402.064 164.721 402.086 164.079 402.016 163.348L401.994 163.115C401.926 162.407 401.786 161.797 401.572 161.283C401.366 160.762 401.077 160.365 400.706 160.094C400.335 159.824 399.873 159.715 399.321 159.767C398.776 159.819 398.348 160.013 398.034 160.349C397.721 160.685 397.512 161.128 397.407 161.68C397.302 162.223 397.283 162.849 397.351 163.557L397.373 163.79C397.442 164.521 397.581 165.151 397.788 165.681C397.995 166.203 398.283 166.595 398.654 166.858C399.023 167.114 399.488 167.214 400.048 167.161ZM407.179 172.945L406.274 166.286L407.406 166.179C407.756 165.737 408.038 165.314 408.25 164.909C408.471 164.504 408.631 164.084 408.731 163.651C408.83 163.21 408.886 162.726 408.899 162.199C408.912 161.672 408.889 161.062 408.831 160.369L408.708 158.827L406.9 158.634L406.689 156.417L418.098 155.332L419.907 155.16L420.118 157.376L418.344 157.91L419.029 165.108L420.907 164.929L421.306 171.601L417.806 171.934L417.445 168.131L410.328 168.808L410.69 172.611L407.179 172.945ZM411.665 165.785L415.34 165.435L414.69 158.599L412.461 158.811L412.552 160.015C412.651 161.222 412.617 162.304 412.449 163.262C412.281 164.22 412.02 165.061 411.665 165.785Z" fill="white"/>
<path d="M96.9169 154.441C95.6481 154.618 94.5236 154.504 93.5437 154.097C92.5703 153.681 91.7767 153.027 91.1626 152.134C90.5553 151.233 90.1628 150.148 89.9851 148.879L89.9526 148.647C89.7771 147.394 89.8582 146.254 90.1958 145.229C90.5412 144.202 91.1247 143.356 91.9464 142.688C92.7669 142.013 93.8078 141.588 95.0689 141.411C96.3301 141.234 97.4473 141.354 98.4206 141.77C99.394 142.186 100.184 142.841 100.79 143.734C101.404 144.626 101.799 145.703 101.976 146.964L102.008 147.196C102.185 148.457 102.101 149.605 101.757 150.639C101.419 151.665 100.84 152.511 100.018 153.178C99.204 153.844 98.1703 154.265 96.9169 154.441ZM96.5205 151.609C97.0621 151.533 97.4786 151.325 97.7701 150.984C98.0694 150.643 98.259 150.194 98.339 149.639C98.4268 149.082 98.4197 148.44 98.3179 147.713L98.2854 147.481C98.1868 146.777 98.0194 146.173 97.7833 145.669C97.5538 145.157 97.2477 144.774 96.8651 144.52C96.4824 144.266 96.0164 144.177 95.467 144.254C94.9255 144.33 94.5056 144.543 94.2074 144.892C93.9092 145.242 93.7201 145.694 93.6401 146.25C93.559 146.797 93.5678 147.423 93.6664 148.127L93.6989 148.359C93.8007 149.087 93.9669 149.71 94.1975 150.23C94.427 150.742 94.7325 151.122 95.1141 151.368C95.4946 151.607 95.9634 151.687 96.5205 151.609ZM111.367 152.169L111.059 149.976L112.796 149.366L112.618 148.089C112.384 148.169 112.142 148.239 111.889 148.297C111.636 148.349 111.394 148.391 111.162 148.423C109.893 148.601 108.789 148.578 107.85 148.354C106.92 148.129 106.169 147.694 105.597 147.049C105.032 146.394 104.673 145.521 104.52 144.43L104.314 142.956L102.49 142.857L102.182 140.663L107.672 139.895L108.983 139.711L109.29 141.905L108.028 142.436L108.234 143.91C108.306 144.421 108.435 144.813 108.624 145.086C108.811 145.352 109.075 145.52 109.416 145.591C109.764 145.653 110.212 145.645 110.762 145.568C111.025 145.531 111.271 145.489 111.501 145.441C111.738 145.384 111.976 145.311 112.216 145.222L111.755 141.926L110.37 141.754L110.061 139.549L116.897 138.591L117.205 140.796L115.469 141.406L116.51 148.846L118.348 148.955L118.655 151.149L111.367 152.169ZM120.419 150.902L120.112 148.708L121.837 148.1L120.795 140.661L118.969 140.549L118.661 138.344L125.485 137.389L125.793 139.594L124.498 140.142L124.836 142.556L128.538 142.038L128.2 139.624L126.838 139.448L126.529 137.243L127.841 137.059L131.554 136.539L133.342 136.289L133.65 138.494L131.914 139.104L132.955 146.543L134.793 146.653L135.1 148.846L128.287 149.8L127.98 147.606L129.241 147.063L128.936 144.881L125.234 145.4L125.539 147.581L126.936 147.753L127.243 149.946L120.419 150.902ZM142.782 148.019C141.513 148.197 140.389 148.082 139.409 147.675C138.435 147.259 137.642 146.605 137.028 145.713C136.42 144.812 136.028 143.727 135.85 142.458L135.818 142.226C135.642 140.972 135.723 139.833 136.061 138.807C136.406 137.781 136.99 136.934 137.811 136.267C138.632 135.592 139.673 135.166 140.934 134.989C142.195 134.813 143.312 134.932 144.286 135.348C145.259 135.764 146.049 136.419 146.655 137.312C147.269 138.204 147.664 139.281 147.841 140.542L147.874 140.774C148.05 142.035 147.966 143.183 147.622 144.217C147.284 145.243 146.705 146.089 145.883 146.757C145.069 147.423 144.035 147.844 142.782 148.019ZM142.386 145.187C142.927 145.111 143.344 144.903 143.635 144.563C143.935 144.221 144.124 143.772 144.204 143.217C144.292 142.66 144.285 142.018 144.183 141.291L144.151 141.059C144.052 140.355 143.885 139.751 143.648 139.248C143.419 138.736 143.113 138.352 142.73 138.098C142.348 137.844 141.881 137.756 141.332 137.833C140.791 137.908 140.371 138.121 140.073 138.47C139.774 138.82 139.585 139.272 139.505 139.828C139.424 140.376 139.433 141.002 139.531 141.706L139.564 141.938C139.666 142.665 139.832 143.289 140.063 143.809C140.292 144.321 140.598 144.7 140.979 144.946C141.36 145.185 141.829 145.265 142.386 145.187ZM156.081 138.963L155.674 136.061L168.255 134.3L168.661 137.201L156.081 138.963ZM177.553 142.902L177.217 140.5L181.869 133.92C182.311 133.251 182.653 132.674 182.893 132.191C183.132 131.7 183.291 131.26 183.37 130.87C183.45 130.48 183.465 130.107 183.415 129.751C183.331 129.148 183.089 128.661 182.69 128.291C182.298 127.912 181.769 127.769 181.103 127.862C180.392 127.962 179.887 128.277 179.591 128.808C179.302 129.337 179.216 130.02 179.333 130.855L175.712 131.362L175.679 131.296C175.511 130.262 175.601 129.299 175.949 128.406C176.305 127.512 176.89 126.76 177.704 126.149C178.518 125.538 179.524 125.149 180.724 124.981C181.915 124.814 182.962 124.88 183.864 125.18C184.773 125.479 185.509 125.971 186.07 126.658C186.64 127.343 186.994 128.185 187.134 129.183C187.229 129.864 187.199 130.519 187.042 131.149C186.885 131.77 186.589 132.451 186.157 133.19C185.73 133.92 185.154 134.793 184.429 135.81L181.931 139.354L181.963 139.409L185.851 138.865L185.812 137.32L188.644 136.924L189.251 141.264L177.553 142.902ZM195.75 140.603C195.162 140.685 194.546 140.708 193.902 140.672C193.259 140.644 192.654 140.551 192.088 140.394L192.109 137.669C192.62 137.771 193.142 137.836 193.674 137.864C194.213 137.883 194.711 137.861 195.168 137.797C196.119 137.664 196.822 137.246 197.276 136.543C197.737 135.84 197.882 134.841 197.708 133.548L197.653 133.237C197.318 133.773 196.904 134.197 196.411 134.511C195.927 134.823 195.375 135.023 194.756 135.109C193.789 135.245 192.901 135.132 192.093 134.772C191.292 134.403 190.626 133.814 190.095 133.005C189.562 132.188 189.212 131.18 189.044 129.981C188.885 128.843 188.99 127.788 189.358 126.813C189.725 125.831 190.309 125.011 191.108 124.355C191.914 123.69 192.878 123.279 194 123.122C195.145 122.962 196.197 123.094 197.156 123.52C198.114 123.938 198.913 124.627 199.552 125.587C200.19 126.539 200.609 127.73 200.81 129.162L201.349 133.015C201.541 134.384 201.424 135.608 200.999 136.685C200.582 137.761 199.92 138.638 199.013 139.318C198.106 139.997 197.019 140.425 195.75 140.603ZM195.334 132.307C195.752 132.248 196.134 132.108 196.482 131.886C196.829 131.664 197.102 131.389 197.301 131.061L197.046 129.239C196.882 128.071 196.561 127.213 196.082 126.664C195.602 126.108 195.045 125.875 194.41 125.964C193.985 126.023 193.634 126.222 193.358 126.561C193.089 126.898 192.9 127.323 192.791 127.835C192.688 128.339 192.677 128.881 192.758 129.461C192.847 130.095 193.002 130.638 193.222 131.088C193.443 131.538 193.727 131.873 194.073 132.093C194.426 132.304 194.846 132.375 195.334 132.307ZM209.63 138.659C208.578 138.807 207.58 138.749 206.636 138.487C205.691 138.217 204.905 137.759 204.278 137.113C203.658 136.458 203.29 135.638 203.176 134.652L203.193 134.603L206.76 133.878C206.858 134.583 207.133 135.108 207.584 135.455C208.034 135.794 208.584 135.919 209.234 135.828C209.969 135.725 210.465 135.383 210.723 134.803C210.981 134.222 211.053 133.526 210.939 132.713C210.808 131.777 210.522 131.056 210.08 130.55C209.645 130.035 209.049 129.831 208.29 129.937C207.726 130.016 207.297 130.194 207.004 130.472C206.712 130.749 206.522 131.08 206.433 131.463L203.086 131.73L202.739 122.147L212.708 120.751L213.268 124.755L211.063 125.064L210.587 124.03L206.189 124.646L206.235 128.355C206.423 128.179 206.641 128.014 206.887 127.861C207.142 127.707 207.423 127.573 207.731 127.459C208.038 127.345 208.362 127.264 208.702 127.217C209.798 127.04 210.76 127.122 211.589 127.463C212.416 127.797 213.088 128.366 213.602 129.169C214.116 129.965 214.458 130.966 214.627 132.173C214.776 133.241 214.687 134.236 214.358 135.158C214.037 136.078 213.479 136.85 212.683 137.475C211.893 138.09 210.876 138.485 209.63 138.659ZM217.302 137.337L216.86 134.18L220.562 133.662L221.004 136.818L217.302 137.337ZM228.953 135.954C227.158 136.205 225.653 135.824 224.439 134.811C223.232 133.797 222.471 132.164 222.155 129.912L221.643 126.257C221.328 124.005 221.612 122.226 222.494 120.919C223.375 119.605 224.709 118.822 226.496 118.572C228.268 118.324 229.761 118.71 230.977 119.731C232.192 120.745 232.957 122.377 233.272 124.628L233.784 128.284C234.1 130.543 233.818 132.326 232.936 133.633C232.052 134.932 230.725 135.706 228.953 135.954ZM228.557 133.122C229.238 133.027 229.715 132.66 229.988 132.022C230.27 131.383 230.318 130.402 230.133 129.079L229.539 124.843C229.356 123.536 229.038 122.614 228.584 122.078C228.138 121.541 227.575 121.32 226.894 121.415C226.198 121.513 225.709 121.881 225.428 122.52C225.153 123.15 225.108 124.123 225.292 125.438L225.885 129.674C226.071 131.005 226.387 131.939 226.833 132.476C227.278 133.005 227.853 133.221 228.557 133.122ZM242.532 134.053C240.737 134.304 239.232 133.923 238.017 132.91C236.81 131.896 236.049 130.263 235.734 128.011L235.222 124.355C234.907 122.104 235.19 120.325 236.072 119.018C236.953 117.704 238.287 116.921 240.074 116.671C241.846 116.423 243.34 116.809 244.556 117.83C245.771 118.843 246.535 120.476 246.851 122.727L247.363 126.383C247.679 128.642 247.396 130.425 246.514 131.732C245.631 133.031 244.304 133.805 242.532 134.053ZM242.135 131.221C242.816 131.126 243.293 130.759 243.567 130.121C243.848 129.482 243.896 128.501 243.711 127.178L243.118 122.942C242.935 121.635 242.616 120.713 242.163 120.177C241.717 119.64 241.153 119.419 240.472 119.514C239.776 119.612 239.287 119.98 239.006 120.619C238.731 121.249 238.686 122.222 238.87 123.537L239.463 127.773C239.65 129.104 239.966 130.038 240.412 130.575C240.857 131.104 241.431 131.32 242.135 131.221ZM256.11 132.152C254.315 132.403 252.81 132.022 251.596 131.009C250.389 129.994 249.628 128.362 249.312 126.11L248.8 122.454C248.485 120.203 248.769 118.424 249.651 117.117C250.532 115.802 251.866 115.02 253.653 114.77C255.425 114.522 256.918 114.908 258.134 115.929C259.349 116.942 260.114 118.575 260.429 120.826L260.941 124.482C261.257 126.741 260.975 128.524 260.093 129.831C259.209 131.13 257.882 131.904 256.11 132.152ZM255.714 129.32C256.395 129.225 256.872 128.858 257.145 128.22C257.427 127.581 257.475 126.6 257.29 125.277L256.696 121.041C256.513 119.734 256.195 118.812 255.741 118.276C255.295 117.739 254.732 117.518 254.051 117.613C253.355 117.711 252.866 118.079 252.585 118.718C252.31 119.348 252.265 120.321 252.449 121.636L253.042 125.872C253.228 127.203 253.544 128.137 253.99 128.674C254.435 129.203 255.01 129.418 255.714 129.32ZM269.936 134.89L269.627 132.685L271.178 132.101L269.463 119.845L267.625 119.736L267.316 117.531L272.55 116.798L272.903 118.216C273.184 117.632 273.556 117.162 274.019 116.805C274.48 116.441 275.071 116.208 275.791 116.108C276.789 115.968 277.682 116.123 278.471 116.572C279.267 117.021 279.924 117.714 280.442 118.651C280.966 119.58 281.321 120.702 281.505 122.017L281.539 122.261C281.712 123.498 281.671 124.613 281.415 125.603C281.167 126.592 280.716 127.397 280.061 128.017C279.413 128.629 278.582 129.005 277.569 129.147C276.919 129.238 276.33 129.202 275.803 129.039C275.282 128.868 274.811 128.575 274.39 128.16L274.869 131.584L276.451 131.729L276.76 133.934L269.936 134.89ZM276.07 126.47C276.875 126.357 277.405 125.975 277.661 125.324C277.917 124.673 277.972 123.825 277.825 122.781L277.791 122.537C277.687 121.794 277.519 121.155 277.286 120.62C277.053 120.084 276.749 119.685 276.373 119.422C276.005 119.158 275.554 119.064 275.02 119.138C274.61 119.196 274.259 119.339 273.968 119.57C273.675 119.792 273.458 120.095 273.314 120.478L274.058 125.793C274.295 126.075 274.583 126.276 274.923 126.394C275.27 126.503 275.652 126.528 276.07 126.47ZM287.97 132.613C287.653 132.658 287.317 132.677 286.961 132.672C286.613 132.665 286.266 132.639 285.92 132.593L285.973 129.84C286.132 129.849 286.29 129.851 286.447 129.845C286.612 129.845 286.769 129.835 286.916 129.815C287.403 129.746 287.813 129.575 288.145 129.299C288.486 129.031 288.696 128.67 288.775 128.217L288.886 127.574L283.313 117.776L281.668 117.77L281.359 115.565L288.438 114.573L288.747 116.778L287.236 117.227L289.815 122.297L290.012 122.684L290.081 122.674L291.446 116.614L289.942 116.611L289.634 114.406L296.156 113.493L296.465 115.698L295.043 116.11L291.977 128.775C291.833 129.379 291.609 129.95 291.306 130.49C291.003 131.029 290.581 131.486 290.042 131.862C289.512 132.244 288.821 132.494 287.97 132.613ZM305.155 125.285C303.894 125.461 302.775 125.354 301.797 124.962C300.827 124.569 300.038 123.95 299.43 123.104C298.831 122.257 298.448 121.242 298.282 120.058L298.058 118.457C297.784 116.499 297.801 114.844 298.108 113.492C298.422 112.13 298.967 111.036 299.743 110.21C300.526 109.374 301.473 108.761 302.586 108.368C303.252 108.172 303.742 107.954 304.056 107.713C304.369 107.472 304.495 107.134 304.435 106.701L307.301 106.3L307.346 106.365C307.477 107.135 307.465 107.78 307.309 108.298C307.161 108.816 306.909 109.246 306.555 109.587C306.2 109.929 305.775 110.217 305.279 110.452C304.791 110.679 304.265 110.894 303.702 111.099C302.948 111.355 302.356 111.658 301.924 112.011C301.499 112.354 301.195 112.748 301.013 113.191C300.829 113.627 300.734 114.13 300.727 114.699L300.781 114.75C301.15 114.344 301.59 113.994 302.102 113.702C302.621 113.408 303.221 113.214 303.901 113.118C305.039 112.959 306.06 113.069 306.965 113.447C307.87 113.825 308.609 114.427 309.182 115.254C309.755 116.074 310.122 117.063 310.284 118.224L310.319 118.468C310.484 119.651 310.39 120.726 310.036 121.69C309.69 122.654 309.103 123.45 308.276 124.079C307.457 124.706 306.416 125.108 305.155 125.285ZM304.759 122.453C305.3 122.377 305.72 122.188 306.017 121.886C306.32 121.576 306.517 121.177 306.607 120.691C306.695 120.198 306.695 119.63 306.605 118.988L306.571 118.744C306.487 118.148 306.332 117.633 306.106 117.2C305.887 116.765 305.59 116.444 305.214 116.236C304.844 116.02 304.385 115.95 303.835 116.027C303.302 116.101 302.883 116.294 302.579 116.605C302.275 116.908 302.077 117.298 301.986 117.777C301.895 118.255 301.891 118.792 301.975 119.387L301.996 119.538C302.087 120.188 302.244 120.746 302.467 121.212C302.69 121.678 302.991 122.022 303.369 122.245C303.746 122.461 304.209 122.53 304.759 122.453ZM311.603 125.613L315.986 106.291L319.456 105.805L315.073 125.127L311.603 125.613ZM321.555 122.74L321.247 120.547L322.961 119.94L321.92 112.501L320.105 112.388L319.796 110.183L331.019 108.612L331.687 113.381L329.377 113.705L328.97 111.809L325.674 112.271L326.675 119.42L328.501 119.531L328.808 121.724L321.555 122.74ZM340.216 120.376C338.947 120.553 337.822 120.439 336.842 120.032C335.869 119.616 335.075 118.962 334.461 118.069C333.854 117.168 333.461 116.083 333.284 114.814L333.251 114.582C333.076 113.329 333.157 112.19 333.494 111.164C333.84 110.137 334.423 109.291 335.245 108.623C336.066 107.948 337.106 107.523 338.368 107.346C339.629 107.169 340.746 107.289 341.719 107.705C342.693 108.121 343.482 108.776 344.089 109.669C344.703 110.561 345.098 111.638 345.275 112.899L345.307 113.131C345.484 114.392 345.4 115.54 345.056 116.574C344.718 117.6 344.138 118.446 343.317 119.113C342.503 119.779 341.469 120.2 340.216 120.376ZM339.819 117.544C340.361 117.468 340.777 117.26 341.069 116.919C341.368 116.578 341.558 116.129 341.638 115.574C341.725 115.017 341.718 114.375 341.617 113.648L341.584 113.416C341.485 112.712 341.318 112.108 341.082 111.604C340.853 111.092 340.546 110.709 340.164 110.455C339.781 110.201 339.315 110.112 338.766 110.189C338.224 110.265 337.804 110.478 337.506 110.827C337.208 111.177 337.019 111.629 336.939 112.185C336.858 112.732 336.866 113.358 336.965 114.062L336.998 114.294C337.099 115.022 337.266 115.645 337.496 116.165C337.726 116.677 338.031 117.057 338.413 117.303C338.793 117.542 339.262 117.622 339.819 117.544ZM347.199 123.007L346.001 116.395L347.126 116.237C347.457 115.78 347.719 115.345 347.914 114.931C348.116 114.517 348.258 114.091 348.339 113.653C348.418 113.208 348.453 112.722 348.442 112.195C348.431 111.668 348.382 111.06 348.293 110.37L348.102 108.835L346.287 108.722L345.979 106.517L357.329 104.928L359.128 104.676L359.436 106.881L357.688 107.493L358.69 114.653L360.559 114.392L361.253 121.039L357.771 121.527L357.242 117.743L350.162 118.735L350.692 122.518L347.199 123.007ZM351.364 115.655L355.02 115.144L354.068 108.343L351.851 108.653L351.995 109.852C352.148 111.053 352.161 112.136 352.036 113.1C351.91 114.064 351.687 114.916 351.364 115.655Z" fill="white"/>
<path d="M48.351 101.131L48.2243 99.1074L50.0035 98.6438L49.9471 97.7432L49.8068 97.752C48.3955 97.8403 47.1362 97.6687 46.0289 97.2371C44.9217 96.8054 44.0352 96.1486 43.3694 95.2666C42.7031 94.3768 42.3306 93.3042 42.252 92.0489C42.1715 90.7623 42.4055 89.6244 42.9541 88.6351C43.5105 87.6452 44.3065 86.8557 45.342 86.2664C46.3848 85.6688 47.6119 85.3258 49.0232 85.2374L49.1635 85.2286L49.1057 84.3047L47.2826 84.0666L47.1559 82.0432L54.4775 81.5847L54.6042 83.6081L52.8367 84.0711L52.8945 84.995L52.9764 84.9899C54.3877 84.9015 55.6477 85.0849 56.7564 85.5399C57.8652 85.9949 58.7534 86.6791 59.4211 87.5922C60.0962 88.4971 60.474 89.5929 60.5546 90.8794C60.6332 92.1347 60.3935 93.2456 59.8356 94.2121C59.2856 95.178 58.4845 95.9484 57.4324 96.523C56.3876 97.0894 55.1635 97.4166 53.76 97.5045L53.6781 97.5096L53.7345 98.4102L55.5459 98.649L55.6726 100.672L48.351 101.131ZM49.6501 95.2491L49.7904 95.2403L49.3232 87.7783L49.1828 87.7871C48.4811 87.8311 47.878 88.0136 47.3737 88.3348C46.8693 88.6561 46.4868 89.1105 46.2262 89.6983C45.965 90.2782 45.8606 90.9854 45.9128 91.8197C45.9631 92.6228 46.1535 93.288 46.484 93.8152C46.8139 94.3347 47.2487 94.7145 47.7882 94.9547C48.3277 95.1949 48.9483 95.293 49.6501 95.2491ZM53.5214 95.0067L53.6267 95.0001C54.3284 94.9561 54.9319 94.7814 55.4373 94.4757C55.9499 94.1618 56.3334 93.723 56.5877 93.1591C56.8415 92.5874 56.9436 91.9039 56.8938 91.1086C56.841 90.2665 56.6528 89.5738 56.3292 89.0305C56.0051 88.4793 55.5689 88.0761 55.0206 87.8208C54.4801 87.565 53.859 87.4591 53.1572 87.503L53.0542 87.5447L53.5214 95.0067ZM68.372 99.0905C67.0933 99.1706 65.9809 98.9702 65.035 98.4893C64.0963 98.0001 63.355 97.2872 62.811 96.3506C62.2744 95.4058 61.966 94.294 61.886 93.0152L61.8713 92.7813C61.7922 91.5181 61.9602 90.3882 62.3753 89.3916C62.7982 88.3945 63.4448 87.5947 64.3151 86.9923C65.1849 86.382 66.2553 86.0371 67.5262 85.9575C68.7972 85.878 69.902 86.0828 70.8406 86.5719C71.7793 87.0611 72.5167 87.7742 73.0529 88.7113C73.5968 89.6479 73.9086 90.7516 73.9882 92.0226L74.0028 92.2565C74.0824 93.5275 73.911 94.6654 73.4886 95.6703C73.0735 96.667 72.4308 97.4665 71.5605 98.0689C70.698 98.6709 69.6352 99.0114 68.372 99.0905ZM68.1933 96.2367C68.7392 96.2025 69.1704 96.0268 69.4872 95.7095C69.8117 95.3917 70.0351 94.959 70.1573 94.4112C70.2874 93.8629 70.3295 93.2223 70.2836 92.4894L70.2689 92.2555C70.2245 91.5459 70.1038 90.9312 69.9069 90.4112C69.7172 89.883 69.4414 89.4775 69.0792 89.1949C68.7171 88.9123 68.2593 88.7884 67.7057 88.823C67.1599 88.8572 66.7249 89.0371 66.4009 89.3626C66.0769 89.6882 65.8537 90.1249 65.7315 90.6727C65.6087 91.2126 65.5695 91.8374 65.614 92.5469L65.6286 92.7809C65.6745 93.5138 65.7925 94.1483 65.9826 94.6843C66.1723 95.2126 66.4479 95.6141 66.8095 95.8889C67.1707 96.1559 67.6319 96.2719 68.1933 96.2367ZM75.9478 103.254L75.8087 101.032L77.4 100.568L76.6267 88.2175L74.8028 87.9677L74.6637 85.7455L79.9385 85.4152L80.1813 86.8559C80.5063 86.2955 80.9132 85.8551 81.4019 85.5349C81.8902 85.2069 82.4969 85.0201 83.2221 84.9747C84.2279 84.9118 85.1068 85.1346 85.8588 85.6433C86.6186 86.1515 87.2208 86.8927 87.6654 87.8668C88.1172 88.8326 88.3847 89.9783 88.4677 91.3038L88.4831 91.5494C88.5612 92.797 88.4348 93.9047 88.1041 94.8726C87.7811 95.84 87.2695 96.6078 86.5692 97.1761C85.8763 97.7362 85.0191 98.0482 83.9977 98.1121C83.3427 98.1531 82.7584 98.0723 82.2447 97.8696C81.7384 97.6587 81.2912 97.3305 80.9032 96.8851L81.1193 100.335L82.6858 100.601L82.825 102.824L75.9478 103.254ZM82.7079 95.3279C83.5188 95.2771 84.0768 94.9369 84.3818 94.3072C84.6868 93.6776 84.8063 92.8364 84.7404 91.7838L84.725 91.5382C84.6781 90.7896 84.5592 90.1396 84.3681 89.5879C84.177 89.0363 83.904 88.615 83.5492 88.3241C83.2022 88.0327 82.7597 87.9039 82.2217 87.9376C81.8084 87.9635 81.4478 88.08 81.1398 88.2871C80.8314 88.4865 80.5909 88.7716 80.4184 89.1425L80.7538 94.4992C80.9683 94.7989 81.2405 95.0206 81.5704 95.1643C81.9077 95.2997 82.2868 95.3543 82.7079 95.3279ZM90.2162 97.4762L90.0778 95.2656L91.8562 94.7903L91.3868 87.2933L89.563 87.0435L89.4238 84.8213L91.225 84.7085L95.8097 84.4214L99.3063 92.633L99.3765 92.6286L101.856 84.0428L106.547 83.7491L108.324 83.6378L108.463 85.86L106.708 86.3339L107.178 93.8309L108.978 94.0822L109.117 96.2927L102.485 96.7079L102.347 94.4974L103.435 94.0653L103.147 89.4688L103.077 89.4732L100.859 96.8097L98.3682 96.9657L95.3842 90.1897L95.3148 90.2058L95.5872 94.5567L96.7327 94.8489L96.8711 97.0595L90.2162 97.4762ZM114.945 96.1744C113.697 96.2525 112.674 95.976 111.875 95.345C111.084 94.7057 110.652 93.8052 110.579 92.6434C110.505 91.4582 110.924 90.4614 111.836 89.6528C112.748 88.8364 114.151 88.3689 116.046 88.2502L117.554 88.1558L117.502 87.3137C117.466 86.7523 117.274 86.2986 116.923 85.9526C116.581 85.6062 116.078 85.4537 115.415 85.4952C115.095 85.5152 114.806 85.5725 114.545 85.6671C114.293 85.7612 114.062 85.8891 113.853 86.0509L113.687 87.7052L111.02 87.8722L110.761 84.4833C111.425 84.0895 112.14 83.7512 112.905 83.4684C113.67 83.1857 114.528 83.0145 115.479 82.955C117.171 82.849 118.533 83.1552 119.564 83.8734C120.595 84.5916 121.156 85.6719 121.247 87.1144L121.557 92.0734C121.568 92.2528 121.579 92.4282 121.59 92.5998C121.608 92.763 121.638 92.9216 121.678 93.0756L123.025 93.2027L123.163 95.4132L118.672 95.6944C118.567 95.5209 118.457 95.3165 118.34 95.0811C118.224 94.8458 118.138 94.6084 118.084 94.3692C117.717 94.8853 117.286 95.3037 116.789 95.6244C116.293 95.9452 115.678 96.1285 114.945 96.1744ZM115.852 93.4052C116.242 93.3808 116.614 93.2714 116.97 93.0769C117.326 92.8824 117.608 92.6299 117.815 92.3195L117.695 90.4014L116.21 90.4944C115.555 90.5354 115.061 90.715 114.729 91.0333C114.404 91.3511 114.256 91.7283 114.283 92.1649C114.309 92.586 114.462 92.9052 114.742 93.1225C115.03 93.3393 115.4 93.4336 115.852 93.4052ZM136.208 94.843C134.929 94.923 133.817 94.7226 132.871 94.2417C131.932 93.7526 131.191 93.0397 130.647 92.1031C130.11 91.1582 129.802 90.0464 129.722 88.7677L129.707 88.5338C129.628 87.2706 129.796 86.1407 130.211 85.1441C130.634 84.147 131.281 83.3472 132.151 82.7447C133.021 82.1345 134.091 81.7896 135.362 81.71C136.633 81.6304 137.738 81.8352 138.677 82.3244C139.615 82.8136 140.353 83.5267 140.889 84.4638C141.433 85.4004 141.745 86.5041 141.824 87.7751L141.839 88.009C141.918 89.2799 141.747 90.4179 141.325 91.4228C140.909 92.4194 140.267 93.219 139.396 93.8214C138.534 94.4234 137.471 94.7639 136.208 94.843ZM136.029 91.9892C136.575 91.955 137.006 91.7793 137.323 91.462C137.648 91.1442 137.871 90.7114 137.993 90.1637C138.123 89.6154 138.165 88.9748 138.119 88.2419L138.105 88.0079C138.06 87.2984 137.94 86.6836 137.743 86.1637C137.553 85.6354 137.277 85.23 136.915 84.9474C136.553 84.6648 136.095 84.5408 135.542 84.5755C134.996 84.6097 134.561 84.7895 134.237 85.1151C133.913 85.4407 133.69 85.8774 133.567 86.4251C133.445 86.9651 133.405 87.5899 133.45 88.2994L133.465 88.5333C133.51 89.2663 133.628 89.9008 133.819 90.4368C134.008 90.9651 134.284 91.3666 134.645 91.6414C135.007 91.9084 135.468 92.0243 136.029 91.9892ZM149.857 93.9883C148.586 94.0679 147.478 93.8751 146.533 93.4098C145.596 92.944 144.857 92.2662 144.316 91.3764C143.783 90.4861 143.479 89.4445 143.404 88.2515L143.303 86.6375C143.179 84.6648 143.323 83.0159 143.733 81.6908C144.15 80.3574 144.777 79.3083 145.614 78.5436C146.458 77.7706 147.45 77.231 148.589 76.9249C149.269 76.7805 149.774 76.6002 150.105 76.3837C150.436 76.1673 150.588 75.8408 150.56 75.4042L153.449 75.2233L153.489 75.2913C153.561 76.0695 153.499 76.7113 153.304 77.2167C153.116 77.7216 152.833 78.1308 152.453 78.4442C152.074 78.7576 151.628 79.0125 151.116 79.2089C150.611 79.3971 150.07 79.5719 149.493 79.7332C148.722 79.9302 148.108 80.1878 147.651 80.5061C147.201 80.8161 146.867 81.1853 146.652 81.6137C146.435 82.0343 146.302 82.528 146.251 83.0947L146.302 83.1503C146.701 82.773 147.166 82.4582 147.698 82.2057C148.238 81.9527 148.851 81.8047 149.538 81.7617C150.684 81.69 151.694 81.8772 152.567 82.3235C153.44 82.7698 154.131 83.4272 154.64 84.2955C155.147 85.1561 155.438 86.1712 155.511 87.3408L155.527 87.5864C155.601 88.7793 155.425 89.8432 154.998 90.778C154.579 91.7122 153.934 92.4611 153.061 93.0245C152.196 93.5875 151.128 93.9088 149.857 93.9883ZM149.678 91.1346C150.224 91.1004 150.657 90.9441 150.976 90.6658C151.302 90.3793 151.529 89.9972 151.655 89.5196C151.782 89.0342 151.824 88.4679 151.784 87.8207L151.769 87.5751C151.731 86.9747 151.616 86.4496 151.423 85.9998C151.239 85.5496 150.967 85.2065 150.607 84.9707C150.256 84.7266 149.803 84.6219 149.249 84.6565C148.711 84.6902 148.279 84.8503 147.952 85.1369C147.626 85.4157 147.398 85.79 147.271 86.2598C147.144 86.7296 147.099 87.2647 147.137 87.8651L147.147 88.0172C147.188 88.6721 147.301 89.2403 147.488 89.7218C147.675 90.2033 147.948 90.5697 148.308 90.8211C148.668 91.0647 149.125 91.1692 149.678 91.1346ZM161.261 98.1588C160.941 98.1788 160.604 98.1726 160.25 98.1399C159.904 98.1068 159.56 98.054 159.219 97.9814L159.481 95.2409C159.639 95.2623 159.797 95.276 159.954 95.2818C160.119 95.2949 160.276 95.2969 160.424 95.2876C160.915 95.2568 161.337 95.1169 161.689 94.8678C162.05 94.6261 162.286 94.2825 162.399 93.8371L162.559 93.2047L157.753 83.0086L156.112 82.8765L155.973 80.6543L163.108 80.2076L163.247 82.4298L161.706 82.7611L163.89 88.0138L164.056 88.4143L164.126 88.4099L165.95 82.4719L164.451 82.3543L164.312 80.1321L170.885 79.7206L171.025 81.9428L169.576 82.2448L165.549 94.6379C165.359 95.229 165.093 95.7819 164.749 96.2966C164.406 96.8112 163.951 97.235 163.384 97.5679C162.827 97.9082 162.119 98.1051 161.261 98.1588ZM179.888 91.8614L179.75 89.6509L181.528 89.1755L181.448 87.889C181.209 87.9509 180.962 88.0016 180.706 88.0411C180.449 88.0728 180.204 88.096 179.97 88.1106C178.692 88.1907 177.593 88.0834 176.674 87.7886C175.763 87.4934 175.048 87.002 174.527 86.3145C174.014 85.6186 173.723 84.721 173.654 83.6216L173.561 82.1362L171.75 81.8974L171.611 79.6869L177.143 79.3405L178.465 79.2577L178.603 81.4682L177.304 81.9018L177.397 83.3872C177.429 83.9018 177.528 84.3027 177.695 84.5897C177.861 84.8689 178.112 85.0567 178.447 85.1532C178.789 85.2414 179.237 85.2681 179.79 85.2334C180.055 85.2168 180.304 85.1934 180.537 85.1632C180.778 85.1247 181.021 85.0703 181.267 85.0001L181.059 81.6785L179.691 81.4001L179.552 79.1779L186.441 78.7466L186.58 80.9688L184.802 81.4441L185.271 88.9412L187.095 89.1909L187.233 91.4015L179.888 91.8614ZM194.909 91.1674C193.685 91.244 192.6 91.0458 191.655 90.5727C190.709 90.0919 189.954 89.4033 189.389 88.5072C188.831 87.6028 188.515 86.558 188.441 85.3728L188.412 84.9167C188.333 83.6535 188.493 82.5202 188.892 81.5168C189.291 80.5055 189.905 79.696 190.736 79.0882C191.567 78.4726 192.586 78.1269 193.795 78.0513C194.941 77.9795 195.922 78.1412 196.737 78.5363C197.552 78.9314 198.189 79.5452 198.649 80.3775C199.115 81.2015 199.387 82.2256 199.463 83.4498L199.588 85.4381L192.371 85.8899L192.364 85.9608C192.441 86.4413 192.601 86.8619 192.842 87.2225C193.091 87.5748 193.418 87.8479 193.821 88.0418C194.233 88.2352 194.723 88.3141 195.292 88.2785C195.877 88.2418 196.426 88.137 196.94 87.9639C197.461 87.7904 197.982 87.5386 198.501 87.2086L199.58 89.4307C199.06 89.8782 198.403 90.2637 197.609 90.5874C196.823 90.9106 195.923 91.1039 194.909 91.1674ZM192.233 83.4915L195.976 83.2572L195.957 82.9531C195.926 82.4697 195.842 82.064 195.704 81.736C195.574 81.3998 195.37 81.1503 195.094 80.9875C194.825 80.8243 194.477 80.7561 194.048 80.783C193.611 80.8103 193.259 80.9419 192.992 81.1778C192.725 81.4137 192.53 81.7273 192.405 82.1187C192.289 82.5095 192.219 82.9484 192.194 83.4352L192.233 83.4915ZM201.689 90.4963L201.551 88.2858L203.318 87.8112L202.848 80.3141L201.036 80.0636L200.897 77.8414L207.774 77.4108L207.913 79.633L206.579 80.0805L206.732 82.5133L210.462 82.2796L210.31 79.8469L208.966 79.5671L208.827 77.3449L210.148 77.2621L213.891 77.0278L215.692 76.915L215.831 79.1372L214.053 79.6126L214.522 87.1096L216.346 87.3594L216.485 89.5699L209.619 89.9998L209.481 87.7893L210.78 87.3439L210.642 85.1451L206.911 85.3787L207.049 87.5776L208.428 87.8552L208.566 90.0657L201.689 90.4963ZM218.321 89.4549L218.182 87.2444L219.949 86.7698L219.48 79.2728L217.668 79.0222L217.528 76.8L223.072 76.4529L224.628 76.3555L224.767 78.5777L223.234 79.0377L223.53 83.7628L223.601 83.7701L226.827 76.2178L230.569 75.9835L232.347 75.8722L232.486 78.0944L230.731 78.5682L231.201 86.0653L233.001 86.3165L233.139 88.5271L226.052 88.9709L225.913 86.7603L227.458 86.2996L227.161 81.5511L227.09 81.5438L223.865 89.1078L218.321 89.4549ZM235.081 88.4055L234.943 86.195L236.182 85.9178L237.467 83.1954C236.757 82.8641 236.202 82.4292 235.8 81.8908C235.398 81.3445 235.175 80.7166 235.13 80.0071C235.078 79.165 235.261 78.4098 235.681 77.7417C236.101 77.0657 236.716 76.5183 237.528 76.0996C238.347 75.6804 239.322 75.4354 240.452 75.3646L247.879 74.8996L248.018 77.1218L246.252 77.5964L246.721 85.0935L248.533 85.344L248.672 87.5545L241.818 87.9837L241.679 85.7732L243.002 85.3264L242.894 83.6071L241.42 83.6993L239.619 88.1213L235.081 88.4055ZM240.81 81.2718L242.74 81.1509L242.548 78.0866L240.63 78.2067C240.045 78.2434 239.6 78.4357 239.293 78.7836C238.985 79.1238 238.844 79.4928 238.869 79.8904C238.894 80.2881 239.075 80.6289 239.414 80.913C239.76 81.1888 240.226 81.3084 240.81 81.2718ZM256.215 87.0822L256.077 84.8717L257.844 84.397L257.374 76.9L255.562 76.6495L255.423 74.4273L260.967 74.0801L262.522 73.9827L262.661 76.2049L261.129 76.6649L261.424 81.39L261.495 81.3973L264.721 73.8451L268.464 73.6107L270.242 73.4994L270.381 75.7216L268.626 76.1955L269.095 83.6925L270.896 83.9438L271.034 86.1543L263.946 86.5981L263.808 84.3876L265.352 83.9269L265.055 79.1784L264.984 79.1711L261.759 86.735L256.215 87.0822ZM284.488 85.5585C283.256 85.6356 282.174 85.4293 281.244 84.9397C280.32 84.4417 279.587 83.7284 279.043 82.7996C278.507 81.8625 278.2 80.7741 278.122 79.5343L278.103 79.2185C278.024 77.9632 278.2 76.8367 278.631 75.8391C279.061 74.8415 279.704 74.0419 280.559 73.4405C281.414 72.839 282.441 72.5007 283.642 72.4255C284.812 72.3523 285.829 72.4686 286.693 72.7746C287.558 73.0805 288.257 73.4359 288.791 73.8408L288.983 77.6449L286.176 77.8207L285.565 75.5693C285.399 75.4231 285.185 75.3074 284.921 75.2221C284.657 75.1369 284.412 75.1013 284.186 75.1155C283.578 75.1536 283.092 75.3288 282.728 75.6412C282.371 75.9454 282.12 76.376 281.975 76.933C281.838 77.4895 281.795 78.1733 281.845 78.9842L281.865 79.3C281.918 80.1499 282.067 80.8294 282.31 81.3387C282.552 81.8401 282.853 82.2009 283.211 82.4212C283.577 82.6331 283.954 82.7269 284.344 82.7025C284.898 82.6678 285.322 82.5004 285.616 82.2001C285.918 81.8916 286.122 81.4679 286.229 80.9289L289.399 80.7304L289.45 80.7977C289.346 81.7592 289.116 82.5838 288.76 83.2714C288.411 83.9508 287.892 84.4842 287.204 84.8717C286.516 85.2593 285.611 85.4882 284.488 85.5585ZM294.145 84.7072L294.007 82.4967L295.773 82.0221L295.32 74.7824L293.367 74.9046L293.341 76.5501L290.534 76.7259L290.253 72.2464L303.844 71.3954L304.124 75.8749L301.306 76.0514L301.074 74.422L299.074 74.5473L299.528 81.787L301.328 82.0383L301.467 84.2488L294.145 84.7072ZM311.763 83.8507C310.484 83.9307 309.371 83.7303 308.426 83.2494C307.487 82.7603 306.746 82.0474 306.202 81.1108C305.665 80.1659 305.357 79.0541 305.276 77.7754L305.262 77.5415C305.183 76.2783 305.351 75.1484 305.766 74.1518C306.189 73.1546 306.835 72.3549 307.706 71.7524C308.575 71.1422 309.646 70.7973 310.917 70.7177C312.188 70.6381 313.293 70.8429 314.231 71.3321C315.17 71.8213 315.907 72.5344 316.443 73.4715C316.987 74.408 317.299 75.5118 317.379 76.7828L317.393 77.0167C317.473 78.2876 317.302 79.4256 316.879 80.4305C316.464 81.4271 315.821 82.2267 314.951 82.8291C314.089 83.431 313.026 83.7716 311.763 83.8507ZM311.584 80.9969C312.13 80.9627 312.561 80.787 312.878 80.4697C313.202 80.1519 313.426 79.7191 313.548 79.1714C313.678 78.6231 313.72 77.9825 313.674 77.2496L313.659 77.0156C313.615 76.3061 313.494 75.6913 313.297 75.1714C313.108 74.6431 312.832 74.2377 312.47 73.9551C312.108 73.6725 311.65 73.5485 311.096 73.5832C310.55 73.6174 310.115 73.7972 309.791 74.1228C309.467 74.4484 309.244 74.885 309.122 75.4328C308.999 75.9728 308.96 76.5976 309.005 77.3071L309.019 77.541C309.065 78.274 309.183 78.9085 309.373 79.4445C309.563 79.9727 309.838 80.3743 310.2 80.6491C310.561 80.9161 311.022 81.032 311.584 80.9969ZM319.303 83.132L319.164 80.9214L320.931 80.4468L320.462 72.9498L318.649 72.6993L318.51 70.4771L324.054 70.1299L325.61 70.0325L325.749 72.2547L324.216 72.7147L324.512 77.4398L324.583 77.4471L327.809 69.8949L331.551 69.6605L333.329 69.5492L333.468 71.7714L331.713 72.2453L332.182 79.7423L333.983 79.9936L334.121 82.2041L327.034 82.6479L326.895 80.4374L328.44 79.9767L328.142 75.2282L328.072 75.2209L324.847 82.7848L319.303 83.132ZM336.039 82.084L335.901 79.8735L337.68 79.3981L337.21 71.9011L335.386 71.6513L335.247 69.4291L337.048 69.3163L341.633 69.0292L345.13 77.2408L345.2 77.2364L347.68 68.6506L352.37 68.357L354.148 68.2456L354.287 70.4679L352.532 70.9417L353.001 78.4388L354.802 78.69L354.94 80.9005L348.308 81.3158L348.17 79.1053L349.258 78.6731L348.971 74.0767L348.9 74.081L346.683 81.4176L344.191 81.5736L341.208 74.7976L341.138 74.8137L341.41 79.1645L342.556 79.4568L342.694 81.6673L336.039 82.084ZM362.616 80.6665C361.337 80.7465 360.225 80.5461 359.279 80.0653C358.34 79.5761 357.599 78.8632 357.055 77.9266C356.518 76.9817 356.21 75.8699 356.13 74.5912L356.115 74.3573C356.036 73.0941 356.204 71.9642 356.619 70.9676C357.042 69.9705 357.689 69.1707 358.559 68.5682C359.429 67.958 360.499 67.6131 361.77 67.5335C363.041 67.4539 364.146 67.6587 365.085 68.1479C366.023 68.6371 366.761 69.3502 367.297 70.2873C367.841 71.2239 368.153 72.3276 368.232 73.5986L368.247 73.8325C368.326 75.1034 368.155 76.2414 367.733 77.2463C367.318 78.2429 366.675 79.0425 365.805 79.6449C364.942 80.2469 363.879 80.5874 362.616 80.6665ZM362.437 77.8127C362.983 77.7785 363.414 77.6028 363.731 77.2855C364.056 76.9677 364.279 76.5349 364.401 75.9872C364.531 75.4389 364.574 74.7983 364.528 74.0654L364.513 73.8315C364.469 73.1219 364.348 72.5072 364.151 71.9872C363.961 71.459 363.685 71.0535 363.323 70.7709C362.961 70.4883 362.503 70.3643 361.95 70.399C361.404 70.4332 360.969 70.613 360.645 70.9386C360.321 71.2642 360.098 71.7009 359.976 72.2486C359.853 72.7886 359.814 73.4134 359.858 74.1229L359.873 74.3568C359.919 75.0898 360.037 75.7243 360.227 76.2603C360.416 76.7886 360.692 77.1901 361.054 77.4649C361.415 77.7319 361.876 77.8478 362.437 77.8127ZM375.973 79.8302C374.741 79.9073 373.659 79.701 372.729 79.2114C371.805 78.7134 371.071 78.0001 370.528 77.0713C369.992 76.1342 369.685 75.0458 369.607 73.806L369.588 73.4902C369.509 72.2349 369.685 71.1084 370.116 70.1108C370.546 69.1132 371.189 68.3136 372.044 67.7122C372.898 67.1107 373.926 66.7724 375.127 66.6972C376.297 66.624 377.314 66.7403 378.178 67.0463C379.043 67.3522 379.742 67.7076 380.276 68.1125L380.467 71.9166L377.66 72.0924L377.05 69.841C376.884 69.6948 376.669 69.5791 376.406 69.4938C376.142 69.4086 375.897 69.373 375.671 69.3872C375.063 69.4253 374.577 69.6005 374.213 69.9129C373.856 70.2171 373.605 70.6477 373.46 71.2047C373.323 71.7612 373.279 72.445 373.33 73.2559L373.35 73.5717C373.403 74.4216 373.551 75.1011 373.795 75.6104C374.037 76.1118 374.338 76.4726 374.696 76.6929C375.062 76.9048 375.439 76.9986 375.829 76.9742C376.383 76.9395 376.807 76.7721 377.101 76.4718C377.403 76.1633 377.607 75.7396 377.714 75.2006L380.884 75.0021L380.935 75.0693C380.831 76.0309 380.601 76.8555 380.244 77.5431C379.896 78.2225 379.377 78.7559 378.689 79.1434C378.001 79.5309 377.096 79.7599 375.973 79.8302ZM385.63 78.9789L385.491 76.7684L387.258 76.2938L386.805 69.054L384.852 69.1763L384.826 70.8218L382.019 70.9976L381.738 66.5181L395.329 65.6671L395.609 70.1466L392.79 70.3231L392.559 68.6937L390.559 68.819L391.013 76.0587L392.813 76.31L392.951 78.5205L385.63 78.9789ZM404.901 69.0834C406.678 68.9721 408.098 69.2707 409.16 69.9791C410.222 70.6876 410.794 71.689 410.875 72.9833C410.959 74.3244 410.515 75.4246 409.543 76.2839C408.579 77.1427 407.213 77.6275 405.443 77.7383L397.747 78.2202L397.608 76.0097L399.387 75.5343L398.917 68.0373L397.094 67.7875L396.954 65.5653L404.299 65.1054L404.438 67.3276L402.66 67.803L402.749 69.2182L404.901 69.0834ZM405.265 74.8962C405.927 74.8547 406.414 74.6834 406.724 74.3822C407.034 74.081 407.174 73.6965 407.145 73.2286C407.113 72.7296 406.925 72.35 406.58 72.0898C406.242 71.8213 405.738 71.7081 405.068 71.7501L402.916 71.8848L403.113 75.031L405.265 74.8962ZM412.378 77.3041L412.179 74.1228L415.91 73.8892L416.109 77.0704L412.378 77.3041ZM411.786 67.8421L411.587 64.6609L415.318 64.4272L415.517 67.6085L411.786 67.8421Z" fill="white"/>
<defs>
<linearGradient id="paint0_linear_228_1678" x1="23.6387" y1="29.5" x2="413.639" y2="29.5" gradientUnits="userSpaceOnUse">
<stop stop-color="#8E2DE2"/>
<stop offset="1" stop-color="#4A00E0"/>
</linearGradient>
<linearGradient id="paint1_linear_228_1678" x1="318.524" y1="225.36" x2="318.524" y2="225.36" gradientUnits="userSpaceOnUse">
<stop stop-color="#8E2DE2"/>
<stop offset="1" stop-color="#4A00E0"/>
</linearGradient>
<linearGradient id="paint2_linear_228_1678" x1="0" y1="26.6617" x2="455.435" y2="26.6617" gradientUnits="userSpaceOnUse">
<stop stop-color="#6025F5"/>
<stop offset="1" stop-color="#FF5555"/>
</linearGradient>
<linearGradient id="paint3_linear_228_1678" x1="54.3131" y1="151.569" x2="397.797" y2="106.725" gradientUnits="userSpaceOnUse">
<stop offset="1" stop-color="#F80759"/>
</linearGradient>
</defs>
</svg>
