<svg width="400" height="198" viewBox="0 0 400 198" fill="none" xmlns="http://www.w3.org/2000/svg">
<rect x="22" width="363" height="53" rx="26.5" fill="url(#paint0_linear_145_8837)"/>
<rect x="17.8689" y="145.9" width="372.054" height="51.5505" rx="25.7752" transform="rotate(-5.21641 17.8689 145.9)" fill="url(#paint1_linear_145_8837)"/>
<path d="M94.9287 32.1846C94.7822 32.1846 94.6182 32.1787 94.4365 32.167C94.2549 32.1611 94.1113 32.1553 94.0059 32.1494L93.9707 30.0049C94.0293 30.0107 94.1318 30.0195 94.2783 30.0312C94.4307 30.0371 94.5449 30.04 94.6211 30.04C95.1016 30.04 95.4648 29.9375 95.7109 29.7324C95.9629 29.5273 96.1562 29.2227 96.291 28.8184L96.4316 28.4141L92.7754 21.0664L91.3164 20.873V19.2031H96.6338V20.873L95.7285 21.0225L97.416 24.6699L97.627 25.1973H97.6797L99.2266 21.0576L98.4092 20.873V19.2031H103.401V20.873L102.083 21.0488L98.5234 29.4775C98.2715 30.0459 97.9873 30.5352 97.6709 30.9453C97.3604 31.3496 96.9824 31.6572 96.5371 31.8682C96.0977 32.0791 95.5615 32.1846 94.9287 32.1846ZM103.12 35.6562V33.9863L104.333 33.7139V24.4326L102.979 24.1602V22.4902H106.943L107.058 23.5801C107.327 23.1758 107.652 22.8652 108.033 22.6484C108.414 22.4258 108.877 22.3145 109.422 22.3145C110.178 22.3145 110.825 22.5225 111.364 22.9385C111.909 23.3545 112.325 23.9375 112.612 24.6875C112.905 25.4316 113.052 26.3018 113.052 27.2979V27.4824C113.052 28.4199 112.905 29.2432 112.612 29.9521C112.325 30.6611 111.906 31.2119 111.355 31.6045C110.811 31.9912 110.154 32.1846 109.387 32.1846C108.895 32.1846 108.461 32.0967 108.086 31.9209C107.717 31.7393 107.397 31.4727 107.128 31.1211V33.7139L108.288 33.9863V35.6562H103.12ZM108.552 30.04C109.161 30.04 109.595 29.8115 109.853 29.3545C110.11 28.8975 110.239 28.2734 110.239 27.4824V27.2979C110.239 26.7354 110.181 26.2432 110.063 25.8213C109.946 25.3994 109.762 25.0713 109.51 24.8369C109.264 24.6025 108.938 24.4854 108.534 24.4854C108.224 24.4854 107.948 24.5557 107.708 24.6963C107.468 24.8311 107.274 25.0332 107.128 25.3027V29.3281C107.274 29.5625 107.468 29.7412 107.708 29.8643C107.954 29.9814 108.235 30.04 108.552 30.04ZM118.686 32.1846C117.725 32.1846 116.901 31.9824 116.216 31.5781C115.536 31.168 115.015 30.5996 114.651 29.873C114.294 29.1406 114.115 28.2939 114.115 27.333V27.1572C114.115 26.208 114.294 25.3701 114.651 24.6436C115.015 23.917 115.536 23.3486 116.216 22.9385C116.896 22.5225 117.713 22.3145 118.668 22.3145C119.623 22.3145 120.44 22.5195 121.12 22.9297C121.8 23.3398 122.318 23.9082 122.676 24.6348C123.039 25.3613 123.221 26.2021 123.221 27.1572V27.333C123.221 28.2881 123.039 29.1318 122.676 29.8643C122.318 30.5908 121.8 31.1592 121.12 31.5693C120.446 31.9795 119.635 32.1846 118.686 32.1846ZM118.686 30.04C119.096 30.04 119.427 29.9287 119.679 29.7061C119.937 29.4834 120.124 29.1699 120.241 28.7656C120.364 28.3613 120.426 27.8838 120.426 27.333V27.1572C120.426 26.624 120.364 26.1582 120.241 25.7598C120.124 25.3555 119.937 25.0391 119.679 24.8105C119.421 24.582 119.084 24.4678 118.668 24.4678C118.258 24.4678 117.924 24.582 117.666 24.8105C117.408 25.0391 117.221 25.3555 117.104 25.7598C116.986 26.1582 116.928 26.624 116.928 27.1572V27.333C116.928 27.8838 116.986 28.3643 117.104 28.7744C117.221 29.1787 117.408 29.4922 117.666 29.7148C117.924 29.9316 118.264 30.04 118.686 30.04ZM124.425 32V30.3389L125.778 30.0664V24.4326L124.425 24.1602V22.4902H125.778H129.821C131.093 22.4902 132.083 22.7129 132.792 23.1582C133.501 23.5977 133.855 24.2393 133.855 25.083C133.855 25.5635 133.712 25.9766 133.425 26.3223C133.144 26.668 132.701 26.9375 132.098 27.1309C132.9 27.2773 133.483 27.5439 133.847 27.9307C134.21 28.3174 134.392 28.7891 134.392 29.3457C134.392 30.2129 134.052 30.8721 133.372 31.3232C132.698 31.7744 131.72 32 130.437 32H124.425ZM128.582 29.873H130.428C130.82 29.873 131.11 29.7998 131.298 29.6533C131.491 29.501 131.588 29.2783 131.588 28.9854C131.588 28.6982 131.5 28.4785 131.324 28.3262C131.154 28.1738 130.858 28.0977 130.437 28.0977H128.582V29.873ZM128.582 26.3223H129.909C130.313 26.3164 130.604 26.2432 130.779 26.1025C130.955 25.9561 131.043 25.7451 131.043 25.4697C131.043 24.9072 130.642 24.626 129.839 24.626H128.582V26.3223ZM140.069 32.1846C139.149 32.1846 138.347 31.9854 137.661 31.5869C136.976 31.1826 136.442 30.6318 136.062 29.9346C135.687 29.2314 135.499 28.4346 135.499 27.5439V27.2012C135.499 26.252 135.672 25.4111 136.018 24.6787C136.363 23.9404 136.861 23.3633 137.512 22.9473C138.162 22.5254 138.941 22.3145 139.85 22.3145C140.711 22.3145 141.438 22.4814 142.029 22.8154C142.621 23.1494 143.069 23.6387 143.374 24.2832C143.685 24.9219 143.84 25.7012 143.84 26.6211V28.1152H138.417L138.408 28.168C138.443 28.5312 138.543 28.8535 138.707 29.1348C138.877 29.4102 139.108 29.6299 139.401 29.7939C139.7 29.958 140.063 30.04 140.491 30.04C140.931 30.04 141.347 29.9873 141.739 29.8818C142.138 29.7764 142.539 29.6123 142.943 29.3896L143.646 31.1035C143.236 31.4141 142.727 31.6719 142.117 31.877C141.514 32.082 140.831 32.1846 140.069 32.1846ZM138.426 26.3135H141.238V26.085C141.238 25.7217 141.194 25.4141 141.106 25.1621C141.024 24.9043 140.884 24.708 140.685 24.5732C140.491 24.4385 140.233 24.3711 139.911 24.3711C139.583 24.3711 139.313 24.4531 139.103 24.6172C138.892 24.7812 138.73 25.0068 138.619 25.2939C138.514 25.5811 138.44 25.9062 138.399 26.2695L138.426 26.3135ZM145.176 32V30.3389L146.521 30.0664V24.4326L145.176 24.1602V22.4902H150.344V24.1602L149.324 24.4326V26.2607H152.128V24.4326L151.135 24.1602V22.4902H152.128H154.94H156.294V24.1602L154.94 24.4326V30.0664L156.294 30.3389V32H151.135V30.3389L152.128 30.0664V28.4141H149.324V30.0664L150.344 30.3389V32H145.176ZM163.519 25.4961C164.854 25.4961 165.903 25.7861 166.665 26.3662C167.427 26.9463 167.808 27.7227 167.808 28.6953C167.808 29.7031 167.424 30.5059 166.656 31.1035C165.895 31.7012 164.849 32 163.519 32H157.735V30.3389L159.089 30.0664V24.4326L157.735 24.1602V22.4902H163.255V24.1602L161.901 24.4326V25.4961H163.519ZM163.519 29.8643C164.017 29.8643 164.389 29.7588 164.635 29.5479C164.881 29.3369 165.004 29.0557 165.004 28.7041C165.004 28.3291 164.881 28.0361 164.635 27.8252C164.395 27.6084 164.022 27.5 163.519 27.5H161.901V29.8643H163.519ZM168.73 32V29.6094H171.534V32H168.73ZM168.73 24.8896V22.499H171.534V24.8896H168.73ZM181.87 32.1846C180.915 32.1846 180.095 31.9883 179.409 31.5957C178.729 31.2031 178.208 30.6611 177.845 29.9697C177.487 29.2783 177.309 28.4844 177.309 27.5879V26.375C177.309 24.8926 177.493 23.665 177.862 22.6924C178.237 21.7139 178.756 20.958 179.418 20.4248C180.086 19.8857 180.854 19.5283 181.721 19.3525C182.236 19.2764 182.623 19.165 182.881 19.0186C183.139 18.8721 183.268 18.6348 183.268 18.3066H185.438L185.465 18.3594C185.482 18.9453 185.406 19.4229 185.236 19.792C185.072 20.1611 184.841 20.4541 184.542 20.6709C184.243 20.8877 183.897 21.0576 183.505 21.1807C183.118 21.2979 182.705 21.4033 182.266 21.4971C181.68 21.6084 181.208 21.7725 180.851 21.9893C180.499 22.2002 180.232 22.4609 180.051 22.7715C179.869 23.0762 179.746 23.4395 179.682 23.8613L179.717 23.9053C180.033 23.6416 180.396 23.4277 180.807 23.2637C181.223 23.0996 181.688 23.0176 182.204 23.0176C183.065 23.0176 183.812 23.2051 184.445 23.5801C185.078 23.9551 185.564 24.4795 185.904 25.1533C186.244 25.8213 186.414 26.5947 186.414 27.4736V27.6582C186.414 28.5547 186.232 29.3428 185.869 30.0225C185.512 30.7021 184.993 31.2324 184.313 31.6133C183.64 31.9941 182.825 32.1846 181.87 32.1846ZM181.87 30.04C182.28 30.04 182.611 29.9434 182.863 29.75C183.121 29.5508 183.309 29.2754 183.426 28.9238C183.543 28.5664 183.602 28.1445 183.602 27.6582V27.4736C183.602 27.0225 183.54 26.624 183.417 26.2783C183.3 25.9326 183.112 25.6631 182.854 25.4697C182.603 25.2705 182.269 25.1709 181.853 25.1709C181.448 25.1709 181.117 25.2705 180.859 25.4697C180.602 25.6631 180.414 25.9326 180.297 26.2783C180.18 26.624 180.121 27.0225 180.121 27.4736V27.5879C180.121 28.0801 180.18 28.5107 180.297 28.8799C180.414 29.249 180.602 29.5361 180.859 29.7412C181.117 29.9404 181.454 30.04 181.87 30.04ZM190.633 32.1846C189.695 32.1846 188.942 31.9297 188.374 31.4199C187.812 30.9043 187.53 30.21 187.53 29.3369C187.53 28.4463 187.891 27.7197 188.611 27.1572C189.332 26.5889 190.404 26.3047 191.828 26.3047H192.962V25.6719C192.962 25.25 192.839 24.9014 192.593 24.626C192.353 24.3506 191.983 24.2129 191.485 24.2129C191.245 24.2129 191.025 24.2422 190.826 24.3008C190.633 24.3594 190.454 24.4443 190.29 24.5557L190.088 25.7861H188.084L188.049 23.2373C188.564 22.9736 189.115 22.7539 189.701 22.5781C190.287 22.4023 190.938 22.3145 191.652 22.3145C192.924 22.3145 193.929 22.6074 194.667 23.1934C195.405 23.7793 195.774 24.6143 195.774 25.6982V29.4248C195.774 29.5596 195.774 29.6914 195.774 29.8203C195.78 29.9434 195.795 30.0635 195.818 30.1807L196.82 30.3389V32H193.445C193.375 31.8652 193.302 31.707 193.226 31.5254C193.149 31.3438 193.097 31.1621 193.067 30.9805C192.769 31.3496 192.426 31.6426 192.039 31.8594C191.652 32.0762 191.184 32.1846 190.633 32.1846ZM191.441 30.1543C191.734 30.1543 192.019 30.0898 192.294 29.9609C192.569 29.832 192.792 29.6562 192.962 29.4336V27.9922H191.846C191.354 27.9922 190.976 28.1035 190.712 28.3262C190.454 28.5488 190.325 28.8242 190.325 29.1523C190.325 29.4688 190.425 29.7148 190.624 29.8906C190.829 30.0664 191.102 30.1543 191.441 30.1543ZM197.866 32V30.3389L199.22 30.0664V24.4326L197.866 24.1602V22.4902H203.113V24.1602L202.023 24.4326V25.9971H202.894L204.15 24.0459C204.508 23.4775 204.886 23.0527 205.284 22.7715C205.688 22.4844 206.181 22.3408 206.761 22.3408C207.106 22.3408 207.408 22.3848 207.666 22.4727C207.93 22.5605 208.176 22.6748 208.404 22.8154L207.921 24.7666C207.786 24.7256 207.684 24.6963 207.613 24.6787C207.549 24.6611 207.476 24.6523 207.394 24.6523C207.2 24.6523 207.013 24.7168 206.831 24.8457C206.649 24.9688 206.488 25.1357 206.348 25.3467L205.293 26.9639L207.271 30.1279L208.58 30.3389V32H204.704L202.964 28.5811H202.023V30.0664L203.113 30.3389V32H197.866ZM212.693 32.1846C211.756 32.1846 211.003 31.9297 210.435 31.4199C209.872 30.9043 209.591 30.21 209.591 29.3369C209.591 28.4463 209.951 27.7197 210.672 27.1572C211.393 26.5889 212.465 26.3047 213.889 26.3047H215.022V25.6719C215.022 25.25 214.899 24.9014 214.653 24.626C214.413 24.3506 214.044 24.2129 213.546 24.2129C213.306 24.2129 213.086 24.2422 212.887 24.3008C212.693 24.3594 212.515 24.4443 212.351 24.5557L212.148 25.7861H210.145L210.109 23.2373C210.625 22.9736 211.176 22.7539 211.762 22.5781C212.348 22.4023 212.998 22.3145 213.713 22.3145C214.984 22.3145 215.989 22.6074 216.728 23.1934C217.466 23.7793 217.835 24.6143 217.835 25.6982V29.4248C217.835 29.5596 217.835 29.6914 217.835 29.8203C217.841 29.9434 217.855 30.0635 217.879 30.1807L218.881 30.3389V32H215.506C215.436 31.8652 215.362 31.707 215.286 31.5254C215.21 31.3438 215.157 31.1621 215.128 30.9805C214.829 31.3496 214.486 31.6426 214.1 31.8594C213.713 32.0762 213.244 32.1846 212.693 32.1846ZM213.502 30.1543C213.795 30.1543 214.079 30.0898 214.354 29.9609C214.63 29.832 214.853 29.6562 215.022 29.4336V27.9922H213.906C213.414 27.9922 213.036 28.1035 212.772 28.3262C212.515 28.5488 212.386 28.8242 212.386 29.1523C212.386 29.4688 212.485 29.7148 212.685 29.8906C212.89 30.0664 213.162 30.1543 213.502 30.1543ZM219.839 32L219.795 29.8115L220.05 29.8027C220.431 29.8027 220.715 29.7119 220.902 29.5303C221.09 29.3428 221.216 29.0117 221.28 28.5371C221.345 28.0625 221.377 27.3945 221.377 26.5332V24.4326L220.023 24.1602V22.4902H228.997H230.359V24.1602L228.997 24.4326V30.0664L230.359 30.3389V32H224.849V30.3389L226.202 30.0664V24.6523H224.189V26.5332C224.189 28.4082 223.888 29.7881 223.284 30.6729C222.687 31.5576 221.667 32 220.226 32H219.839ZM234.666 32.1846C233.729 32.1846 232.976 31.9297 232.407 31.4199C231.845 30.9043 231.563 30.21 231.563 29.3369C231.563 28.4463 231.924 27.7197 232.645 27.1572C233.365 26.5889 234.438 26.3047 235.861 26.3047H236.995V25.6719C236.995 25.25 236.872 24.9014 236.626 24.626C236.386 24.3506 236.017 24.2129 235.519 24.2129C235.278 24.2129 235.059 24.2422 234.859 24.3008C234.666 24.3594 234.487 24.4443 234.323 24.5557L234.121 25.7861H232.117L232.082 23.2373C232.598 22.9736 233.148 22.7539 233.734 22.5781C234.32 22.4023 234.971 22.3145 235.686 22.3145C236.957 22.3145 237.962 22.6074 238.7 23.1934C239.438 23.7793 239.808 24.6143 239.808 25.6982V29.4248C239.808 29.5596 239.808 29.6914 239.808 29.8203C239.813 29.9434 239.828 30.0635 239.852 30.1807L240.854 30.3389V32H237.479C237.408 31.8652 237.335 31.707 237.259 31.5254C237.183 31.3438 237.13 31.1621 237.101 30.9805C236.802 31.3496 236.459 31.6426 236.072 31.8594C235.686 32.0762 235.217 32.1846 234.666 32.1846ZM235.475 30.1543C235.768 30.1543 236.052 30.0898 236.327 29.9609C236.603 29.832 236.825 29.6562 236.995 29.4336V27.9922H235.879C235.387 27.9922 235.009 28.1035 234.745 28.3262C234.487 28.5488 234.358 28.8242 234.358 29.1523C234.358 29.4688 234.458 29.7148 234.657 29.8906C234.862 30.0664 235.135 30.1543 235.475 30.1543ZM241.899 32V30.3389L243.253 30.0664V24.4326L241.899 24.1602V22.4902H243.253H247.296C248.567 22.4902 249.558 22.7129 250.267 23.1582C250.976 23.5977 251.33 24.2393 251.33 25.083C251.33 25.5635 251.187 25.9766 250.899 26.3223C250.618 26.668 250.176 26.9375 249.572 27.1309C250.375 27.2773 250.958 27.5439 251.321 27.9307C251.685 28.3174 251.866 28.7891 251.866 29.3457C251.866 30.2129 251.526 30.8721 250.847 31.3232C250.173 31.7744 249.194 32 247.911 32H241.899ZM246.057 29.873H247.902C248.295 29.873 248.585 29.7998 248.772 29.6533C248.966 29.501 249.062 29.2783 249.062 28.9854C249.062 28.6982 248.975 28.4785 248.799 28.3262C248.629 28.1738 248.333 28.0977 247.911 28.0977H246.057V29.873ZM246.057 26.3223H247.384C247.788 26.3164 248.078 26.2432 248.254 26.1025C248.43 25.9561 248.518 25.7451 248.518 25.4697C248.518 24.9072 248.116 24.626 247.313 24.626H246.057V26.3223ZM252.78 35.6562V33.9863L253.993 33.7139V24.4326L252.64 24.1602V22.4902H256.604L256.718 23.5801C256.987 23.1758 257.312 22.8652 257.693 22.6484C258.074 22.4258 258.537 22.3145 259.082 22.3145C259.838 22.3145 260.485 22.5225 261.024 22.9385C261.569 23.3545 261.985 23.9375 262.272 24.6875C262.565 25.4316 262.712 26.3018 262.712 27.2979V27.4824C262.712 28.4199 262.565 29.2432 262.272 29.9521C261.985 30.6611 261.566 31.2119 261.016 31.6045C260.471 31.9912 259.814 32.1846 259.047 32.1846C258.555 32.1846 258.121 32.0967 257.746 31.9209C257.377 31.7393 257.058 31.4727 256.788 31.1211V33.7139L257.948 33.9863V35.6562H252.78ZM258.212 30.04C258.821 30.04 259.255 29.8115 259.513 29.3545C259.771 28.8975 259.899 28.2734 259.899 27.4824V27.2979C259.899 26.7354 259.841 26.2432 259.724 25.8213C259.606 25.3994 259.422 25.0713 259.17 24.8369C258.924 24.6025 258.599 24.4854 258.194 24.4854C257.884 24.4854 257.608 24.5557 257.368 24.6963C257.128 24.8311 256.935 25.0332 256.788 25.3027V29.3281C256.935 29.5625 257.128 29.7412 257.368 29.8643C257.614 29.9814 257.896 30.04 258.212 30.04ZM263.67 32V30.3389L265.015 30.0664V24.4326L263.67 24.1602V22.4902H267.836H269.005V24.1602L267.836 24.4326V27.9834L267.889 27.9922L270.657 22.4902H273.47H274.806V24.1602L273.47 24.4326V30.0664L274.806 30.3389V32H269.479V30.3389L270.657 30.0664V26.498L270.604 26.4893L267.836 32H263.67ZM279.209 32.1846C278.271 32.1846 277.519 31.9297 276.95 31.4199C276.388 30.9043 276.106 30.21 276.106 29.3369C276.106 28.4463 276.467 27.7197 277.188 27.1572C277.908 26.5889 278.98 26.3047 280.404 26.3047H281.538V25.6719C281.538 25.25 281.415 24.9014 281.169 24.626C280.929 24.3506 280.56 24.2129 280.062 24.2129C279.821 24.2129 279.602 24.2422 279.402 24.3008C279.209 24.3594 279.03 24.4443 278.866 24.5557L278.664 25.7861H276.66L276.625 23.2373C277.141 22.9736 277.691 22.7539 278.277 22.5781C278.863 22.4023 279.514 22.3145 280.229 22.3145C281.5 22.3145 282.505 22.6074 283.243 23.1934C283.981 23.7793 284.351 24.6143 284.351 25.6982V29.4248C284.351 29.5596 284.351 29.6914 284.351 29.8203C284.356 29.9434 284.371 30.0635 284.395 30.1807L285.396 30.3389V32H282.021C281.951 31.8652 281.878 31.707 281.802 31.5254C281.726 31.3438 281.673 31.1621 281.644 30.9805C281.345 31.3496 281.002 31.6426 280.615 31.8594C280.229 32.0762 279.76 32.1846 279.209 32.1846ZM280.018 30.1543C280.311 30.1543 280.595 30.0898 280.87 29.9609C281.146 29.832 281.368 29.6562 281.538 29.4336V27.9922H280.422C279.93 27.9922 279.552 28.1035 279.288 28.3262C279.03 28.5488 278.901 28.8242 278.901 29.1523C278.901 29.4688 279.001 29.7148 279.2 29.8906C279.405 30.0664 279.678 30.1543 280.018 30.1543ZM288.271 32V30.3389L289.615 30.0664V24.626H288.147L288.051 25.8564H285.941V22.4902H296.154V25.8564H294.036L293.939 24.626H292.437V30.0664L293.772 30.3389V32H288.271Z" fill="#FFF7F7"/>
<rect width="397.93" height="46.5906" transform="matrix(0.998594 -0.0530018 0.0564333 0.998406 0 58.8413)" fill="url(#paint2_linear_145_8837)"/>
<path d="M44.4399 109.878L344.689 71.7276L350.72 117.926L50.4714 156.076L44.4399 109.878Z" fill="url(#paint3_linear_145_8837)"/>
<path d="M69.9269 174.245C68.9703 174.336 68.1316 174.213 67.4108 173.876C66.6953 173.532 66.1224 173.015 65.6919 172.326C65.2667 171.631 65.0086 170.805 64.9176 169.849L64.9009 169.674C64.811 168.729 64.9096 167.878 65.1966 167.12C65.4894 166.363 65.9547 165.748 66.5925 165.275C67.2297 164.796 68.0237 164.512 68.9745 164.421C69.9253 164.331 70.7584 164.458 71.4739 164.802C72.1894 165.145 72.7594 165.662 73.1841 166.352C73.6145 167.041 73.875 167.86 73.9655 168.811L73.9821 168.986C74.0726 169.937 73.9717 170.794 73.6794 171.558C73.3924 172.315 72.93 172.93 72.2922 173.402C71.6603 173.875 70.8718 174.156 69.9269 174.245ZM69.7238 172.111C70.1321 172.072 70.4511 171.93 70.6808 171.684C70.9164 171.438 71.0734 171.108 71.1517 170.695C71.2359 170.28 71.2519 169.799 71.1998 169.251L71.1831 169.076C71.1326 168.545 71.0272 168.087 70.867 167.702C70.712 167.311 70.4954 167.014 70.2171 166.81C69.9388 166.607 69.5926 166.526 69.1785 166.565C68.7701 166.604 68.4485 166.749 68.2135 167.001C67.9785 167.253 67.8218 167.586 67.7434 167.999C67.6645 168.407 67.6503 168.876 67.7008 169.407L67.7174 169.582C67.7696 170.13 67.8735 170.603 68.029 171C68.1839 171.392 68.4003 171.686 68.678 171.883C68.9552 172.075 69.3038 172.151 69.7238 172.111ZM80.8288 173.023L80.6715 171.369L81.9931 170.97L81.9015 170.007C81.7241 170.059 81.5399 170.103 81.3491 170.139C81.1577 170.169 80.9745 170.193 80.7995 170.209C79.8429 170.3 79.0167 170.246 78.3209 170.048C77.631 169.848 77.0826 169.497 76.6757 168.995C76.2741 168.486 76.0342 167.82 75.9559 166.997L75.8502 165.886L74.4865 165.751L74.3292 164.097L78.4677 163.704L79.4564 163.609L79.6138 165.263L78.6501 165.62L78.7558 166.731C78.7924 167.116 78.8767 167.414 79.0086 167.625C79.14 167.83 79.3323 167.965 79.5856 168.029C79.8442 168.087 80.1806 168.096 80.5947 168.057C80.793 168.038 80.9791 168.014 81.153 167.986C81.3322 167.951 81.5131 167.905 81.6959 167.846L81.4595 165.361L80.4275 165.186L80.2693 163.523L85.4228 163.033L85.581 164.695L84.2593 165.095L84.793 170.703L86.1662 170.846L86.3236 172.5L80.8288 173.023ZM87.6535 172.373L87.4961 170.72L88.809 170.321L88.2754 164.713L86.9109 164.569L86.7527 162.906L91.8975 162.417L92.0556 164.079L91.0665 164.447L91.2397 166.267L94.0308 166.001L93.8576 164.182L92.8431 164.004L92.6849 162.342L93.6736 162.248L96.4735 161.981L97.8209 161.853L97.9791 163.516L96.6575 163.915L97.1911 169.524L98.5643 169.667L98.7217 171.32L93.5857 171.809L93.4283 170.155L94.3912 169.79L94.2347 168.145L91.4436 168.411L91.6001 170.056L92.6409 170.23L92.7982 171.884L87.6535 172.373ZM104.505 170.955C103.548 171.046 102.71 170.923 101.989 170.586C101.274 170.242 100.701 169.725 100.27 169.036C99.8449 168.341 99.5868 167.515 99.4958 166.559L99.4791 166.384C99.3892 165.439 99.4878 164.588 99.7748 163.83C100.068 163.073 100.533 162.458 101.171 161.985C101.808 161.506 102.602 161.222 103.553 161.131C104.503 161.041 105.337 161.168 106.052 161.512C106.768 161.855 107.338 162.372 107.762 163.062C108.193 163.75 108.453 164.57 108.544 165.521L108.56 165.696C108.651 166.647 108.55 167.504 108.258 168.268C107.971 169.025 107.508 169.64 106.87 170.112C106.238 170.584 105.45 170.866 104.505 170.955ZM104.302 168.821C104.71 168.782 105.029 168.639 105.259 168.394C105.495 168.148 105.652 167.818 105.73 167.404C105.814 166.99 105.83 166.509 105.778 165.961L105.761 165.786C105.711 165.255 105.605 164.797 105.445 164.412C105.29 164.021 105.074 163.724 104.795 163.52C104.517 163.317 104.171 163.236 103.757 163.275C103.348 163.314 103.027 163.459 102.792 163.711C102.557 163.963 102.4 164.296 102.322 164.709C102.243 165.117 102.228 165.586 102.279 166.117L102.296 166.292C102.348 166.84 102.452 167.313 102.607 167.71C102.762 168.102 102.978 168.396 103.256 168.593C103.533 168.785 103.882 168.86 104.302 168.821ZM110.089 165.807L109.885 163.654L115.012 163.166L115.217 165.319L110.089 165.807ZM121.129 169.374C120.406 169.442 119.73 169.392 119.102 169.222C118.474 169.052 117.961 168.769 117.564 168.371C117.173 167.967 116.958 167.449 116.922 166.816L116.926 166.763L119.647 166.504C119.665 166.697 119.731 166.864 119.845 167.006C119.963 167.142 120.126 167.244 120.333 167.313C120.539 167.376 120.779 167.394 121.053 167.368C121.52 167.324 121.845 167.187 122.029 166.957C122.213 166.722 122.29 166.444 122.259 166.123C122.225 165.761 122.091 165.503 121.859 165.349C121.632 165.194 121.3 165.137 120.863 165.179L119.585 165.3L119.424 163.612L120.702 163.49C121.087 163.454 121.362 163.342 121.526 163.156C121.697 162.969 121.767 162.718 121.737 162.403C121.712 162.14 121.606 161.924 121.419 161.753C121.233 161.583 120.926 161.518 120.5 161.558C120.273 161.58 120.075 161.634 119.907 161.721C119.738 161.807 119.611 161.922 119.525 162.066C119.438 162.21 119.404 162.378 119.422 162.57L116.701 162.829L116.679 162.778C116.601 162.203 116.704 161.687 116.991 161.23C117.277 160.773 117.7 160.397 118.261 160.103C118.821 159.802 119.465 159.617 120.194 159.548C121.443 159.429 122.451 159.575 123.22 159.984C123.994 160.387 124.422 161.014 124.503 161.866C124.546 162.321 124.456 162.739 124.233 163.119C124.011 163.499 123.681 163.813 123.246 164.06C124.362 164.343 124.971 165.023 125.073 166.103C125.13 166.692 125 167.219 124.685 167.685C124.376 168.144 123.914 168.52 123.301 168.814C122.693 169.107 121.969 169.294 121.129 169.374ZM129.669 168.561C128.736 168.65 127.962 168.468 127.348 168.014C126.739 167.554 126.393 166.889 126.31 166.02C126.226 165.134 126.516 164.376 127.18 163.748C127.844 163.114 128.884 162.729 130.302 162.594L131.43 162.487L131.371 161.857C131.331 161.437 131.175 161.102 130.904 160.851C130.639 160.6 130.258 160.497 129.762 160.545C129.523 160.567 129.307 160.617 129.115 160.694C128.928 160.771 128.758 160.873 128.605 160.999L128.52 162.243L126.525 162.433L126.249 159.899C126.737 159.588 127.265 159.317 127.831 159.086C128.398 158.856 129.037 158.707 129.749 158.639C131.015 158.518 132.043 158.715 132.833 159.228C133.624 159.742 134.07 160.538 134.173 161.617L134.526 165.327C134.539 165.461 134.551 165.592 134.563 165.721C134.581 165.842 134.607 165.961 134.641 166.075L135.654 166.138L135.811 167.791L132.451 168.111C132.368 167.984 132.281 167.833 132.187 167.659C132.094 167.486 132.025 167.31 131.978 167.132C131.716 167.528 131.402 167.852 131.038 168.104C130.673 168.357 130.217 168.509 129.669 168.561ZM130.281 166.463C130.573 166.436 130.85 166.345 131.112 166.19C131.374 166.036 131.579 165.84 131.727 165.602L131.59 164.167L130.479 164.273C129.989 164.319 129.623 164.466 129.382 164.713C129.147 164.959 129.044 165.245 129.075 165.572C129.105 165.887 129.228 166.122 129.443 166.278C129.664 166.434 129.943 166.496 130.281 166.463ZM141.201 167.464C140.244 167.555 139.405 167.432 138.685 167.094C137.969 166.75 137.396 166.234 136.966 165.545C136.541 164.85 136.282 164.024 136.191 163.067L136.175 162.892C136.085 161.947 136.183 161.096 136.47 160.339C136.763 159.581 137.229 158.966 137.866 158.493C138.504 158.015 139.298 157.73 140.248 157.64C141.199 157.549 142.032 157.676 142.748 158.02C143.463 158.364 144.033 158.881 144.458 159.57C144.888 160.259 145.149 161.079 145.239 162.03L145.256 162.205C145.346 163.155 145.245 164.013 144.953 164.776C144.666 165.533 144.204 166.148 143.566 166.621C142.934 167.093 142.146 167.374 141.201 167.464ZM140.998 165.329C141.406 165.29 141.725 165.148 141.955 164.902C142.19 164.656 142.347 164.327 142.426 163.913C142.51 163.499 142.526 163.018 142.474 162.469L142.457 162.294C142.406 161.764 142.301 161.306 142.141 160.921C141.986 160.529 141.769 160.232 141.491 160.029C141.213 159.826 140.866 159.744 140.452 159.783C140.044 159.822 139.722 159.968 139.487 160.22C139.252 160.472 139.096 160.804 139.017 161.218C138.938 161.626 138.924 162.095 138.975 162.626L138.991 162.801C139.043 163.349 139.147 163.822 139.303 164.219C139.458 164.61 139.674 164.905 139.952 165.102C140.229 165.293 140.578 165.369 140.998 165.329ZM152.103 166.241L151.945 164.588L153.267 164.188L153.175 163.226C152.998 163.278 152.814 163.322 152.623 163.358C152.431 163.388 152.248 163.411 152.073 163.428C151.117 163.519 150.291 163.465 149.595 163.266C148.905 163.067 148.356 162.716 147.95 162.213C147.548 161.704 147.308 161.038 147.23 160.216L147.124 159.105L145.76 158.969L145.603 157.316L149.742 156.922L150.73 156.828L150.888 158.482L149.924 158.838L150.03 159.949C150.066 160.334 150.15 160.632 150.282 160.843C150.414 161.049 150.606 161.183 150.859 161.248C151.118 161.305 151.454 161.315 151.869 161.275C152.067 161.256 152.253 161.233 152.427 161.204C152.606 161.17 152.787 161.123 152.97 161.065L152.733 158.58L151.701 158.404L151.543 156.742L156.697 156.251L156.855 157.914L155.533 158.313L156.067 163.922L157.44 164.065L157.597 165.718L152.103 166.241ZM158.927 165.592L158.77 163.938L160.083 163.54L159.549 157.931L158.185 157.787L158.027 156.125L163.171 155.635L163.329 157.298L162.34 157.666L162.513 159.485L165.305 159.22L165.131 157.4L164.117 157.223L163.959 155.56L164.947 155.466L167.747 155.2L169.095 155.072L169.253 156.734L167.931 157.134L168.465 162.742L169.838 162.885L169.995 164.539L164.859 165.027L164.702 163.374L165.665 163.008L165.509 161.364L162.717 161.629L162.874 163.274L163.915 163.449L164.072 165.102L158.927 165.592ZM175.779 164.174C174.822 164.265 173.984 164.142 173.263 163.804C172.547 163.46 171.974 162.944 171.544 162.255C171.119 161.56 170.861 160.734 170.77 159.777L170.753 159.602C170.663 158.657 170.762 157.806 171.049 157.049C171.341 156.291 171.807 155.676 172.444 155.203C173.082 154.725 173.876 154.44 174.827 154.35C175.777 154.259 176.61 154.386 177.326 154.73C178.041 155.074 178.611 155.591 179.036 156.28C179.467 156.969 179.727 157.789 179.817 158.74L179.834 158.915C179.925 159.865 179.824 160.723 179.531 161.486C179.244 162.243 178.782 162.858 178.144 163.331C177.512 163.803 176.724 164.084 175.779 164.174ZM175.576 162.039C175.984 162 176.303 161.858 176.533 161.612C176.768 161.366 176.925 161.037 177.004 160.623C177.088 160.209 177.104 159.728 177.052 159.179L177.035 159.004C176.985 158.474 176.879 158.016 176.719 157.631C176.564 157.239 176.347 156.942 176.069 156.739C175.791 156.536 175.445 156.454 175.03 156.493C174.622 156.532 174.3 156.678 174.065 156.93C173.83 157.182 173.674 157.514 173.595 157.928C173.517 158.336 173.502 158.805 173.553 159.336L173.569 159.511C173.622 160.059 173.725 160.532 173.881 160.929C174.036 161.32 174.252 161.615 174.53 161.812C174.807 162.003 175.156 162.079 175.576 162.039ZM186.043 157.829L185.835 155.642L195.32 154.74L195.528 156.927L186.043 157.829ZM201.8 161.513L201.643 159.859L203.822 159.378L203.027 151.022L200.804 151.225L200.654 149.65L205.593 148.297L206.622 159.112L208.852 159.173L209.01 160.827L201.8 161.513ZM214.347 160.504C213.554 160.58 212.808 160.504 212.109 160.276C211.41 160.042 210.836 159.673 210.388 159.168C209.945 158.657 209.697 158.03 209.644 157.288L209.658 157.251L212.355 156.827C212.405 157.358 212.594 157.761 212.92 158.036C213.246 158.305 213.654 158.416 214.144 158.369C214.698 158.317 215.081 158.077 215.294 157.651C215.506 157.224 215.583 156.705 215.525 156.093C215.458 155.387 215.267 154.837 214.953 154.443C214.644 154.043 214.204 153.87 213.633 153.924C213.207 153.965 212.88 154.084 212.651 154.282C212.423 154.481 212.269 154.722 212.19 155.006L209.674 155.095L209.731 147.903L217.247 147.188L217.534 150.207L215.872 150.365L215.549 149.575L212.233 149.89L212.145 152.671C212.292 152.545 212.46 152.429 212.65 152.323C212.846 152.216 213.061 152.125 213.295 152.049C213.529 151.974 213.775 151.924 214.031 151.9C214.858 151.803 215.576 151.897 216.186 152.18C216.795 152.458 217.279 152.906 217.638 153.525C217.997 154.139 218.219 154.9 218.306 155.81C218.382 156.615 218.282 157.358 218.006 158.037C217.735 158.716 217.291 159.277 216.674 159.718C216.062 160.153 215.286 160.415 214.347 160.504ZM224.26 159.561C222.907 159.69 221.792 159.354 220.915 158.555C220.045 157.755 219.529 156.506 219.367 154.809L219.105 152.053C218.943 150.355 219.215 149.032 219.919 148.082C220.623 147.126 221.648 146.584 222.996 146.456C224.331 146.329 225.438 146.668 226.315 147.473C227.191 148.273 227.71 149.521 227.872 151.219L228.134 153.975C228.296 155.678 228.025 157.004 227.321 157.954C226.616 158.898 225.596 159.434 224.26 159.561ZM224.057 157.426C224.57 157.377 224.94 157.118 225.166 156.65C225.398 156.18 225.467 155.447 225.372 154.449L225.068 151.256C224.974 150.27 224.766 149.569 224.444 149.152C224.128 148.735 223.713 148.551 223.2 148.6C222.675 148.649 222.296 148.909 222.064 149.379C221.837 149.842 221.771 150.569 221.866 151.56L222.169 154.754C222.265 155.757 222.471 156.468 222.787 156.885C223.103 157.296 223.526 157.477 224.057 157.426ZM230.376 158.794L230.15 156.414L232.941 156.148L233.167 158.528L230.376 158.794ZM239.152 158.144C237.799 158.273 236.684 157.938 235.807 157.138C234.936 156.338 234.42 155.089 234.259 153.392L233.997 150.636C233.835 148.938 234.106 147.615 234.811 146.665C235.514 145.709 236.54 145.167 237.887 145.039C239.223 144.912 240.329 145.251 241.207 146.056C242.083 146.856 242.602 148.104 242.764 149.802L243.026 152.558C243.188 154.261 242.917 155.588 242.213 156.537C241.508 157.481 240.488 158.017 239.152 158.144ZM238.949 156.009C239.462 155.96 239.832 155.702 240.058 155.233C240.29 154.763 240.358 154.03 240.264 153.032L239.96 149.839C239.866 148.853 239.658 148.152 239.336 147.735C239.019 147.318 238.605 147.134 238.091 147.183C237.566 147.233 237.188 147.492 236.956 147.962C236.729 148.425 236.663 149.152 236.757 150.144L237.061 153.337C237.157 154.34 237.363 155.051 237.679 155.468C237.995 155.879 238.418 156.06 238.949 156.009ZM249.389 157.17C248.036 157.299 246.921 156.964 246.044 156.164C245.173 155.364 244.657 154.115 244.496 152.418L244.234 149.662C244.072 147.964 244.343 146.641 245.048 145.691C245.751 144.735 246.777 144.193 248.124 144.065C249.46 143.938 250.566 144.277 251.444 145.082C252.32 145.882 252.839 147.13 253.001 148.828L253.263 151.584C253.425 153.287 253.154 154.614 252.45 155.563C251.745 156.507 250.725 157.043 249.389 157.17ZM249.186 155.035C249.699 154.986 250.069 154.728 250.295 154.259C250.527 153.789 250.595 153.056 250.5 152.058L250.197 148.865C250.103 147.879 249.895 147.178 249.573 146.761C249.256 146.344 248.842 146.16 248.328 146.209C247.803 146.259 247.425 146.518 247.193 146.988C246.966 147.451 246.9 148.178 246.994 149.17L247.298 152.363C247.394 153.366 247.6 154.077 247.916 154.494C248.232 154.905 248.655 155.086 249.186 155.035ZM259.626 156.196C258.273 156.325 257.158 155.989 256.281 155.19C255.41 154.39 254.894 153.141 254.733 151.444L254.471 148.688C254.309 146.99 254.58 145.667 255.285 144.717C255.988 143.761 257.014 143.219 258.361 143.091C259.697 142.964 260.803 143.303 261.681 144.108C262.557 144.908 263.076 146.156 263.238 147.854L263.5 150.61C263.662 152.313 263.391 153.64 262.687 154.589C261.982 155.533 260.962 156.069 259.626 156.196ZM259.423 154.061C259.936 154.012 260.306 153.754 260.532 153.285C260.764 152.815 260.832 152.082 260.737 151.084L260.434 147.891C260.34 146.905 260.132 146.204 259.81 145.787C259.493 145.37 259.078 145.186 258.565 145.235C258.04 145.285 257.662 145.544 257.43 146.014C257.203 146.477 257.137 147.204 257.231 148.196L257.535 151.389C257.631 152.392 257.836 153.103 258.153 153.52C258.469 153.931 258.892 154.112 259.423 154.061ZM269.894 158.706L269.736 157.044L270.918 156.658L270.038 147.418L268.665 147.275L268.507 145.613L272.453 145.237L272.67 146.312C272.9 145.884 273.194 145.544 273.553 145.292C273.911 145.034 274.361 144.879 274.904 144.828C275.656 144.756 276.321 144.902 276.897 145.265C277.478 145.628 277.948 146.168 278.305 146.888C278.667 147.601 278.895 148.453 278.989 149.445L279.007 149.629C279.096 150.562 279.028 151.395 278.803 152.129C278.585 152.862 278.22 153.45 277.709 153.893C277.203 154.329 276.568 154.584 275.804 154.657C275.314 154.703 274.874 154.657 274.484 154.518C274.099 154.372 273.756 154.137 273.454 153.812L273.7 156.393L274.881 156.555L275.039 158.217L269.894 158.706ZM274.769 152.601C275.376 152.543 275.786 152.275 275.999 151.795C276.213 151.316 276.282 150.683 276.207 149.895L276.19 149.711C276.136 149.151 276.031 148.667 275.875 148.258C275.718 147.849 275.503 147.54 275.23 147.331C274.963 147.121 274.628 147.035 274.226 147.073C273.917 147.102 273.649 147.198 273.423 147.361C273.197 147.518 273.024 147.738 272.903 148.02L273.285 152.027C273.453 152.247 273.662 152.406 273.913 152.506C274.169 152.599 274.454 152.631 274.769 152.601ZM283.482 157.599C283.243 157.622 282.99 157.625 282.724 157.609C282.463 157.593 282.204 157.562 281.947 157.516L282.077 155.455C282.196 155.467 282.315 155.473 282.432 155.474C282.557 155.48 282.674 155.478 282.785 155.467C283.152 155.432 283.465 155.317 283.723 155.122C283.988 154.932 284.157 154.668 284.231 154.332L284.335 153.854L280.485 146.327L279.252 146.268L279.094 144.606L284.431 144.098L284.589 145.76L283.442 146.046L285.207 149.93L285.341 150.227L285.394 150.222L286.617 145.726L285.491 145.674L285.332 144.012L290.25 143.544L290.408 145.207L289.329 145.468L286.611 154.856C286.483 155.303 286.297 155.724 286.052 156.118C285.807 156.513 285.476 156.841 285.06 157.105C284.65 157.373 284.124 157.538 283.482 157.599ZM296.601 152.678C295.651 152.768 294.815 152.651 294.096 152.325C293.382 151.998 292.811 151.508 292.384 150.854C291.963 150.2 291.71 149.426 291.625 148.534L291.51 147.327C291.37 145.851 291.437 144.611 291.713 143.608C291.993 142.598 292.438 141.797 293.046 141.203C293.66 140.603 294.391 140.175 295.237 139.918C295.743 139.793 296.118 139.646 296.361 139.475C296.603 139.305 296.709 139.057 296.678 138.73L298.839 138.524L298.87 138.574C298.943 139.156 298.913 139.639 298.779 140.022C298.65 140.405 298.448 140.719 298.171 140.963C297.894 141.207 297.566 141.409 297.187 141.569C296.813 141.722 296.411 141.866 295.983 142.001C295.41 142.167 294.956 142.375 294.621 142.625C294.291 142.868 294.05 143.153 293.899 143.48C293.747 143.8 293.659 144.173 293.634 144.599L293.674 144.64C293.964 144.347 294.305 144.1 294.698 143.898C295.096 143.695 295.552 143.569 296.066 143.521C296.923 143.439 297.685 143.555 298.35 143.868C299.015 144.182 299.549 144.658 299.951 145.296C300.353 145.929 300.595 146.683 300.679 147.558L300.696 147.742C300.781 148.634 300.675 149.436 300.378 150.147C300.086 150.857 299.62 151.434 298.98 151.878C298.345 152.321 297.552 152.588 296.601 152.678ZM296.398 150.543C296.807 150.504 297.127 150.377 297.359 150.16C297.597 149.938 297.758 149.646 297.841 149.285C297.924 148.918 297.942 148.492 297.896 148.008L297.879 147.824C297.836 147.375 297.737 146.984 297.582 146.652C297.432 146.319 297.22 146.068 296.945 145.9C296.676 145.726 296.334 145.658 295.92 145.697C295.517 145.736 295.197 145.866 294.959 146.089C294.721 146.306 294.56 146.592 294.476 146.947C294.392 147.303 294.371 147.705 294.414 148.154L294.425 148.268C294.471 148.758 294.571 149.181 294.722 149.537C294.874 149.894 295.088 150.162 295.364 150.341C295.639 150.515 295.984 150.582 296.398 150.543ZM301.421 153.138L305.346 138.806L307.962 138.557L304.038 152.889L301.421 153.138ZM308.973 151.315L308.816 149.662L310.12 149.264L309.586 143.656L308.231 143.511L308.073 141.848L316.533 141.043L316.875 144.639L315.134 144.805L314.892 143.371L312.407 143.608L312.92 148.998L314.284 149.141L314.442 150.795L308.973 151.315ZM323.034 150.163C322.077 150.254 321.238 150.131 320.518 149.793C319.802 149.449 319.229 148.933 318.799 148.244C318.374 147.549 318.115 146.723 318.024 145.766L318.008 145.591C317.918 144.646 318.016 143.795 318.303 143.038C318.596 142.28 319.062 141.665 319.699 141.192C320.337 140.714 321.131 140.429 322.081 140.339C323.032 140.248 323.865 140.375 324.581 140.719C325.296 141.063 325.866 141.58 326.291 142.269C326.721 142.958 326.982 143.778 327.072 144.729L327.089 144.904C327.179 145.854 327.079 146.712 326.786 147.475C326.499 148.232 326.037 148.847 325.399 149.32C324.767 149.792 323.979 150.073 323.034 150.163ZM322.831 148.028C323.239 147.989 323.558 147.847 323.788 147.602C324.023 147.355 324.18 147.026 324.259 146.612C324.343 146.198 324.359 145.717 324.307 145.168L324.29 144.993C324.239 144.463 324.134 144.005 323.974 143.62C323.819 143.228 323.602 142.931 323.324 142.728C323.046 142.525 322.699 142.443 322.285 142.483C321.877 142.521 321.555 142.667 321.32 142.919C321.085 143.171 320.929 143.503 320.85 143.917C320.771 144.325 320.757 144.794 320.808 145.325L320.824 145.5C320.876 146.048 320.98 146.521 321.136 146.918C321.291 147.309 321.507 147.604 321.785 147.801C322.062 147.992 322.411 148.068 322.831 148.028ZM328.179 152.366L327.5 147.372L328.349 147.291C328.612 146.96 328.823 146.643 328.983 146.339C329.148 146.035 329.268 145.72 329.343 145.396C329.417 145.065 329.459 144.702 329.469 144.306C329.478 143.911 329.461 143.454 329.418 142.934L329.325 141.777L327.97 141.633L327.811 139.97L336.369 139.156L337.725 139.027L337.883 140.689L336.553 141.09L337.066 146.488L338.475 146.354L338.774 151.358L336.15 151.608L335.878 148.755L330.541 149.263L330.812 152.116L328.179 152.366ZM331.544 146.996L334.3 146.734L333.812 141.607L332.141 141.766L332.209 142.668C332.283 143.574 332.257 144.385 332.132 145.104C332.006 145.822 331.81 146.453 331.544 146.996Z" fill="white"/>
<path d="M97.7434 132.675C96.7917 132.808 95.9484 132.722 95.2134 132.417C94.4834 132.105 93.8882 131.614 93.4276 130.945C92.9721 130.269 92.6777 129.456 92.5445 128.504L92.5201 128.33C92.3885 127.39 92.4493 126.535 92.7025 125.766C92.9615 124.996 93.3992 124.361 94.0154 123.861C94.6309 123.354 95.4115 123.035 96.3574 122.903C97.3032 122.77 98.1411 122.86 98.8711 123.172C99.6011 123.484 100.193 123.975 100.648 124.645C101.109 125.314 101.405 126.122 101.538 127.067L101.562 127.241C101.694 128.187 101.632 129.048 101.373 129.824C101.12 130.593 100.685 131.228 100.069 131.728C99.4587 132.228 98.6834 132.543 97.7434 132.675ZM97.446 130.551C97.8522 130.494 98.1646 130.338 98.3833 130.083C98.6077 129.826 98.7499 129.49 98.8099 129.073C98.8757 128.656 98.8704 128.174 98.7941 127.629L98.7697 127.455C98.6958 126.927 98.5702 126.474 98.3931 126.097C98.221 125.712 97.9915 125.425 97.7045 125.234C97.4174 125.044 97.0679 124.977 96.6559 125.035C96.2498 125.092 95.9348 125.252 95.7112 125.514C95.4876 125.776 95.3458 126.115 95.2858 126.532C95.2249 126.942 95.2315 127.412 95.3054 127.94L95.3298 128.114C95.4062 128.659 95.5308 129.127 95.7038 129.517C95.8759 129.901 96.105 130.186 96.3912 130.37C96.6766 130.549 97.0282 130.61 97.446 130.551ZM108.581 130.971L108.35 129.326L109.653 128.869L109.519 127.911C109.344 127.971 109.162 128.023 108.973 128.068C108.783 128.106 108.601 128.137 108.427 128.162C107.475 128.295 106.647 128.278 105.944 128.11C105.245 127.942 104.682 127.615 104.253 127.131C103.83 126.64 103.56 125.985 103.446 125.167L103.291 124.062L101.923 123.987L101.692 122.342L105.81 121.766L106.793 121.628L107.023 123.273L106.076 123.672L106.231 124.777C106.285 125.16 106.382 125.454 106.523 125.659C106.664 125.859 106.862 125.985 107.118 126.038C107.379 126.084 107.715 126.078 108.127 126.021C108.324 125.993 108.509 125.961 108.682 125.925C108.859 125.883 109.038 125.828 109.218 125.761L108.872 123.289L107.833 123.16L107.601 121.506L112.728 120.788L112.96 122.442L111.657 122.899L112.438 128.479L113.816 128.561L114.047 130.206L108.581 130.971ZM115.37 130.021L115.139 128.376L116.433 127.919L115.652 122.34L114.283 122.257L114.051 120.603L119.169 119.886L119.401 121.54L118.429 121.951L118.682 123.762L121.459 123.373L121.206 121.562L120.184 121.43L119.953 119.777L120.936 119.639L123.722 119.249L125.062 119.061L125.294 120.715L123.991 121.172L124.772 126.752L126.15 126.834L126.381 128.479L121.271 129.194L121.041 127.549L121.987 127.142L121.758 125.505L118.981 125.894L119.21 127.531L120.258 127.659L120.488 129.304L115.37 130.021ZM132.142 127.859C131.191 127.992 130.347 127.906 129.612 127.601C128.882 127.289 128.287 126.798 127.826 126.129C127.371 125.453 127.077 124.639 126.943 123.688L126.919 123.514C126.787 122.574 126.848 121.719 127.101 120.95C127.36 120.18 127.798 119.545 128.414 119.044C129.03 118.538 129.81 118.219 130.756 118.086C131.702 117.954 132.54 118.044 133.27 118.356C134 118.668 134.592 119.159 135.047 119.829C135.508 120.498 135.804 121.305 135.936 122.251L135.961 122.425C136.093 123.371 136.03 124.232 135.772 125.008C135.519 125.777 135.084 126.411 134.468 126.912C133.858 127.411 133.082 127.727 132.142 127.859ZM131.845 125.735C132.251 125.678 132.563 125.522 132.782 125.266C133.007 125.01 133.149 124.674 133.209 124.257C133.275 123.84 133.269 123.358 133.193 122.813L133.169 122.639C133.095 122.111 132.969 121.658 132.792 121.28C132.62 120.896 132.39 120.609 132.103 120.418C131.816 120.228 131.467 120.161 131.055 120.219C130.649 120.276 130.334 120.435 130.11 120.697C129.886 120.959 129.745 121.299 129.685 121.715C129.624 122.126 129.63 122.596 129.704 123.124L129.729 123.298C129.805 123.843 129.93 124.311 130.103 124.701C130.275 125.085 130.504 125.369 130.79 125.554C131.075 125.733 131.427 125.793 131.845 125.735ZM142.116 121.066L141.811 118.89L151.247 117.569L151.551 119.745L142.116 121.066ZM158.22 124.021L157.968 122.219L161.457 117.284C161.789 116.782 162.045 116.35 162.225 115.988C162.404 115.619 162.524 115.289 162.584 114.997C162.643 114.705 162.654 114.425 162.617 114.158C162.554 113.705 162.372 113.34 162.073 113.063C161.779 112.778 161.382 112.671 160.883 112.741C160.349 112.816 159.971 113.052 159.749 113.45C159.532 113.847 159.468 114.359 159.556 114.986L156.84 115.366L156.815 115.316C156.689 114.541 156.756 113.819 157.018 113.149C157.285 112.479 157.723 111.914 158.334 111.456C158.944 110.998 159.699 110.706 160.598 110.58C161.492 110.455 162.277 110.505 162.953 110.73C163.636 110.954 164.187 111.323 164.608 111.838C165.035 112.352 165.301 112.983 165.406 113.732C165.478 114.243 165.455 114.734 165.337 115.206C165.219 115.672 164.998 116.182 164.673 116.737C164.353 117.284 163.921 117.939 163.377 118.702L161.504 121.36L161.528 121.401L164.444 120.993L164.415 119.835L166.538 119.537L166.994 122.793L158.22 124.021ZM171.868 122.297C171.427 122.358 170.965 122.376 170.482 122.349C170 122.327 169.546 122.258 169.121 122.14L169.137 120.096C169.521 120.173 169.912 120.222 170.311 120.243C170.716 120.257 171.089 120.24 171.431 120.192C172.145 120.092 172.672 119.779 173.013 119.252C173.359 118.724 173.467 117.976 173.337 117.006L173.295 116.772C173.044 117.174 172.734 117.492 172.364 117.728C172.001 117.962 171.587 118.112 171.123 118.177C170.397 118.278 169.732 118.194 169.126 117.924C168.525 117.647 168.025 117.205 167.627 116.598C167.227 115.986 166.965 115.229 166.839 114.33C166.719 113.477 166.798 112.685 167.074 111.954C167.35 111.217 167.787 110.603 168.387 110.111C168.992 109.612 169.715 109.304 170.556 109.186C171.415 109.066 172.204 109.165 172.923 109.485C173.641 109.798 174.24 110.315 174.72 111.035C175.198 111.749 175.513 112.642 175.663 113.716L176.068 116.606C176.211 117.633 176.124 118.55 175.805 119.358C175.492 120.165 174.996 120.823 174.316 121.333C173.636 121.842 172.82 122.163 171.868 122.297ZM171.556 116.075C171.869 116.031 172.156 115.926 172.417 115.759C172.678 115.592 172.882 115.386 173.031 115.14L172.84 113.774C172.717 112.898 172.476 112.254 172.117 111.843C171.757 111.426 171.339 111.251 170.863 111.317C170.544 111.362 170.281 111.511 170.074 111.765C169.873 112.018 169.731 112.337 169.649 112.721C169.571 113.098 169.563 113.505 169.624 113.94C169.691 114.416 169.807 114.823 169.972 115.16C170.138 115.498 170.351 115.749 170.611 115.914C170.875 116.072 171.19 116.126 171.556 116.075ZM182.278 120.839C181.489 120.95 180.74 120.906 180.032 120.71C179.324 120.507 178.734 120.164 178.264 119.679C177.799 119.188 177.524 118.573 177.438 117.834L177.45 117.796L180.125 117.253C180.199 117.781 180.405 118.176 180.744 118.436C181.081 118.69 181.493 118.783 181.981 118.715C182.532 118.638 182.904 118.382 183.098 117.946C183.291 117.511 183.345 116.989 183.26 116.38C183.162 115.677 182.947 115.136 182.616 114.757C182.29 114.371 181.842 114.217 181.273 114.297C180.85 114.356 180.528 114.49 180.309 114.698C180.09 114.906 179.947 115.154 179.881 115.442L177.371 115.642L177.11 108.455L184.587 107.408L185.007 110.411L183.353 110.642L182.996 109.867L179.697 110.329L179.732 113.111C179.873 112.978 180.036 112.855 180.221 112.74C180.412 112.625 180.623 112.524 180.854 112.439C181.084 112.353 181.327 112.293 181.582 112.257C182.404 112.124 183.126 112.186 183.747 112.442C184.368 112.692 184.871 113.119 185.258 113.721C185.643 114.318 185.899 115.069 186.026 115.975C186.138 116.775 186.071 117.521 185.824 118.213C185.584 118.903 185.165 119.482 184.568 119.95C183.976 120.412 183.212 120.708 182.278 120.839ZM188.032 119.847L187.701 117.479L190.477 117.091L190.809 119.458L188.032 119.847ZM196.771 118.81C195.424 118.998 194.296 118.713 193.385 117.953C192.479 117.192 191.909 115.967 191.672 114.279L191.288 111.537C191.052 109.848 191.264 108.514 191.926 107.534C192.587 106.548 193.587 105.961 194.928 105.773C196.256 105.587 197.377 105.877 198.289 106.643C199.2 107.403 199.773 108.627 200.01 110.316L200.394 113.058C200.631 114.752 200.419 116.089 199.757 117.069C199.095 118.044 198.099 118.624 196.771 118.81ZM196.473 116.686C196.984 116.615 197.342 116.34 197.547 115.861C197.758 115.382 197.794 114.646 197.655 113.654L197.21 110.477C197.073 109.496 196.834 108.805 196.494 108.403C196.159 108 195.737 107.835 195.226 107.906C194.704 107.979 194.337 108.255 194.126 108.734C193.92 109.207 193.886 109.937 194.025 110.923L194.469 114.1C194.609 115.098 194.846 115.799 195.181 116.201C195.514 116.598 195.945 116.76 196.473 116.686ZM206.954 117.384C205.608 117.573 204.48 117.287 203.569 116.527C202.663 115.766 202.092 114.541 201.856 112.853L201.472 110.111C201.236 108.422 201.448 107.088 202.11 106.108C202.77 105.122 203.771 104.535 205.111 104.348C206.44 104.162 207.561 104.451 208.472 105.217C209.384 105.977 209.957 107.201 210.194 108.89L210.578 111.632C210.815 113.326 210.603 114.663 209.941 115.643C209.279 116.618 208.283 117.198 206.954 117.384ZM206.657 115.26C207.168 115.189 207.526 114.914 207.731 114.435C207.942 113.956 207.978 113.22 207.839 112.228L207.394 109.051C207.257 108.07 207.018 107.379 206.678 106.977C206.343 106.574 205.921 106.409 205.41 106.48C204.888 106.553 204.521 106.829 204.31 107.309C204.104 107.781 204.07 108.511 204.208 109.497L204.653 112.674C204.793 113.672 205.03 114.373 205.365 114.776C205.698 115.173 206.129 115.334 206.657 115.26ZM217.138 115.958C215.792 116.147 214.663 115.861 213.752 115.101C212.847 114.34 212.276 113.116 212.04 111.427L211.656 108.685C211.42 106.997 211.632 105.662 212.294 104.682C212.954 103.696 213.955 103.109 215.295 102.922C216.624 102.736 217.745 103.026 218.656 103.791C219.567 104.551 220.141 105.775 220.378 107.464L220.761 110.206C220.999 111.9 220.787 113.238 220.125 114.218C219.463 115.192 218.467 115.772 217.138 115.958ZM216.841 113.834C217.352 113.763 217.71 113.488 217.915 113.01C218.126 112.53 218.162 111.795 218.023 110.802L217.578 107.625C217.441 106.645 217.202 105.953 216.862 105.551C216.527 105.148 216.105 104.983 215.594 105.054C215.072 105.127 214.705 105.404 214.494 105.883C214.288 106.355 214.254 107.085 214.392 108.071L214.837 111.248C214.977 112.246 215.214 112.947 215.548 113.35C215.882 113.747 216.313 113.908 216.841 113.834ZM227.508 118.012L227.276 116.358L228.439 115.92L227.153 106.728L225.774 106.646L225.543 104.993L229.468 104.443L229.733 105.506C229.943 105.069 230.222 104.716 230.57 104.448C230.916 104.175 231.359 104.001 231.899 103.925C232.647 103.82 233.317 103.937 233.909 104.274C234.506 104.61 234.999 105.13 235.387 105.833C235.781 106.529 236.046 107.371 236.184 108.357L236.21 108.54C236.34 109.468 236.309 110.304 236.117 111.047C235.931 111.789 235.593 112.392 235.102 112.857C234.616 113.316 233.992 113.598 233.232 113.705C232.745 113.773 232.303 113.746 231.908 113.624C231.517 113.495 231.164 113.276 230.848 112.965L231.207 115.533L232.394 115.641L232.626 117.295L227.508 118.012ZM232.108 111.697C232.712 111.612 233.109 111.326 233.301 110.837C233.493 110.349 233.534 109.713 233.425 108.93L233.399 108.747C233.321 108.19 233.195 107.711 233.02 107.309C232.846 106.908 232.617 106.608 232.335 106.411C232.059 106.213 231.721 106.142 231.32 106.198C231.013 106.241 230.75 106.349 230.532 106.522C230.312 106.688 230.149 106.915 230.041 107.203L230.599 111.189C230.777 111.401 230.993 111.551 231.248 111.64C231.508 111.722 231.795 111.741 232.108 111.697ZM241.033 116.304C240.795 116.338 240.543 116.352 240.276 116.348C240.015 116.343 239.755 116.324 239.496 116.289L239.535 114.225C239.655 114.231 239.773 114.233 239.891 114.228C240.015 114.228 240.132 114.221 240.243 114.205C240.608 114.154 240.915 114.025 241.165 113.819C241.42 113.617 241.578 113.347 241.637 113.007L241.72 112.525L237.541 105.176L236.306 105.172L236.075 103.518L241.384 102.774L241.616 104.428L240.483 104.764L242.417 108.567L242.564 108.857L242.617 108.85L243.64 104.305L242.512 104.303L242.281 102.649L247.173 101.964L247.404 103.618L246.338 103.927L244.038 113.425C243.93 113.878 243.762 114.307 243.535 114.712C243.308 115.116 242.992 115.459 242.587 115.741C242.19 116.027 241.672 116.215 241.033 116.304ZM253.922 110.808C252.976 110.94 252.137 110.86 251.403 110.566C250.676 110.271 250.084 109.807 249.628 109.173C249.179 108.537 248.892 107.776 248.767 106.888L248.599 105.687C248.394 104.219 248.406 102.978 248.637 101.963C248.873 100.942 249.281 100.122 249.863 99.5018C250.45 98.8753 251.16 98.4149 251.995 98.1206C252.495 97.9737 252.862 97.8098 253.097 97.629C253.332 97.4481 253.427 97.1953 253.382 96.8703L255.532 96.5693L255.565 96.6178C255.664 97.1957 255.655 97.6792 255.537 98.0683C255.426 98.4566 255.238 98.7789 254.972 99.035C254.706 99.2911 254.387 99.5074 254.015 99.6837C253.649 99.8533 253.254 100.015 252.832 100.169C252.267 100.36 251.823 100.588 251.499 100.852C251.18 101.11 250.952 101.405 250.815 101.738C250.677 102.065 250.606 102.442 250.601 102.869L250.642 102.907C250.918 102.602 251.248 102.34 251.632 102.121C252.021 101.901 252.471 101.755 252.982 101.683C253.835 101.564 254.601 101.646 255.279 101.929C255.958 102.213 256.512 102.665 256.942 103.285C257.372 103.9 257.647 104.642 257.769 105.512L257.795 105.695C257.919 106.583 257.848 107.389 257.583 108.112C257.323 108.835 256.883 109.432 256.263 109.903C255.648 110.374 254.868 110.676 253.922 110.808ZM253.625 108.684C254.031 108.627 254.345 108.486 254.568 108.259C254.796 108.026 254.943 107.727 255.011 107.363C255.077 106.993 255.077 106.567 255.009 106.085L254.984 105.902C254.921 105.456 254.805 105.07 254.635 104.744C254.471 104.418 254.248 104.177 253.966 104.021C253.689 103.859 253.344 103.807 252.932 103.864C252.532 103.921 252.218 104.065 251.99 104.298C251.762 104.525 251.613 104.818 251.545 105.177C251.477 105.536 251.474 105.938 251.537 106.385L251.553 106.498C251.621 106.986 251.739 107.404 251.906 107.753C252.073 108.103 252.299 108.361 252.582 108.528C252.865 108.69 253.213 108.742 253.625 108.684ZM258.758 111.054L262.045 96.5626L264.647 96.1982L261.36 110.689L258.758 111.054ZM266.222 108.899L265.991 107.254L267.277 106.799L266.495 101.22L265.135 101.135L264.903 99.4816L273.32 98.3031L273.821 101.881L272.089 102.123L271.783 100.701L269.311 101.048L270.062 106.409L271.431 106.493L271.662 108.138L266.222 108.899ZM280.217 107.126C279.266 107.26 278.422 107.173 277.687 106.868C276.957 106.556 276.362 106.066 275.902 105.396C275.446 104.721 275.152 103.907 275.018 102.955L274.994 102.781C274.863 101.841 274.923 100.987 275.177 100.217C275.436 99.4476 275.873 98.8124 276.489 98.3119C277.105 97.8057 277.886 97.4864 278.831 97.3539C279.777 97.2215 280.615 97.3113 281.345 97.6232C282.075 97.9352 282.667 98.4261 283.122 99.0961C283.583 99.7653 283.879 100.573 284.012 101.519L284.036 101.693C284.168 102.639 284.106 103.499 283.847 104.275C283.594 105.044 283.159 105.679 282.543 106.179C281.933 106.679 281.157 106.995 280.217 107.126ZM279.92 105.002C280.326 104.946 280.639 104.789 280.857 104.534C281.082 104.278 281.224 103.941 281.284 103.525C281.35 103.107 281.344 102.626 281.268 102.08L281.244 101.906C281.17 101.378 281.044 100.925 280.867 100.548C280.695 100.164 280.465 99.8763 280.178 99.6858C279.891 99.4952 279.542 99.4288 279.13 99.4864C278.724 99.5433 278.409 99.7028 278.185 99.9648C277.962 100.227 277.82 100.566 277.76 100.983C277.699 101.394 277.706 101.863 277.779 102.391L277.804 102.565C277.88 103.111 278.005 103.578 278.178 103.968C278.35 104.353 278.579 104.637 278.865 104.822C279.151 105.001 279.502 105.061 279.92 105.002ZM285.455 109.1L284.556 104.14L285.401 104.022C285.648 103.68 285.845 103.353 285.991 103.043C286.143 102.732 286.249 102.412 286.31 102.084C286.369 101.751 286.395 101.386 286.387 100.991C286.379 100.595 286.342 100.139 286.275 99.622L286.132 98.4706L284.771 98.386L284.54 96.7322L293.052 95.5403L294.401 95.3514L294.633 97.0052L293.322 97.4639L294.074 102.834L295.475 102.638L295.995 107.624L293.384 107.99L292.987 105.152L287.677 105.895L288.075 108.733L285.455 109.1ZM288.579 103.586L291.321 103.202L290.606 98.1015L288.944 98.3342L289.052 99.2332C289.166 100.134 289.177 100.946 289.083 101.67C288.989 102.393 288.821 103.031 288.579 103.586Z" fill="white"/>
<path d="M58.8497 85.3875L58.7547 83.87L60.0891 83.5223L60.0468 82.8468L59.9415 82.8534C58.883 82.9197 57.9386 82.791 57.1081 82.4672C56.2777 82.1435 55.6128 81.6509 55.1134 80.9894C54.6137 80.322 54.3344 79.5176 54.2754 78.5761C54.215 77.6112 54.3906 76.7577 54.802 76.0157C55.2193 75.2733 55.8163 74.6812 56.5929 74.2392C57.3751 73.791 58.2953 73.5338 59.3538 73.4675L59.4591 73.4609L59.4157 72.7679L58.0483 72.5894L57.9533 71.0718L63.4445 70.728L63.5395 72.2455L62.2139 72.5927L62.2573 73.2857L62.3187 73.2819C63.3772 73.2156 64.3222 73.3531 65.1537 73.6944C65.9853 74.0356 66.6515 74.5487 67.1523 75.2336C67.6586 75.9123 67.9419 76.7341 68.0023 77.699C68.0613 78.6405 67.8816 79.4737 67.4632 80.1985C67.0506 80.923 66.4498 81.5007 65.6607 81.9317C64.8771 82.3565 63.959 82.6019 62.9064 82.6678L62.845 82.6716L62.8873 83.347L64.2459 83.5262L64.3409 85.0437L58.8497 85.3875ZM59.824 80.9762L59.9292 80.9696L59.5788 75.3732L59.4736 75.3798C58.9472 75.4127 58.495 75.5497 58.1167 75.7906C57.7384 76.0315 57.4516 76.3723 57.2561 76.8131C57.0602 77.2481 56.9819 77.7784 57.021 78.4042C57.0588 79.0065 57.2015 79.5054 57.4494 79.9008C57.6969 80.2904 58.0229 80.5753 58.4276 80.7554C58.8322 80.9356 59.2977 81.0092 59.824 80.9762ZM62.7275 80.7944L62.8064 80.7895C63.3327 80.7565 63.7854 80.6254 64.1644 80.3962C64.5489 80.1608 64.8365 79.8316 65.0272 79.4087C65.2176 78.98 65.2941 78.4674 65.2567 77.8709C65.2172 77.2393 65.0761 76.7198 64.8333 76.3123C64.5902 75.8989 64.2631 75.5965 63.8519 75.405C63.4465 75.2132 62.9807 75.1338 62.4543 75.1667L62.3771 75.198L62.7275 80.7944ZM73.8655 83.8573C72.9064 83.9174 72.0721 83.7671 71.3627 83.4064C70.6587 83.0395 70.1027 82.5048 69.6947 81.8024C69.2922 81.0938 69.0609 80.2599 69.0009 79.3008L68.9899 79.1254C68.9306 78.178 69.0566 77.3306 69.3679 76.5831C69.6851 75.8353 70.17 75.2355 70.8227 74.7836C71.4751 74.3259 72.2779 74.0673 73.2311 74.0076C74.1843 73.9479 75.0129 74.1015 75.7169 74.4684C76.4209 74.8352 76.974 75.3701 77.3761 76.0729C77.7841 76.7753 78.0179 77.6032 78.0776 78.5564L78.0886 78.7318C78.1482 79.685 78.0197 80.5385 77.7029 81.2922C77.3916 82.0396 76.9095 82.6393 76.2568 83.0911C75.6099 83.5426 74.8128 83.798 73.8655 83.8573ZM73.7314 81.717C74.1408 81.6913 74.4642 81.5595 74.7018 81.3216C74.9452 81.0832 75.1127 80.7587 75.2044 80.3478C75.302 79.9366 75.3335 79.4562 75.2991 78.9065L75.2881 78.731C75.2548 78.1989 75.1643 77.7378 75.0166 77.3478C74.8744 76.9517 74.6674 76.6476 74.3959 76.4356C74.1243 76.2237 73.7809 76.1307 73.3657 76.1567C72.9563 76.1823 72.6301 76.3172 72.3871 76.5614C72.1441 76.8056 71.9767 77.1331 71.885 77.5439C71.793 77.9489 71.7636 78.4175 71.7969 78.9496L71.8079 79.1251C71.8423 79.6748 71.9308 80.1506 72.0734 80.5527C72.2156 80.9489 72.4224 81.25 72.6936 81.4561C72.9644 81.6564 73.3104 81.7433 73.7314 81.717ZM79.5473 86.98L79.4429 85.3134L80.6364 84.9656L80.0564 75.7025L78.6885 75.5152L78.5842 73.8485L82.5403 73.6008L82.7224 74.6814C82.9662 74.261 83.2713 73.9308 83.6379 73.6906C84.0041 73.4446 84.4591 73.3045 85.003 73.2705C85.7574 73.2233 86.4165 73.3904 86.9806 73.7719C87.5504 74.1531 88.002 74.7089 88.3355 75.4395C88.6744 76.1639 88.8749 77.0232 88.9372 78.0173L88.9487 78.2015C89.0073 79.1372 88.9126 79.968 88.6645 80.6939C88.4222 81.4194 88.0385 81.9953 87.5133 82.4215C86.9937 82.8415 86.3508 83.0755 85.5847 83.1235C85.0935 83.1543 84.6552 83.0936 84.27 82.9416C83.8902 82.7834 83.5548 82.5373 83.2639 82.2033L83.4259 84.791L84.6008 84.9904L84.7052 86.6571L79.5473 86.98ZM84.6173 81.0353C85.2255 80.9973 85.644 80.7421 85.8727 80.2699C86.1015 79.7976 86.1911 79.1667 86.1417 78.3773L86.1302 78.1931C86.095 77.6317 86.0058 77.1441 85.8625 76.7304C85.7191 76.3166 85.5144 76.0007 85.2483 75.7825C84.9881 75.564 84.6562 75.4674 84.2527 75.4926C83.9427 75.512 83.6723 75.5994 83.4413 75.7548C83.21 75.9043 83.0296 76.1181 82.9003 76.3963L83.1518 80.4138C83.3127 80.6386 83.5168 80.8048 83.7643 80.9126C84.0172 81.0142 84.3016 81.0551 84.6173 81.0353ZM90.2486 82.6465L90.1448 80.9887L91.4786 80.6322L91.1265 75.0094L89.7586 74.822L89.6543 73.1554L91.0052 73.0708L94.4437 72.8555L97.0661 79.0142L97.1188 79.0109L98.9788 72.5715L102.496 72.3513L103.83 72.2678L103.934 73.9344L102.618 74.2899L102.97 79.9126L104.32 80.1011L104.424 81.759L99.4503 82.0704L99.3465 80.4125L100.163 80.0884L99.9469 76.641L99.8943 76.6443L98.231 82.1467L96.3626 82.2637L94.1246 77.1817L94.0725 77.1938L94.2768 80.4569L95.136 80.6761L95.2398 82.334L90.2486 82.6465ZM108.795 81.6702C107.859 81.7288 107.092 81.5214 106.493 81.0482C105.899 80.5687 105.575 79.8933 105.521 79.022C105.465 78.1331 105.779 77.3854 106.463 76.779C107.147 76.1667 108.2 75.8161 109.621 75.7271L110.752 75.6563L110.713 75.0247C110.686 74.6036 110.542 74.2634 110.279 74.0039C110.022 73.7441 109.645 73.6297 109.148 73.6608C108.908 73.6758 108.691 73.7188 108.495 73.7897C108.306 73.8603 108.133 73.9563 107.976 74.0776L107.851 75.3183L105.851 75.4435L105.657 72.9019C106.155 72.6065 106.691 72.3528 107.265 72.1407C107.839 71.9287 108.482 71.8003 109.196 71.7557C110.465 71.6762 111.486 71.9058 112.26 72.4445C113.033 72.9831 113.454 73.7934 113.521 74.8752L113.754 78.5945C113.763 78.729 113.771 78.8606 113.779 78.9892C113.792 79.1117 113.815 79.2307 113.845 79.3461L114.855 79.4414L114.959 81.0993L111.591 81.3102C111.512 81.1801 111.429 81.0268 111.342 80.8503C111.254 80.6737 111.19 80.4958 111.15 80.3163C110.874 80.7034 110.551 81.0172 110.178 81.2578C109.806 81.4983 109.345 81.6358 108.795 81.6702ZM109.475 79.5934C109.768 79.5751 110.047 79.493 110.314 79.3471C110.581 79.2012 110.792 79.0119 110.948 78.779L110.858 77.3405L109.744 77.4102C109.252 77.441 108.882 77.5757 108.633 77.8144C108.39 78.0527 108.278 78.3356 108.299 78.6631C108.318 78.9789 108.433 79.2183 108.643 79.3813C108.859 79.5439 109.136 79.6146 109.475 79.5934ZM124.742 80.6717C123.783 80.7317 122.949 80.5814 122.24 80.2207C121.536 79.8539 120.98 79.3192 120.572 78.6168C120.169 77.9081 119.938 77.0742 119.878 76.1152L119.867 75.9398C119.808 74.9924 119.934 74.145 120.245 73.3975C120.562 72.6496 121.047 72.0498 121.7 71.598C122.352 71.1403 123.155 70.8816 124.108 70.8219C125.061 70.7622 125.89 70.9158 126.594 71.2827C127.298 71.6496 127.851 72.1844 128.253 72.8873C128.661 73.5897 128.895 74.4175 128.955 75.3707L128.965 75.5462C129.025 76.4994 128.897 77.3528 128.58 78.1065C128.268 78.854 127.786 79.4537 127.134 79.9055C126.487 80.3569 125.69 80.6123 124.742 80.6717ZM124.608 78.5313C125.018 78.5057 125.341 78.3739 125.579 78.1359C125.822 77.8976 125.99 77.573 126.081 77.1622C126.179 76.751 126.21 76.2705 126.176 75.7208L126.165 75.5454C126.132 75.0132 126.041 74.5522 125.894 74.1622C125.751 73.766 125.544 73.4619 125.273 73.25C125.001 73.038 124.658 72.945 124.243 72.971C123.833 72.9967 123.507 73.1316 123.264 73.3758C123.021 73.6199 122.854 73.9474 122.762 74.3583C122.67 74.7633 122.641 75.2318 122.674 75.764L122.685 75.9394C122.719 76.4891 122.808 76.965 122.95 77.367C123.093 77.7632 123.299 78.0644 123.571 78.2705C123.841 78.4707 124.187 78.5577 124.608 78.5313ZM134.979 80.0307C134.026 80.0904 133.195 79.9457 132.486 79.5968C131.783 79.2474 131.229 78.7391 130.823 78.0717C130.423 77.404 130.195 76.6228 130.139 75.7281L130.064 74.5175C129.971 73.038 130.078 71.8013 130.386 70.8075C130.699 69.8075 131.169 69.0207 131.797 68.4471C132.43 67.8674 133.174 67.4627 134.028 67.2331C134.538 67.1248 134.917 66.9895 135.165 66.8272C135.413 66.6649 135.527 66.42 135.507 66.0926L137.673 65.9569L137.703 66.0079C137.757 66.5916 137.711 67.0729 137.564 67.452C137.424 67.8306 137.211 68.1375 136.926 68.3725C136.642 68.6076 136.307 68.7988 135.923 68.9461C135.544 69.0873 135.139 69.2183 134.706 69.3394C134.128 69.4871 133.668 69.6803 133.324 69.919C132.987 70.1515 132.737 70.4284 132.575 70.7497C132.413 71.0651 132.313 71.4354 132.275 71.8605L132.313 71.9021C132.612 71.6192 132.961 71.3831 133.36 71.1937C133.765 71.0039 134.225 70.893 134.74 70.8607C135.599 70.8069 136.357 70.9474 137.012 71.2821C137.667 71.6168 138.185 72.1098 138.566 72.7611C138.947 73.4065 139.165 74.1678 139.22 75.045L139.231 75.2292C139.287 76.1239 139.155 76.9218 138.835 77.6229C138.521 78.3236 138.037 78.8852 137.382 79.3078C136.733 79.73 135.932 79.971 134.979 80.0307ZM134.845 77.8903C135.255 77.8647 135.579 77.7475 135.818 77.5388C136.063 77.3239 136.233 77.0373 136.328 76.6791C136.423 76.3151 136.455 75.8903 136.424 75.405L136.413 75.2208C136.385 74.7705 136.298 74.3766 136.154 74.0393C136.015 73.7016 135.811 73.4443 135.542 73.2675C135.278 73.0844 134.939 73.0058 134.523 73.0318C134.12 73.0571 133.796 73.1772 133.551 73.3921C133.306 73.6012 133.135 73.8819 133.04 74.2343C132.945 74.5866 132.911 74.988 132.939 75.4383L132.946 75.5523C132.977 76.0435 133.062 76.4697 133.202 76.8308C133.343 77.1919 133.548 77.4667 133.818 77.6553C134.087 77.838 134.43 77.9163 134.845 77.8903ZM143.532 83.1586C143.292 83.1736 143.04 83.1688 142.774 83.1444C142.514 83.1196 142.256 83.0799 142 83.0255L142.197 80.9701C142.316 80.9862 142.434 80.9964 142.552 81.0008C142.676 81.0106 142.793 81.0121 142.904 81.0051C143.273 80.982 143.589 80.8771 143.853 80.6903C144.124 80.509 144.301 80.2513 144.386 79.9172L144.506 79.443L140.901 71.7959L139.671 71.6968L139.566 70.0301L144.917 69.6951L145.022 71.3618L143.866 71.6102L145.504 75.5498L145.628 75.8502L145.681 75.8469L147.049 71.3933L145.925 71.3052L145.821 69.6385L150.75 69.3298L150.855 70.9965L149.768 71.2231L146.748 80.5178C146.606 80.9612 146.406 81.3759 146.148 81.7619C145.891 82.1479 145.549 82.4657 145.125 82.7154C144.706 82.9706 144.175 83.1183 143.532 83.1586ZM157.503 78.4355L157.399 76.7776L158.733 76.4211L158.672 75.4561C158.493 75.5026 158.308 75.5406 158.116 75.5702C157.924 75.594 157.74 75.6114 157.564 75.6224C156.605 75.6824 155.781 75.6019 155.092 75.3809C154.409 75.1595 153.872 74.7909 153.482 74.2753C153.097 73.7534 152.879 73.0802 152.827 72.2556L152.757 71.1416L151.399 70.9625L151.295 69.3046L155.444 69.0448L156.435 68.9827L156.539 70.6406L155.564 70.9658L155.634 72.0798C155.658 72.4658 155.733 72.7664 155.858 72.9817C155.982 73.1911 156.17 73.332 156.421 73.4043C156.678 73.4704 157.014 73.4905 157.429 73.4645C157.628 73.4521 157.815 73.4345 157.989 73.4118C158.17 73.3829 158.352 73.3421 158.537 73.2895L158.381 70.7983L157.355 70.5895L157.25 68.9229L162.417 68.5993L162.521 70.266L161.188 70.6225L161.54 76.2453L162.908 76.4326L163.011 78.0905L157.503 78.4355ZM168.768 77.915C167.85 77.9725 167.037 77.8238 166.328 77.469C165.618 77.1083 165.052 76.5919 164.628 75.9198C164.21 75.2415 163.973 74.4579 163.917 73.569L163.896 73.2269C163.836 72.2796 163.956 71.4296 164.256 70.677C164.554 69.9185 165.015 69.3114 165.639 68.8556C166.261 68.3939 167.026 68.1346 167.932 68.0779C168.792 68.0241 169.528 68.1453 170.139 68.4417C170.751 68.738 171.229 69.1983 171.573 69.8225C171.923 70.4406 172.126 71.2086 172.184 72.1267L172.277 73.618L166.865 73.9569L166.86 74.01C166.917 74.3704 167.037 74.6858 167.218 74.9563C167.405 75.2205 167.65 75.4253 167.952 75.5708C168.261 75.7158 168.629 75.775 169.055 75.7483C169.494 75.7208 169.906 75.6422 170.291 75.5124C170.682 75.3822 171.073 75.1934 171.462 74.9459L172.271 76.6125C171.881 76.9481 171.388 77.2372 170.793 77.48C170.204 77.7224 169.529 77.8674 168.768 77.915ZM166.761 72.1581L169.568 71.9823L169.554 71.7542C169.531 71.3917 169.468 71.0874 169.365 70.8414C169.267 70.5892 169.114 70.4021 168.907 70.2801C168.705 70.1577 168.444 70.1065 168.122 70.1267C167.795 70.1472 167.531 70.2459 167.331 70.4228C167.13 70.5997 166.984 70.8349 166.89 71.1284C166.803 71.4216 166.75 71.7507 166.732 72.1159L166.761 72.1581ZM173.853 77.4117L173.75 75.7538L175.075 75.3978L174.723 69.775L173.363 69.5871L173.259 67.9205L178.417 67.5975L178.521 69.2642L177.521 69.5998L177.635 71.4244L180.433 71.2492L180.319 69.4246L179.311 69.2147L179.206 67.5481L180.198 67.486L183.005 67.3103L184.356 67.2257L184.46 68.8923L183.126 69.2488L183.478 74.8716L184.846 75.059L184.95 76.7169L179.801 77.0393L179.697 75.3814L180.671 75.0474L180.568 73.3983L177.77 73.5735L177.873 75.2226L178.907 75.4308L179.011 77.0887L173.853 77.4117ZM186.327 76.6306L186.223 74.9727L187.548 74.6168L187.196 68.994L185.837 68.8061L185.733 67.1394L189.891 66.8791L191.057 66.806L191.162 68.4727L190.012 68.8177L190.234 72.3615L190.287 72.367L192.706 66.7028L195.513 66.527L196.847 66.4435L196.951 68.1102L195.635 68.4656L195.987 74.0884L197.337 74.2768L197.441 75.9347L192.125 76.2676L192.021 74.6097L193.18 74.2642L192.957 70.7028L192.904 70.6973L190.485 76.3703L186.327 76.6306ZM198.897 75.8435L198.793 74.1857L199.723 73.9778L200.687 71.936C200.155 71.6875 199.738 71.3614 199.437 70.9575C199.135 70.5478 198.968 70.0769 198.934 69.5447C198.895 68.9132 199.032 68.3468 199.347 67.8457C199.662 67.3387 200.124 66.9282 200.732 66.6142C201.347 66.2998 202.078 66.116 202.926 66.0629L208.496 65.7141L208.6 67.3808L207.275 67.7368L207.627 73.3595L208.986 73.5474L209.09 75.2053L203.95 75.5272L203.846 73.8693L204.838 73.5342L204.757 72.2447L203.652 72.3139L202.301 75.6304L198.897 75.8435ZM203.194 70.4933L204.642 70.4026L204.498 68.1044L203.059 68.1945C202.62 68.2219 202.286 68.3662 202.056 68.6272C201.825 68.8823 201.719 69.159 201.738 69.4572C201.757 69.7555 201.893 70.0111 202.147 70.2242C202.407 70.431 202.756 70.5207 203.194 70.4933ZM214.748 74.8511L214.644 73.1932L215.969 72.8372L215.617 67.2144L214.258 67.0265L214.154 65.3599L218.312 65.0995L219.478 65.0265L219.583 66.6931L218.433 67.0381L218.655 70.582L218.708 70.5874L221.127 64.9232L223.934 64.7475L225.268 64.664L225.372 66.3306L224.056 66.686L224.408 72.3088L225.758 72.4973L225.862 74.1552L220.546 74.488L220.442 72.8301L221.601 72.4846L221.378 68.9232L221.325 68.9177L218.906 74.5907L214.748 74.8511ZM235.952 73.7083C235.028 73.7661 234.217 73.6114 233.519 73.2442C232.826 72.8707 232.276 72.3357 231.869 71.6391C231.467 70.9363 231.236 70.12 231.178 69.1902L231.163 68.9533C231.104 68.0118 231.236 67.167 231.559 66.4187C231.882 65.6705 232.365 65.0709 233.006 64.6198C233.647 64.1687 234.417 63.9149 235.318 63.8585C236.195 63.8036 236.958 63.8909 237.606 64.1203C238.255 64.3498 238.779 64.6164 239.18 64.9201L239.323 67.7731L237.218 67.9049L236.76 66.2164C236.636 66.1068 236.475 66.02 236.277 65.956C236.079 65.8921 235.896 65.8654 235.726 65.876C235.27 65.9046 234.905 66.036 234.632 66.2704C234.365 66.4985 234.177 66.8214 234.068 67.2392C233.965 67.6566 233.932 68.1694 233.97 68.7776L233.985 69.0144C234.025 69.6518 234.136 70.1615 234.319 70.5434C234.501 70.9195 234.726 71.1901 234.995 71.3553C235.269 71.5143 235.552 71.5846 235.845 71.5663C236.26 71.5403 236.578 71.4147 236.799 71.1895C237.025 70.9581 237.178 70.6403 237.258 70.2361L239.636 70.0872L239.674 70.1377C239.596 70.8588 239.423 71.4772 239.156 71.993C238.894 72.5025 238.506 72.9026 237.99 73.1932C237.473 73.4839 236.794 73.6555 235.952 73.7083ZM243.195 73.0698L243.091 71.412L244.416 71.056L244.076 65.6262L242.612 65.7179L242.592 66.952L240.487 67.0838L240.276 63.7242L250.469 63.086L250.68 66.4456L248.566 66.578L248.392 65.356L246.892 65.4499L247.232 70.8797L248.583 71.0681L248.686 72.726L243.195 73.0698ZM256.408 72.4274C255.449 72.4875 254.615 72.3372 253.906 71.9765C253.202 71.6096 252.646 71.075 252.238 70.3725C251.835 69.6639 251.604 68.83 251.544 67.871L251.533 67.6955C251.473 66.7482 251.599 65.9007 251.911 65.1533C252.228 64.4054 252.713 63.8056 253.366 63.3537C254.018 62.8961 254.821 62.6374 255.774 62.5777C256.727 62.518 257.556 62.6716 258.26 63.0385C258.964 63.4054 259.517 63.9402 259.919 64.643C260.327 65.3455 260.561 66.1733 260.62 67.1265L260.631 67.3019C260.691 68.2551 260.563 69.1086 260.246 69.8623C259.934 70.6098 259.452 71.2094 258.8 71.6613C258.153 72.1127 257.356 72.3681 256.408 72.4274ZM256.274 70.2871C256.684 70.2615 257.007 70.1297 257.245 69.8917C257.488 69.6534 257.656 69.3288 257.747 68.9179C257.845 68.5067 257.876 68.0263 257.842 67.4766L257.831 67.3012C257.798 66.769 257.707 66.3079 257.559 65.918C257.417 65.5218 257.21 65.2177 256.939 65.0058C256.667 64.7938 256.324 64.7008 255.909 64.7268C255.499 64.7524 255.173 64.8873 254.93 65.1315C254.687 65.3757 254.52 65.7032 254.428 66.114C254.336 66.519 254.306 66.9876 254.34 67.5198L254.351 67.6952C254.385 68.2449 254.474 68.7208 254.616 69.1228C254.759 69.519 254.965 69.8201 255.236 70.0262C255.507 70.2265 255.853 70.3135 256.274 70.2871ZM262.063 71.8884L261.96 70.2305L263.285 69.8746L262.933 64.2518L261.574 64.0639L261.469 62.3972L265.627 62.1369L266.794 62.0638L266.898 63.7305L265.748 64.0755L265.97 67.6193L266.024 67.6248L268.443 61.9606L271.25 61.7848L272.583 61.7013L272.688 63.368L271.371 63.7234L271.723 69.3462L273.074 69.5346L273.177 71.1925L267.862 71.5253L267.758 69.8675L268.916 69.5219L268.693 65.9605L268.64 65.9551L266.221 71.6281L262.063 71.8884ZM274.616 71.1024L274.512 69.4445L275.846 69.088L275.494 63.4652L274.126 63.2779L274.022 61.6112L275.373 61.5267L278.811 61.3114L281.434 67.4701L281.486 67.4668L283.346 61.0274L286.864 60.8071L288.197 60.7237L288.301 62.3903L286.985 62.7457L287.337 68.3685L288.688 68.557L288.791 70.2148L283.818 70.5263L283.714 68.8684L284.53 68.5443L284.314 65.0969L284.262 65.1002L282.598 70.6026L280.73 70.7196L278.492 65.6376L278.44 65.6497L278.644 68.9128L279.503 69.132L279.607 70.7899L274.616 71.1024ZM294.549 70.0393C293.589 70.0993 292.755 69.949 292.046 69.5884C291.342 69.2215 290.786 68.6868 290.378 67.9844C289.975 67.2757 289.744 66.4419 289.684 65.4828L289.673 65.3074C289.614 64.36 289.74 63.5126 290.051 62.7651C290.368 62.0173 290.853 61.4174 291.506 60.9656C292.158 60.5079 292.961 60.2492 293.914 60.1896C294.867 60.1299 295.696 60.2835 296.4 60.6504C297.104 61.0172 297.657 61.5521 298.059 62.2549C298.467 62.9573 298.701 63.7851 298.761 64.7384L298.772 64.9138C298.831 65.867 298.703 66.7205 298.386 67.4742C298.075 68.2216 297.593 68.8213 296.94 69.2731C296.293 69.7246 295.496 69.98 294.549 70.0393ZM294.414 67.8989C294.824 67.8733 295.147 67.7415 295.385 67.5036C295.628 67.2652 295.796 66.9406 295.887 66.5298C295.985 66.1186 296.017 65.6382 295.982 65.0885L295.971 64.913C295.938 64.3809 295.847 63.9198 295.7 63.5298C295.557 63.1336 295.35 62.8296 295.079 62.6176C294.807 62.4057 294.464 62.3127 294.049 62.3387C293.639 62.3643 293.313 62.4992 293.07 62.7434C292.827 62.9876 292.66 63.3151 292.568 63.7259C292.476 64.1309 292.447 64.5995 292.48 65.1316L292.491 65.3071C292.525 65.8568 292.614 66.3326 292.756 66.7347C292.899 67.1308 293.105 67.432 293.377 67.6381C293.647 67.8384 293.993 67.9253 294.414 67.8989ZM304.566 69.412C303.642 69.4699 302.831 69.3152 302.133 68.948C301.44 68.5745 300.89 68.0395 300.482 67.3429C300.08 66.6401 299.85 65.8238 299.792 64.8939L299.777 64.6571C299.718 63.7156 299.85 62.8707 300.173 62.1225C300.496 61.3743 300.978 60.7746 301.619 60.3236C302.26 59.8725 303.031 59.6187 303.932 59.5623C304.809 59.5074 305.572 59.5947 306.22 59.8241C306.868 60.0536 307.393 60.3201 307.794 60.6238L307.937 63.4769L305.832 63.6087L305.374 61.9202C305.25 61.8105 305.089 61.7237 304.891 61.6598C304.693 61.5959 304.509 61.5692 304.34 61.5798C303.884 61.6084 303.519 61.7398 303.246 61.9741C302.979 62.2022 302.79 62.5252 302.681 62.943C302.578 63.3604 302.546 63.8732 302.584 64.4813L302.599 64.7182C302.639 65.3556 302.75 65.8653 302.932 66.2472C303.114 66.6233 303.34 66.8939 303.608 67.0591C303.883 67.218 304.166 67.2884 304.458 67.2701C304.873 67.2441 305.191 67.1185 305.412 66.8933C305.638 66.6619 305.792 66.3441 305.872 65.9399L308.249 65.791L308.288 65.8414C308.21 66.5626 308.037 67.181 307.77 67.6968C307.508 68.2063 307.119 68.6064 306.603 68.897C306.087 69.1876 305.408 69.3593 304.566 69.412ZM311.809 68.7736L311.705 67.1157L313.03 66.7598L312.69 61.33L311.225 61.4217L311.206 62.6558L309.1 62.7876L308.89 59.428L319.083 58.7898L319.293 62.1494L317.179 62.2818L317.006 61.0597L315.506 61.1537L315.846 66.5834L317.196 66.7719L317.3 68.4298L311.809 68.7736ZM326.262 61.352C327.595 61.2685 328.66 61.4924 329.457 62.0238C330.253 62.5551 330.682 63.3062 330.743 64.2769C330.806 65.2828 330.473 66.1079 329.744 66.7524C329.021 67.3965 327.996 67.7601 326.668 67.8432L320.896 68.2046L320.793 66.5467L322.127 66.1902L321.774 60.5674L320.407 60.3801L320.302 58.7134L325.811 58.3685L325.915 60.0351L324.581 60.3916L324.648 61.453L326.262 61.352ZM326.535 65.7116C327.032 65.6805 327.397 65.552 327.629 65.3261C327.862 65.1002 327.967 64.8118 327.945 64.4609C327.921 64.0866 327.78 63.8019 327.522 63.6068C327.268 63.4054 326.89 63.3205 326.387 63.352L324.773 63.453L324.921 65.8127L326.535 65.7116ZM331.87 67.5175L331.721 65.1315L334.519 64.9563L334.668 67.3423L331.87 67.5175ZM331.426 60.421L331.276 58.0351L334.075 57.8599L334.224 60.2458L331.426 60.421Z" fill="white"/>
<defs>
<linearGradient id="paint0_linear_145_8837" x1="22" y1="26.5" x2="385" y2="26.5" gradientUnits="userSpaceOnUse">
<stop stop-color="#8E2DE2"/>
<stop offset="1" stop-color="#4A00E0"/>
</linearGradient>
<linearGradient id="paint1_linear_145_8837" x1="278.306" y1="197.45" x2="278.306" y2="197.45" gradientUnits="userSpaceOnUse">
<stop stop-color="#8E2DE2"/>
<stop offset="1" stop-color="#4A00E0"/>
</linearGradient>
<linearGradient id="paint2_linear_145_8837" x1="0" y1="23.2953" x2="397.93" y2="23.2953" gradientUnits="userSpaceOnUse">
<stop stop-color="#6025F5"/>
<stop offset="1" stop-color="#FF5555"/>
</linearGradient>
<linearGradient id="paint3_linear_145_8837" x1="47.4557" y1="132.977" x2="347.57" y2="93.7954" gradientUnits="userSpaceOnUse">
<stop offset="1" stop-color="#F80759"/>
</linearGradient>
</defs>
</svg>
