<svg width="223" height="115" viewBox="0 0 223 115" fill="none" xmlns="http://www.w3.org/2000/svg">
<rect x="14" width="163" height="30" rx="15" fill="url(#paint0_linear_236_1678)"/>
<path d="M40.7705 18.1025C40.6891 18.1025 40.5964 18.0993 40.4922 18.0928C40.3913 18.0863 40.3148 18.0814 40.2627 18.0781L40.2529 16.9893C40.2887 16.9958 40.3506 17.0007 40.4385 17.0039C40.5264 17.0072 40.5931 17.0088 40.6387 17.0088C40.8958 17.0088 41.0895 16.9518 41.2197 16.8379C41.3499 16.724 41.4574 16.5514 41.542 16.3203L41.6494 16.0518L39.6084 11.8525L38.8516 11.75V10.8906H41.6445V11.75L41.1172 11.833L42.0889 13.9912L42.2598 14.4307H42.2891L43.2559 11.8477L42.7627 11.75V10.8906H45.4238V11.75L44.7305 11.8428L42.7041 16.6523C42.5674 16.9616 42.416 17.2253 42.25 17.4434C42.084 17.6582 41.8822 17.8226 41.6445 17.9365C41.4102 18.0472 41.1188 18.1025 40.7705 18.1025ZM45.3066 20.0312V19.1719L45.9951 19.0254V13.7227L45.2334 13.5762V12.7168H47.3037L47.3721 13.332C47.5283 13.1042 47.7171 12.9284 47.9385 12.8047C48.1598 12.681 48.4235 12.6191 48.7295 12.6191C49.1559 12.6191 49.5205 12.7363 49.8232 12.9707C50.126 13.2018 50.3571 13.5257 50.5166 13.9424C50.6794 14.359 50.7607 14.8457 50.7607 15.4023V15.5049C50.7607 16.0257 50.6794 16.4814 50.5166 16.8721C50.3571 17.2594 50.1243 17.5622 49.8184 17.7803C49.5156 17.9951 49.1494 18.1025 48.7197 18.1025C48.4365 18.1025 48.1859 18.0521 47.9678 17.9512C47.7529 17.847 47.569 17.6956 47.416 17.4971V19.0254L48.1045 19.1719V20.0312H45.3066ZM48.2949 17.0088C48.6595 17.0088 48.9232 16.8737 49.0859 16.6035C49.252 16.3333 49.335 15.9671 49.335 15.5049V15.4023C49.335 15.0671 49.2975 14.7757 49.2227 14.5283C49.1478 14.2777 49.0322 14.0824 48.876 13.9424C48.723 13.7992 48.526 13.7275 48.2852 13.7275C48.0898 13.7275 47.9173 13.7715 47.7676 13.8594C47.6211 13.9473 47.5039 14.0726 47.416 14.2354V16.5498C47.5039 16.6995 47.6211 16.8135 47.7676 16.8916C47.9173 16.9697 48.0931 17.0088 48.2949 17.0088ZM53.9834 18.1025C53.4626 18.1025 53.015 17.9886 52.6406 17.7607C52.2663 17.5329 51.9798 17.2171 51.7812 16.8135C51.5827 16.4066 51.4834 15.9395 51.4834 15.4121V15.3096C51.4834 14.7855 51.5827 14.3216 51.7812 13.918C51.9798 13.5111 52.2646 13.1937 52.6357 12.9658C53.0101 12.7347 53.4561 12.6191 53.9736 12.6191C54.4977 12.6191 54.9453 12.7347 55.3164 12.9658C55.6875 13.1937 55.9723 13.5094 56.1709 13.9131C56.3695 14.3167 56.4688 14.7822 56.4688 15.3096V15.4121C56.4688 15.9395 56.3695 16.4066 56.1709 16.8135C55.9723 17.2171 55.6875 17.5329 55.3164 17.7607C54.9453 17.9886 54.501 18.1025 53.9834 18.1025ZM53.9834 17.0088C54.2308 17.0088 54.4326 16.9421 54.5889 16.8086C54.7451 16.6751 54.8607 16.4896 54.9355 16.252C55.0104 16.0111 55.0479 15.7311 55.0479 15.4121V15.3096C55.0479 14.9971 55.0104 14.722 54.9355 14.4844C54.8607 14.2435 54.7435 14.0563 54.584 13.9229C54.4277 13.7861 54.2243 13.7178 53.9736 13.7178C53.7295 13.7178 53.5277 13.7861 53.3682 13.9229C53.2087 14.0563 53.0915 14.2435 53.0166 14.4844C52.945 14.722 52.9092 14.9971 52.9092 15.3096V15.4121C52.9092 15.7311 52.945 16.0111 53.0166 16.252C53.0915 16.4928 53.2087 16.68 53.3682 16.8135C53.5277 16.9437 53.7327 17.0088 53.9834 17.0088ZM57.2061 18V17.1455L57.9678 16.999V13.7227L57.2061 13.5762V12.7168H57.9678H60.1748C60.8779 12.7168 61.4248 12.8389 61.8154 13.083C62.2093 13.3271 62.4062 13.6868 62.4062 14.1621C62.4062 14.4225 62.3281 14.6504 62.1719 14.8457C62.0156 15.0378 61.778 15.1859 61.459 15.29C61.8789 15.3714 62.1865 15.5212 62.3818 15.7393C62.5804 15.9541 62.6797 16.2145 62.6797 16.5205C62.6797 17.0023 62.4925 17.3701 62.1182 17.624C61.7471 17.8747 61.2132 18 60.5166 18H57.2061ZM59.3887 16.916H60.5117C60.7624 16.916 60.9479 16.8704 61.0684 16.7793C61.1921 16.6849 61.2539 16.5449 61.2539 16.3594C61.2539 16.1803 61.1969 16.042 61.083 15.9443C60.9691 15.8467 60.7803 15.7979 60.5166 15.7979H59.3887V16.916ZM59.3887 14.8701H60.2139C60.4808 14.8669 60.6745 14.8213 60.7949 14.7334C60.9186 14.6423 60.9805 14.5104 60.9805 14.3379C60.9805 13.9831 60.7152 13.8057 60.1846 13.8057H59.3887V14.8701ZM65.8584 18.1025C65.3538 18.1025 64.9128 17.9919 64.5352 17.7705C64.1576 17.5459 63.8646 17.2383 63.6562 16.8477C63.4512 16.457 63.3486 16.0111 63.3486 15.5098V15.3145C63.3486 14.7904 63.4463 14.3265 63.6416 13.9229C63.8369 13.516 64.112 13.1969 64.4668 12.9658C64.8249 12.7347 65.2464 12.6191 65.7314 12.6191C66.21 12.6191 66.612 12.7135 66.9375 12.9023C67.263 13.0911 67.5104 13.363 67.6797 13.7178C67.849 14.0726 67.9336 14.5023 67.9336 15.0068V15.7832H64.8281L64.8184 15.8125C64.8379 16.0436 64.8949 16.2503 64.9893 16.4326C65.0869 16.6117 65.2236 16.7533 65.3994 16.8574C65.5752 16.9583 65.7884 17.0088 66.0391 17.0088C66.2995 17.0088 66.542 16.9762 66.7666 16.9111C66.9945 16.8428 67.2158 16.7435 67.4307 16.6133L67.8164 17.4922C67.5983 17.668 67.3232 17.8145 66.9912 17.9316C66.6624 18.0456 66.2848 18.1025 65.8584 18.1025ZM64.8379 14.8408H66.6006V14.7139C66.6006 14.499 66.5713 14.3151 66.5127 14.1621C66.4574 14.0059 66.3662 13.8854 66.2393 13.8008C66.1156 13.7161 65.9544 13.6738 65.7559 13.6738C65.5671 13.6738 65.4076 13.7243 65.2773 13.8252C65.1471 13.9229 65.0446 14.0579 64.9697 14.2305C64.8981 14.403 64.8493 14.5983 64.8232 14.8164L64.8379 14.8408ZM68.7002 18V17.1455L69.4619 16.999V13.7227L68.7002 13.5762V12.7168H71.498V13.5762L70.8828 13.7227V14.8555H72.6211V13.7227L72.0107 13.5762V12.7168H72.6211H74.0469H74.8086V13.5762L74.0469 13.7227V16.999L74.8086 17.1455V18H72.0107V17.1455L72.6211 16.999V15.9492H70.8828V16.999L71.498 17.1455V18H68.7002ZM78.8223 14.4209C79.5384 14.4209 80.0983 14.582 80.502 14.9043C80.9089 15.2233 81.1123 15.6497 81.1123 16.1836C81.1123 16.7305 80.9089 17.1699 80.502 17.502C80.0951 17.834 79.5352 18 78.8223 18H75.6436V17.1455L76.4053 16.999V13.7227L75.6436 13.5762V12.7168H78.5928V13.5762L77.8311 13.7227V14.4209H78.8223ZM78.8223 16.9111C79.1152 16.9111 79.3333 16.846 79.4766 16.7158C79.6198 16.5824 79.6914 16.4082 79.6914 16.1934C79.6914 15.972 79.6198 15.793 79.4766 15.6562C79.3366 15.5195 79.1185 15.4512 78.8223 15.4512H77.8311V16.9111H78.8223ZM81.7666 18V16.75H83.1875V18H81.7666ZM81.7666 13.9717V12.7217H83.1875V13.9717H81.7666ZM88.9297 18.1025C88.4089 18.1025 87.9613 17.9935 87.5869 17.7754C87.2158 17.5573 86.931 17.2562 86.7324 16.8721C86.5339 16.4847 86.4346 16.042 86.4346 15.5439V14.8652C86.4346 14.071 86.5371 13.4069 86.7422 12.873C86.9473 12.3392 87.2337 11.9225 87.6016 11.623C87.9694 11.3203 88.3942 11.1217 88.876 11.0273C89.1917 10.9753 89.4245 10.9069 89.5742 10.8223C89.7272 10.7344 89.8037 10.5928 89.8037 10.3975H90.9072L90.9219 10.4268C90.9284 10.7458 90.8877 11.0046 90.7998 11.2031C90.7152 11.4017 90.5931 11.5596 90.4336 11.6768C90.2741 11.7939 90.0837 11.8867 89.8623 11.9551C89.6442 12.0202 89.4082 12.0771 89.1543 12.126C88.832 12.1878 88.5667 12.2806 88.3584 12.4043C88.1533 12.5247 87.9938 12.6777 87.8799 12.8633C87.7692 13.0488 87.6927 13.2702 87.6504 13.5273L87.6699 13.5518C87.849 13.3923 88.0605 13.262 88.3047 13.1611C88.5488 13.0602 88.819 13.0098 89.1152 13.0098C89.5872 13.0098 89.9958 13.1139 90.3408 13.3223C90.6859 13.5306 90.9512 13.8203 91.1367 14.1914C91.3255 14.5592 91.4199 14.9857 91.4199 15.4707V15.5732C91.4199 16.0713 91.3206 16.5107 91.1221 16.8916C90.9235 17.2725 90.6387 17.5703 90.2676 17.7852C89.8965 17.9967 89.4505 18.1025 88.9297 18.1025ZM88.9297 17.0088C89.1738 17.0088 89.374 16.9502 89.5303 16.833C89.6898 16.7126 89.807 16.5449 89.8818 16.3301C89.9567 16.112 89.9941 15.8597 89.9941 15.5732V15.4707C89.9941 15.2038 89.9551 14.9678 89.877 14.7627C89.8021 14.5576 89.6849 14.3981 89.5254 14.2842C89.3691 14.167 89.1673 14.1084 88.9199 14.1084C88.6758 14.1084 88.4756 14.167 88.3193 14.2842C88.1631 14.3981 88.0475 14.5576 87.9727 14.7627C87.8978 14.9678 87.8604 15.2038 87.8604 15.4707V15.5439C87.8604 15.8337 87.8962 16.0892 87.9678 16.3105C88.0426 16.5319 88.1582 16.7044 88.3145 16.8281C88.474 16.9486 88.679 17.0088 88.9297 17.0088ZM93.7979 18.1025C93.2738 18.1025 92.8571 17.9626 92.5479 17.6826C92.2386 17.3994 92.084 17.0153 92.084 16.5303C92.084 16.0322 92.2858 15.6286 92.6895 15.3193C93.0931 15.0068 93.6839 14.8506 94.4619 14.8506H95.1602V14.46C95.1602 14.2061 95.0853 14.001 94.9355 13.8447C94.7891 13.6852 94.5677 13.6055 94.2715 13.6055C94.1185 13.6055 93.9818 13.625 93.8613 13.6641C93.7409 13.6999 93.6302 13.752 93.5293 13.8203L93.417 14.5186H92.3916L92.3721 13.1465C92.6488 12.9902 92.9482 12.8633 93.2705 12.7656C93.5928 12.668 93.9525 12.6191 94.3496 12.6191C95.0397 12.6191 95.585 12.7803 95.9854 13.1025C96.3857 13.4215 96.5859 13.8789 96.5859 14.4746V16.6523C96.5859 16.724 96.5859 16.7956 96.5859 16.8672C96.5892 16.9355 96.5957 17.0023 96.6055 17.0674L97.1572 17.1455V18H95.3896C95.3538 17.9089 95.318 17.8112 95.2822 17.707C95.2464 17.6029 95.2204 17.4987 95.2041 17.3945C95.0348 17.6094 94.8346 17.7819 94.6035 17.9121C94.3757 18.0391 94.1071 18.1025 93.7979 18.1025ZM94.1787 17.0479C94.3773 17.0479 94.5661 17.0039 94.7451 16.916C94.9242 16.8249 95.0625 16.7061 95.1602 16.5596V15.7246H94.457C94.1445 15.7246 93.9069 15.7962 93.7441 15.9395C93.5846 16.0827 93.5049 16.2552 93.5049 16.457C93.5049 16.6458 93.5635 16.7923 93.6807 16.8965C93.8011 16.9974 93.9671 17.0479 94.1787 17.0479ZM97.8018 18V17.1455L98.5635 16.999V13.7227L97.8018 13.5762V12.7168H100.634V13.5762L99.9844 13.7227V14.7285H100.473L101.264 13.5566C101.462 13.2507 101.669 13.0212 101.884 12.8682C102.099 12.7119 102.359 12.6338 102.665 12.6338C102.847 12.6338 103.005 12.6566 103.139 12.7021C103.272 12.7477 103.402 12.8096 103.529 12.8877L103.29 13.874C103.199 13.8512 103.135 13.8366 103.1 13.8301C103.067 13.8203 103.026 13.8154 102.978 13.8154C102.867 13.8154 102.759 13.8529 102.655 13.9277C102.551 14.0026 102.46 14.097 102.382 14.2109L101.698 15.207L102.924 17.0283L103.642 17.1455V18H101.684L100.531 16.0225H99.9844V16.999L100.634 17.1455V18H97.8018ZM105.927 18.1025C105.403 18.1025 104.986 17.9626 104.677 17.6826C104.368 17.3994 104.213 17.0153 104.213 16.5303C104.213 16.0322 104.415 15.6286 104.818 15.3193C105.222 15.0068 105.813 14.8506 106.591 14.8506H107.289V14.46C107.289 14.2061 107.214 14.001 107.064 13.8447C106.918 13.6852 106.697 13.6055 106.4 13.6055C106.247 13.6055 106.111 13.625 105.99 13.6641C105.87 13.6999 105.759 13.752 105.658 13.8203L105.546 14.5186H104.521L104.501 13.1465C104.778 12.9902 105.077 12.8633 105.399 12.7656C105.722 12.668 106.081 12.6191 106.479 12.6191C107.169 12.6191 107.714 12.7803 108.114 13.1025C108.515 13.4215 108.715 13.8789 108.715 14.4746V16.6523C108.715 16.724 108.715 16.7956 108.715 16.8672C108.718 16.9355 108.725 17.0023 108.734 17.0674L109.286 17.1455V18H107.519C107.483 17.9089 107.447 17.8112 107.411 17.707C107.375 17.6029 107.349 17.4987 107.333 17.3945C107.164 17.6094 106.964 17.7819 106.732 17.9121C106.505 18.0391 106.236 18.1025 105.927 18.1025ZM106.308 17.0479C106.506 17.0479 106.695 17.0039 106.874 16.916C107.053 16.8249 107.191 16.7061 107.289 16.5596V15.7246H106.586C106.273 15.7246 106.036 15.7962 105.873 15.9395C105.714 16.0827 105.634 16.2552 105.634 16.457C105.634 16.6458 105.692 16.7923 105.81 16.8965C105.93 16.9974 106.096 17.0479 106.308 17.0479ZM109.862 18L109.843 16.877L109.999 16.8721C110.217 16.8721 110.382 16.8151 110.492 16.7012C110.603 16.5872 110.678 16.3919 110.717 16.1152C110.759 15.8385 110.78 15.4561 110.78 14.9678V13.7227L110.019 13.5762V12.7168H114.896H115.658V13.5762L114.896 13.7227V16.999L115.658 17.1455V18H112.714V17.1455L113.476 16.999V13.8203H112.206V14.9678C112.206 16.0094 112.045 16.776 111.723 17.2676C111.404 17.7559 110.858 18 110.087 18H109.862ZM118.075 18.1025C117.551 18.1025 117.134 17.9626 116.825 17.6826C116.516 17.3994 116.361 17.0153 116.361 16.5303C116.361 16.0322 116.563 15.6286 116.967 15.3193C117.37 15.0068 117.961 14.8506 118.739 14.8506H119.438V14.46C119.438 14.2061 119.363 14.001 119.213 13.8447C119.066 13.6852 118.845 13.6055 118.549 13.6055C118.396 13.6055 118.259 13.625 118.139 13.6641C118.018 13.6999 117.908 13.752 117.807 13.8203L117.694 14.5186H116.669L116.649 13.1465C116.926 12.9902 117.226 12.8633 117.548 12.7656C117.87 12.668 118.23 12.6191 118.627 12.6191C119.317 12.6191 119.862 12.7803 120.263 13.1025C120.663 13.4215 120.863 13.8789 120.863 14.4746V16.6523C120.863 16.724 120.863 16.7956 120.863 16.8672C120.867 16.9355 120.873 17.0023 120.883 17.0674L121.435 17.1455V18H119.667C119.631 17.9089 119.595 17.8112 119.56 17.707C119.524 17.6029 119.498 17.4987 119.481 17.3945C119.312 17.6094 119.112 17.7819 118.881 17.9121C118.653 18.0391 118.384 18.1025 118.075 18.1025ZM118.456 17.0479C118.655 17.0479 118.843 17.0039 119.022 16.916C119.201 16.8249 119.34 16.7061 119.438 16.5596V15.7246H118.734C118.422 15.7246 118.184 15.7962 118.021 15.9395C117.862 16.0827 117.782 16.2552 117.782 16.457C117.782 16.6458 117.841 16.7923 117.958 16.8965C118.078 16.9974 118.244 17.0479 118.456 17.0479ZM122.079 18V17.1455L122.841 16.999V13.7227L122.079 13.5762V12.7168H122.841H125.048C125.751 12.7168 126.298 12.8389 126.688 13.083C127.082 13.3271 127.279 13.6868 127.279 14.1621C127.279 14.4225 127.201 14.6504 127.045 14.8457C126.889 15.0378 126.651 15.1859 126.332 15.29C126.752 15.3714 127.06 15.5212 127.255 15.7393C127.453 15.9541 127.553 16.2145 127.553 16.5205C127.553 17.0023 127.366 17.3701 126.991 17.624C126.62 17.8747 126.086 18 125.39 18H122.079ZM124.262 16.916H125.385C125.635 16.916 125.821 16.8704 125.941 16.7793C126.065 16.6849 126.127 16.5449 126.127 16.3594C126.127 16.1803 126.07 16.042 125.956 15.9443C125.842 15.8467 125.653 15.7979 125.39 15.7979H124.262V16.916ZM124.262 14.8701H125.087C125.354 14.8669 125.548 14.8213 125.668 14.7334C125.792 14.6423 125.854 14.5104 125.854 14.3379C125.854 13.9831 125.588 13.8057 125.058 13.8057H124.262V14.8701ZM128.109 20.0312V19.1719L128.798 19.0254V13.7227L128.036 13.5762V12.7168H130.106L130.175 13.332C130.331 13.1042 130.52 12.9284 130.741 12.8047C130.963 12.681 131.226 12.6191 131.532 12.6191C131.959 12.6191 132.323 12.7363 132.626 12.9707C132.929 13.2018 133.16 13.5257 133.319 13.9424C133.482 14.359 133.563 14.8457 133.563 15.4023V15.5049C133.563 16.0257 133.482 16.4814 133.319 16.8721C133.16 17.2594 132.927 17.5622 132.621 17.7803C132.318 17.9951 131.952 18.1025 131.522 18.1025C131.239 18.1025 130.989 18.0521 130.771 17.9512C130.556 17.847 130.372 17.6956 130.219 17.4971V19.0254L130.907 19.1719V20.0312H128.109ZM131.098 17.0088C131.462 17.0088 131.726 16.8737 131.889 16.6035C132.055 16.3333 132.138 15.9671 132.138 15.5049V15.4023C132.138 15.0671 132.1 14.7757 132.025 14.5283C131.951 14.2777 131.835 14.0824 131.679 13.9424C131.526 13.7992 131.329 13.7275 131.088 13.7275C130.893 13.7275 130.72 13.7715 130.57 13.8594C130.424 13.9473 130.307 14.0726 130.219 14.2354V16.5498C130.307 16.6995 130.424 16.8135 130.57 16.8916C130.72 16.9697 130.896 17.0088 131.098 17.0088ZM134.208 18V17.1455L134.97 16.999V13.7227L134.208 13.5762V12.7168H136.396H137.079V13.5762L136.396 13.7227V15.9248L136.425 15.9297L138.144 12.7168H139.569H140.326V13.5762L139.569 13.7227V16.999L140.326 17.1455V18H137.46V17.1455L138.144 16.999V14.7871L138.114 14.7822L136.396 18H134.208ZM142.792 18.1025C142.268 18.1025 141.851 17.9626 141.542 17.6826C141.233 17.3994 141.078 17.0153 141.078 16.5303C141.078 16.0322 141.28 15.6286 141.684 15.3193C142.087 15.0068 142.678 14.8506 143.456 14.8506H144.154V14.46C144.154 14.2061 144.079 14.001 143.93 13.8447C143.783 13.6852 143.562 13.6055 143.266 13.6055C143.113 13.6055 142.976 13.625 142.855 13.6641C142.735 13.6999 142.624 13.752 142.523 13.8203L142.411 14.5186H141.386L141.366 13.1465C141.643 12.9902 141.942 12.8633 142.265 12.7656C142.587 12.668 142.947 12.6191 143.344 12.6191C144.034 12.6191 144.579 12.7803 144.979 13.1025C145.38 13.4215 145.58 13.8789 145.58 14.4746V16.6523C145.58 16.724 145.58 16.7956 145.58 16.8672C145.583 16.9355 145.59 17.0023 145.6 17.0674L146.151 17.1455V18H144.384C144.348 17.9089 144.312 17.8112 144.276 17.707C144.241 17.6029 144.215 17.4987 144.198 17.3945C144.029 17.6094 143.829 17.7819 143.598 17.9121C143.37 18.0391 143.101 18.1025 142.792 18.1025ZM143.173 17.0479C143.371 17.0479 143.56 17.0039 143.739 16.916C143.918 16.8249 144.057 16.7061 144.154 16.5596V15.7246H143.451C143.139 15.7246 142.901 15.7962 142.738 15.9395C142.579 16.0827 142.499 16.2552 142.499 16.457C142.499 16.6458 142.558 16.7923 142.675 16.8965C142.795 16.9974 142.961 17.0479 143.173 17.0479ZM147.816 18V17.1455L148.573 16.999V13.8057H147.689L147.636 14.5186H146.542V12.7168H152.06V14.5186H150.966L150.907 13.8057H150.004V16.999L150.761 17.1455V18H147.816Z" fill="#FFF7F7"/>
<rect width="202.676" height="29.7381" rx="14.8691" transform="matrix(0.995897 -0.0904944 0.0913433 0.99582 2.15283 85.2791)" fill="url(#paint1_linear_236_1678)"/>
<path d="M0.489746 34.7563L193.423 18.2443L195.925 46.2726L2.99163 62.7847L0.489746 34.7563Z" fill="url(#paint2_linear_236_1678)"/>
<path d="M15.6938 64.6123L173.124 42.3623L177.191 70.2084L19.761 92.4584L15.6938 64.6123Z" fill="url(#paint3_linear_236_1678)"/>
<path d="M28.7713 101.381C28.2529 101.43 27.7965 101.359 27.4022 101.168C27.008 100.976 26.6929 100.689 26.457 100.306C26.2208 99.9199 26.0777 99.4643 26.0277 98.9393L26.018 98.8373C25.9684 98.3155 26.0233 97.8444 26.1827 97.4237C26.3419 96.9998 26.5954 96.6569 26.9432 96.3949C27.294 96.1294 27.727 95.9721 28.2422 95.9231C28.764 95.8734 29.2205 95.9461 29.6118 96.141C30.0028 96.3327 30.3163 96.62 30.5522 97.0031C30.7881 97.3861 30.931 97.8401 30.981 98.3651L30.9907 98.4671C31.0406 98.9921 30.986 99.4665 30.8269 99.8904C30.6675 100.311 30.4138 100.652 30.066 100.914C29.7181 101.176 29.2866 101.332 28.7713 101.381ZM28.6677 100.292C28.914 100.269 29.1086 100.183 29.2515 100.035C29.3944 99.8877 29.4919 99.6921 29.5439 99.4484C29.5956 99.2015 29.6064 98.9193 29.5762 98.6017L29.5665 98.4996C29.5369 98.1886 29.4735 97.9183 29.3765 97.6888C29.2792 97.4561 29.1448 97.2809 28.9733 97.1631C28.8048 97.0418 28.5958 96.993 28.3463 97.0168C28.1033 97.0399 27.9088 97.1271 27.763 97.2783C27.6168 97.4262 27.5179 97.6237 27.4662 97.8706C27.4174 98.1139 27.4078 98.3911 27.4374 98.7022L27.4471 98.8043C27.4773 99.1219 27.5395 99.3972 27.6336 99.6302C27.731 99.8629 27.8653 100.038 28.0368 100.156C28.2079 100.27 28.4182 100.316 28.6677 100.292ZM34.9009 100.695L34.82 99.844L35.5644 99.626L35.5006 98.9552C35.3831 98.9926 35.2618 99.0237 35.1367 99.0487C35.0112 99.0705 34.8853 99.0874 34.7589 99.0994C34.2534 99.1475 33.8155 99.1156 33.4451 99.0037C33.0748 98.8918 32.7815 98.6957 32.5651 98.4154C32.3485 98.1319 32.2188 97.765 32.1759 97.3145L32.1135 96.6583L31.3462 96.5842L31.2652 95.7335L33.438 95.5268L34.0456 95.469L34.1266 96.3196L33.5328 96.5233L33.5953 97.1795C33.6172 97.4096 33.667 97.5896 33.7448 97.7195C33.8222 97.8462 33.935 97.9319 34.0831 97.9767C34.2342 98.0179 34.4248 98.0276 34.6549 98.0057C34.7877 97.993 34.9135 97.9745 35.0322 97.9502C35.1541 97.9255 35.2754 97.8943 35.396 97.8567L35.254 96.3644L34.6277 96.2769L34.5463 95.4213L37.3364 95.1559L37.4178 96.0114L36.6734 96.2294L36.9838 99.491L37.7559 99.5647L37.8369 100.415L34.9009 100.695ZM38.6292 100.34L38.5482 99.4893L39.2927 99.2713L38.9823 96.0097L38.2102 95.936L38.1288 95.0805L40.914 94.8155L40.9954 95.671L40.3968 95.8751L40.5041 97.0028L42.2346 96.8382L42.1273 95.7104L41.5058 95.6224L41.4244 94.7669L42.032 94.7091L43.4514 94.5741L44.2097 94.5019L44.2911 95.3574L43.5467 95.5754L43.857 98.837L44.6292 98.9107L44.7101 99.7614L41.9248 100.026L41.8439 99.1757L42.4376 98.9721L42.3382 97.927L40.6077 98.0916L40.7072 99.1367L41.3335 99.2243L41.4144 100.075L38.6292 100.34ZM47.9231 99.5586C47.4046 99.608 46.9483 99.537 46.554 99.3456C46.1598 99.1542 45.8447 98.867 45.6088 98.484C45.3726 98.0977 45.2295 97.6421 45.1795 97.1171L45.1698 97.015C45.1202 96.4933 45.1751 96.0221 45.3345 95.6015C45.4937 95.1776 45.7471 94.8347 46.095 94.5727C46.4458 94.3071 46.8788 94.1498 47.394 94.1008C47.9158 94.0512 48.3723 94.1238 48.7636 94.3188C49.1546 94.5104 49.4681 94.7978 49.704 95.1808C49.9399 95.5638 50.0828 96.0178 50.1328 96.5428L50.1425 96.6449C50.1924 97.1699 50.1378 97.6443 49.9787 98.0682C49.8193 98.4888 49.5656 98.8301 49.2178 99.0921C48.8699 99.3541 48.4384 99.5096 47.9231 99.5586ZM47.8195 98.4698C48.0658 98.4464 48.2604 98.3608 48.4033 98.2132C48.5462 98.0655 48.6437 97.8698 48.6957 97.6262C48.7474 97.3793 48.7582 97.0971 48.728 96.7795L48.7182 96.6774C48.6886 96.3663 48.6253 96.096 48.5283 95.8666C48.4309 95.6338 48.2965 95.4586 48.1251 95.3409C47.9566 95.2196 47.7476 95.1708 47.4981 95.1945C47.255 95.2176 47.0606 95.3048 46.9148 95.456C46.7686 95.604 46.6697 95.8014 46.618 96.0483C46.5692 96.2917 46.5596 96.5689 46.5892 96.88L46.5989 96.9821C46.6291 97.2996 46.6913 97.5749 46.7854 97.808C46.8827 98.0407 47.0171 98.2159 47.1886 98.3337C47.3597 98.4482 47.57 98.4936 47.8195 98.4698ZM51.0801 96.6538L50.9761 95.5601L53.7176 95.2992L53.8217 96.3929L51.0801 96.6538ZM57.1632 98.6746C56.7646 98.7125 56.3925 98.6858 56.047 98.5944C55.7045 98.4995 55.4246 98.3413 55.2073 98.12C54.9898 97.8955 54.8708 97.6076 54.8505 97.2564L54.8526 97.2268L56.2282 97.0959C56.2396 97.2158 56.2823 97.3213 56.3564 97.4123C56.4334 97.4998 56.5361 97.5652 56.6644 97.6086C56.7928 97.652 56.9429 97.6655 57.1146 97.6492C57.3933 97.6227 57.5915 97.54 57.7091 97.4013C57.8296 97.2591 57.8808 97.0923 57.8626 96.9011C57.8416 96.6808 57.7614 96.5249 57.6219 96.4335C57.4824 96.3422 57.2782 96.3093 57.0092 96.3349L56.2509 96.407L56.1649 95.5029L56.9232 95.4308C57.163 95.408 57.3348 95.3409 57.4387 95.2297C57.5422 95.1152 57.5851 94.964 57.5672 94.776C57.5515 94.6107 57.4831 94.4766 57.3621 94.3737C57.2409 94.2675 57.0506 94.2268 56.7914 94.2514C56.6455 94.2653 56.5182 94.3019 56.4094 94.3613C56.3036 94.4172 56.2224 94.4919 56.1659 94.5856C56.1123 94.6757 56.0911 94.7791 56.1022 94.8958L54.7266 95.0267L54.7141 94.9984C54.6712 94.6853 54.7278 94.4036 54.8838 94.1533C55.0428 93.8995 55.2748 93.6911 55.5797 93.528C55.8879 93.3646 56.2429 93.2638 56.6447 93.2256C57.3187 93.1614 57.8628 93.2437 58.277 93.4724C58.6941 93.6976 58.9251 94.0468 58.9701 94.5199C58.9939 94.7694 58.944 95.0014 58.8205 95.2159C58.6968 95.4271 58.5139 95.6015 58.2719 95.739C58.8918 95.8958 59.2301 96.2724 59.2868 96.8686C59.3183 97.1992 59.2496 97.4918 59.081 97.7466C58.9155 98.001 58.6672 98.2094 58.336 98.3717C58.0078 98.5304 57.6168 98.6314 57.1632 98.6746ZM61.8835 98.2303C61.3618 98.28 60.9337 98.1801 60.5994 97.9307C60.2647 97.6781 60.0744 97.3103 60.0284 96.8275C59.9813 96.3317 60.1439 95.9107 60.5165 95.5646C60.8887 95.2153 61.4621 95.0038 62.2366 94.9301L62.9317 94.864L62.8947 94.4751C62.8706 94.2223 62.7767 94.0253 62.6128 93.8839C62.4519 93.739 62.224 93.6806 61.9291 93.7086C61.7768 93.7231 61.6425 93.7555 61.5263 93.8058C61.4098 93.8529 61.3045 93.9152 61.2106 93.9928L61.1649 94.6986L60.1441 94.7957L59.9947 93.4316C60.2554 93.2499 60.5415 93.0951 60.853 92.9674C61.1646 92.8396 61.5181 92.757 61.9134 92.7193C62.6004 92.654 63.1585 92.7627 63.5876 93.0456C64.0164 93.3253 64.259 93.7616 64.3154 94.3546L64.5217 96.5226C64.5285 96.5939 64.5353 96.6652 64.5421 96.7365C64.5518 96.8042 64.5646 96.87 64.5805 96.9339L65.1371 96.9594L65.2181 97.8101L63.4584 97.9775C63.4142 97.8902 63.3693 97.7963 63.3238 97.696C63.2782 97.5957 63.2425 97.4945 63.2164 97.3923C63.0682 97.6222 62.8853 97.8129 62.6675 97.9645C62.4527 98.1124 62.1914 98.2011 61.8835 98.2303ZM62.1628 97.1443C62.3604 97.1255 62.5442 97.0639 62.7141 96.9594C62.8837 96.8517 63.0102 96.7204 63.0935 96.5653L63.0145 95.7341L62.3145 95.8007C62.0034 95.8303 61.7736 95.9241 61.6252 96.0821C61.4799 96.2398 61.4169 96.4191 61.436 96.62C61.4539 96.8079 61.5261 96.9482 61.6526 97.0408C61.7821 97.1299 61.9521 97.1644 62.1628 97.1443ZM68.2415 97.6254C67.723 97.6747 67.2667 97.6037 66.8724 97.4123C66.4782 97.2209 66.1631 96.9337 65.9272 96.5507C65.691 96.1645 65.5479 95.7088 65.4979 95.1839L65.4882 95.0818C65.4386 94.5601 65.4935 94.0889 65.6529 93.6682C65.812 93.2444 66.0655 92.9014 66.4134 92.6394C66.7642 92.3739 67.1972 92.2166 67.7124 92.1676C68.2341 92.1179 68.6907 92.1906 69.082 92.3855C69.473 92.5772 69.7865 92.8646 70.0224 93.2476C70.2583 93.6306 70.4012 94.0846 70.4512 94.6096L70.4609 94.7117C70.5108 95.2366 70.4562 95.7111 70.2971 96.1349C70.1376 96.5556 69.884 96.8969 69.5362 97.1589C69.1883 97.4209 68.7568 97.5764 68.2415 97.6254ZM68.1379 96.5366C68.3842 96.5131 68.5788 96.4276 68.7217 96.2799C68.8646 96.1323 68.9621 95.9366 69.0141 95.6929C69.0658 95.4461 69.0766 95.1638 69.0464 94.8462L69.0366 94.7442C69.007 94.4331 68.9437 94.1628 68.8467 93.9333C68.7493 93.7006 68.6149 93.5254 68.4435 93.4076C68.275 93.2863 68.066 93.2375 67.8165 93.2613C67.5734 93.2844 67.379 93.3716 67.2332 93.5228C67.087 93.6708 66.9881 93.8682 66.9364 94.1151C66.8876 94.3584 66.878 94.6356 66.9076 94.9467L66.9173 95.0488C66.9475 95.3664 67.0097 95.6417 67.1038 95.8747C67.2011 96.1074 67.3355 96.2827 67.507 96.4004C67.6781 96.5149 67.8884 96.5603 68.1379 96.5366ZM74.3711 96.9392L74.2901 96.0885L75.0346 95.8706L74.9707 95.1998C74.8533 95.2371 74.732 95.2683 74.6069 95.2932C74.4814 95.315 74.3555 95.3319 74.2291 95.3439C73.7236 95.392 73.2856 95.3601 72.9153 95.2482C72.545 95.1363 72.2516 94.9402 72.0353 94.66C71.8187 94.3765 71.6889 94.0095 71.6461 93.5591L71.5836 92.9028L70.8163 92.8287L70.7354 91.9781L72.9082 91.7713L73.5158 91.7135L73.5967 92.5642L73.003 92.7678L73.0655 93.424C73.0873 93.6541 73.1372 93.8341 73.2149 93.964C73.2924 94.0907 73.4052 94.1765 73.5533 94.2212C73.7044 94.2624 73.895 94.2721 74.125 94.2502C74.2579 94.2376 74.3837 94.2191 74.5023 94.1947C74.6242 94.17 74.7455 94.1389 74.8662 94.1012L74.7242 92.6089L74.0979 92.5214L74.0165 91.6659L76.8066 91.4004L76.888 92.2559L76.1436 92.4739L76.4539 95.7355L77.2261 95.8092L77.307 96.6598L74.3711 96.9392ZM78.0994 96.5845L78.0184 95.7338L78.7628 95.5158L78.4525 92.2542L77.6803 92.1805L77.5989 91.325L80.3842 91.06L80.4656 91.9155L79.867 92.1196L79.9743 93.2473L81.7048 93.0827L81.5975 91.955L80.976 91.8669L80.8946 91.0114L81.5022 90.9536L82.9216 90.8186L83.6799 90.7464L83.7613 91.6019L83.0168 91.8199L83.3272 95.0815L84.0994 95.1552L84.1803 96.0059L81.395 96.2709L81.3141 95.4202L81.9078 95.2166L81.8084 94.1715L80.0779 94.3362L80.1773 95.3812L80.8037 95.4688L80.8846 96.3194L78.0994 96.5845ZM87.3933 95.8032C86.8748 95.8525 86.4184 95.7815 86.0242 95.5901C85.6299 95.3987 85.3149 95.1115 85.079 94.7285C84.8427 94.3422 84.6997 93.8866 84.6497 93.3616L84.64 93.2595C84.5904 92.7378 84.6453 92.2666 84.8047 91.846C84.9638 91.4221 85.2173 91.0792 85.5652 90.8172C85.9159 90.5516 86.3489 90.3944 86.8642 90.3453C87.3859 90.2957 87.8425 90.3683 88.2338 90.5633C88.6248 90.755 88.9382 91.0423 89.1741 91.4253C89.4101 91.8084 89.553 92.2624 89.6029 92.7873L89.6126 92.8894C89.6626 93.4144 89.608 93.8888 89.4489 94.3127C89.2894 94.7333 89.0358 95.0746 88.6879 95.3366C88.3401 95.5986 87.9086 95.7541 87.3933 95.8032ZM87.2897 94.7143C87.536 94.6909 87.7306 94.6053 87.8735 94.4577C88.0164 94.31 88.1139 94.1144 88.1659 93.8707C88.2176 93.6238 88.2284 93.3416 88.1981 93.024L88.1884 92.9219C88.1588 92.6108 88.0955 92.3405 87.9985 92.1111C87.9011 91.8784 87.7667 91.7031 87.5953 91.5854C87.4268 91.4641 87.2178 91.4153 86.9683 91.439C86.7252 91.4622 86.5308 91.5493 86.3849 91.7005C86.2388 91.8485 86.1399 92.0459 86.0881 92.2928C86.0394 92.5362 86.0298 92.8134 86.0594 93.1245L86.0691 93.2266C86.0993 93.5442 86.1615 93.8195 86.2556 94.0525C86.3529 94.2852 86.4873 94.4604 86.6587 94.5782C86.8299 94.6927 87.0402 94.7381 87.2897 94.7143ZM93.1137 92.2081L93.0082 91.0998L98.2822 90.598L98.3877 91.7062L93.1137 92.2081ZM102.015 94.309L101.934 93.4583L103.116 93.1987L102.66 88.4059L101.449 88.5211L101.372 87.7093L103.952 86.9832L104.53 93.0641L105.74 93.0962L105.821 93.9468L102.015 94.309ZM108.776 93.7686C108.345 93.8096 107.942 93.7679 107.568 93.6433C107.196 93.5152 106.89 93.3121 106.651 93.034C106.412 92.7559 106.278 92.409 106.248 91.9933L106.255 91.9681L107.61 91.7705C107.64 92.0848 107.752 92.3226 107.948 92.4839C108.143 92.6419 108.384 92.7072 108.673 92.6798C109.003 92.6484 109.237 92.5068 109.373 92.2551C109.509 92.0035 109.559 91.6897 109.524 91.3138C109.485 90.9054 109.369 90.5862 109.177 90.3559C108.985 90.1257 108.723 90.0264 108.389 90.0582C108.12 90.0838 107.917 90.1537 107.781 90.2681C107.648 90.3821 107.559 90.5279 107.514 90.7055L106.252 90.7422L106.285 86.7612L110.358 86.3736L110.512 87.9874L109.637 88.0707L109.465 87.6063L107.56 87.7876L107.516 89.4398C107.597 89.3667 107.692 89.3004 107.801 89.241C107.909 89.1784 108.027 89.1263 108.154 89.0848C108.284 89.0398 108.423 89.0102 108.572 88.996C109.025 88.9431 109.419 88.9971 109.755 89.1581C110.094 89.3155 110.363 89.5646 110.562 89.9054C110.764 90.2458 110.889 90.6672 110.937 91.1694C110.98 91.6231 110.927 92.0386 110.776 92.4159C110.629 92.7896 110.387 93.0971 110.05 93.3385C109.716 93.5762 109.291 93.7196 108.776 93.7686ZM114.293 93.2437C113.554 93.314 112.947 93.1282 112.47 92.6864C111.992 92.2413 111.709 91.5505 111.62 90.614L111.472 89.0537C111.383 88.1204 111.529 87.3903 111.911 86.8635C112.295 86.3332 112.855 86.033 113.591 85.9631C114.323 85.8934 114.928 86.0827 115.406 86.531C115.886 86.9758 116.171 87.6648 116.26 88.5981L116.408 90.1584C116.497 91.095 116.349 91.8268 115.965 92.3539C115.583 92.8774 115.026 93.174 114.293 93.2437ZM114.19 92.1549C114.507 92.1247 114.736 91.9721 114.877 91.6971C115.018 91.4221 115.061 90.9995 115.006 90.4291L114.831 88.5869C114.778 88.023 114.654 87.6195 114.461 87.3762C114.268 87.133 114.012 87.0265 113.695 87.0568C113.374 87.0873 113.143 87.24 113.003 87.515C112.862 87.79 112.819 88.2094 112.872 88.7732L113.048 90.6155C113.102 91.1858 113.224 91.5928 113.414 91.8363C113.607 92.0795 113.866 92.1857 114.19 92.1549ZM117.725 92.8142L117.607 91.5698L119.021 91.4352L119.14 92.6796L117.725 92.8142ZM122.518 92.4612C121.779 92.5315 121.171 92.3457 120.694 91.9038C120.217 91.4588 119.934 90.768 119.845 89.8314L119.696 88.2711C119.607 87.3378 119.754 86.6078 120.135 86.081C120.52 85.5507 121.08 85.2505 121.815 85.1805C122.548 85.1108 123.153 85.3001 123.63 85.7485C124.111 86.1932 124.395 86.8823 124.484 87.8155L124.633 89.3759C124.722 90.3124 124.574 91.0442 124.189 91.5713C123.807 92.0949 123.25 92.3915 122.518 92.4612ZM122.414 91.3723C122.732 91.3421 122.961 91.1895 123.102 90.9145C123.242 90.6396 123.285 90.2169 123.231 89.6466L123.056 87.8043C123.002 87.2404 122.879 86.8369 122.686 86.5937C122.492 86.3505 122.237 86.244 121.919 86.2742C121.599 86.3047 121.368 86.4575 121.227 86.7324C121.087 87.0074 121.043 87.4268 121.097 87.9907L121.272 89.833C121.326 90.4033 121.448 90.8102 121.638 91.0538C121.832 91.297 122.09 91.4032 122.414 91.3723ZM128.205 91.92C127.466 91.9903 126.858 91.8046 126.381 91.3627C125.904 90.9176 125.621 90.2268 125.532 89.2903L125.383 87.73C125.295 86.7967 125.441 86.0667 125.822 85.5399C126.207 85.0095 126.767 84.7094 127.503 84.6394C128.235 84.5697 128.84 84.759 129.317 85.2073C129.798 85.6521 130.083 86.3411 130.171 87.2744L130.32 88.8348C130.409 89.7713 130.261 90.5031 129.876 91.0302C129.495 91.5537 128.937 91.8503 128.205 91.92ZM128.101 90.8312C128.419 90.801 128.648 90.6484 128.789 90.3734C128.929 90.0984 128.973 89.6758 128.918 89.1054L128.743 87.2632C128.689 86.6993 128.566 86.2958 128.373 86.0526C128.18 85.8094 127.924 85.7029 127.607 85.7331C127.286 85.7636 127.055 85.9164 126.914 86.1913C126.774 86.4663 126.73 86.8857 126.784 87.4496L126.959 89.2918C127.014 89.8622 127.136 90.2691 127.326 90.5126C127.519 90.7558 127.777 90.862 128.101 90.8312ZM133.892 91.3789C133.153 91.4492 132.546 91.2634 132.069 90.8216C131.591 90.3765 131.308 89.6857 131.219 88.7492L131.071 87.1889C130.982 86.2556 131.128 85.5255 131.51 84.9988C131.894 84.4684 132.454 84.1683 133.19 84.0983C133.922 84.0286 134.527 84.2179 135.005 84.6662C135.485 85.111 135.77 85.8 135.859 86.7333L136.007 88.2936C136.096 89.2302 135.948 89.962 135.564 90.4891C135.182 91.0126 134.625 91.3092 133.892 91.3789ZM133.789 90.2901C134.106 90.2599 134.335 90.1073 134.476 89.8323C134.617 89.5573 134.66 89.1347 134.605 88.5643L134.43 86.7221C134.377 86.1582 134.253 85.7547 134.06 85.5115C133.867 85.2682 133.611 85.1617 133.294 85.192C132.973 85.2225 132.742 85.3752 132.602 85.6502C132.461 85.9252 132.418 86.3446 132.471 86.9084L132.647 88.7507C132.701 89.3211 132.823 89.728 133.013 89.9715C133.206 90.2147 133.465 90.3209 133.789 90.2901ZM139.602 92.7731L139.52 91.9176L140.192 91.7065L139.69 86.4276L138.917 86.354L138.836 85.4985L140.897 85.3024L141.023 85.9084C141.157 85.6667 141.329 85.4738 141.537 85.3297C141.746 85.1856 142.003 85.0991 142.307 85.0701C142.732 85.0297 143.106 85.1118 143.429 85.3165C143.753 85.5179 144.013 85.8184 144.212 86.2181C144.413 86.6175 144.54 87.0942 144.593 87.6484L144.603 87.7505C144.652 88.269 144.614 88.7303 144.489 89.1346C144.367 89.5354 144.164 89.8588 143.88 90.1049C143.599 90.3474 143.245 90.4891 142.817 90.5298C142.535 90.5566 142.281 90.5301 142.054 90.4503C141.83 90.367 141.633 90.2337 141.462 90.0505L141.606 91.572L142.306 91.6526L142.387 92.5081L139.602 92.7731ZM142.29 89.4812C142.653 89.4466 142.903 89.2872 143.039 89.0028C143.179 88.7181 143.227 88.3457 143.183 87.8855L143.174 87.7834C143.142 87.4497 143.077 87.1632 142.979 86.924C142.881 86.6815 142.747 86.4981 142.578 86.3735C142.412 86.2454 142.21 86.1928 141.97 86.2156C141.775 86.2341 141.608 86.2942 141.467 86.3959C141.33 86.4972 141.225 86.6331 141.153 86.8034L141.372 89.1075C141.474 89.2482 141.601 89.3506 141.754 89.4145C141.911 89.478 142.089 89.5003 142.29 89.4812ZM147.083 92.1643C146.959 92.176 146.827 92.1772 146.686 92.1677C146.548 92.1612 146.415 92.146 146.289 92.1221L146.35 91.0666C146.413 91.0737 146.482 91.077 146.557 91.0764C146.632 91.0758 146.698 91.0728 146.753 91.0676C146.957 91.0482 147.128 90.9779 147.267 90.8568C147.406 90.7356 147.5 90.5714 147.549 90.364L147.635 90.0272L145.459 85.8247L144.804 85.7939L144.723 84.9384L147.513 84.6729L147.594 85.5284L146.962 85.6867L148.009 87.9267L148.138 88.2038L148.167 88.201L148.895 85.4929L148.26 85.465L148.179 84.6095L150.779 84.3621L150.861 85.2176L150.275 85.3567L148.753 90.6516C148.679 90.9039 148.576 91.1377 148.443 91.3531C148.313 91.5715 148.137 91.7533 147.916 91.8987C147.697 92.0437 147.42 92.1322 147.083 92.1643ZM154.293 89.4378C153.775 89.4871 153.319 89.421 152.926 89.2393C152.536 89.0573 152.223 88.7846 151.989 88.421C151.755 88.0542 151.614 87.6229 151.567 87.1271L151.503 86.4514C151.428 85.6607 151.467 84.9899 151.62 84.439C151.774 83.8881 152.02 83.4462 152.357 83.1132C152.695 82.777 153.099 82.5391 153.57 82.3995C153.879 82.3178 154.104 82.2277 154.245 82.1292C154.389 82.0272 154.452 81.879 154.434 81.6846L155.532 81.5801L155.549 81.6078C155.586 81.9248 155.57 82.1863 155.502 82.3923C155.436 82.598 155.329 82.7667 155.182 82.8985C155.034 83.0302 154.853 83.1406 154.639 83.2296C154.428 83.3151 154.199 83.3942 153.951 83.4668C153.636 83.5589 153.381 83.6764 153.185 83.8193C152.992 83.9586 152.848 84.126 152.752 84.3215C152.659 84.5167 152.604 84.7443 152.586 85.0044L152.608 85.0268C152.771 84.8511 152.97 84.7014 153.203 84.5778C153.437 84.4542 153.701 84.3784 153.996 84.3504C154.466 84.3056 154.882 84.3706 155.245 84.5454C155.609 84.7201 155.9 84.9834 156.12 85.3352C156.343 85.6835 156.477 86.0991 156.523 86.5819L156.533 86.684C156.58 87.1798 156.523 87.6267 156.361 88.0247C156.2 88.4226 155.944 88.7461 155.595 88.9951C155.246 89.2409 154.812 89.3885 154.293 89.4378ZM154.19 88.349C154.433 88.3258 154.627 88.2486 154.771 88.1171C154.918 87.9821 155.019 87.8041 155.073 87.5831C155.127 87.3589 155.141 87.1042 155.113 86.8191L155.104 86.717C155.078 86.4513 155.017 86.22 154.92 86.0233C154.826 85.8262 154.694 85.6785 154.525 85.5802C154.358 85.4783 154.152 85.4391 153.905 85.4625C153.662 85.4857 153.468 85.563 153.324 85.6944C153.179 85.8226 153.079 85.9924 153.024 86.2036C152.969 86.4149 152.954 86.6534 152.979 86.9191L152.986 86.992C153.014 87.2804 153.074 87.5314 153.166 87.745C153.261 87.9582 153.393 88.1191 153.56 88.2274C153.73 88.3322 153.94 88.3727 154.19 88.349ZM157.01 89.6894L159.2 81.7264L160.508 81.602L158.318 89.565L157.01 89.6894ZM161.225 88.6753L161.144 87.8246L161.884 87.6071L161.573 84.3455L160.806 84.2713L160.724 83.4158L165.333 82.9774L165.509 84.8294L164.619 84.914L164.489 84.1661L163.002 84.3076L163.303 87.4721L164.07 87.5462L164.151 88.3969L161.225 88.6753ZM168.949 88.0434C168.43 88.0927 167.974 88.0217 167.58 87.8303C167.185 87.6389 166.87 87.3517 166.634 86.9687C166.398 86.5824 166.255 86.1268 166.205 85.6018L166.195 85.4998C166.146 84.978 166.201 84.5068 166.36 84.0862C166.519 83.6623 166.773 83.3194 167.121 83.0574C167.471 82.7919 167.904 82.6346 168.42 82.5856C168.941 82.5359 169.398 82.6086 169.789 82.8035C170.18 82.9952 170.494 83.2825 170.73 83.6656C170.966 84.0486 171.108 84.5026 171.158 85.0276L171.168 85.1296C171.218 85.6546 171.164 86.129 171.004 86.5529C170.845 86.9735 170.591 87.3149 170.243 87.5769C169.896 87.8388 169.464 87.9943 168.949 88.0434ZM168.845 86.9545C169.091 86.9311 169.286 86.8456 169.429 86.6979C169.572 86.5502 169.669 86.3546 169.721 86.1109C169.773 85.864 169.784 85.5818 169.754 85.2642L169.744 85.1621C169.714 84.851 169.651 84.5808 169.554 84.3513C169.457 84.1186 169.322 83.9433 169.151 83.8256C168.982 83.7043 168.773 83.6555 168.524 83.6792C168.281 83.7024 168.086 83.7895 167.94 83.9408C167.794 84.0887 167.695 84.2862 167.644 84.5331C167.595 84.7764 167.585 85.0536 167.615 85.3647L167.625 85.4668C167.655 85.7844 167.717 86.0597 167.811 86.2927C167.908 86.5254 168.043 86.7006 168.214 86.8184C168.385 86.9329 168.596 86.9783 168.845 86.9545ZM171.85 89.2535L171.489 86.5902L171.946 86.5467C172.089 86.3664 172.205 86.1935 172.293 86.0281C172.382 85.8594 172.449 85.683 172.493 85.4989C172.538 85.3116 172.564 85.1048 172.572 84.8784C172.582 84.6485 172.577 84.3825 172.554 84.0805L172.5 83.3058L171.743 83.2307L171.661 82.3752L176.299 81.934L177.057 81.8618L177.138 82.7173L176.394 82.9353L176.695 86.1046L177.459 86.032L177.615 88.705L176.293 88.8308L176.143 87.2559L173.027 87.5523L173.177 89.1273L171.85 89.2535ZM173.57 86.3971L175.285 86.2339L174.997 83.2007L173.927 83.3024L173.974 83.9455C174.011 84.4684 173.991 84.933 173.915 85.3391C173.839 85.742 173.724 86.0947 173.57 86.3971Z" fill="white"/>
<path d="M40.9643 76.2155C40.4469 76.2751 39.9892 76.2131 39.5912 76.0295C39.1933 75.846 38.8726 75.5651 38.6291 75.1868C38.3853 74.8053 38.2332 74.3526 38.1729 73.8287L38.1612 73.7268C38.1012 73.2062 38.1468 72.734 38.2979 72.3103C38.4486 71.8834 38.6953 71.5355 39.0379 71.2667C39.3833 70.9942 39.8131 70.8284 40.3273 70.7692C40.8479 70.7092 41.3058 70.7728 41.7009 70.96C42.0956 71.1439 42.4147 71.425 42.6582 71.8033C42.9016 72.1816 43.0535 72.6327 43.1138 73.1565L43.1255 73.2584C43.1859 73.7823 43.1407 74.2577 42.99 74.6846C42.8389 75.1084 42.592 75.4546 42.2494 75.7234C41.9069 75.9923 41.4785 76.1563 40.9643 76.2155ZM40.8392 75.1289C41.0849 75.1006 41.2778 75.0112 41.4178 74.8608C41.5577 74.7103 41.6513 74.5128 41.6985 74.2681C41.7453 74.0203 41.7505 73.7379 41.714 73.4209L41.7022 73.3191C41.6665 73.0086 41.5978 72.7397 41.4963 72.5122C41.3943 72.2814 41.2565 72.1089 41.0828 71.9945C40.9119 71.8766 40.702 71.832 40.453 71.8606C40.2104 71.8886 40.0178 71.9796 39.8749 72.1336C39.7318 72.2845 39.6368 72.4838 39.5899 72.7317C39.546 72.9759 39.5419 73.2533 39.5776 73.5637L39.5893 73.6656C39.6258 73.9825 39.6934 74.2565 39.7921 74.4876C39.8941 74.7184 40.0319 74.8909 40.2056 75.0053C40.379 75.1164 40.5902 75.1576 40.8392 75.1289ZM47.0791 75.4081L46.9813 74.5593L47.7213 74.3266L47.6442 73.6572C47.5275 73.6968 47.4069 73.7304 47.2822 73.7579C47.1572 73.7821 47.0317 73.8014 46.9055 73.816C46.4011 73.8741 45.9626 73.8508 45.5901 73.7463C45.2176 73.6417 44.9205 73.4515 44.6987 73.1756C44.4765 72.8964 44.3395 72.5321 44.2877 72.0826L44.2123 71.4277L43.4437 71.3688L43.3459 70.5199L45.5142 70.2702L46.1206 70.2004L46.2183 71.0493L45.6287 71.2646L45.7041 71.9195C45.7306 72.1491 45.784 72.3281 45.8643 72.4564C45.9442 72.5816 46.0587 72.6651 46.2077 72.7069C46.3595 72.7451 46.5503 72.751 46.7799 72.7246C46.9125 72.7093 47.0378 72.6883 47.156 72.6616C47.2774 72.6345 47.398 72.6009 47.5179 72.5609L47.3465 71.0717L46.7185 70.9966L46.6202 70.1429L49.4045 69.8222L49.5028 70.676L48.7629 70.9086L49.1377 74.1635L49.9112 74.2219L50.0089 75.0708L47.0791 75.4081ZM50.7996 74.9797L50.7018 74.1308L51.4418 73.8982L51.067 70.6433L50.2935 70.5849L50.1952 69.7312L52.9747 69.4111L53.073 70.2649L52.4786 70.4808L52.6082 71.6061L54.335 71.4073L54.2054 70.2819L53.5823 70.2062L53.484 69.3525L54.0904 69.2827L55.5068 69.1195L56.2635 69.0324L56.3618 69.8861L55.6219 70.1188L55.9967 73.3737L56.7701 73.432L56.8679 74.2809L54.0884 74.601L53.9907 73.7521L54.5802 73.5368L54.4601 72.4939L52.7333 72.6927L52.8534 73.7356L53.4813 73.8108L53.5791 74.6596L50.7996 74.9797ZM60.0763 74.0147C59.5589 74.0743 59.1012 74.0123 58.7032 73.8287C58.3053 73.6452 57.9846 73.3643 57.7411 72.986C57.4973 72.6045 57.3452 72.1518 57.2849 71.6279L57.2732 71.5261C57.2132 71.0054 57.2588 70.5332 57.4099 70.1095C57.5606 69.6826 57.8072 69.3347 58.1498 69.0659C58.4953 68.7934 58.9251 68.6276 59.4393 68.5684C59.9599 68.5085 60.4178 68.5721 60.8129 68.7592C61.2076 68.9431 61.5267 69.2242 61.7701 69.6025C62.0136 69.9808 62.1655 70.4319 62.2258 70.9557L62.2375 71.0576C62.2979 71.5815 62.2527 72.0569 62.1019 72.4839C61.9509 72.9076 61.704 73.2538 61.3614 73.5226C61.0188 73.7915 60.5904 73.9555 60.0763 74.0147ZM59.9511 72.9281C60.1969 72.8998 60.3898 72.8104 60.5297 72.66C60.6697 72.5095 60.7633 72.312 60.8105 72.0673C60.8573 71.8195 60.8625 71.5371 60.826 71.2202L60.8142 71.1183C60.7785 70.8078 60.7098 70.5389 60.6083 70.3114C60.5063 70.0806 60.3685 69.9081 60.1948 69.7937C60.0239 69.6758 59.814 69.6312 59.565 69.6598C59.3224 69.6878 59.1297 69.7788 58.9869 69.9328C58.8437 70.0837 58.7487 70.283 58.7019 70.5309C58.658 70.7751 58.6538 71.0525 58.6896 71.3629L58.7013 71.4648C58.7378 71.7817 58.8054 72.0557 58.9041 72.2869C59.0061 72.5176 59.1439 72.6901 59.3176 72.8045C59.491 72.9156 59.7021 72.9568 59.9511 72.9281ZM65.7244 70.3071L65.597 69.2011L70.8601 68.5951L70.9874 69.7011L65.7244 70.3071ZM74.7235 72.2248L74.6168 71.2983L76.6232 68.5753C76.8255 68.2833 76.982 68.0343 77.0926 67.8283C77.2028 67.619 77.2763 67.4319 77.313 67.2671C77.3526 67.0987 77.3633 66.9353 77.345 66.7768C77.3134 66.502 77.2074 66.2783 77.0269 66.1057C76.8497 65.9328 76.6091 65.8638 76.3052 65.8988C75.9785 65.9364 75.7434 66.0716 75.5999 66.3044C75.4559 66.534 75.4053 66.8347 75.4482 67.2066L74.0706 67.3653L74.0575 67.3373C73.9986 66.9115 74.0451 66.5179 74.1968 66.1564C74.3513 65.7912 74.5981 65.4876 74.9372 65.2454C75.2796 65.0028 75.6981 64.853 76.1929 64.796C76.678 64.7402 77.1036 64.7796 77.4697 64.9144C77.8387 65.0456 78.1349 65.2556 78.3582 65.5445C78.5815 65.8333 78.7166 66.1815 78.7635 66.5889C78.7959 66.8703 78.7763 67.1412 78.7048 67.4018C78.6328 67.6591 78.5059 67.9375 78.3242 68.2369C78.1424 68.5364 77.9038 68.8833 77.6085 69.2778L76.4055 70.9105L76.418 70.9336L78.2467 70.723L78.2419 70.0404L79.3381 69.9142L79.5403 71.6701L74.7235 72.2248ZM82.3024 71.4553C82.0567 71.4836 81.7998 71.487 81.5319 71.4654C81.2676 71.4467 81.02 71.4015 80.7889 71.3298L80.8311 70.2878C81.0434 70.3387 81.2587 70.3729 81.477 70.3904C81.6981 70.4042 81.9121 70.3993 82.1191 70.3754C82.5298 70.3281 82.837 70.1502 83.0407 69.8417C83.2443 69.5332 83.3151 69.081 83.2531 68.4852L83.2311 68.3796C83.0961 68.6016 82.9232 68.7788 82.7123 68.9112C82.5044 69.04 82.2678 69.1197 82.0026 69.1502C81.5854 69.1983 81.2072 69.1435 80.868 68.986C80.5316 68.8249 80.2552 68.5732 80.0389 68.2312C79.8254 67.8855 79.6896 67.4604 79.6315 66.9559C79.5768 66.4805 79.6293 66.0403 79.7891 65.6353C79.9521 65.2298 80.1988 64.8967 80.5292 64.6358C80.8625 64.3714 81.2571 64.2129 81.7131 64.1604C82.1949 64.1049 82.6314 64.1677 83.0225 64.3487C83.4136 64.5298 83.7355 64.8204 83.988 65.2206C84.2405 65.6207 84.4012 66.12 84.4701 66.7182L84.6466 68.2511C84.7166 68.859 84.6617 69.3929 84.482 69.8527C84.3056 70.3121 84.0284 70.6798 83.6507 70.956C83.2757 71.2285 82.8263 71.395 82.3024 71.4553ZM82.1887 68.077C82.4053 68.052 82.5943 67.986 82.7557 67.879C82.9166 67.7687 83.0403 67.6332 83.1267 67.4726L83.0395 66.7158C82.9796 66.1952 82.8438 65.8127 82.6321 65.5684C82.4201 65.3208 82.1589 65.2149 81.8485 65.2507C81.6609 65.2723 81.5018 65.3561 81.3712 65.5022C81.2402 65.6451 81.1453 65.8313 81.0865 66.0609C81.0306 66.2869 81.0178 66.5309 81.0479 66.7928C81.0807 67.0774 81.1448 67.3207 81.2401 67.5227C81.3387 67.7243 81.4673 67.8733 81.6258 67.9698C81.7844 68.0662 81.972 68.1019 82.1887 68.077ZM88.07 70.7911C87.6399 70.8407 87.2362 70.8069 86.859 70.6898C86.4847 70.569 86.1753 70.372 85.9308 70.0987C85.6864 69.8254 85.5452 69.4812 85.5072 69.0662L85.5141 69.0408L86.8645 68.8165C86.9006 69.1302 87.0179 69.3657 87.2162 69.5231C87.4142 69.6772 87.6571 69.7377 87.9449 69.7046C88.2747 69.6666 88.5053 69.5204 88.6366 69.2661C88.7678 69.0118 88.8119 68.6971 88.7687 68.322C88.7218 67.9145 88.6001 67.5976 88.4036 67.3712C88.2071 67.1447 87.9424 67.0507 87.6093 67.0891C87.3409 67.12 87.1397 67.1939 87.0057 67.3109C86.875 67.4276 86.7887 67.5751 86.747 67.7536L85.486 67.8153L85.4405 63.8344L89.5054 63.3663L89.6909 64.9767L88.8177 65.0773L88.6369 64.6164L86.7354 64.8354L86.7242 66.4881C86.804 66.4134 86.8978 66.3453 87.0054 66.2837C87.1126 66.219 87.2292 66.1646 87.3552 66.1206C87.4841 66.073 87.6229 66.0406 87.7716 66.0235C88.2233 65.9616 88.6185 66.0079 88.9574 66.1622C89.2992 66.3129 89.573 66.5566 89.7789 66.8933C89.988 67.2297 90.1214 67.6485 90.1791 68.1497C90.2313 68.6025 90.1858 69.0189 90.0428 69.3991C89.9027 69.7757 89.6667 70.0879 89.3348 70.3358C89.0058 70.5802 88.5842 70.7319 88.07 70.7911ZM91.3228 70.3134L91.1798 69.0716L92.5914 68.909L92.7344 70.1508L91.3228 70.3134ZM96.1077 69.8656C95.3704 69.9505 94.7589 69.7768 94.2733 69.3445C93.7874 68.9089 93.4906 68.2239 93.383 67.2893L93.2037 65.7322C93.0964 64.8008 93.2283 64.068 93.5993 63.5338C93.9732 62.996 94.5272 62.6848 95.2612 62.6003C95.9921 62.5161 96.6007 62.6934 97.087 63.1322C97.5762 63.5674 97.8744 64.2506 97.9817 65.182L98.161 66.7391C98.2686 67.6737 98.1353 68.4082 97.761 68.9428C97.3897 69.4738 96.8385 69.7814 96.1077 69.8656ZM95.9826 68.779C96.2995 68.7425 96.5255 68.5854 96.6607 68.3077C96.7958 68.03 96.8306 67.6066 96.765 67.0374L96.5533 65.199C96.4885 64.6363 96.3572 64.2353 96.1592 63.996C95.9613 63.7566 95.7038 63.6552 95.3869 63.6917C95.0668 63.7286 94.8391 63.8858 94.704 64.1635C94.5689 64.4412 94.5337 64.8614 94.5985 65.4241L94.8102 67.2625C94.8757 67.8317 95.0059 68.2361 95.2006 68.4759C95.3985 68.7152 95.6592 68.8163 95.9826 68.779ZM101.783 69.212C101.046 69.297 100.434 69.1232 99.9487 68.6909C99.4628 68.2554 99.166 67.5703 99.0584 66.6357L98.8791 65.0786C98.7718 64.1473 98.9037 63.4145 99.2747 62.8803C99.6486 62.3424 100.203 62.0313 100.937 61.9467C101.667 61.8626 102.276 62.0399 102.762 62.4787C103.252 62.9138 103.55 63.5971 103.657 64.5284L103.836 66.0855C103.944 67.0201 103.811 67.7547 103.436 68.2893C103.065 68.8203 102.514 69.1279 101.783 69.212ZM101.658 68.1255C101.975 68.089 102.201 67.9319 102.336 67.6542C102.471 67.3765 102.506 66.9531 102.44 66.3839L102.229 64.5455C102.164 63.9828 102.033 63.5818 101.835 63.3424C101.637 63.1031 101.379 63.0017 101.062 63.0382C100.742 63.075 100.515 63.2323 100.379 63.51C100.244 63.7877 100.209 64.2079 100.274 64.7706L100.486 66.609C100.551 67.1782 100.681 67.5826 100.876 67.8223C101.074 68.0617 101.335 68.1627 101.658 68.1255ZM107.458 68.5585C106.721 68.6434 106.11 68.4697 105.624 68.0374C105.138 67.6018 104.841 66.9168 104.734 65.9822L104.554 64.4251C104.447 63.4938 104.579 62.761 104.95 62.2267C105.324 61.6889 105.878 61.3777 106.612 61.2932C107.343 61.209 107.951 61.3863 108.438 61.8251C108.927 62.2603 109.225 62.9436 109.332 63.8749L109.512 65.432C109.619 66.3666 109.486 67.1012 109.112 67.6358C108.74 68.1668 108.189 68.4744 107.458 68.5585ZM107.333 67.4719C107.65 67.4354 107.876 67.2784 108.011 67.0007C108.147 66.723 108.181 66.2995 108.116 65.7304L107.904 63.8919C107.839 63.3292 107.708 62.9282 107.51 62.6889C107.312 62.4495 107.055 62.3481 106.738 62.3846C106.418 62.4215 106.19 62.5788 106.055 62.8565C105.92 63.1342 105.884 63.5544 105.949 64.117L106.161 65.9555C106.227 66.5246 106.357 66.9291 106.551 67.1688C106.749 67.4081 107.01 67.5092 107.333 67.4719ZM113.194 69.8395L113.096 68.9857L113.763 68.7614L113.157 63.4935L112.383 63.4351L112.285 62.5814L114.342 62.3446L114.48 62.9479C114.609 62.7037 114.777 62.5075 114.982 62.3593C115.188 62.2111 115.443 62.1195 115.747 62.0844C116.171 62.0357 116.546 62.1104 116.874 62.3086C117.201 62.5036 117.468 62.7989 117.674 63.1946C117.883 63.5899 118.02 64.064 118.083 64.617L118.095 64.7189C118.154 65.2363 118.126 65.6983 118.009 66.105C117.895 66.5081 117.698 66.8355 117.419 67.0871C117.143 67.3352 116.791 67.4838 116.364 67.533C116.083 67.5654 115.828 67.5439 115.6 67.4686C115.375 67.3897 115.175 67.2604 115 67.0806L115.175 68.5989L115.876 68.6657L115.974 69.5194L113.194 69.8395ZM115.817 66.495C116.18 66.4533 116.426 66.2889 116.557 66.0019C116.691 65.7145 116.731 65.3412 116.678 64.882L116.667 64.7801C116.628 64.447 116.558 64.1619 116.455 63.9247C116.352 63.6842 116.215 63.5034 116.044 63.3822C115.875 63.2575 115.672 63.2088 115.432 63.2364C115.238 63.2587 115.072 63.3221 114.933 63.4266C114.798 63.5307 114.696 63.6686 114.627 63.8403L114.892 66.1396C114.996 66.2783 115.126 66.378 115.28 66.4389C115.438 66.4994 115.617 66.5181 115.817 66.495ZM120.662 69.0828C120.539 69.0969 120.407 69.1007 120.265 69.0941C120.127 69.0903 119.994 69.0777 119.867 69.0563L119.908 67.9998C119.971 68.0057 120.04 68.0076 120.115 68.0055C120.19 68.0034 120.255 67.9991 120.31 67.9928C120.514 67.9694 120.684 67.8957 120.82 67.7719C120.957 67.648 121.048 67.4819 121.092 67.2736L121.171 66.9352L118.913 62.7766L118.257 62.7587L118.159 61.905L120.944 61.5843L121.042 62.4381L120.413 62.6088L121.504 64.8277L121.639 65.1021L121.668 65.0988L122.342 62.3768L121.706 62.3616L121.608 61.5078L124.203 61.209L124.302 62.0627L123.719 62.2133L122.302 67.5373C122.233 67.791 122.134 68.0269 122.005 68.2449C121.88 68.4657 121.708 68.651 121.489 68.8007C121.274 68.95 120.998 69.0441 120.662 69.0828ZM127.817 66.2142C127.3 66.2737 126.843 66.2166 126.446 66.0428C126.052 65.8686 125.735 65.602 125.493 65.2431C125.252 64.881 125.103 64.4526 125.046 63.9578L124.968 63.2835C124.877 62.4945 124.903 61.8231 125.046 61.2692C125.188 60.7154 125.425 60.2687 125.756 59.9291C126.087 59.5863 126.487 59.3405 126.954 59.1916C127.262 59.1037 127.485 59.0092 127.625 58.908C127.766 58.8031 127.826 58.6537 127.804 58.4597L128.9 58.3334L128.918 58.3609C128.961 58.677 128.95 58.9388 128.886 59.1461C128.824 59.3531 128.721 59.5239 128.576 59.6585C128.431 59.7932 128.252 59.9071 128.04 60.0004C127.831 60.09 127.603 60.1736 127.357 60.2511C127.043 60.3495 126.791 60.472 126.598 60.6187C126.408 60.7618 126.267 60.932 126.175 61.1294C126.086 61.3264 126.035 61.555 126.023 61.8154L126.045 61.8374C126.205 61.6584 126.4 61.5049 126.631 61.3767C126.862 61.2485 127.125 61.1675 127.419 61.1336C127.888 61.0796 128.306 61.1364 128.672 61.3038C129.039 61.4713 129.335 61.7288 129.562 62.0762C129.792 62.4201 129.934 62.8329 129.99 63.3147L130.002 63.4166C130.059 63.9114 130.01 64.3593 129.857 64.7604C129.703 65.1615 129.454 65.4899 129.11 65.7458C128.765 65.9985 128.335 66.1546 127.817 66.2142ZM127.692 65.1276C127.935 65.0997 128.127 65.0186 128.269 64.8843C128.413 64.7464 128.51 64.5664 128.56 64.3444C128.61 64.1192 128.618 63.8643 128.585 63.5797L128.573 63.4778C128.543 63.2127 128.477 62.9827 128.376 62.7879C128.278 62.5927 128.144 62.4477 127.972 62.3527C127.803 62.2542 127.596 62.2191 127.35 62.2474C127.108 62.2753 126.916 62.3564 126.774 62.4907C126.632 62.6218 126.535 62.7934 126.484 63.0057C126.433 63.218 126.423 63.4568 126.454 63.7219L126.462 63.7947C126.495 64.0825 126.56 64.3323 126.657 64.544C126.756 64.7553 126.891 64.9135 127.06 65.0185C127.232 65.1199 127.443 65.1563 127.692 65.1276ZM130.538 66.412L132.57 58.4072L133.875 58.257L131.843 66.2617L130.538 66.412ZM134.732 65.3147L134.634 64.4658L135.37 64.2337L134.995 60.9788L134.226 60.9199L134.128 60.0661L138.726 59.5366L138.939 61.3847L138.052 61.487L137.907 60.7418L136.422 60.9127L136.786 64.0706L137.555 64.1295L137.652 64.9784L134.732 65.3147ZM142.442 64.5301C141.925 64.5896 141.467 64.5277 141.069 64.3441C140.671 64.1606 140.35 63.8797 140.107 63.5014C139.863 63.1199 139.711 62.6672 139.651 62.1433L139.639 62.0414C139.579 61.5208 139.625 61.0486 139.776 60.6249C139.926 60.1979 140.173 59.85 140.516 59.5812C140.861 59.3088 141.291 59.143 141.805 59.0838C142.326 59.0238 142.784 59.0874 143.179 59.2746C143.573 59.4585 143.893 59.7396 144.136 60.1179C144.379 60.4961 144.531 60.9472 144.592 61.4711L144.603 61.573C144.664 62.0969 144.619 62.5723 144.468 62.9992C144.317 63.4229 144.07 63.7692 143.727 64.038C143.385 64.3068 142.956 64.4708 142.442 64.5301ZM142.317 63.4435C142.563 63.4152 142.756 63.3258 142.896 63.1753C143.036 63.0249 143.129 62.8273 143.176 62.5827C143.223 62.3348 143.228 62.0524 143.192 61.7355L143.18 61.6337C143.144 61.3232 143.076 61.0542 142.974 60.8267C142.872 60.596 142.734 60.4234 142.561 60.3091C142.39 60.1912 142.18 60.1465 141.931 60.1752C141.688 60.2031 141.496 60.2941 141.353 60.4482C141.21 60.599 141.115 60.7984 141.068 61.0462C141.024 61.2905 141.02 61.5679 141.055 61.8783L141.067 61.9802C141.104 62.2971 141.171 62.5711 141.27 62.8022C141.372 63.033 141.51 63.2055 141.683 63.3198C141.857 63.4309 142.068 63.4722 142.317 63.4435ZM145.367 65.6826L144.953 63.0269L145.409 62.9744C145.548 62.7913 145.661 62.6161 145.746 62.449C145.831 62.2786 145.895 62.1009 145.936 61.916C145.976 61.7278 145.998 61.5205 146.002 61.294C146.008 61.0639 145.997 60.7981 145.969 60.4966L145.899 59.7231L145.14 59.6631L145.042 58.8093L149.67 58.2765L150.426 58.1893L150.525 59.043L149.785 59.2757L150.149 62.4384L150.911 62.3507L151.12 65.0201L149.8 65.172L149.619 63.6004L146.51 63.9584L146.691 65.5301L145.367 65.6826ZM147.029 62.7927L148.742 62.5955L148.393 59.5687L147.326 59.6916L147.385 60.3335C147.432 60.8557 147.422 61.3205 147.354 61.7281C147.286 62.1324 147.178 62.4873 147.029 62.7927Z" fill="white"/>
<path d="M21.5457 50.3211L21.4717 49.5335L22.2164 49.3165L22.1772 48.8984L22.0994 48.9057C21.5225 48.9599 21.0022 48.9025 20.5384 48.7335C20.0743 48.5613 19.6979 48.2958 19.4092 47.9371C19.1234 47.5749 18.9564 47.1361 18.908 46.6208C18.8584 46.0925 18.9414 45.6188 19.1571 45.1997C19.3728 44.7805 19.6906 44.4401 20.1107 44.1783C20.534 43.9163 21.0341 43.7581 21.611 43.704L21.6888 43.6967L21.6487 43.2689L20.8766 43.1942L20.8026 42.4067L23.7341 42.1315L23.808 42.919L23.0633 43.1361L23.1035 43.5639L23.1618 43.5584C23.7387 43.5042 24.2595 43.5665 24.7242 43.7452C25.1886 43.9207 25.5658 44.1942 25.8557 44.5659C26.1453 44.9343 26.3149 45.3827 26.3645 45.9109C26.4129 46.4262 26.3288 46.8886 26.1122 47.298C25.8956 47.7074 25.5737 48.0401 25.1466 48.296C24.7226 48.5515 24.2238 48.7063 23.6502 48.7601L23.5919 48.7656L23.6311 49.1837L24.4032 49.2583L24.4771 50.0459L21.5457 50.3211ZM22.0077 47.9286L22.0854 47.9213L21.7815 44.6836L21.7037 44.6909C21.3861 44.7207 21.1167 44.8114 20.8955 44.9629C20.6743 45.1144 20.5105 45.3195 20.404 45.5779C20.3004 45.8329 20.2652 46.137 20.2983 46.4902C20.3303 46.8305 20.4206 47.1131 20.5692 47.3378C20.7207 47.559 20.919 47.7202 21.1639 47.8214C21.4088 47.9227 21.69 47.9584 22.0077 47.9286ZM23.5001 47.7885L23.5682 47.7821C23.8826 47.7525 24.1506 47.6653 24.3724 47.5202C24.5939 47.3719 24.7567 47.1735 24.8609 46.9251C24.968 46.6731 25.0058 46.3785 24.9741 46.0415C24.9407 45.685 24.8477 45.3913 24.6952 45.1604C24.5457 44.9259 24.3484 44.7564 24.1031 44.6519C23.8576 44.5442 23.5777 44.5051 23.2633 44.5346L23.1961 44.5507L23.5001 47.7885ZM29.7513 49.2319C29.2327 49.2806 28.7764 49.209 28.3824 49.0172C27.9884 48.8253 27.6737 48.5377 27.4383 48.1544C27.2025 47.7678 27.06 47.312 27.0107 46.787L27.0012 46.6849C26.9522 46.1631 27.0077 45.692 27.1676 45.2715C27.3273 44.8479 27.5812 44.5052 27.9294 44.2437C28.2805 43.9786 28.7137 43.8218 29.229 43.7735C29.7508 43.7245 30.2072 43.7977 30.5983 43.9931C30.9891 44.1853 31.3022 44.473 31.5376 44.8564C31.773 45.2397 31.9154 45.6939 31.9647 46.2189L31.9743 46.321C32.0236 46.846 31.9684 47.3204 31.8087 47.7441C31.6487 48.1645 31.3947 48.5055 31.0465 48.767C30.6983 49.0286 30.2666 49.1836 29.7513 49.2319ZM29.649 48.143C29.8954 48.1199 30.0901 48.0346 30.2332 47.8871C30.3762 47.7396 30.474 47.544 30.5263 47.3005C30.5783 47.0536 30.5894 46.7714 30.5596 46.4538L30.55 46.3517C30.5208 46.0406 30.4578 45.7702 30.3611 45.5406C30.264 45.3078 30.1298 45.1324 29.9586 45.0144C29.7902 44.8929 29.5813 44.8439 29.3317 44.8673C29.0886 44.8901 28.8941 44.977 28.7481 45.1281C28.6017 45.2759 28.5025 45.4732 28.4505 45.72C28.4014 45.9633 28.3915 46.2405 28.4207 46.5516L28.4303 46.6537C28.4601 46.9713 28.5219 47.2467 28.6157 47.4798C28.7128 47.7127 28.847 47.8881 29.0182 48.006C29.1892 48.1208 29.3995 48.1664 29.649 48.143ZM32.97 50.867L32.8896 50.0113L33.5614 49.8011L33.0657 44.5216L32.2937 44.447L32.2133 43.5914L34.2746 43.3979L34.4002 44.004C34.5344 43.7625 34.706 43.5699 34.9148 43.426C35.1236 43.2822 35.3803 43.196 35.685 43.1674C36.1096 43.1275 36.4835 43.2101 36.8068 43.4151C37.1298 43.617 37.3902 43.9178 37.588 44.3178C37.789 44.7174 37.9155 45.1943 37.9675 45.7485L37.9771 45.8506C38.0258 46.3691 37.9873 46.8305 37.8618 47.2346C37.7392 47.6352 37.5358 47.9584 37.2515 48.2041C36.9702 48.4463 36.6156 48.5875 36.1878 48.6277C35.9059 48.6541 35.6516 48.6273 35.425 48.5472C35.2014 48.4636 35.0041 48.3301 34.8332 48.1467L34.9761 49.6683L35.6752 49.7498L35.7556 50.6054L32.97 50.867ZM35.6626 47.5784C36.0256 47.5443 36.2755 47.3852 36.4123 47.101C36.5523 46.8164 36.6008 46.4441 36.5576 45.9839L36.548 45.8818C36.5166 45.548 36.4521 45.2614 36.3545 45.0221C36.2565 44.7795 36.1232 44.5959 35.9545 44.4711C35.7888 44.3428 35.586 44.2899 35.3462 44.3124C35.1518 44.3307 34.9841 44.3906 34.8432 44.4921C34.7056 44.5933 34.6006 44.729 34.5283 44.8993L34.7447 47.2036C34.8462 47.3445 34.9735 47.4469 35.1267 47.511C35.283 47.5748 35.4617 47.5973 35.6626 47.5784ZM38.8812 48.2718L38.8013 47.4211L39.546 47.204L39.2398 43.942L38.4677 43.8673L38.3874 43.0117L39.1457 42.9405L40.9007 42.7758L42.5811 46.257L42.6103 46.2542L43.6231 42.5202L45.4024 42.3531L46.1559 42.2824L46.2363 43.138L45.4964 43.3546L45.8027 46.6166L46.5699 46.6917L46.6498 47.5425L43.9419 47.7967L43.8621 46.9459L44.3831 46.7499L44.1828 44.6157L44.1532 44.6136L43.2273 47.8638L42.2745 47.9532L40.7945 44.9878L40.7658 44.9954L40.9607 47.0712L41.514 47.1664L41.5939 48.0171L38.8812 48.2718ZM49.0901 47.4163C48.5683 47.4653 48.1403 47.3649 47.8063 47.1151C47.4719 46.862 47.2821 46.4941 47.2367 46.0112C47.1902 45.5153 47.3534 45.0946 47.7264 44.7489C48.099 44.4001 48.6727 44.1893 49.4473 44.1166L50.1424 44.0513L50.1059 43.6624C50.0822 43.4096 49.9885 43.2124 49.8248 43.0708C49.664 42.9257 49.4362 42.867 49.1413 42.8947C48.9889 42.909 48.8547 42.9412 48.7384 42.9914C48.6218 43.0383 48.5165 43.1005 48.4224 43.178L48.3759 43.8837L47.355 43.9795L47.2073 42.6153C47.4682 42.4338 47.7545 42.2794 48.0662 42.1521C48.3779 42.0247 48.7315 41.9425 49.1269 41.9054C49.8139 41.8409 50.3719 41.9503 50.8006 42.2338C51.2291 42.514 51.4712 42.9506 51.5268 43.5437L51.7304 45.7119C51.7371 45.7832 51.7438 45.8545 51.7505 45.9258C51.7601 45.9935 51.7728 46.0594 51.7886 46.1233L52.3453 46.1495L52.4252 47.0002L50.6653 47.1655C50.6211 47.0781 50.5764 46.9842 50.531 46.8838C50.4856 46.7835 50.4499 46.6822 50.424 46.58C50.2755 46.8097 50.0923 47.0002 49.8744 47.1514C49.6594 47.2991 49.398 47.3874 49.0901 47.4163ZM49.3707 46.3307C49.5684 46.3121 49.7522 46.2507 49.9223 46.1465C50.092 46.039 50.2186 45.9078 50.3022 45.7528L50.2241 44.9215L49.5241 44.9872C49.213 45.0164 48.9831 45.1099 48.8344 45.2678C48.689 45.4253 48.6257 45.6045 48.6446 45.8054C48.6622 45.9934 48.7342 46.1338 48.8607 46.2265C48.99 46.3157 49.16 46.3505 49.3707 46.3307ZM57.8893 46.5902C57.3707 46.6389 56.9144 46.5673 56.5204 46.3755C56.1264 46.1836 55.8117 45.896 55.5763 45.5127C55.3405 45.1261 55.198 44.6703 55.1487 44.1453L55.1391 44.0432C55.0902 43.5214 55.1456 43.0503 55.3056 42.6298C55.4653 42.2062 55.7192 41.8635 56.0674 41.602C56.4185 41.3369 56.8517 41.1801 57.367 41.1318C57.8888 41.0828 58.3452 41.156 58.7363 41.3514C59.1271 41.5436 59.4402 41.8313 59.6756 42.2147C59.911 42.598 60.0534 43.0522 60.1027 43.5772L60.1123 43.6793C60.1615 44.2043 60.1064 44.6787 59.9467 45.1024C59.7867 45.5228 59.5327 45.8638 59.1845 46.1253C58.8363 46.3869 58.4046 46.5419 57.8893 46.5902ZM57.787 45.5013C58.0333 45.4782 58.228 45.3929 58.3711 45.2454C58.5142 45.0979 58.6119 44.9023 58.6643 44.6588C58.7163 44.4119 58.7274 44.1297 58.6976 43.8121L58.688 43.71C58.6588 43.3989 58.5958 43.1285 58.499 42.8989C58.402 42.6661 58.2678 42.4907 58.0965 42.3727C57.9282 42.2512 57.7192 42.2022 57.4697 42.2256C57.2266 42.2484 57.0321 42.3353 56.886 42.4864C56.7397 42.6342 56.6405 42.8315 56.5885 43.0783C56.5394 43.3216 56.5295 43.5988 56.5587 43.9099L56.5683 44.012C56.5981 44.3296 56.6599 44.605 56.7537 44.8381C56.8508 45.071 56.985 45.2464 57.1562 45.3643C57.3272 45.4791 57.5375 45.5247 57.787 45.5013ZM63.5723 46.0567C63.0537 46.1054 62.5979 46.0387 62.2048 45.8565C61.815 45.674 61.5032 45.4009 61.2696 45.037C61.0357 44.6699 60.8955 44.2384 60.8489 43.7425L60.7855 43.0668C60.7112 42.276 60.7513 41.6053 60.9055 41.0546C61.0598 40.5039 61.3061 40.0623 61.6443 39.7297C61.9822 39.3939 62.3866 39.1565 62.8575 39.0175C63.167 38.9361 63.3923 38.8463 63.5335 38.7481C63.6776 38.6463 63.7405 38.4981 63.7223 38.3037L64.821 38.2005L64.8383 38.2283C64.8746 38.5453 64.8583 38.8068 64.7893 39.0127C64.7236 39.2183 64.6168 39.3869 64.469 39.5185C64.3211 39.6501 64.1402 39.7602 63.9262 39.849C63.7151 39.9342 63.4855 40.013 63.2373 40.0853C62.9222 40.177 62.6667 40.2942 62.4709 40.4368C62.2779 40.5759 62.1334 40.7431 62.0373 40.9385C61.9445 41.1336 61.889 41.3611 61.8709 41.6211L61.8927 41.6436C62.056 41.4681 62.2545 41.3186 62.4881 41.1954C62.7218 41.0721 62.9861 40.9966 63.281 40.9689C63.7509 40.9248 64.1674 40.9903 64.5304 41.1655C64.8934 41.3406 65.1846 41.6043 65.4041 41.9564C65.6264 42.305 65.7603 42.7207 65.8056 43.2036L65.8152 43.3057C65.8617 43.8016 65.804 44.2484 65.6419 44.6461C65.4798 45.0439 65.224 45.3671 64.8746 45.6157C64.525 45.861 64.0908 46.008 63.5723 46.0567ZM63.47 44.9677C63.7131 44.9449 63.907 44.8679 64.0516 44.7366C64.1991 44.6018 64.3001 44.4239 64.3546 44.203C64.4087 43.9789 64.4224 43.7242 64.3957 43.439L64.3861 43.3369C64.3611 43.0711 64.3002 42.8398 64.2032 42.6429C64.1095 42.4458 63.9779 42.2979 63.8085 42.1994C63.6419 42.0973 63.4355 42.0578 63.1892 42.081C62.9461 42.1038 62.7523 42.1808 62.6077 42.3121C62.4628 42.4402 62.3626 42.6098 62.3073 42.8209C62.2519 43.0321 62.2367 43.2706 62.2616 43.5363L62.2685 43.6093C62.2956 43.8977 62.3551 44.1488 62.4471 44.3625C62.5423 44.5759 62.6735 44.7368 62.8406 44.8454C63.0107 44.9504 63.2205 44.9912 63.47 44.9677ZM68.3076 47.6523C68.1844 47.6639 68.0521 47.6649 67.9106 47.6553C67.7727 47.6486 67.6404 47.6332 67.5139 47.6091L67.5767 46.5537C67.6395 46.5609 67.7085 46.5642 67.7836 46.5637C67.8588 46.5632 67.9239 46.5604 67.979 46.5552C68.1832 46.536 68.3548 46.466 68.4938 46.345C68.6329 46.2241 68.727 46.0599 68.7762 45.8526L68.8623 45.5159L66.6921 41.3107L66.0369 41.279L65.9566 40.4234L68.747 40.1615L68.8273 41.0171L68.1948 41.1745L69.2389 43.4159L69.3679 43.6931L69.3971 43.6904L70.1287 40.9832L69.4934 40.9545L69.413 40.0989L72.0139 39.8547L72.0942 40.7104L71.5089 40.8487L69.9804 46.1417C69.9059 46.3939 69.802 46.6276 69.6686 46.8428C69.5386 47.061 69.3628 47.2426 69.141 47.3877C68.9225 47.5325 68.6447 47.6207 68.3076 47.6523ZM75.9691 44.7899L75.8892 43.9391L76.6339 43.7221L76.5709 43.0512C76.4534 43.0884 76.3321 43.1194 76.2069 43.1442C76.0814 43.1658 75.9555 43.1825 75.8291 43.1944C75.3235 43.2419 74.8856 43.2094 74.5154 43.097C74.1452 42.9847 73.8521 42.7882 73.6362 42.5077C73.4199 42.2239 73.2906 41.8568 73.2483 41.4063L73.1867 40.75L72.4195 40.6749L72.3396 39.8242L74.5127 39.6202L75.1204 39.5631L75.2002 40.4139L74.6062 40.6167L74.6679 41.273C74.6895 41.5031 74.7391 41.6832 74.8167 41.8133C74.894 41.94 75.0066 42.0259 75.1547 42.0709C75.3057 42.1123 75.4963 42.1222 75.7264 42.1006C75.8593 42.0881 75.9851 42.0697 76.1038 42.0455C76.2257 42.021 76.347 41.99 76.4678 41.9525L76.3276 40.46L75.7014 40.3717L75.6211 39.5161L78.4116 39.2541L78.4919 40.1097L77.7472 40.3268L78.0534 43.5888L78.8255 43.6634L78.9054 44.5142L75.9691 44.7899ZM82.1187 44.3155C81.6163 44.3627 81.1668 44.2937 80.7702 44.1086C80.3732 43.9203 80.0528 43.6414 79.8089 43.272C79.5682 42.9022 79.4244 42.4678 79.3775 41.9687L79.3593 41.7742C79.3103 41.2524 79.3642 40.7815 79.5209 40.3613C79.6773 39.9379 79.9213 39.5946 80.253 39.3313C80.5879 39.0678 80.9968 38.9133 81.4797 38.868C81.9561 38.8232 82.3652 38.8797 82.707 39.0372C83.0487 39.1948 83.3204 39.4422 83.5221 39.7797C83.7238 40.1171 83.8482 40.537 83.8954 41.0394L83.968 41.8123L80.8761 42.1026L80.8691 42.1327C80.9102 42.361 80.9862 42.5615 81.0972 42.7341C81.2112 42.9033 81.3605 43.0315 81.5453 43.1187C81.7297 43.2028 81.9467 43.2331 82.1963 43.2097C82.4556 43.1853 82.694 43.1302 82.9115 43.0444C83.132 42.9551 83.3431 42.8355 83.5448 42.6858L84.011 43.5248C83.8103 43.7202 83.5502 43.8918 83.2305 44.0395C82.9138 44.1836 82.5432 44.2756 82.1187 44.3155ZM80.7977 41.1635L82.5527 40.9987L82.5408 40.8723C82.5208 40.6584 82.4744 40.478 82.4018 40.3312C82.3321 40.1808 82.2301 40.0694 82.0958 39.997C81.9647 39.9243 81.8003 39.8972 81.6026 39.9158C81.4146 39.9334 81.2605 39.9986 81.1403 40.1112C81.0198 40.2206 80.9304 40.3647 80.8719 40.5434C80.8168 40.7219 80.7864 40.9209 80.7809 41.1405L80.7977 41.1635ZM84.9384 43.9478L84.8586 43.097L85.6032 42.88L85.297 39.618L84.5249 39.5433L84.4446 38.6877L87.2302 38.4262L87.3105 39.2818L86.7117 39.4851L86.8176 40.613L88.5482 40.4505L88.4423 39.3227L87.821 39.2339L87.7406 38.3783L88.3483 38.3212L89.7679 38.1879L90.5262 38.1167L90.6066 38.9724L89.8619 39.1894L90.1681 42.4514L90.9402 42.5261L91.0201 43.3768L88.2345 43.6383L88.1546 42.7876L88.7486 42.5847L88.6505 41.5395L86.9198 41.702L87.0179 42.7472L87.6442 42.8355L87.724 43.6863L84.9384 43.9478ZM91.8222 43.3015L91.7423 42.4508L92.487 42.2337L92.1808 38.9717L91.4087 38.897L91.3284 38.0414L93.5063 37.837L94.1869 37.7731L94.2672 38.6287L93.6003 38.8384L93.8062 41.0309L93.8358 41.033L95.2467 37.6736L96.6662 37.5403L97.4198 37.4696L97.5001 38.3252L96.7603 38.5418L97.0665 41.8038L97.8337 41.8789L97.9136 42.7296L95.0599 42.9975L94.9801 42.1468L95.647 41.937L95.4402 39.7348L95.4106 39.7327L94.0001 43.097L91.8222 43.3015ZM98.7157 42.6543L98.6359 41.8036L99.1867 41.6636L99.7471 40.4241C99.4353 40.3063 99.1887 40.1349 99.0074 39.91C98.829 39.6815 98.7255 39.4149 98.6969 39.1103C98.6646 38.7667 98.7285 38.455 98.8886 38.1752C99.0487 37.8953 99.2905 37.6666 99.6138 37.4892C99.9369 37.3084 100.327 37.1966 100.784 37.1537L103.856 36.8653L103.937 37.7209L103.197 37.9375L103.503 41.1995L104.27 41.2746L104.35 42.1253L101.569 42.3864L101.49 41.5357L102.088 41.3323L102.009 40.4864L101.241 40.5585L100.466 42.49L98.7157 42.6543ZM100.991 39.6159L101.919 39.5287L101.79 38.1529L100.886 38.2378C100.62 38.2628 100.421 38.3534 100.288 38.5097C100.156 38.666 100.098 38.8349 100.115 39.0164C100.132 39.1979 100.217 39.3501 100.369 39.4732C100.524 39.5927 100.731 39.6402 100.991 39.6159ZM107.544 41.8255L107.464 40.9747L108.209 40.7577L107.903 37.4957L107.131 37.421L107.05 36.5654L109.228 36.3609L109.909 36.297L109.989 37.1526L109.322 37.3624L109.528 39.5549L109.558 39.557L110.969 36.1975L112.388 36.0643L113.142 35.9935L113.222 36.8491L112.482 37.0657L112.788 40.3277L113.556 40.4028L113.635 41.2536L110.782 41.5215L110.702 40.6708L111.369 40.461L111.162 38.2588L111.132 38.2567L109.722 41.621L107.544 41.8255ZM119.255 40.829C118.75 40.8765 118.301 40.8041 117.911 40.6119C117.523 40.4194 117.212 40.1332 116.977 39.7531C116.741 39.3698 116.599 38.9204 116.551 38.4051L116.537 38.2593C116.489 37.7407 116.546 37.2727 116.709 36.8552C116.873 36.4377 117.127 36.0983 117.472 35.8371C117.817 35.5726 118.237 35.4171 118.733 35.3705C119.206 35.3261 119.62 35.3624 119.974 35.4796C120.331 35.5932 120.626 35.7372 120.858 35.9115L120.99 37.4195L119.92 37.5199L119.643 36.5994C119.558 36.529 119.453 36.475 119.328 36.4377C119.204 36.4003 119.08 36.3874 118.957 36.399C118.698 36.4233 118.488 36.5084 118.329 36.6542C118.172 36.7996 118.063 36.9962 118.001 37.244C117.94 37.4917 117.925 37.7857 117.957 38.126L117.97 38.2719C118.004 38.6316 118.079 38.9237 118.195 39.1483C118.311 39.3696 118.451 39.528 118.617 39.6236C118.786 39.7189 118.968 39.7574 119.163 39.7391C119.412 39.7157 119.605 39.6322 119.742 39.4885C119.882 39.3413 119.968 39.1452 120.001 38.9002L121.216 38.7861L121.234 38.8139C121.214 39.1918 121.134 39.5246 120.994 39.8124C120.857 40.0999 120.647 40.3305 120.362 40.5043C120.081 40.6779 119.712 40.7861 119.255 40.829ZM123.261 40.3499L123.181 39.4992L123.921 39.2826L123.623 36.1032L122.743 36.1858L122.756 36.9006L121.667 37.0028L121.498 35.209L126.992 34.6932L127.16 36.4871L126.071 36.5893L125.946 35.885L125.047 35.9695L125.345 39.1488L126.113 39.2239L126.193 40.0747L123.261 40.3499ZM130.451 39.7779C129.932 39.8266 129.476 39.755 129.082 39.5631C128.688 39.3712 128.373 39.0836 128.138 38.7003C127.902 38.3137 127.76 37.8579 127.711 37.3329L127.701 37.2308C127.652 36.709 127.707 36.2379 127.867 35.8175C128.027 35.3938 128.281 35.0512 128.629 34.7896C128.98 34.5245 129.413 34.3678 129.929 34.3194C130.451 34.2704 130.907 34.3436 131.298 34.539C131.689 34.7312 132.002 35.019 132.237 35.4023C132.473 35.7856 132.615 36.2398 132.664 36.7648L132.674 36.8669C132.723 37.392 132.668 37.8663 132.508 38.29C132.349 38.7104 132.094 39.0514 131.746 39.313C131.398 39.5745 130.966 39.7295 130.451 39.7779ZM130.349 38.6889C130.595 38.6658 130.79 38.5805 130.933 38.433C131.076 38.2855 131.174 38.09 131.226 37.8464C131.278 37.5996 131.289 37.3173 131.259 36.9997L131.25 36.8976C131.221 36.5865 131.158 36.3161 131.061 36.0866C130.964 35.8537 130.83 35.6783 130.658 35.5604C130.49 35.4388 130.281 35.3898 130.031 35.4132C129.788 35.436 129.594 35.523 129.448 35.674C129.301 35.8218 129.202 36.0191 129.15 36.2659C129.101 36.5092 129.091 36.7864 129.12 37.0975L129.13 37.1996C129.16 37.5173 129.222 37.7926 129.315 38.0258C129.413 38.2586 129.547 38.434 129.718 38.552C129.889 38.6667 130.099 38.7123 130.349 38.6889ZM133.621 39.3773L133.541 38.5265L134.286 38.3095L133.979 35.0475L133.207 34.9728L133.127 34.1172L135.305 33.9128L135.986 33.8489L136.066 34.7045L135.399 34.9142L135.605 37.1067L135.634 37.1088L137.045 33.7494L138.465 33.6161L139.218 33.5453L139.299 34.401L138.559 34.6175L138.865 37.8796L139.632 37.9547L139.712 38.8054L136.859 39.0733L136.779 38.2226L137.446 38.0128L137.239 35.8106L137.209 35.8085L135.799 39.1728L133.621 39.3773ZM140.544 38.7274L140.464 37.8766L141.208 37.6596L140.902 34.3976L140.13 34.3229L140.05 33.4673L140.808 33.3961L142.563 33.2313L144.243 36.7125L144.273 36.7098L145.285 32.9757L147.065 32.8087L147.818 32.738L147.899 33.5936L147.159 33.8102L147.465 37.0722L148.232 37.1473L148.312 37.998L145.604 38.2522L145.524 37.4015L146.045 37.2054L145.845 35.0713L145.815 35.0692L144.89 38.3193L143.937 38.4088L142.457 35.4433L142.428 35.4509L142.623 37.5268L143.176 37.6219L143.256 38.4727L140.544 38.7274ZM151.501 37.8016C150.983 37.8503 150.526 37.7787 150.132 37.5868C149.738 37.395 149.423 37.1074 149.188 36.724C148.952 36.3375 148.81 35.8817 148.761 35.3567L148.751 35.2546C148.702 34.7328 148.757 34.2617 148.917 33.8412C149.077 33.4175 149.331 33.0749 149.679 32.8134C150.03 32.5483 150.463 32.3915 150.979 32.3431C151.501 32.2942 151.957 32.3674 152.348 32.5628C152.739 32.755 153.052 33.0427 153.287 33.426C153.523 33.8094 153.665 34.2635 153.714 34.7886L153.724 34.8907C153.773 35.4157 153.718 35.8901 153.558 36.3137C153.399 36.7342 153.144 37.0752 152.796 37.3367C152.448 37.5983 152.016 37.7532 151.501 37.8016ZM151.399 36.7127C151.645 36.6895 151.84 36.6042 151.983 36.4568C152.126 36.3093 152.224 36.1137 152.276 35.8701C152.328 35.6233 152.339 35.3411 152.309 35.0235L152.3 34.9214C152.271 34.6103 152.208 34.3399 152.111 34.1103C152.014 33.8775 151.88 33.7021 151.708 33.5841C151.54 33.4626 151.331 33.4135 151.081 33.437C150.838 33.4598 150.644 33.5467 150.498 33.6977C150.351 33.8455 150.252 34.0428 150.2 34.2897C150.151 34.533 150.141 34.8102 150.17 35.1213L150.18 35.2234C150.21 35.541 150.272 35.8164 150.366 36.0495C150.463 36.2823 150.597 36.4577 150.768 36.5757C150.939 36.6904 151.149 36.7361 151.399 36.7127ZM157.106 37.2754C156.601 37.3229 156.153 37.2505 155.762 37.0583C155.374 36.8658 155.063 36.5796 154.828 36.1995C154.592 35.8162 154.45 35.3668 154.402 34.8515L154.388 34.7057C154.34 34.1871 154.397 33.7191 154.561 33.3016C154.724 32.8841 154.978 32.5447 155.323 32.2835C155.668 32.019 156.088 31.8635 156.584 31.8169C157.057 31.7725 157.471 31.8088 157.825 31.926C158.182 32.0396 158.477 32.1835 158.709 32.3579L158.841 33.8659L157.772 33.9663L157.494 33.0458C157.409 32.9754 157.304 32.9214 157.18 32.8841C157.055 32.8467 156.931 32.8338 156.808 32.8454C156.549 32.8697 156.339 32.9548 156.18 33.1005C156.023 33.246 155.914 33.4426 155.853 33.6904C155.791 33.9381 155.776 34.2321 155.808 34.5724L155.822 34.7183C155.855 35.078 155.93 35.3701 156.046 35.5947C156.162 35.8159 156.302 35.9744 156.468 36.07C156.638 36.1653 156.819 36.2038 157.014 36.1855C157.263 36.1621 157.457 36.0786 157.593 35.9349C157.733 35.7877 157.82 35.5916 157.852 35.3466L159.067 35.2325L159.085 35.2603C159.065 35.6382 158.985 35.971 158.845 36.2588C158.709 36.5463 158.498 36.7769 158.214 36.9507C157.932 37.1243 157.563 37.2325 157.106 37.2754ZM161.112 36.7963L161.032 35.9456L161.772 35.729L161.474 32.5496L160.594 32.6322L160.607 33.347L159.518 33.4492L159.35 31.6554L164.843 31.1396L165.011 32.9335L163.922 33.0357L163.797 32.3314L162.898 32.4159L163.197 35.5952L163.964 35.6703L164.044 36.5211L161.112 36.7963ZM168.896 32.4707C169.609 32.4037 170.182 32.5118 170.614 32.7949C171.049 33.0745 171.291 33.4801 171.341 34.0116C171.392 34.5561 171.231 35.0126 170.857 35.3812C170.483 35.7498 169.941 35.9675 169.231 36.0341L166.066 36.3312L165.986 35.4805L166.731 35.2634L166.425 32.0014L165.653 31.9268L165.572 31.0711L168.509 30.7955L168.589 31.6511L167.844 31.8681L167.909 32.5633L168.896 32.4707ZM169.129 34.95C169.421 34.9226 169.632 34.8374 169.762 34.6944C169.892 34.5481 169.947 34.368 169.927 34.1541C169.907 33.9337 169.819 33.7622 169.663 33.6395C169.511 33.5164 169.288 33.4687 168.993 33.4964L168.006 33.5891L168.142 35.0426L169.129 34.95ZM172.162 35.7589L172.045 34.5144L173.46 34.3815L173.577 35.6261L172.162 35.7589ZM171.786 31.7482L171.669 30.5037L173.084 30.3709L173.2 31.6154L171.786 31.7482Z" fill="white"/>
<defs>
<linearGradient id="paint0_linear_236_1678" x1="14" y1="15" x2="177" y2="15" gradientUnits="userSpaceOnUse">
<stop stop-color="#8E2DE2"/>
<stop offset="1" stop-color="#4A00E0"/>
</linearGradient>
<linearGradient id="paint1_linear_236_1678" x1="141.873" y1="29.7381" x2="141.873" y2="29.7381" gradientUnits="userSpaceOnUse">
<stop stop-color="#8E2DE2"/>
<stop offset="1" stop-color="#4A00E0"/>
</linearGradient>
<linearGradient id="paint2_linear_236_1678" x1="-2.06526" y1="52.6839" x2="190.805" y2="35.4677" gradientUnits="userSpaceOnUse">
<stop stop-color="#6025F5"/>
<stop offset="1" stop-color="#FF5555"/>
</linearGradient>
<linearGradient id="paint3_linear_236_1678" x1="17.7274" y1="78.5354" x2="175.051" y2="55.557" gradientUnits="userSpaceOnUse">
<stop offset="1" stop-color="#F80759"/>
</linearGradient>
</defs>
</svg>
