<svg width="321" height="161" viewBox="0 0 321 161" fill="none" xmlns="http://www.w3.org/2000/svg">
<rect x="30.313" width="258" height="41" rx="20.5" fill="url(#paint0_linear_145_968)"/>
<path d="M73.6958 26.1641C73.5656 26.1641 73.4172 26.1589 73.2505 26.1484C73.089 26.138 72.9666 26.1302 72.8833 26.125L72.8677 24.3828C72.925 24.3932 73.0239 24.401 73.1646 24.4062C73.3052 24.4115 73.4119 24.4141 73.4849 24.4141C73.8963 24.4141 74.2062 24.3229 74.4146 24.1406C74.6229 23.9583 74.7948 23.6823 74.9302 23.3125L75.1021 22.8828L71.8364 16.1641L70.6255 16V14.625H75.0942V16L74.2505 16.1328L75.8052 19.5859L76.0786 20.2891H76.1255L77.6724 16.1562L76.8833 16V14.625H81.1411V16L80.0317 16.1484L76.7896 23.8438C76.5708 24.3385 76.3286 24.7604 76.063 25.1094C75.7974 25.4531 75.4744 25.7161 75.0942 25.8984C74.7192 26.0755 74.2531 26.1641 73.6958 26.1641ZM80.9536 29.25V27.875L82.0552 27.6406V19.1562L80.8364 18.9219V17.5469H84.1489L84.2583 18.5312C84.5083 18.1667 84.8104 17.8854 85.1646 17.6875C85.5187 17.4896 85.9406 17.3906 86.4302 17.3906C87.1125 17.3906 87.6958 17.5781 88.1802 17.9531C88.6646 18.3229 89.0343 18.8411 89.2896 19.5078C89.55 20.1745 89.6802 20.9531 89.6802 21.8438V22.0078C89.6802 22.8411 89.55 23.5703 89.2896 24.1953C89.0343 24.8151 88.6619 25.2995 88.1724 25.6484C87.688 25.9922 87.1021 26.1641 86.4146 26.1641C85.9614 26.1641 85.5604 26.0833 85.2114 25.9219C84.8677 25.7552 84.5734 25.513 84.3286 25.1953V27.6406L85.4302 27.875V29.25H80.9536ZM85.7349 24.4141C86.3182 24.4141 86.7401 24.1979 87.0005 23.7656C87.2661 23.3333 87.3989 22.7474 87.3989 22.0078V21.8438C87.3989 21.3073 87.339 20.8411 87.2192 20.4453C87.0994 20.0443 86.9146 19.7318 86.6646 19.5078C86.4198 19.2786 86.1047 19.1641 85.7192 19.1641C85.4067 19.1641 85.1307 19.2344 84.8911 19.375C84.6567 19.5156 84.4692 19.7161 84.3286 19.9766V23.6797C84.4692 23.9193 84.6567 24.1016 84.8911 24.2266C85.1307 24.3516 85.4119 24.4141 85.7349 24.4141ZM94.8364 26.1641C94.0031 26.1641 93.2869 25.9818 92.688 25.6172C92.089 25.2526 91.6307 24.7474 91.313 24.1016C90.9953 23.4505 90.8364 22.7031 90.8364 21.8594V21.6953C90.8364 20.8568 90.9953 20.1146 91.313 19.4688C91.6307 18.8177 92.0864 18.3099 92.6802 17.9453C93.2791 17.5755 93.9927 17.3906 94.8208 17.3906C95.6593 17.3906 96.3755 17.5755 96.9692 17.9453C97.563 18.3099 98.0187 18.8151 98.3364 19.4609C98.6541 20.1068 98.813 20.8516 98.813 21.6953V21.8594C98.813 22.7031 98.6541 23.4505 98.3364 24.1016C98.0187 24.7474 97.563 25.2526 96.9692 25.6172C96.3755 25.9818 95.6646 26.1641 94.8364 26.1641ZM94.8364 24.4141C95.2323 24.4141 95.5552 24.3073 95.8052 24.0938C96.0552 23.8802 96.2401 23.5833 96.3599 23.2031C96.4797 22.8177 96.5396 22.3698 96.5396 21.8594V21.6953C96.5396 21.1953 96.4797 20.7552 96.3599 20.375C96.2401 19.9896 96.0526 19.6901 95.7974 19.4766C95.5474 19.2578 95.2218 19.1484 94.8208 19.1484C94.4302 19.1484 94.1073 19.2578 93.8521 19.4766C93.5968 19.6901 93.4093 19.9896 93.2896 20.375C93.175 20.7552 93.1177 21.1953 93.1177 21.6953V21.8594C93.1177 22.3698 93.175 22.8177 93.2896 23.2031C93.4093 23.5885 93.5968 23.888 93.8521 24.1016C94.1073 24.3099 94.4354 24.4141 94.8364 24.4141ZM99.9927 26V24.6328L101.211 24.3984V19.1562L99.9927 18.9219V17.5469H101.211H104.743C105.868 17.5469 106.743 17.7422 107.368 18.1328C107.998 18.5234 108.313 19.099 108.313 19.8594C108.313 20.276 108.188 20.6406 107.938 20.9531C107.688 21.2604 107.308 21.4974 106.797 21.6641C107.469 21.7943 107.961 22.0339 108.274 22.3828C108.592 22.7266 108.75 23.1432 108.75 23.6328C108.75 24.4036 108.451 24.9922 107.852 25.3984C107.258 25.7995 106.404 26 105.29 26H99.9927ZM103.485 24.2656H105.282C105.683 24.2656 105.98 24.1927 106.172 24.0469C106.37 23.8958 106.469 23.6719 106.469 23.375C106.469 23.0885 106.378 22.8672 106.196 22.7109C106.014 22.5547 105.711 22.4766 105.29 22.4766H103.485V24.2656ZM103.485 20.9922H104.805C105.232 20.987 105.542 20.9141 105.735 20.7734C105.933 20.6276 106.032 20.4167 106.032 20.1406C106.032 19.5729 105.607 19.2891 104.758 19.2891H103.485V20.9922ZM113.836 26.1641C113.029 26.1641 112.323 25.987 111.719 25.6328C111.115 25.2734 110.646 24.7812 110.313 24.1562C109.985 23.5312 109.821 22.8177 109.821 22.0156V21.7031C109.821 20.8646 109.977 20.1224 110.29 19.4766C110.602 18.8255 111.042 18.3151 111.61 17.9453C112.183 17.5755 112.857 17.3906 113.633 17.3906C114.399 17.3906 115.042 17.5417 115.563 17.8438C116.084 18.1458 116.48 18.5807 116.75 19.1484C117.021 19.7161 117.157 20.4036 117.157 21.2109V22.4531H112.188L112.172 22.5C112.204 22.8698 112.295 23.2005 112.446 23.4922C112.602 23.7786 112.821 24.0052 113.102 24.1719C113.383 24.3333 113.724 24.4141 114.125 24.4141C114.542 24.4141 114.93 24.362 115.29 24.2578C115.654 24.1484 116.008 23.9896 116.352 23.7812L116.969 25.1875C116.62 25.4688 116.18 25.7031 115.649 25.8906C115.123 26.0729 114.519 26.1641 113.836 26.1641ZM112.204 20.9453H115.024V20.7422C115.024 20.3984 114.977 20.1042 114.883 19.8594C114.795 19.6094 114.649 19.4167 114.446 19.2812C114.248 19.1458 113.99 19.0781 113.672 19.0781C113.37 19.0781 113.115 19.1589 112.907 19.3203C112.698 19.4766 112.534 19.6927 112.415 19.9688C112.3 20.2448 112.222 20.5573 112.18 20.9062L112.204 20.9453ZM118.383 26V24.6328L119.602 24.3984V19.1562L118.383 18.9219V17.5469H122.86V18.9219L121.875 19.1562V20.9688H124.657V19.1562L123.68 18.9219V17.5469H124.657H126.938H128.157V18.9219L126.938 19.1562V24.3984L128.157 24.6328V26H123.68V24.6328L124.657 24.3984V22.7188H121.875V24.3984L122.86 24.6328V26H118.383ZM134.579 20.2734C135.724 20.2734 136.62 20.5312 137.266 21.0469C137.917 21.5573 138.243 22.2396 138.243 23.0938C138.243 23.9688 137.917 24.6719 137.266 25.2031C136.615 25.7344 135.719 26 134.579 26H129.493V24.6328L130.711 24.3984V19.1562L129.493 18.9219V17.5469H134.211V18.9219L132.993 19.1562V20.2734H134.579ZM134.579 24.2578C135.047 24.2578 135.396 24.1536 135.625 23.9453C135.855 23.7318 135.969 23.4531 135.969 23.1094C135.969 22.7552 135.855 22.4688 135.625 22.25C135.402 22.0312 135.053 21.9219 134.579 21.9219H132.993V24.2578H134.579ZM139.29 26V24H141.563V26H139.29ZM139.29 19.5547V17.5547H141.563V19.5547H139.29ZM150.75 26.1641C149.917 26.1641 149.201 25.9896 148.602 25.6406C148.008 25.2917 147.553 24.8099 147.235 24.1953C146.917 23.5755 146.758 22.8672 146.758 22.0703V20.9844C146.758 19.7135 146.922 18.651 147.25 17.7969C147.579 16.9427 148.037 16.276 148.625 15.7969C149.214 15.3125 149.894 14.9948 150.665 14.8438C151.17 14.7604 151.542 14.651 151.782 14.5156C152.027 14.375 152.149 14.1484 152.149 13.8359H153.915L153.938 13.8828C153.948 14.3932 153.883 14.8073 153.743 15.125C153.607 15.4427 153.412 15.6953 153.157 15.8828C152.902 16.0703 152.597 16.2188 152.243 16.3281C151.894 16.4323 151.516 16.5234 151.11 16.6016C150.594 16.7005 150.17 16.849 149.836 17.0469C149.508 17.2396 149.253 17.4844 149.071 17.7812C148.894 18.0781 148.771 18.4323 148.704 18.8438L148.735 18.8828C149.021 18.6276 149.36 18.4193 149.75 18.2578C150.141 18.0964 150.573 18.0156 151.047 18.0156C151.803 18.0156 152.456 18.1823 153.008 18.5156C153.56 18.849 153.985 19.3125 154.282 19.9062C154.584 20.4948 154.735 21.1771 154.735 21.9531V22.1172C154.735 22.9141 154.576 23.6172 154.258 24.2266C153.941 24.8359 153.485 25.3125 152.891 25.6562C152.297 25.9948 151.584 26.1641 150.75 26.1641ZM150.75 24.4141C151.141 24.4141 151.461 24.3203 151.711 24.1328C151.967 23.9401 152.154 23.6719 152.274 23.3281C152.394 22.9792 152.454 22.5755 152.454 22.1172V21.9531C152.454 21.526 152.391 21.1484 152.266 20.8203C152.146 20.4922 151.959 20.237 151.704 20.0547C151.454 19.8672 151.131 19.7734 150.735 19.7734C150.344 19.7734 150.024 19.8672 149.774 20.0547C149.524 20.237 149.339 20.4922 149.219 20.8203C149.099 21.1484 149.04 21.526 149.04 21.9531V22.0703C149.04 22.5339 149.097 22.9427 149.211 23.2969C149.331 23.651 149.516 23.9271 149.766 24.125C150.021 24.3177 150.349 24.4141 150.75 24.4141ZM158.54 26.1641C157.701 26.1641 157.034 25.9401 156.54 25.4922C156.045 25.0391 155.797 24.4245 155.797 23.6484C155.797 22.8516 156.12 22.2057 156.766 21.7109C157.412 21.2109 158.357 20.9609 159.602 20.9609H160.719V20.3359C160.719 19.9297 160.599 19.6016 160.36 19.3516C160.125 19.0964 159.771 18.9688 159.297 18.9688C159.053 18.9688 158.834 19 158.641 19.0625C158.448 19.1198 158.271 19.2031 158.11 19.3125L157.93 20.4297H156.29L156.258 18.2344C156.701 17.9844 157.18 17.7812 157.696 17.625C158.211 17.4688 158.787 17.3906 159.422 17.3906C160.527 17.3906 161.399 17.6484 162.04 18.1641C162.68 18.6745 163 19.4062 163 20.3594V23.8438C163 23.9583 163 24.0729 163 24.1875C163.006 24.2969 163.016 24.4036 163.032 24.5078L163.915 24.6328V26H161.086C161.029 25.8542 160.972 25.6979 160.915 25.5312C160.857 25.3646 160.816 25.1979 160.79 25.0312C160.519 25.375 160.198 25.651 159.829 25.8594C159.464 26.0625 159.034 26.1641 158.54 26.1641ZM159.149 24.4766C159.467 24.4766 159.769 24.4062 160.055 24.2656C160.342 24.1198 160.563 23.9297 160.719 23.6953V22.3594H159.594C159.094 22.3594 158.714 22.474 158.454 22.7031C158.198 22.9323 158.071 23.2083 158.071 23.5312C158.071 23.8333 158.165 24.0677 158.352 24.2344C158.545 24.3958 158.81 24.4766 159.149 24.4766ZM164.946 26V24.6328L166.165 24.3984V19.1562L164.946 18.9219V17.5469H169.477V18.9219L168.438 19.1562V20.7656H169.219L170.485 18.8906C170.803 18.401 171.133 18.0339 171.477 17.7891C171.821 17.5391 172.237 17.4141 172.727 17.4141C173.019 17.4141 173.271 17.4505 173.485 17.5234C173.698 17.5964 173.907 17.6953 174.11 17.8203L173.727 19.3984C173.581 19.362 173.48 19.3385 173.422 19.3281C173.37 19.3125 173.305 19.3047 173.227 19.3047C173.05 19.3047 172.878 19.3646 172.711 19.4844C172.545 19.6042 172.399 19.7552 172.274 19.9375L171.18 21.5312L173.141 24.4453L174.29 24.6328V26H171.157L169.313 22.8359H168.438V24.3984L169.477 24.6328V26H164.946ZM177.946 26.1641C177.107 26.1641 176.441 25.9401 175.946 25.4922C175.451 25.0391 175.204 24.4245 175.204 23.6484C175.204 22.8516 175.527 22.2057 176.172 21.7109C176.818 21.2109 177.764 20.9609 179.008 20.9609H180.125V20.3359C180.125 19.9297 180.006 19.6016 179.766 19.3516C179.532 19.0964 179.178 18.9688 178.704 18.9688C178.459 18.9688 178.24 19 178.047 19.0625C177.855 19.1198 177.678 19.2031 177.516 19.3125L177.336 20.4297H175.696L175.665 18.2344C176.107 17.9844 176.586 17.7812 177.102 17.625C177.618 17.4688 178.193 17.3906 178.829 17.3906C179.933 17.3906 180.805 17.6484 181.446 18.1641C182.086 18.6745 182.407 19.4062 182.407 20.3594V23.8438C182.407 23.9583 182.407 24.0729 182.407 24.1875C182.412 24.2969 182.422 24.4036 182.438 24.5078L183.321 24.6328V26H180.493C180.435 25.8542 180.378 25.6979 180.321 25.5312C180.264 25.3646 180.222 25.1979 180.196 25.0312C179.925 25.375 179.605 25.651 179.235 25.8594C178.87 26.0625 178.441 26.1641 177.946 26.1641ZM178.555 24.4766C178.873 24.4766 179.175 24.4062 179.461 24.2656C179.748 24.1198 179.969 23.9297 180.125 23.6953V22.3594H179C178.5 22.3594 178.12 22.474 177.86 22.7031C177.605 22.9323 177.477 23.2083 177.477 23.5312C177.477 23.8333 177.571 24.0677 177.758 24.2344C177.951 24.3958 178.217 24.4766 178.555 24.4766ZM184.243 26L184.211 24.2031L184.461 24.1953C184.81 24.1953 185.073 24.1042 185.25 23.9219C185.428 23.7396 185.547 23.4271 185.61 22.9844C185.678 22.5417 185.711 21.9297 185.711 21.1484V19.1562L184.493 18.9219V17.5469H192.297H193.516V18.9219L192.297 19.1562V24.3984L193.516 24.6328V26H188.805V24.6328L190.024 24.3984V19.3125H187.993V21.1484C187.993 22.8151 187.735 24.0417 187.219 24.8281C186.709 25.6094 185.836 26 184.602 26H184.243ZM197.383 26.1641C196.545 26.1641 195.878 25.9401 195.383 25.4922C194.889 25.0391 194.641 24.4245 194.641 23.6484C194.641 22.8516 194.964 22.2057 195.61 21.7109C196.256 21.2109 197.201 20.9609 198.446 20.9609H199.563V20.3359C199.563 19.9297 199.443 19.6016 199.204 19.3516C198.969 19.0964 198.615 18.9688 198.141 18.9688C197.896 18.9688 197.678 19 197.485 19.0625C197.292 19.1198 197.115 19.2031 196.954 19.3125L196.774 20.4297H195.133L195.102 18.2344C195.545 17.9844 196.024 17.7812 196.54 17.625C197.055 17.4688 197.631 17.3906 198.266 17.3906C199.37 17.3906 200.243 17.6484 200.883 18.1641C201.524 18.6745 201.844 19.4062 201.844 20.3594V23.8438C201.844 23.9583 201.844 24.0729 201.844 24.1875C201.849 24.2969 201.86 24.4036 201.875 24.5078L202.758 24.6328V26H199.93C199.873 25.8542 199.816 25.6979 199.758 25.5312C199.701 25.3646 199.659 25.1979 199.633 25.0312C199.362 25.375 199.042 25.651 198.672 25.8594C198.308 26.0625 197.878 26.1641 197.383 26.1641ZM197.993 24.4766C198.31 24.4766 198.612 24.4062 198.899 24.2656C199.185 24.1198 199.407 23.9297 199.563 23.6953V22.3594H198.438C197.938 22.3594 197.558 22.474 197.297 22.7031C197.042 22.9323 196.915 23.2083 196.915 23.5312C196.915 23.8333 197.008 24.0677 197.196 24.2344C197.389 24.3958 197.654 24.4766 197.993 24.4766ZM203.79 26V24.6328L205.008 24.3984V19.1562L203.79 18.9219V17.5469H205.008H208.54C209.665 17.5469 210.54 17.7422 211.165 18.1328C211.795 18.5234 212.11 19.099 212.11 19.8594C212.11 20.276 211.985 20.6406 211.735 20.9531C211.485 21.2604 211.105 21.4974 210.594 21.6641C211.266 21.7943 211.758 22.0339 212.071 22.3828C212.389 22.7266 212.547 23.1432 212.547 23.6328C212.547 24.4036 212.248 24.9922 211.649 25.3984C211.055 25.7995 210.201 26 209.086 26H203.79ZM207.282 24.2656H209.079C209.48 24.2656 209.777 24.1927 209.969 24.0469C210.167 23.8958 210.266 23.6719 210.266 23.375C210.266 23.0885 210.175 22.8672 209.993 22.7109C209.81 22.5547 209.508 22.4766 209.086 22.4766H207.282V24.2656ZM207.282 20.9922H208.602C209.029 20.987 209.339 20.9141 209.532 20.7734C209.73 20.6276 209.829 20.4167 209.829 20.1406C209.829 19.5729 209.404 19.2891 208.555 19.2891H207.282V20.9922ZM213.438 29.25V27.875L214.54 27.6406V19.1562L213.321 18.9219V17.5469H216.633L216.743 18.5312C216.993 18.1667 217.295 17.8854 217.649 17.6875C218.003 17.4896 218.425 17.3906 218.915 17.3906C219.597 17.3906 220.18 17.5781 220.665 17.9531C221.149 18.3229 221.519 18.8411 221.774 19.5078C222.034 20.1745 222.165 20.9531 222.165 21.8438V22.0078C222.165 22.8411 222.034 23.5703 221.774 24.1953C221.519 24.8151 221.146 25.2995 220.657 25.6484C220.172 25.9922 219.586 26.1641 218.899 26.1641C218.446 26.1641 218.045 26.0833 217.696 25.9219C217.352 25.7552 217.058 25.513 216.813 25.1953V27.6406L217.915 27.875V29.25H213.438ZM218.219 24.4141C218.803 24.4141 219.224 24.1979 219.485 23.7656C219.75 23.3333 219.883 22.7474 219.883 22.0078V21.8438C219.883 21.3073 219.823 20.8411 219.704 20.4453C219.584 20.0443 219.399 19.7318 219.149 19.5078C218.904 19.2786 218.589 19.1641 218.204 19.1641C217.891 19.1641 217.615 19.2344 217.375 19.375C217.141 19.5156 216.954 19.7161 216.813 19.9766V23.6797C216.954 23.9193 217.141 24.1016 217.375 24.2266C217.615 24.3516 217.896 24.4141 218.219 24.4141ZM223.196 26V24.6328L224.415 24.3984V19.1562L223.196 18.9219V17.5469H226.696H227.79V18.9219L226.696 19.1562V22.6797L226.743 22.6875L229.493 17.5469H231.774H232.985V18.9219L231.774 19.1562V24.3984L232.985 24.6328V26H228.399V24.6328L229.493 24.3984V20.8594L229.446 20.8516L226.696 26H223.196ZM236.93 26.1641C236.092 26.1641 235.425 25.9401 234.93 25.4922C234.435 25.0391 234.188 24.4245 234.188 23.6484C234.188 22.8516 234.511 22.2057 235.157 21.7109C235.803 21.2109 236.748 20.9609 237.993 20.9609H239.11V20.3359C239.11 19.9297 238.99 19.6016 238.75 19.3516C238.516 19.0964 238.162 18.9688 237.688 18.9688C237.443 18.9688 237.224 19 237.032 19.0625C236.839 19.1198 236.662 19.2031 236.5 19.3125L236.321 20.4297H234.68L234.649 18.2344C235.092 17.9844 235.571 17.7812 236.086 17.625C236.602 17.4688 237.178 17.3906 237.813 17.3906C238.917 17.3906 239.79 17.6484 240.43 18.1641C241.071 18.6745 241.391 19.4062 241.391 20.3594V23.8438C241.391 23.9583 241.391 24.0729 241.391 24.1875C241.396 24.2969 241.407 24.4036 241.422 24.5078L242.305 24.6328V26H239.477C239.42 25.8542 239.362 25.6979 239.305 25.5312C239.248 25.3646 239.206 25.1979 239.18 25.0312C238.909 25.375 238.589 25.651 238.219 25.8594C237.855 26.0625 237.425 26.1641 236.93 26.1641ZM237.54 24.4766C237.857 24.4766 238.159 24.4062 238.446 24.2656C238.732 24.1198 238.954 23.9297 239.11 23.6953V22.3594H237.985C237.485 22.3594 237.105 22.474 236.844 22.7031C236.589 22.9323 236.461 23.2083 236.461 23.5312C236.461 23.8333 236.555 24.0677 236.743 24.2344C236.935 24.3958 237.201 24.4766 237.54 24.4766ZM244.969 26V24.6328L246.18 24.3984V19.2891H244.766L244.68 20.4297H242.93V17.5469H251.758V20.4297H250.008L249.915 19.2891H248.469V24.3984L249.68 24.6328V26H244.969Z" fill="#FFF7F7"/>
<rect width="294.852" height="41.5755" rx="20.7878" transform="matrix(0.995897 -0.0904944 0.0913433 0.99582 15.6279 118.928)" fill="url(#paint1_linear_145_968)"/>
<path d="M0 49.4163L308.659 22.9999L312.157 62.1851L3.49777 88.6014L0 49.4163Z" fill="url(#paint2_linear_145_968)"/>
<path d="M28.5513 91.043L268.13 57.1827L273.816 96.1131L34.2374 129.973L28.5513 91.043Z" fill="url(#paint3_linear_145_968)"/>
<path d="M50.9077 142.676C50.0781 142.755 49.3479 142.641 48.7171 142.335C48.0863 142.029 47.5822 141.569 47.2047 140.956C46.8268 140.338 46.5978 139.609 46.5179 138.769L46.5024 138.606C46.423 137.771 46.5108 137.017 46.7659 136.344C47.0205 135.666 47.4261 135.117 47.9826 134.698C48.5439 134.273 49.2367 134.022 50.0611 133.943C50.8959 133.864 51.6263 133.98 52.2524 134.292C52.878 134.599 53.3796 135.058 53.757 135.671C54.1345 136.284 54.3632 137.01 54.4431 137.85L54.4586 138.014C54.5385 138.854 54.4512 139.613 54.1966 140.291C53.9415 140.964 53.5357 141.51 52.9791 141.929C52.4226 142.349 51.7321 142.597 50.9077 142.676ZM50.7419 140.934C51.136 140.896 51.4473 140.759 51.676 140.523C51.9046 140.287 52.0606 139.974 52.1438 139.584C52.2266 139.189 52.2438 138.737 52.1954 138.229L52.1799 138.066C52.1325 137.568 52.0312 137.136 51.8759 136.768C51.7202 136.396 51.5051 136.116 51.2309 135.927C50.9613 135.733 50.6268 135.655 50.2276 135.693C49.8387 135.73 49.5276 135.87 49.2943 136.112C49.0605 136.348 48.9022 136.664 48.8194 137.059C48.7414 137.449 48.726 137.892 48.7734 138.39L48.7889 138.553C48.8373 139.061 48.9367 139.502 49.0873 139.875C49.2431 140.247 49.4581 140.527 49.7324 140.716C50.0062 140.899 50.3427 140.972 50.7419 140.934ZM60.715 141.578L60.5855 140.217L61.7765 139.868L61.6744 138.795C61.4865 138.854 61.2925 138.904 61.0922 138.944C60.8915 138.979 60.69 139.006 60.4878 139.025C59.679 139.102 58.9783 139.051 58.3857 138.872C57.7932 138.693 57.3239 138.379 56.9777 137.931C56.6311 137.477 56.4235 136.89 56.355 136.17L56.2551 135.12L55.0274 135.001L54.8979 133.64L58.3744 133.309L59.3465 133.217L59.476 134.578L58.5261 134.904L58.626 135.954C58.661 136.322 58.7407 136.61 58.8651 136.818C58.9891 137.02 59.1695 137.157 59.4065 137.229C59.6483 137.295 59.9532 137.31 60.3213 137.275C60.5339 137.255 60.7351 137.226 60.925 137.187C61.12 137.147 61.3141 137.097 61.5072 137.037L61.28 134.649L60.2778 134.509L60.1476 133.141L64.6118 132.716L64.7421 134.085L63.551 134.433L64.0475 139.652L65.283 139.77L65.4125 141.131L60.715 141.578ZM66.6802 141.01L66.5507 139.649L67.7418 139.3L67.2452 134.082L66.0098 133.964L65.8795 132.595L70.336 132.171L70.4662 133.54L69.5085 133.866L69.6801 135.671L72.4489 135.407L72.2772 133.603L71.2828 133.462L71.1526 132.093L72.1248 132.001L74.3958 131.785L75.609 131.669L75.7393 133.038L74.5482 133.387L75.0447 138.606L76.2802 138.723L76.4097 140.085L71.9533 140.509L71.8238 139.147L72.7737 138.822L72.6146 137.15L69.8459 137.413L70.005 139.085L71.0071 139.225L71.1366 140.586L66.6802 141.01ZM81.5505 139.76C80.721 139.839 79.9908 139.725 79.36 139.419C78.7292 139.113 78.225 138.654 77.8476 138.041C77.4696 137.423 77.2407 136.694 77.1608 135.854L77.1452 135.69C77.0658 134.856 77.1537 134.102 77.4088 133.429C77.6634 132.751 78.069 132.202 78.6255 131.783C79.1867 131.358 79.8796 131.106 80.704 131.028C81.5387 130.948 82.2692 131.064 82.8953 131.376C83.5209 131.683 84.0224 132.143 84.3999 132.756C84.7773 133.369 85.006 134.095 85.0859 134.935L85.1015 135.098C85.1814 135.938 85.0941 136.697 84.8394 137.375C84.5843 138.048 84.1785 138.595 83.622 139.014C83.0654 139.433 82.3749 139.682 81.5505 139.76ZM81.3848 138.018C81.7788 137.981 82.0902 137.844 82.3188 137.607C82.5475 137.371 82.7034 137.058 82.7867 136.668C82.8694 136.273 82.8866 135.822 82.8383 135.314L82.8227 135.15C82.7754 134.652 82.6741 134.22 82.5188 133.853C82.363 133.481 82.148 133.2 81.8737 133.012C81.6041 132.818 81.2697 132.74 80.8705 132.778C80.4816 132.815 80.1705 132.954 79.9372 133.196C79.7033 133.433 79.545 133.749 79.4623 134.144C79.3842 134.533 79.3689 134.977 79.4162 135.474L79.4318 135.638C79.4801 136.146 79.5796 136.586 79.7302 136.959C79.8859 137.331 80.1009 137.612 80.3752 137.8C80.649 137.983 80.9855 138.056 81.3848 138.018ZM86.6018 135.112L86.4353 133.362L90.8217 132.945L90.9882 134.695L86.6018 135.112ZM96.3346 138.346C95.6968 138.406 95.1016 138.364 94.5488 138.217C94.0007 138.065 93.5528 137.812 93.2052 137.458C92.8571 137.099 92.6668 136.639 92.6343 136.077L92.6376 136.029L94.8386 135.82C94.8569 136.012 94.9252 136.18 95.0437 136.326C95.1669 136.466 95.3312 136.571 95.5366 136.64C95.7421 136.71 95.9822 136.731 96.257 136.705C96.7029 136.663 97.0199 136.53 97.2081 136.308C97.4009 136.081 97.4828 135.814 97.4537 135.508C97.4201 135.156 97.2918 134.906 97.0686 134.76C96.8454 134.614 96.5186 134.561 96.0883 134.602L94.875 134.718L94.7374 133.271L95.9506 133.156C96.3343 133.119 96.6092 133.012 96.7754 132.834C96.9411 132.651 97.0096 132.409 96.981 132.108C96.9559 131.844 96.8465 131.629 96.653 131.464C96.4589 131.294 96.1545 131.229 95.7397 131.269C95.5064 131.291 95.3027 131.349 95.1286 131.444C94.9592 131.534 94.8294 131.653 94.739 131.803C94.6533 131.948 94.6193 132.113 94.6371 132.3L92.4361 132.509L92.4161 132.464C92.3475 131.963 92.438 131.512 92.6877 131.112C92.942 130.706 93.3131 130.372 93.801 130.111C94.2941 129.85 94.8621 129.688 95.5051 129.627C96.5835 129.525 97.4541 129.656 98.1167 130.022C98.784 130.383 99.1537 130.941 99.2258 131.698C99.2637 132.097 99.184 132.469 98.9864 132.812C98.7884 133.15 98.4958 133.429 98.1086 133.649C99.1004 133.9 99.6416 134.502 99.7324 135.456C99.7827 135.985 99.6729 136.453 99.4031 136.861C99.1383 137.268 98.7411 137.601 98.2112 137.861C97.686 138.115 97.0605 138.277 96.3346 138.346ZM103.887 137.635C103.052 137.714 102.368 137.555 101.833 137.155C101.297 136.751 100.993 136.163 100.919 135.39C100.844 134.597 101.104 133.924 101.7 133.37C102.295 132.811 103.213 132.472 104.452 132.355L105.564 132.249L105.505 131.627C105.467 131.222 105.316 130.907 105.054 130.681C104.797 130.449 104.432 130.355 103.96 130.4C103.716 130.423 103.502 130.475 103.316 130.556C103.129 130.631 102.961 130.731 102.81 130.855L102.737 131.984L101.104 132.139L100.865 129.957C101.282 129.666 101.74 129.419 102.238 129.214C102.737 129.01 103.302 128.877 103.935 128.817C105.034 128.713 105.927 128.887 106.614 129.339C107.3 129.787 107.688 130.485 107.778 131.434L108.108 134.902C108.119 135.017 108.13 135.131 108.141 135.245C108.156 135.353 108.177 135.458 108.202 135.561L109.093 135.601L109.222 136.962L106.407 137.23C106.336 137.091 106.264 136.94 106.192 136.78C106.119 136.619 106.061 136.458 106.02 136.294C105.783 136.662 105.49 136.967 105.142 137.209C104.798 137.446 104.38 137.588 103.887 137.635ZM104.334 135.897C104.65 135.867 104.944 135.769 105.216 135.601C105.488 135.429 105.69 135.219 105.823 134.971L105.697 133.641L104.577 133.747C104.079 133.795 103.711 133.945 103.474 134.198C103.241 134.45 103.141 134.737 103.171 135.058C103.2 135.359 103.315 135.584 103.518 135.732C103.725 135.874 103.997 135.929 104.334 135.897ZM114.06 136.667C113.23 136.746 112.5 136.632 111.869 136.326C111.239 136.02 110.734 135.56 110.357 134.948C109.979 134.329 109.75 133.6 109.67 132.761L109.655 132.597C109.575 131.762 109.663 131.009 109.918 130.336C110.173 129.657 110.578 129.109 111.135 128.689C111.696 128.265 112.389 128.013 113.213 127.934C114.048 127.855 114.779 127.971 115.405 128.283C116.03 128.59 116.532 129.05 116.909 129.662C117.287 130.275 117.515 131.002 117.595 131.842L117.611 132.005C117.691 132.845 117.603 133.604 117.349 134.282C117.094 134.955 116.688 135.501 116.131 135.921C115.575 136.34 114.884 136.589 114.06 136.667ZM113.894 134.925C114.288 134.887 114.6 134.75 114.828 134.514C115.057 134.278 115.213 133.965 115.296 133.575C115.379 133.18 115.396 132.728 115.348 132.22L115.332 132.057C115.285 131.559 115.183 131.127 115.028 130.76C114.872 130.387 114.657 130.107 114.383 129.919C114.114 129.724 113.779 129.646 113.38 129.684C112.991 129.721 112.68 129.861 112.447 130.103C112.213 130.34 112.054 130.655 111.972 131.05C111.894 131.44 111.878 131.883 111.926 132.381L111.941 132.544C111.99 133.053 112.089 133.493 112.24 133.866C112.395 134.238 112.61 134.519 112.885 134.707C113.158 134.89 113.495 134.963 113.894 134.925ZM123.867 135.569L123.738 134.208L124.929 133.859L124.827 132.786C124.639 132.846 124.445 132.896 124.244 132.936C124.044 132.97 123.842 132.997 123.64 133.017C122.831 133.094 122.131 133.043 121.538 132.863C120.945 132.684 120.476 132.371 120.13 131.922C119.783 131.469 119.576 130.882 119.507 130.161L119.407 129.111L118.18 128.992L118.05 127.631L121.527 127.3L122.499 127.208L122.628 128.569L121.678 128.895L121.778 129.945C121.813 130.313 121.893 130.601 122.017 130.809C122.141 131.012 122.322 131.149 122.559 131.22C122.801 131.286 123.105 131.302 123.474 131.267C123.686 131.246 123.887 131.217 124.077 131.178C124.272 131.138 124.466 131.089 124.659 131.028L124.432 128.641L123.43 128.501L123.3 127.132L127.764 126.707L127.894 128.076L126.703 128.425L127.2 133.643L128.435 133.761L128.565 135.122L123.867 135.569ZM129.832 135.001L129.703 133.64L130.894 133.292L130.398 128.073L129.162 127.955L129.032 126.586L133.488 126.162L133.618 127.531L132.661 127.858L132.832 129.662L135.601 129.399L135.429 127.594L134.435 127.453L134.305 126.085L135.277 125.992L137.548 125.776L138.761 125.661L138.892 127.029L137.7 127.378L138.197 132.597L139.432 132.715L139.562 134.076L135.106 134.5L134.976 133.139L135.926 132.813L135.767 131.141L132.998 131.404L133.157 133.076L134.159 133.216L134.289 134.577L129.832 135.001ZM144.703 133.751C143.873 133.83 143.143 133.717 142.512 133.41C141.881 133.104 141.377 132.645 141 132.032C140.622 131.414 140.393 130.685 140.313 129.845L140.298 129.682C140.218 128.847 140.306 128.093 140.561 127.42C140.816 126.742 141.221 126.193 141.778 125.774C142.339 125.349 143.032 125.097 143.856 125.019C144.691 124.939 145.421 125.056 146.048 125.368C146.673 125.674 147.175 126.134 147.552 126.747C147.93 127.36 148.158 128.086 148.238 128.926L148.254 129.089C148.334 129.929 148.246 130.688 147.992 131.367C147.737 132.04 147.331 132.586 146.774 133.005C146.218 133.424 145.527 133.673 144.703 133.751ZM144.537 132.009C144.931 131.972 145.242 131.835 145.471 131.599C145.7 131.362 145.856 131.049 145.939 130.659C146.022 130.264 146.039 129.813 145.991 129.305L145.975 129.141C145.928 128.644 145.826 128.211 145.671 127.844C145.515 127.472 145.3 127.191 145.026 127.003C144.756 126.809 144.422 126.731 144.023 126.769C143.634 126.806 143.323 126.945 143.089 127.187C142.856 127.424 142.697 127.74 142.615 128.135C142.537 128.524 142.521 128.968 142.569 129.466L142.584 129.629C142.632 130.137 142.732 130.577 142.882 130.95C143.038 131.323 143.253 131.603 143.528 131.791C143.801 131.975 144.138 132.047 144.537 132.009ZM153.855 127.999L153.687 126.226L162.125 125.423L162.294 127.196L153.855 127.999ZM168.097 131.361L167.968 130L169.859 129.584L169.129 121.916L167.193 122.1L167.069 120.801L171.196 119.639L172.122 129.369L174.057 129.42L174.187 130.781L168.097 131.361ZM178.915 130.496C178.226 130.562 177.581 130.495 176.982 130.296C176.387 130.091 175.898 129.766 175.515 129.321C175.133 128.876 174.918 128.321 174.87 127.656L174.882 127.615L177.05 127.299C177.097 127.802 177.278 128.183 177.59 128.441C177.902 128.693 178.288 128.798 178.75 128.754C179.279 128.704 179.652 128.477 179.87 128.075C180.088 127.672 180.169 127.17 180.111 126.568C180.049 125.915 179.865 125.404 179.557 125.036C179.25 124.667 178.83 124.509 178.296 124.559C177.865 124.6 177.541 124.712 177.323 124.895C177.11 125.078 176.968 125.311 176.895 125.595L174.876 125.654L174.929 119.284L181.447 118.664L181.692 121.246L180.293 121.379L180.018 120.636L176.969 120.927L176.899 123.57C177.029 123.453 177.181 123.347 177.355 123.252C177.529 123.152 177.717 123.068 177.92 123.002C178.128 122.93 178.351 122.883 178.589 122.86C179.314 122.775 179.944 122.862 180.482 123.119C181.024 123.371 181.454 123.77 181.773 124.315C182.096 124.86 182.297 125.534 182.373 126.337C182.442 127.063 182.356 127.728 182.115 128.332C181.879 128.93 181.492 129.422 180.953 129.808C180.419 130.188 179.74 130.418 178.915 130.496ZM187.743 129.656C186.561 129.769 185.588 129.472 184.825 128.765C184.061 128.052 183.608 126.947 183.466 125.449L183.228 122.952C183.086 121.459 183.32 120.291 183.931 119.448C184.546 118.599 185.442 118.119 186.619 118.007C187.791 117.896 188.758 118.199 189.523 118.916C190.291 119.628 190.747 120.73 190.889 122.223L191.126 124.72C191.269 126.218 191.032 127.389 190.417 128.233C189.806 129.07 188.915 129.545 187.743 129.656ZM187.577 127.914C188.085 127.866 188.452 127.622 188.677 127.182C188.902 126.742 188.971 126.065 188.884 125.153L188.603 122.205C188.518 121.303 188.32 120.657 188.011 120.268C187.702 119.879 187.293 119.709 186.785 119.757C186.272 119.806 185.903 120.05 185.678 120.49C185.453 120.93 185.383 121.601 185.469 122.504L185.75 125.451C185.836 126.364 186.032 127.015 186.336 127.404C186.645 127.794 187.059 127.963 187.577 127.914ZM193.234 128.969L193.044 126.978L195.307 126.763L195.497 128.754L193.234 128.969ZM200.902 128.404C199.72 128.517 198.747 128.219 197.984 127.513C197.221 126.8 196.768 125.695 196.625 124.197L196.387 121.7C196.245 120.207 196.48 119.039 197.09 118.196C197.705 117.347 198.601 116.867 199.778 116.755C200.95 116.644 201.918 116.947 202.682 117.664C203.451 118.376 203.906 119.478 204.048 120.971L204.286 123.468C204.428 124.966 204.192 126.137 203.576 126.98C202.965 127.818 202.074 128.293 200.902 128.404ZM200.736 126.662C201.244 126.614 201.611 126.37 201.836 125.93C202.061 125.49 202.13 124.813 202.043 123.901L201.763 120.953C201.677 120.051 201.479 119.405 201.17 119.016C200.861 118.627 200.453 118.457 199.945 118.505C199.431 118.554 199.062 118.798 198.837 119.238C198.612 119.678 198.543 120.349 198.628 121.251L198.909 124.199C198.996 125.112 199.191 125.763 199.495 126.152C199.804 126.541 200.218 126.711 200.736 126.662ZM210.002 127.538C208.819 127.651 207.847 127.354 207.084 126.647C206.32 125.935 205.867 124.829 205.725 123.331L205.487 120.834C205.345 119.341 205.579 118.173 206.189 117.33C206.805 116.482 207.701 116.001 208.878 115.889C210.049 115.778 211.017 116.081 211.781 116.798C212.55 117.51 213.006 118.612 213.148 120.105L213.385 122.602C213.528 124.1 213.291 125.271 212.676 126.115C212.065 126.952 211.173 127.427 210.002 127.538ZM209.836 125.796C210.344 125.748 210.711 125.504 210.936 125.064C211.16 124.624 211.23 123.948 211.143 123.035L210.862 120.087C210.776 119.185 210.579 118.54 210.27 118.15C209.961 117.761 209.552 117.591 209.044 117.639C208.531 117.688 208.162 117.933 207.937 118.372C207.712 118.812 207.642 119.483 207.728 120.386L208.008 123.333C208.095 124.246 208.291 124.897 208.595 125.287C208.904 125.676 209.317 125.846 209.836 125.796ZM219.101 126.673C217.919 126.785 216.946 126.488 216.183 125.781C215.42 125.069 214.967 123.964 214.824 122.465L214.587 119.969C214.444 118.475 214.679 117.307 215.289 116.464C215.904 115.616 216.8 115.136 217.977 115.024C219.149 114.912 220.117 115.215 220.881 115.932C221.65 116.644 222.105 117.746 222.247 119.24L222.485 121.736C222.627 123.235 222.391 124.406 221.775 125.249C221.164 126.087 220.273 126.561 219.101 126.673ZM218.935 124.93C219.444 124.882 219.81 124.638 220.035 124.198C220.26 123.758 220.329 123.082 220.242 122.169L219.962 119.222C219.876 118.319 219.679 117.674 219.369 117.285C219.06 116.896 218.652 116.725 218.144 116.773C217.63 116.822 217.261 117.067 217.036 117.507C216.811 117.947 216.742 118.618 216.828 119.52L217.108 122.467C217.195 123.38 217.39 124.031 217.694 124.421C218.003 124.81 218.417 124.98 218.935 124.93ZM228.236 128.903L228.106 127.534L229.181 127.197L228.377 118.751L227.141 118.633L227.011 117.264L230.309 116.95L230.511 117.92C230.725 117.533 230.999 117.224 231.333 116.994C231.667 116.763 232.078 116.625 232.565 116.579C233.244 116.514 233.843 116.645 234.36 116.973C234.878 117.295 235.295 117.776 235.612 118.415C235.934 119.054 236.138 119.817 236.222 120.704L236.238 120.867C236.317 121.697 236.256 122.435 236.056 123.082C235.861 123.723 235.536 124.24 235.082 124.634C234.632 125.022 234.065 125.249 233.38 125.314C232.929 125.357 232.522 125.315 232.16 125.187C231.802 125.053 231.486 124.84 231.212 124.547L231.444 126.981L232.563 127.11L232.693 128.479L228.236 128.903ZM232.538 123.636C233.119 123.581 233.518 123.326 233.737 122.871C233.96 122.415 234.037 121.819 233.967 121.083L233.951 120.92C233.9 120.386 233.797 119.927 233.64 119.545C233.483 119.157 233.269 118.863 232.999 118.664C232.733 118.459 232.409 118.375 232.025 118.411C231.714 118.441 231.446 118.537 231.221 118.7C231.001 118.862 230.833 119.079 230.718 119.352L231.069 123.038C231.231 123.264 231.435 123.427 231.68 123.529C231.931 123.631 232.217 123.667 232.538 123.636ZM240.206 127.929C240.009 127.948 239.797 127.95 239.571 127.935C239.35 127.924 239.138 127.9 238.936 127.862L239.034 126.173C239.135 126.184 239.245 126.19 239.365 126.189C239.485 126.188 239.59 126.183 239.678 126.174C240.004 126.143 240.279 126.031 240.501 125.837C240.723 125.643 240.874 125.381 240.952 125.049L241.089 124.51L237.608 117.786L236.56 117.737L236.43 116.368L240.894 115.943L241.024 117.312L240.012 117.565L241.687 121.149L241.894 121.592L241.941 121.588L243.106 117.255L242.09 117.21L241.959 115.842L246.12 115.446L246.25 116.815L245.314 117.037L242.879 125.509C242.761 125.913 242.595 126.287 242.382 126.631C242.174 126.981 241.893 127.272 241.539 127.504C241.189 127.736 240.745 127.878 240.206 127.929ZM251.743 123.567C250.913 123.646 250.184 123.54 249.554 123.249C248.93 122.958 248.431 122.522 248.057 121.94C247.682 121.353 247.456 120.663 247.381 119.87L247.278 118.789C247.158 117.523 247.22 116.45 247.466 115.569C247.712 114.687 248.105 113.98 248.645 113.448C249.185 112.91 249.832 112.529 250.585 112.306C251.08 112.175 251.44 112.031 251.666 111.873C251.896 111.71 251.997 111.473 251.967 111.162L253.725 110.994L253.753 111.039C253.811 111.546 253.786 111.964 253.676 112.294C253.571 112.623 253.401 112.893 253.164 113.104C252.928 113.315 252.639 113.491 252.297 113.634C251.959 113.771 251.592 113.897 251.195 114.013C250.691 114.161 250.282 114.349 249.969 114.577C249.661 114.8 249.43 115.068 249.277 115.381C249.129 115.693 249.04 116.057 249.012 116.473L249.047 116.509C249.308 116.228 249.625 115.989 249.998 115.791C250.372 115.593 250.795 115.472 251.267 115.427C252.018 115.355 252.685 115.459 253.266 115.739C253.847 116.018 254.314 116.44 254.665 117.003C255.022 117.56 255.237 118.225 255.31 118.997L255.326 119.161C255.401 119.954 255.31 120.669 255.051 121.306C254.793 121.943 254.384 122.46 253.826 122.859C253.267 123.252 252.572 123.488 251.743 123.567ZM251.577 121.825C251.966 121.788 252.276 121.664 252.507 121.454C252.743 121.238 252.904 120.953 252.991 120.599C253.077 120.241 253.098 119.833 253.055 119.377L253.039 119.214C252.999 118.788 252.901 118.418 252.745 118.104C252.595 117.788 252.384 117.552 252.113 117.395C251.846 117.232 251.516 117.169 251.122 117.206C250.733 117.243 250.423 117.367 250.192 117.577C249.96 117.783 249.8 118.054 249.712 118.392C249.624 118.73 249.6 119.112 249.641 119.537L249.652 119.654C249.696 120.115 249.791 120.517 249.939 120.858C250.092 121.2 250.302 121.457 250.57 121.63C250.842 121.798 251.178 121.863 251.577 121.825ZM256.09 123.969L259.594 111.229L261.686 111.03L258.182 123.77L256.09 123.969ZM262.833 122.347L262.704 120.986L263.887 120.638L263.391 115.419L262.163 115.301L262.033 113.932L269.406 113.23L269.688 116.193L268.264 116.329L268.056 115.132L265.676 115.359L266.158 120.422L267.386 120.54L267.515 121.901L262.833 122.347ZM275.192 121.336C274.362 121.415 273.632 121.301 273.001 120.995C272.37 120.689 271.866 120.229 271.489 119.616C271.111 118.998 270.882 118.269 270.802 117.429L270.786 117.266C270.707 116.431 270.795 115.677 271.05 115.004C271.304 114.326 271.71 113.777 272.267 113.358C272.828 112.933 273.521 112.682 274.345 112.603C275.18 112.524 275.91 112.64 276.536 112.952C277.162 113.259 277.664 113.718 278.041 114.331C278.418 114.944 278.647 115.67 278.727 116.51L278.743 116.674C278.822 117.514 278.735 118.273 278.481 118.951C278.225 119.624 277.82 120.17 277.263 120.589C276.706 121.009 276.016 121.257 275.192 121.336ZM275.026 119.594C275.42 119.556 275.731 119.419 275.96 119.183C276.189 118.947 276.345 118.634 276.428 118.244C276.51 117.849 276.528 117.397 276.479 116.889L276.464 116.726C276.416 116.228 276.315 115.796 276.16 115.428C276.004 115.056 275.789 114.776 275.515 114.587C275.245 114.393 274.911 114.315 274.512 114.353C274.123 114.39 273.812 114.53 273.578 114.772C273.344 115.008 273.186 115.324 273.103 115.719C273.025 116.109 273.01 116.552 273.057 117.05L273.073 117.213C273.121 117.721 273.221 118.162 273.371 118.535C273.527 118.907 273.742 119.187 274.016 119.376C274.29 119.559 274.627 119.632 275.026 119.594ZM279.833 123.272L279.255 119.011L279.986 118.941C280.215 118.653 280.401 118.376 280.543 118.111C280.685 117.841 280.791 117.559 280.863 117.265C280.934 116.965 280.975 116.634 280.988 116.272C281.005 115.904 280.996 115.478 280.961 114.995L280.874 113.756L279.662 113.636L279.532 112.267L286.951 111.561L288.165 111.445L288.295 112.814L287.104 113.163L287.586 118.234L288.807 118.118L289.057 122.394L286.942 122.596L286.702 120.076L281.717 120.55L281.957 123.07L279.833 123.272ZM282.585 118.702L285.33 118.441L284.868 113.587L283.157 113.75L283.232 114.779C283.29 115.616 283.259 116.359 283.138 117.009C283.016 117.654 282.832 118.218 282.585 118.702Z" fill="white"/>
<path d="M64.2361 109.324C63.4082 109.419 62.6759 109.32 62.0392 109.026C61.4024 108.733 60.8893 108.283 60.4998 107.678C60.1097 107.067 59.8664 106.343 59.7699 105.505L59.7511 105.342C59.6552 104.509 59.7281 103.753 59.9698 103.075C60.211 102.392 60.6056 101.836 61.1538 101.406C61.7065 100.97 62.3942 100.704 63.2169 100.61C64.0499 100.514 64.7825 100.615 65.4147 100.915C66.0462 101.209 66.5568 101.659 66.9463 102.264C67.3358 102.869 67.5788 103.591 67.6753 104.429L67.6941 104.592C67.7906 105.431 67.7183 106.191 67.4771 106.874C67.2354 107.552 66.8405 108.106 66.2923 108.536C65.7442 108.967 65.0587 109.229 64.2361 109.324ZM64.0359 107.585C64.4291 107.54 64.7377 107.397 64.9616 107.156C65.1855 106.915 65.3353 106.599 65.4108 106.208C65.4857 105.811 65.494 105.36 65.4356 104.852L65.4168 104.689C65.3596 104.193 65.2497 103.762 65.0872 103.398C64.9242 103.029 64.7036 102.753 64.4257 102.57C64.1523 102.381 63.8164 102.31 63.418 102.356C63.0299 102.401 62.7216 102.546 62.4931 102.793C62.264 103.034 62.112 103.353 62.0371 103.75C61.9668 104.14 61.9602 104.584 62.0174 105.081L62.0362 105.244C62.0945 105.751 62.2027 106.189 62.3606 106.559C62.5237 106.928 62.7442 107.204 63.0222 107.387C63.2996 107.565 63.6375 107.631 64.0359 107.585ZM74.0197 108.032L73.8633 106.674L75.0472 106.301L74.9239 105.23C74.7372 105.294 74.5442 105.348 74.3448 105.391C74.1448 105.43 73.9439 105.461 73.7421 105.484C72.9349 105.577 72.2334 105.54 71.6374 105.373C71.0414 105.206 70.566 104.901 70.2111 104.46C69.8555 104.013 69.6364 103.43 69.5536 102.711L69.4329 101.663L68.2031 101.569L68.0467 100.211L71.516 99.8113L72.4861 99.6996L72.6425 101.058L71.6992 101.402L71.8198 102.45C71.8621 102.817 71.9475 103.104 72.0761 103.309C72.204 103.509 72.3871 103.643 72.6255 103.71C72.8685 103.771 73.1736 103.781 73.541 103.738C73.7531 103.714 73.9537 103.68 74.1428 103.637C74.337 103.594 74.5301 103.54 74.7219 103.476L74.4476 101.094L73.4428 100.973L73.2855 99.6075L77.7405 99.0945L77.8978 100.46L76.7138 100.833L77.3135 106.041L78.5511 106.134L78.7075 107.492L74.0197 108.032ZM79.9726 107.346L79.8162 105.988L81.0001 105.616L80.4004 100.408L79.1628 100.315L79.0055 98.9488L83.4527 98.4367L83.61 99.8027L82.6589 100.148L82.8663 101.949L85.6292 101.631L85.4219 99.83L84.4249 99.7089L84.2676 98.3429L85.2378 98.2312L87.5041 97.9702L88.7148 97.8308L88.8721 99.1968L87.6882 99.569L88.2879 104.777L89.5254 104.87L89.6818 106.228L85.2347 106.741L85.0783 105.382L86.0216 105.038L85.8294 103.369L83.0665 103.687L83.2586 105.356L84.2633 105.476L84.4197 106.834L79.9726 107.346ZM94.8152 105.802C93.9874 105.898 93.2551 105.799 92.6183 105.505C91.9816 105.211 91.4685 104.762 91.079 104.157C90.6889 103.546 90.4456 102.822 90.3491 101.984L90.3303 101.821C90.2344 100.988 90.3073 100.232 90.549 99.5542C90.7902 98.871 91.1848 98.3144 91.7329 97.8843C92.2857 97.4484 92.9734 97.1831 93.7961 97.0884C94.6291 96.9925 95.3617 97.0942 95.9938 97.3937C96.6254 97.6879 97.1359 98.1377 97.5254 98.7429C97.9149 99.3482 98.158 100.07 98.2545 100.908L98.2733 101.071C98.3698 101.909 98.2975 102.67 98.0563 103.353C97.8146 104.031 97.4196 104.585 96.8715 105.015C96.3233 105.445 95.6379 105.708 94.8152 105.802ZM94.615 104.064C95.0083 104.019 95.3169 103.876 95.5408 103.635C95.7647 103.394 95.9144 103.078 95.99 102.687C96.0649 102.29 96.0731 101.838 96.0147 101.331L95.996 101.168C95.9388 100.671 95.8289 100.241 95.6664 99.8771C95.5033 99.5079 95.2828 99.2319 95.0048 99.0489C94.7315 98.8602 94.3956 98.7888 93.9972 98.8347C93.6091 98.8793 93.3008 99.0249 93.0723 99.2715C92.8432 99.5128 92.6912 99.8318 92.6163 100.228C92.5459 100.619 92.5394 101.063 92.5966 101.56L92.6153 101.723C92.6737 102.23 92.7819 102.668 92.9398 103.038C93.1029 103.407 93.3234 103.683 93.6014 103.866C93.8787 104.044 94.2166 104.11 94.615 104.064ZM103.852 99.8703L103.648 98.1008L112.069 97.1311L112.273 98.9006L103.852 99.8703ZM118.251 102.939L118.08 101.456L121.29 97.0995C121.614 96.6323 121.864 96.2338 122.041 95.9041C122.218 95.5693 122.335 95.27 122.394 95.0063C122.457 94.7369 122.474 94.4754 122.445 94.2219C122.395 93.7821 122.225 93.4241 121.936 93.1481C121.653 92.8714 121.268 92.7611 120.781 92.8171C120.259 92.8772 119.883 93.0936 119.653 93.466C119.423 93.8333 119.342 94.3145 119.41 94.9095L117.206 95.1633L117.185 95.1186C117.091 94.4374 117.165 93.8076 117.408 93.2291C117.655 92.6449 118.05 92.159 118.593 91.7715C119.141 91.3834 119.81 91.1437 120.602 91.0526C121.378 90.9632 122.059 91.0264 122.645 91.242C123.235 91.4519 123.709 91.7879 124.066 92.2501C124.424 92.7122 124.64 93.2693 124.715 93.9212C124.767 94.3714 124.735 94.8049 124.621 95.2218C124.506 95.6335 124.303 96.0789 124.012 96.558C123.721 97.0371 123.339 97.5923 122.867 98.2234L120.942 100.836L120.962 100.873L123.888 100.536L123.88 99.4436L125.634 99.2416L125.958 102.051L118.251 102.939ZM130.377 101.707C129.984 101.753 129.573 101.758 129.144 101.724C128.721 101.694 128.325 101.621 127.955 101.507L128.023 99.8394C128.363 99.9209 128.707 99.9756 129.056 100.004C129.41 100.026 129.753 100.018 130.084 99.9796C130.741 99.9039 131.232 99.6193 131.558 99.1256C131.884 98.632 131.997 97.9086 131.898 96.9553L131.863 96.7864C131.647 97.1415 131.37 97.425 131.033 97.6369C130.7 97.843 130.322 97.9705 129.897 98.0193C129.23 98.0962 128.625 98.0086 128.082 97.7565C127.544 97.4987 127.102 97.0961 126.755 96.5488C126.414 95.9957 126.197 95.3156 126.104 94.5084C126.016 93.7478 126.1 93.0434 126.356 92.3954C126.617 91.7467 127.011 91.2136 127.54 90.7963C128.073 90.3731 128.705 90.1195 129.434 90.0355C130.205 89.9468 130.903 90.0472 131.529 90.3369C132.155 90.6266 132.67 91.0916 133.074 91.7318C133.478 92.3721 133.735 93.1709 133.845 94.1281L134.128 96.5806C134.24 97.5534 134.152 98.4076 133.864 99.1432C133.582 99.8782 133.139 100.467 132.534 100.909C131.934 101.345 131.215 101.611 130.377 101.707ZM130.195 96.3021C130.542 96.2622 130.844 96.1566 131.102 95.9853C131.36 95.8089 131.558 95.5921 131.696 95.335L131.556 94.1243C131.461 93.2912 131.243 92.6793 130.905 92.2883C130.565 91.8923 130.147 91.7228 129.651 91.78C129.351 91.8146 129.096 91.9487 128.887 92.1825C128.677 92.4111 128.526 92.7091 128.432 93.0764C128.342 93.438 128.322 93.8283 128.37 94.2474C128.422 94.7027 128.525 95.092 128.677 95.4152C128.835 95.7378 129.041 95.9763 129.295 96.1306C129.548 96.2849 129.848 96.342 130.195 96.3021ZM139.605 100.645C138.917 100.724 138.271 100.67 137.668 100.483C137.069 100.289 136.574 99.9741 136.183 99.5368C135.791 99.0996 135.565 98.5489 135.505 97.8848L135.516 97.8442L137.676 97.4853C137.734 97.9872 137.922 98.364 138.239 98.6158C138.556 98.8625 138.944 98.9593 139.405 98.9063C139.933 98.8455 140.302 98.6116 140.512 98.2047C140.722 97.7978 140.792 97.2943 140.723 96.6941C140.648 96.0421 140.453 95.535 140.139 95.1728C139.825 94.8105 139.401 94.6601 138.868 94.7215C138.439 94.7709 138.117 94.8892 137.902 95.0764C137.693 95.2631 137.555 95.4991 137.488 95.7847L135.471 95.8833L135.398 89.5139L141.902 88.765L142.199 91.3417L140.802 91.5026L140.512 90.7652L137.47 91.1156L137.452 93.76C137.58 93.6404 137.73 93.5314 137.902 93.4329C138.073 93.3293 138.26 93.2422 138.462 93.1718C138.668 93.0957 138.89 93.0439 139.128 93.0165C139.85 92.9175 140.483 92.9915 141.025 93.2384C141.572 93.4795 142.01 93.8695 142.339 94.4082C142.674 94.9464 142.887 95.6165 142.98 96.4185C143.063 97.1429 142.991 97.8092 142.762 98.4175C142.538 99.02 142.16 99.5196 141.629 99.9163C141.102 100.307 140.428 100.55 139.605 100.645ZM144.81 99.8803L144.581 97.8934L146.839 97.6334L147.068 99.6202L144.81 99.8803ZM152.466 99.1639C151.286 99.2997 150.307 99.0218 149.531 98.3301C148.753 97.6332 148.278 96.5371 148.106 95.0418L147.819 92.5504C147.647 91.0603 147.859 89.8878 148.452 89.033C149.05 88.1725 149.937 87.6746 151.111 87.5394C152.281 87.4047 153.254 87.6884 154.032 88.3905C154.815 89.0867 155.292 90.18 155.464 91.6701L155.751 94.1615C155.923 95.6568 155.71 96.8321 155.111 97.6875C154.517 98.5371 153.635 99.0292 152.466 99.1639ZM152.265 97.4254C152.772 97.367 153.134 97.1156 153.35 96.6713C153.566 96.227 153.622 95.5495 153.517 94.6388L153.179 91.6973C153.075 90.797 152.865 90.1554 152.548 89.7725C152.231 89.3895 151.819 89.2272 151.312 89.2856C150.8 89.3446 150.436 89.5963 150.22 90.0406C150.003 90.4849 149.947 91.1572 150.051 92.0575L150.39 94.999C150.494 95.9097 150.703 96.5568 151.014 96.9403C151.331 97.3233 151.748 97.4849 152.265 97.4254ZM161.546 98.1182C160.366 98.2541 159.388 97.9761 158.611 97.2844C157.834 96.5875 157.359 95.4914 157.187 93.9961L156.9 91.5048C156.728 90.0146 156.939 88.8422 157.533 87.9874C158.131 87.1268 159.017 86.629 160.192 86.4937C161.361 86.359 162.335 86.6427 163.113 87.3448C163.896 88.0411 164.373 89.1343 164.544 90.6244L164.831 93.1158C165.004 94.6111 164.79 95.7865 164.191 96.6418C163.597 97.4914 162.715 97.9836 161.546 98.1182ZM161.346 96.3797C161.853 96.3213 162.215 96.07 162.431 95.6256C162.647 95.1813 162.703 94.5038 162.598 93.5932L162.259 90.6517C162.156 89.7514 161.945 89.1098 161.629 88.7268C161.312 88.3439 160.9 88.1816 160.393 88.24C159.881 88.299 159.516 88.5506 159.3 88.9949C159.084 89.4392 159.028 90.1116 159.131 91.0119L159.47 93.9534C159.575 94.864 159.783 95.5111 160.095 95.8946C160.411 96.2776 160.829 96.4393 161.346 96.3797ZM170.627 97.0726C169.447 97.2084 168.469 96.9305 167.692 96.2388C166.914 95.5419 166.439 94.4458 166.267 92.9505L165.98 90.4591C165.809 88.969 166.02 87.7965 166.613 86.9417C167.212 86.0812 168.098 85.5833 169.272 85.448C170.442 85.3134 171.416 85.5971 172.194 86.2991C172.976 86.9954 173.454 88.0886 173.625 89.5788L173.912 92.0701C174.084 93.5655 173.871 94.7408 173.272 95.5962C172.678 96.4458 171.796 96.9379 170.627 97.0726ZM170.427 95.334C170.934 95.2757 171.295 95.0243 171.511 94.58C171.728 94.1357 171.783 93.4582 171.679 92.5475L171.34 89.606C171.236 88.7057 171.026 88.0641 170.709 87.6812C170.392 87.2982 169.981 87.1359 169.474 87.1943C168.961 87.2533 168.597 87.505 168.381 87.9493C168.165 88.3936 168.108 89.0659 168.212 89.9662L168.551 92.9077C168.656 93.8183 168.864 94.4654 169.175 94.849C169.492 95.2319 169.909 95.3936 170.427 95.334ZM179.804 99.1221L179.647 97.7561L180.714 97.3972L179.744 88.9686L178.506 88.8752L178.349 87.5092L181.64 87.1302L181.861 88.0956C182.068 87.7049 182.336 87.3909 182.665 87.1538C182.994 86.9166 183.402 86.7701 183.888 86.714C184.566 86.636 185.167 86.7555 185.691 87.0727C186.215 87.3846 186.641 87.8571 186.971 88.4902C187.306 89.1227 187.524 89.8814 187.626 90.7662L187.645 90.9291C187.74 91.757 187.694 92.4963 187.507 93.147C187.325 93.7919 187.01 94.3157 186.564 94.7183C186.122 95.1153 185.559 95.353 184.876 95.4317C184.426 95.4835 184.019 95.4492 183.653 95.3287C183.293 95.2025 182.973 94.9955 182.693 94.7079L182.973 97.1372L184.094 97.244L184.251 98.61L179.804 99.1221ZM184.001 93.7709C184.58 93.7042 184.975 93.4412 185.184 92.982C185.398 92.5221 185.463 91.9248 185.379 91.1901L185.36 91.0271C185.299 90.4942 185.186 90.0379 185.022 89.6584C184.857 89.2737 184.637 88.9844 184.363 88.7905C184.094 88.5909 183.768 88.5131 183.385 88.5572C183.074 88.5929 182.808 88.6944 182.586 88.8615C182.37 89.028 182.206 89.2486 182.096 89.5234L182.52 93.2022C182.687 93.4242 182.894 93.5838 183.141 93.6812C183.394 93.7779 183.68 93.8079 184.001 93.7709ZM191.752 97.9114C191.555 97.934 191.344 97.9401 191.117 97.9295C190.896 97.9234 190.684 97.9033 190.481 97.869L190.546 96.1786C190.647 96.188 190.757 96.191 190.877 96.1877C190.997 96.1843 191.101 96.1776 191.189 96.1674C191.515 96.1299 191.788 96.0121 192.006 95.8139C192.224 95.6157 192.369 95.35 192.441 95.0167L192.567 94.4753L188.954 87.8215L187.905 87.7929L187.748 86.4269L192.203 85.9139L192.36 87.2799L191.354 87.5531L193.099 91.1032L193.315 91.5424L193.362 91.537L194.441 87.1818L193.423 87.1574L193.266 85.7914L197.418 85.3133L197.576 86.6793L196.644 86.9202L194.377 95.4386C194.266 95.8446 194.108 96.2219 193.902 96.5707C193.701 96.9241 193.426 97.2206 193.076 97.4601C192.732 97.699 192.29 97.8494 191.752 97.9114ZM203.201 93.3216C202.373 93.4169 201.641 93.3255 201.006 93.0474C200.377 92.7686 199.869 92.3422 199.483 91.7679C199.096 91.1886 198.857 90.5031 198.766 89.7114L198.642 88.6326C198.497 87.3701 198.538 86.2958 198.766 85.4097C198.995 84.5236 199.374 83.8089 199.904 83.2656C200.433 82.717 201.072 82.3237 201.82 82.0854C202.313 81.9449 202.67 81.7936 202.893 81.6317C203.12 81.464 203.215 81.2249 203.18 80.9144L204.934 80.7124L204.962 80.7563C205.031 81.2622 205.014 81.681 204.91 82.0127C204.812 82.3438 204.647 82.6171 204.415 82.8326C204.183 83.048 203.897 83.2304 203.558 83.3795C203.223 83.5229 202.858 83.6567 202.464 83.7808C201.963 83.9381 201.558 84.1341 201.25 84.3688C200.946 84.5978 200.72 84.8702 200.573 85.186C200.431 85.5012 200.35 85.867 200.33 86.2835L200.365 86.3187C200.621 86.0324 200.933 85.7867 201.303 85.5816C201.672 85.3766 202.092 85.2469 202.563 85.1927C203.314 85.1063 203.982 85.1971 204.569 85.4651C205.155 85.7331 205.63 86.145 205.993 86.7009C206.36 87.251 206.588 87.9116 206.677 88.6825L206.696 88.8455C206.787 89.6371 206.71 90.3538 206.464 90.9955C206.218 91.6373 205.82 92.1628 205.269 92.5722C204.718 92.9765 204.028 93.2263 203.201 93.3216ZM203 91.5831C203.388 91.5384 203.696 91.4086 203.923 91.1938C204.154 90.9731 204.31 90.6852 204.39 90.33C204.469 89.9696 204.482 89.5618 204.43 89.1065L204.411 88.9435C204.362 88.5192 204.257 88.1512 204.095 87.8395C203.938 87.5273 203.723 87.2952 203.449 87.1433C203.179 86.9856 202.847 86.9294 202.454 86.9747C202.066 87.0194 201.758 87.1492 201.532 87.364C201.304 87.5737 201.15 87.8484 201.068 88.1881C200.987 88.5278 200.97 88.9097 201.019 89.334L201.033 89.4504C201.086 89.9109 201.189 90.3106 201.344 90.6493C201.503 90.9874 201.718 91.2405 201.989 91.4085C202.265 91.5708 202.602 91.629 203 91.5831ZM207.554 93.6381L210.806 80.8305L212.894 80.5901L209.642 93.3977L207.554 93.6381ZM214.265 91.8824L214.108 90.5242L215.285 90.1528L214.685 84.945L213.455 84.8507L213.298 83.4847L220.655 82.6375L220.996 85.5945L219.576 85.7581L219.344 84.5658L216.969 84.8393L217.551 89.8918L218.781 89.9861L218.937 91.3444L214.265 91.8824ZM226.601 90.627C225.773 90.7224 225.04 90.6232 224.404 90.3295C223.767 90.0358 223.254 89.5864 222.864 88.9811C222.474 88.3707 222.231 87.6464 222.134 86.8082L222.116 86.6452C222.02 85.8122 222.093 85.0567 222.334 84.3787C222.576 83.6956 222.97 83.139 223.518 82.7089C224.071 82.273 224.759 82.0077 225.581 81.913C226.414 81.817 227.147 81.9188 227.779 82.2182C228.411 82.5125 228.921 82.9623 229.311 83.5675C229.7 84.1728 229.943 84.8945 230.04 85.7327L230.059 85.8957C230.155 86.7339 230.083 87.4946 229.842 88.1777C229.6 88.8556 229.205 89.4096 228.657 89.8397C228.109 90.2699 227.423 90.5323 226.601 90.627ZM226.4 88.8885C226.794 88.8432 227.102 88.7002 227.326 88.4595C227.55 88.2187 227.7 87.9027 227.775 87.5112C227.85 87.1147 227.859 86.6628 227.8 86.1558L227.781 85.9928C227.724 85.4961 227.614 85.0657 227.452 84.7017C227.289 84.3325 227.068 84.0564 226.79 83.8735C226.517 83.6848 226.181 83.6134 225.783 83.6592C225.394 83.7039 225.086 83.8495 224.858 84.096C224.629 84.3374 224.477 84.6563 224.402 85.0529C224.331 85.4437 224.325 85.8875 224.382 86.3842L224.401 86.5472C224.459 87.0543 224.567 87.4927 224.725 87.8625C224.888 88.2317 225.109 88.5077 225.387 88.6907C225.664 88.8684 226.002 88.9344 226.4 88.8885ZM231.28 92.471L230.617 88.222L231.347 88.138C231.57 87.8449 231.75 87.5647 231.887 87.2973C232.024 87.0247 232.125 86.7404 232.19 86.4445C232.255 86.1434 232.29 85.8117 232.296 85.4493C232.306 85.0812 232.288 84.6559 232.243 84.1735L232.132 82.9359L230.918 82.8398L230.761 81.4739L238.165 80.6213L239.375 80.4818L239.533 81.8478L238.349 82.2201L238.932 87.2804L240.15 87.1401L240.485 91.4111L238.374 91.6542L238.084 89.1395L233.109 89.7124L233.399 92.227L231.28 92.471ZM233.94 87.8473L236.68 87.5318L236.122 82.6888L234.415 82.8854L234.509 83.9126C234.585 84.748 234.568 85.4918 234.46 86.1439C234.351 86.7908 234.178 87.3586 233.94 87.8473Z" fill="white"/>
<path d="M35.4721 74.9726L35.3538 73.7125L36.5453 73.3653L36.4825 72.6963L36.3581 72.708C35.435 72.7947 34.6025 72.7028 33.8604 72.4324C33.1179 72.1569 32.5157 71.7322 32.0537 71.1582C31.5965 70.5787 31.3292 69.8766 31.2518 69.0521C31.1724 68.2069 31.3053 67.4489 31.6504 66.7783C31.9955 66.1077 32.5041 65.563 33.1762 65.1442C33.8535 64.7249 34.6537 64.4719 35.5767 64.3852L35.7012 64.3735L35.6369 63.6891L34.4016 63.5696L34.2833 62.3095L38.9736 61.8692L39.0919 63.1293L37.9004 63.4765L37.9646 64.161L38.058 64.1523C38.981 64.0656 39.8143 64.1652 40.5578 64.4512C41.3008 64.7319 41.9043 65.1696 42.3681 65.7643C42.8315 66.3537 43.1029 67.0711 43.1822 67.9163C43.2597 68.7408 43.1251 69.4806 42.7786 70.1357C42.432 70.7907 41.917 71.323 41.2335 71.7324C40.5553 72.1413 39.7572 72.3889 38.8393 72.4751L38.746 72.4838L38.8088 73.1527L40.0441 73.2722L40.1624 74.5323L35.4721 74.9726ZM36.2113 71.1446L36.3357 71.1329L35.8494 65.9525L35.7249 65.9642C35.2168 66.0119 34.7857 66.157 34.4318 66.3995C34.078 66.642 33.8158 66.97 33.6454 67.3836C33.4797 67.7915 33.4233 68.278 33.4764 68.8433C33.5275 69.3877 33.672 69.8398 33.9097 70.1993C34.1522 70.5532 34.4694 70.8111 34.8612 70.9731C35.2531 71.1351 35.7031 71.1923 36.2113 71.1446ZM38.5992 70.9204L38.7081 70.9102C39.2111 70.8629 39.64 70.7233 39.9949 70.4912C40.3493 70.2539 40.6098 69.9365 40.7765 69.5389C40.9479 69.1357 41.0083 68.6645 40.9577 68.1252C40.9041 67.5548 40.7554 67.0849 40.5114 66.7154C40.2722 66.3403 39.9564 66.0692 39.5641 65.902C39.1712 65.7296 38.7233 65.667 38.2203 65.7143L38.1129 65.74L38.5992 70.9204ZM48.6011 73.23C47.7714 73.3079 47.0414 73.1933 46.4109 72.8863C45.7805 72.5793 45.277 72.1191 44.9003 71.5058C44.5231 70.8873 44.2951 70.1581 44.2162 69.318L44.2009 69.1547C44.1225 68.3198 44.2113 67.566 44.4672 66.8933C44.7227 66.2154 45.129 65.6672 45.6861 65.2487C46.2478 64.8246 46.941 64.5738 47.7655 64.4964C48.6003 64.418 49.3306 64.5352 49.9563 64.8478C50.5816 65.1553 51.0825 65.6157 51.4592 66.229C51.8359 66.8423 52.0637 67.569 52.1425 68.4091L52.1579 68.5724C52.2367 69.4125 52.1484 70.1715 51.893 70.8493C51.637 71.522 51.2305 72.0676 50.6734 72.4861C50.1164 72.9046 49.4256 73.1526 48.6011 73.23ZM48.4375 71.4876C48.8316 71.4506 49.1431 71.3141 49.3721 71.0782C49.601 70.8422 49.7574 70.5293 49.8411 70.1396C49.9243 69.7447 49.9421 69.2931 49.8944 68.7849L49.8791 68.6216C49.8323 68.1238 49.7315 67.6912 49.5767 67.3238C49.4214 66.9513 49.2068 66.6707 48.9327 66.4819C48.6634 66.2875 48.329 66.209 47.9298 66.2465C47.5408 66.283 47.2296 66.4221 46.9959 66.6638C46.7618 66.9002 46.6031 67.2159 46.5199 67.6108C46.4413 68.0001 46.4254 68.4436 46.4722 68.9414L46.4875 69.1048C46.5352 69.613 46.6341 70.0536 46.7842 70.4266C46.9395 70.7991 47.1542 71.0798 47.4282 71.2685C47.7018 71.4521 48.0382 71.5251 48.4375 71.4876ZM53.751 75.846L53.6224 74.477L54.6973 74.1407L53.9042 65.6935L52.6689 65.574L52.5404 64.205L55.8384 63.8954L56.0393 64.8653C56.2541 64.4789 56.5286 64.1707 56.8627 63.9405C57.1968 63.7103 57.6076 63.5724 58.095 63.5266C58.7743 63.4628 59.3726 63.595 59.8899 63.9231C60.4068 64.246 60.8234 64.7274 61.1398 65.3673C61.4614 66.0067 61.6638 66.7697 61.747 67.6565L61.7624 67.8198C61.8403 68.6495 61.7788 69.3876 61.5779 70.0342C61.3818 70.6752 61.0563 71.1922 60.6015 71.5854C60.1513 71.973 59.584 72.1988 58.8996 72.2631C58.4484 72.3055 58.0416 72.2626 57.6791 72.1344C57.3212 72.0006 57.0056 71.787 56.7322 71.4936L56.9608 73.9282L58.0794 74.0586L58.2079 75.4275L53.751 75.846ZM58.0593 70.5843C58.64 70.5298 59.0399 70.2751 59.2587 69.8204C59.4828 69.3652 59.5603 68.7694 59.4911 68.033L59.4758 67.8697C59.4256 67.3356 59.3224 66.8771 59.1662 66.4942C59.0094 66.1061 58.7961 65.8122 58.5263 65.6126C58.2611 65.4073 57.9367 65.3227 57.553 65.3587C57.2418 65.388 56.9736 65.4838 56.7482 65.6462C56.528 65.8081 56.3601 66.0253 56.2444 66.2977L56.5905 69.9846C56.7529 70.21 56.9566 70.3739 57.2017 70.4765C57.4519 70.5785 57.7378 70.6145 58.0593 70.5843ZM63.2089 71.6937L63.0812 70.3325L64.2727 69.9853L63.7827 64.766L62.5473 64.6466L62.4188 63.2776L63.6322 63.1637L66.4402 62.9001L69.1289 68.47L69.1755 68.4656L70.796 62.4911L73.6429 62.2239L74.8485 62.1107L74.9771 63.4797L73.7933 63.8262L74.2833 69.0454L75.5109 69.1656L75.6387 70.5268L71.3062 70.9335L71.1784 69.5723L72.0121 69.2587L71.6915 65.844L71.6441 65.8406L70.1627 71.0409L68.6382 71.184L66.2703 66.4393L66.2243 66.4514L66.5361 69.7728L67.4214 69.9251L67.5492 71.2863L63.2089 71.6937ZM79.5431 70.325C78.7083 70.4034 78.0236 70.2427 77.4891 69.843C76.9541 69.4381 76.6504 68.8494 76.5778 68.0767C76.5033 67.2833 76.7645 66.6101 77.3612 66.0571C77.9575 65.499 78.8753 65.1617 80.1146 65.0453L81.2269 64.9409L81.1685 64.3187C81.1305 63.9142 80.9806 63.5987 80.7187 63.3722C80.4615 63.14 80.097 63.0461 79.6251 63.0904C79.3814 63.1132 79.1665 63.1648 78.9805 63.245C78.794 63.3201 78.6254 63.4196 78.4749 63.5436L78.4004 64.6727L76.767 64.8261L76.5307 62.6433C76.9481 62.353 77.4062 62.106 77.9049 61.9022C78.4037 61.6984 78.9694 61.5669 79.602 61.5075C80.7014 61.4043 81.594 61.5794 82.28 62.0329C82.9656 62.4812 83.3529 63.1798 83.442 64.1288L83.7677 67.5979C83.7784 67.712 83.7891 67.826 83.7998 67.9401C83.8152 68.0485 83.8356 68.1539 83.8609 68.2561L84.7515 68.298L84.8793 69.6592L82.0635 69.9236C81.9929 69.7838 81.9212 69.6336 81.8486 69.473C81.776 69.3124 81.7189 69.1503 81.6774 68.9868C81.4399 69.3544 81.1468 69.6592 80.7981 69.9012C80.4541 70.1375 80.0358 70.2788 79.5431 70.325ZM79.9921 68.5879C80.3084 68.5582 80.6026 68.46 80.8747 68.2932C81.1463 68.1212 81.3489 67.9113 81.4825 67.6633L81.3577 66.3332L80.2376 66.4384C79.7398 66.4851 79.3719 66.6348 79.1341 66.8873C78.9014 67.1393 78.8002 67.426 78.8304 67.7475C78.8586 68.0483 78.9738 68.2729 79.1761 68.4213C79.3831 68.564 79.6551 68.6196 79.9921 68.5879ZM93.6219 69.0032C92.7922 69.0811 92.0621 68.9666 91.4317 68.6596C90.8013 68.3526 90.2978 67.8924 89.9211 67.2791C89.5439 66.6606 89.3159 65.9314 89.237 65.0913L89.2217 64.928C89.1433 64.0931 89.2321 63.3393 89.488 62.6666C89.7435 61.9887 90.1498 61.4405 90.7068 61.022C91.2686 60.5979 91.9617 60.3471 92.7862 60.2697C93.6211 60.1913 94.3514 60.3084 94.9771 60.6211C95.6023 60.9286 96.1033 61.389 96.48 62.0023C96.8567 62.6156 97.0844 63.3423 97.1633 64.1824L97.1786 64.3457C97.2575 65.1858 97.1692 65.9447 96.9138 66.6226C96.6578 67.2953 96.2513 67.8409 95.6942 68.2594C95.1371 68.6779 94.4464 68.9258 93.6219 69.0032ZM93.4583 67.2609C93.8524 67.2239 94.1639 67.0874 94.3929 66.8514C94.6218 66.6155 94.7781 66.3026 94.8619 65.9129C94.9451 65.5179 94.9629 65.0664 94.9152 64.5582L94.8998 64.3949C94.8531 63.8971 94.7523 63.4645 94.5975 63.0971C94.4422 62.7246 94.2275 62.444 93.9535 62.2552C93.6841 62.0608 93.3498 61.9823 92.9505 62.0198C92.5616 62.0563 92.2503 62.1954 92.0167 62.437C91.7826 62.6735 91.6239 62.9892 91.5406 63.3841C91.4621 63.7734 91.4462 64.2169 91.4929 64.7147L91.5083 64.8781C91.556 65.3862 91.6549 65.8268 91.805 66.1999C91.9603 66.5724 92.175 66.853 92.449 67.0418C92.7226 67.2254 93.059 67.2984 93.4583 67.2609ZM102.715 68.1496C101.885 68.2275 101.156 68.1207 100.527 67.8293C99.903 67.5373 99.4042 67.1003 99.0304 66.5181C98.6562 65.9307 98.4318 65.2403 98.3573 64.4469L98.2558 63.3657C98.137 62.1005 98.2011 61.0273 98.4479 60.1462C98.6948 59.2651 99.0888 58.5585 99.6299 58.0264C100.171 57.4891 100.818 57.1093 101.571 56.8869C102.066 56.7567 102.427 56.613 102.653 56.4557C102.883 56.2929 102.984 56.0558 102.955 55.7447L104.713 55.5797L104.74 55.6242C104.798 56.1314 104.772 56.5497 104.662 56.8792C104.557 57.2081 104.386 57.4779 104.149 57.6884C103.913 57.899 103.623 58.0752 103.281 58.2172C102.943 58.3536 102.576 58.4796 102.179 58.5954C101.675 58.7421 101.266 58.9295 100.952 59.1577C100.644 59.3803 100.413 59.6479 100.259 59.9605C100.11 60.2726 100.021 60.6367 99.9925 61.0526L100.027 61.0886C100.289 60.8077 100.606 60.5687 100.98 60.3714C101.354 60.1742 101.777 60.0534 102.249 60.0091C103.001 59.9385 103.667 60.0433 104.248 60.3236C104.829 60.6039 105.294 61.0257 105.646 61.5891C106.001 62.1468 106.215 62.812 106.288 63.5846L106.303 63.748C106.378 64.5414 106.285 65.2563 106.026 65.8927C105.767 66.5291 105.357 67.0462 104.798 67.4439C104.239 67.8365 103.544 68.0717 102.715 68.1496ZM102.551 66.4072C102.94 66.3707 103.25 66.2474 103.482 66.0374C103.718 65.8217 103.879 65.5371 103.966 65.1837C104.053 64.825 104.075 64.4176 104.032 63.9612L104.017 63.7979C103.977 63.3727 103.879 63.0026 103.724 62.6876C103.574 62.3721 103.364 62.1355 103.093 61.9779C102.826 61.8145 102.496 61.7514 102.102 61.7884C101.713 61.8249 101.403 61.9482 101.171 62.1582C100.939 62.3631 100.779 62.6345 100.691 62.9724C100.602 63.3102 100.578 63.6918 100.618 64.117L100.629 64.2337C100.672 64.6952 100.767 65.0969 100.914 65.4388C101.067 65.7802 101.277 66.0378 101.544 66.2115C101.816 66.3795 102.152 66.4447 102.551 66.4072ZM110.291 70.7026C110.094 70.7211 109.882 70.7226 109.656 70.7073C109.435 70.6966 109.224 70.672 109.021 70.6335L109.122 68.9448C109.222 68.9563 109.333 68.9616 109.453 68.9608C109.573 68.96 109.677 68.9554 109.765 68.9471C110.092 68.9165 110.367 68.8044 110.589 68.6109C110.812 68.4173 110.962 68.1547 111.041 67.823L111.179 67.2843L107.706 60.556L106.658 60.5053L106.53 59.1363L110.994 58.7172L111.123 60.0862L110.111 60.3381L111.781 63.9242L111.988 64.3678L112.034 64.3634L113.205 60.0319L112.188 59.9861L112.06 58.6171L116.221 58.2264L116.35 59.5954L115.413 59.8168L112.968 68.2856C112.849 68.6891 112.682 69.063 112.469 69.4074C112.261 69.7565 111.979 70.0471 111.625 70.2792C111.275 70.5108 110.83 70.6519 110.291 70.7026ZM122.55 66.1226L122.422 64.7614L123.613 64.4142L123.513 63.3407C123.325 63.4002 123.13 63.4499 122.93 63.4896C122.729 63.5241 122.528 63.5509 122.326 63.5699C121.517 63.6458 120.816 63.5939 120.224 63.4141C119.631 63.2343 119.162 62.92 118.817 62.4712C118.471 62.0171 118.264 61.4297 118.196 60.709L118.098 59.6589L116.87 59.5387L116.742 58.1775L120.219 57.8511L121.192 57.7598L121.319 59.121L120.369 59.4456L120.468 60.4957C120.502 60.8639 120.582 61.152 120.706 61.3601C120.829 61.5629 121.01 61.7003 121.247 61.7722C121.488 61.8385 121.793 61.8543 122.161 61.8198C122.374 61.7998 122.575 61.7704 122.765 61.7317C122.96 61.6925 123.154 61.6428 123.347 61.5829L123.123 59.1949L122.121 59.0536L121.993 57.6846L126.458 57.2654L126.586 58.6344L125.395 58.9817L125.885 64.2009L127.12 64.3203L127.248 65.6815L122.55 66.1226ZM132.389 65.3637C131.585 65.4391 130.866 65.3288 130.231 65.0326C129.596 64.7313 129.083 64.2851 128.693 63.694C128.308 63.1024 128.078 62.4073 128.003 61.6087L127.974 61.2976C127.895 60.4627 127.982 59.7092 128.232 59.037C128.483 58.3596 128.873 57.8102 129.404 57.389C129.94 56.9673 130.594 56.7202 131.367 56.6476C132.129 56.5761 132.783 56.6663 133.33 56.9184C133.877 57.1705 134.312 57.5665 134.634 58.1064C134.957 58.6463 135.156 59.3181 135.232 60.1219L135.348 61.3586L130.401 61.823L130.39 61.8712C130.455 62.2364 130.577 62.5572 130.755 62.8335C130.937 63.1041 131.176 63.3092 131.472 63.4488C131.767 63.5833 132.114 63.6318 132.513 63.5943C132.928 63.5554 133.309 63.4672 133.657 63.3299C134.01 63.1869 134.348 62.9957 134.671 62.7561L135.417 64.0985C135.096 64.4112 134.679 64.6857 134.168 64.922C133.661 65.1527 133.068 65.2999 132.389 65.3637ZM130.275 60.3204L133.083 60.0568L133.064 59.8545C133.032 59.5123 132.958 59.2237 132.842 58.9887C132.73 58.7481 132.567 58.5699 132.352 58.454C132.143 58.3377 131.88 58.2944 131.563 58.3241C131.262 58.3523 131.016 58.4565 130.824 58.6368C130.631 58.8118 130.488 59.0423 130.394 59.3284C130.306 59.6139 130.257 59.9324 130.248 60.2837L130.275 60.3204ZM136.901 64.7753L136.773 63.4141L137.964 63.0668L137.474 57.8476L136.239 57.7282L136.11 56.3592L140.567 55.9408L140.696 57.3097L139.738 57.6351L139.907 59.4397L142.676 59.1797L142.507 57.3751L141.513 57.2331L141.384 55.8641L142.356 55.7728L144.628 55.5596L145.841 55.4456L145.97 56.8146L144.778 57.1619L145.268 62.3811L146.503 62.5006L146.631 63.8618L142.174 64.2802L142.046 62.919L142.997 62.5944L142.84 60.922L140.071 61.182L140.228 62.8543L141.23 62.9957L141.357 64.3569L136.901 64.7753ZM147.915 63.7413L147.787 62.3801L148.978 62.0328L148.488 56.8136L147.253 56.6941L147.124 55.3251L150.609 54.998L151.698 54.8958L151.827 56.2647L150.76 56.6003L151.089 60.1083L151.136 60.1117L153.394 54.7366L155.665 54.5233L156.871 54.4101L156.999 55.7791L155.815 56.1257L156.305 61.3449L157.533 61.4651L157.661 62.8263L153.095 63.2549L152.967 61.8937L154.034 61.5581L153.703 58.0346L153.656 58.0312L151.399 63.4141L147.915 63.7413ZM158.944 62.7058L158.816 61.3446L159.698 61.1206L160.594 59.1374C160.095 58.9489 159.701 58.6747 159.411 58.3148C159.125 57.9492 158.96 57.5228 158.914 57.0353C158.862 56.4857 158.965 55.9869 159.221 55.5392C159.477 55.0914 159.864 54.7255 160.381 54.4415C160.898 54.1523 161.522 53.9734 162.253 53.9048L167.169 53.4433L167.298 54.8123L166.114 55.1588L166.604 60.378L167.831 60.4982L167.959 61.8594L163.51 62.2771L163.382 60.9159L164.34 60.5905L164.213 59.2371L162.984 59.3525L161.744 62.4429L158.944 62.7058ZM162.584 57.8443L164.07 57.7048L163.863 55.5035L162.416 55.6394C161.991 55.6793 161.672 55.8243 161.46 56.0743C161.248 56.3244 161.156 56.5946 161.183 56.885C161.211 57.1754 161.346 57.4191 161.589 57.6159C161.838 57.8071 162.169 57.8832 162.584 57.8443ZM173.07 61.3796L172.942 60.0184L174.133 59.6711L173.643 54.4519L172.408 54.3325L172.279 52.9635L175.764 52.6363L176.853 52.5341L176.982 53.9031L175.915 54.2387L176.244 57.7467L176.291 57.7501L178.549 52.3749L180.82 52.1617L182.026 52.0485L182.154 53.4175L180.97 53.764L181.46 58.9832L182.688 59.1034L182.816 60.4646L178.25 60.8933L178.122 59.5321L179.189 59.1965L178.858 55.6729L178.811 55.6695L176.554 61.0525L173.07 61.3796ZM191.807 59.7852C190.998 59.8612 190.281 59.7454 189.656 59.4379C189.036 59.13 188.538 58.6719 188.162 58.0638C187.785 57.4505 187.558 56.7316 187.481 55.9071L187.459 55.6737C187.381 54.844 187.473 54.0952 187.734 53.4272C187.996 52.7592 188.403 52.2162 188.954 51.7982C189.506 51.375 190.178 51.1262 190.972 51.0517C191.729 50.9806 192.391 51.0388 192.958 51.2262C193.529 51.4079 194.001 51.6383 194.372 51.9173L194.583 54.33L192.872 54.4907L192.427 53.018C192.291 52.9052 192.124 52.8189 191.924 52.7591C191.725 52.6994 191.527 52.6787 191.33 52.6972C190.915 52.7362 190.58 52.8723 190.325 53.1055C190.075 53.3382 189.9 53.6528 189.801 54.0492C189.703 54.4456 189.679 54.916 189.73 55.4605L189.752 55.6938C189.806 56.2694 189.926 56.7368 190.111 57.0961C190.296 57.4501 190.521 57.7036 190.787 57.8566C191.057 58.009 191.348 58.0706 191.659 58.0414C192.059 58.004 192.368 57.8703 192.587 57.6405C192.811 57.405 192.948 57.0913 193.001 56.6992L194.945 56.5167L194.973 56.5612C194.941 57.1658 194.813 57.6983 194.589 58.1587C194.371 58.6186 194.034 58.9877 193.579 59.2658C193.129 59.5434 192.538 59.7166 191.807 59.7852ZM198.217 59.0187L198.089 57.6575L199.273 57.311L198.795 52.224L197.387 52.3561L197.408 53.4998L195.666 53.6634L195.397 50.7932L204.186 49.968L204.455 52.8382L202.713 53.0018L202.513 51.8749L201.074 52.01L201.552 57.097L202.779 57.2172L202.907 58.5784L198.217 59.0187ZM209.721 58.1035C208.891 58.1814 208.161 58.0668 207.531 57.7598C206.9 57.4528 206.397 56.9926 206.02 56.3793C205.643 55.7608 205.415 55.0316 205.336 54.1915L205.321 54.0282C205.242 53.1933 205.331 52.4395 205.587 51.7668C205.842 51.0889 206.249 50.5407 206.806 50.1222C207.367 49.6981 208.061 49.4473 208.885 49.3699C209.72 49.2915 210.45 49.4087 211.076 49.7213C211.701 50.0288 212.202 50.4892 212.579 51.1025C212.956 51.7158 213.183 52.4425 213.262 53.2826L213.277 53.4459C213.356 54.286 213.268 55.0449 213.013 55.7228C212.757 56.3955 212.35 56.9411 211.793 57.3596C211.236 57.7781 210.545 58.0261 209.721 58.1035ZM209.557 56.3611C209.951 56.3241 210.263 56.1876 210.492 55.9517C210.721 55.7157 210.877 55.4028 210.961 55.0131C211.044 54.6182 211.062 54.1666 211.014 53.6584L210.999 53.4951C210.952 52.9973 210.851 52.5647 210.696 52.1973C210.541 51.8248 210.326 51.5442 210.052 51.3554C209.783 51.161 209.449 51.0825 209.049 51.12C208.66 51.1565 208.349 51.2956 208.116 51.5373C207.881 51.7737 207.723 52.0894 207.639 52.4843C207.561 52.8736 207.545 53.3171 207.592 53.8149L207.607 53.9783C207.655 54.4865 207.754 54.9271 207.904 55.3001C208.059 55.6726 208.274 55.9533 208.548 56.142C208.821 56.3256 209.158 56.3986 209.557 56.3611ZM214.792 57.4625L214.665 56.1013L215.856 55.7541L215.366 50.5348L214.131 50.4154L214.002 49.0464L217.487 48.7193L218.576 48.617L218.704 49.986L217.637 50.3216L217.967 53.8296L218.014 53.833L220.272 48.4578L222.543 48.2446L223.748 48.1314L223.877 49.5004L222.693 49.8469L223.183 55.0662L224.411 55.1863L224.539 56.5475L219.973 56.9762L219.845 55.615L220.912 55.2794L220.581 51.7558L220.534 51.7524L218.277 57.1354L214.792 57.4625ZM225.869 56.4226L225.741 55.0614L226.932 54.7142L226.442 49.4949L225.207 49.3755L225.079 48.0065L226.292 47.8926L229.1 47.629L231.789 53.1989L231.835 53.1946L233.456 47.22L236.303 46.9528L237.508 46.8396L237.637 48.2086L236.453 48.5551L236.943 53.7743L238.171 53.8945L238.298 55.2557L233.966 55.6625L233.838 54.3012L234.672 53.9876L234.351 50.5729L234.304 50.5695L232.822 55.7698L231.298 55.9129L228.93 51.1682L228.884 51.1803L229.196 54.5017L230.081 54.654L230.209 56.0152L225.869 56.4226ZM243.401 54.9415C242.571 55.0193 241.841 54.9048 241.211 54.5978C240.58 54.2908 240.077 53.8306 239.7 53.2173C239.323 52.5988 239.095 51.8696 239.016 51.0295L239.001 50.8662C238.922 50.0313 239.011 49.2775 239.267 48.6048C239.522 47.9269 239.929 47.3787 240.486 46.9602C241.047 46.5361 241.741 46.2853 242.565 46.2079C243.4 46.1295 244.13 46.2467 244.756 46.5593C245.381 46.8668 245.882 47.3272 246.259 47.9405C246.636 48.5538 246.863 49.2805 246.942 50.1206L246.958 50.2839C247.036 51.124 246.948 51.8829 246.693 52.5608C246.437 53.2335 246.03 53.7791 245.473 54.1976C244.916 54.6161 244.225 54.864 243.401 54.9415ZM243.237 53.1991C243.631 53.1621 243.943 53.0256 244.172 52.7897C244.401 52.5537 244.557 52.2408 244.641 51.8511C244.724 51.4562 244.742 51.0046 244.694 50.4964L244.679 50.3331C244.632 49.8353 244.531 49.4027 244.376 49.0353C244.221 48.6628 244.006 48.3822 243.732 48.1934C243.463 47.999 243.129 47.9205 242.729 47.958C242.34 47.9945 242.029 48.1336 241.796 48.3752C241.561 48.6117 241.403 48.9274 241.32 49.3223C241.241 49.7116 241.225 50.1551 241.272 50.6529L241.287 50.8163C241.335 51.3245 241.434 51.7651 241.584 52.1381C241.739 52.5106 241.954 52.7912 242.228 52.98C242.501 53.1636 242.838 53.2366 243.237 53.1991ZM252.369 54.0995C251.56 54.1754 250.843 54.0596 250.218 53.7522C249.598 53.4442 249.1 52.9861 248.723 52.378C248.347 51.7647 248.12 51.0458 248.042 50.2213L248.02 49.988C247.943 49.1583 248.034 48.4094 248.296 47.7414C248.558 47.0734 248.964 46.5304 249.516 46.1124C250.068 45.6892 250.74 45.4404 251.533 45.3659C252.291 45.2948 252.953 45.353 253.519 45.5404C254.091 45.7222 254.563 45.9525 254.934 46.2315L255.145 48.6443L253.434 48.8049L252.989 47.3322C252.853 47.2194 252.685 47.1332 252.486 47.0734C252.287 47.0136 252.089 46.993 251.892 47.0115C251.477 47.0504 251.142 47.1865 250.887 47.4197C250.637 47.6525 250.462 47.967 250.363 48.3634C250.264 48.7598 250.241 49.2302 250.292 49.7747L250.314 50.0081C250.368 50.5837 250.487 51.0511 250.673 51.4103C250.858 51.7644 251.083 52.0179 251.348 52.1708C251.619 52.3233 251.91 52.3849 252.221 52.3557C252.62 52.3182 252.93 52.1845 253.149 51.9547C253.372 51.7192 253.51 51.4055 253.562 51.0135L255.507 50.8309L255.535 50.8754C255.503 51.48 255.375 52.0125 255.151 52.4729C254.933 52.9329 254.596 53.3019 254.141 53.58C253.691 53.8577 253.1 54.0308 252.369 54.0995ZM258.779 53.3329L258.651 51.9717L259.835 51.6252L259.357 46.5382L257.949 46.6704L257.97 47.814L256.228 47.9776L255.958 45.1074L264.748 44.2822L265.017 47.1524L263.275 47.316L263.075 46.1891L261.636 46.3242L262.114 51.4112L263.341 51.5314L263.469 52.8926L258.779 53.3329ZM271.233 46.4119C272.374 46.3048 273.29 46.4778 273.981 46.9308C274.677 47.3781 275.065 48.027 275.145 48.8774C275.227 49.7486 274.968 50.479 274.37 51.0688C273.771 51.6586 272.904 52.0068 271.768 52.1134L266.705 52.5888L266.577 51.2276L267.768 50.8803L267.278 45.6611L266.043 45.5417L265.915 44.1727L270.613 43.7316L270.741 45.1006L269.55 45.4479L269.654 46.5602L271.233 46.4119ZM271.606 50.3789C272.072 50.335 272.41 50.1987 272.619 49.9699C272.827 49.7358 272.915 49.4477 272.883 49.1055C272.85 48.7528 272.709 48.4783 272.46 48.282C272.217 48.0851 271.859 48.0088 271.387 48.0531L269.808 48.2014L270.027 50.5271L271.606 50.3789ZM276.459 51.6731L276.272 49.6818L278.535 49.4693L278.722 51.4606L276.459 51.6731ZM275.856 45.256L275.669 43.2647L277.933 43.0522L278.12 45.0435L275.856 45.256Z" fill="white"/>
<defs>
<linearGradient id="paint0_linear_145_968" x1="30.313" y1="20.5" x2="288.313" y2="20.5" gradientUnits="userSpaceOnUse">
<stop stop-color="#8E2DE2"/>
<stop offset="1" stop-color="#4A00E0"/>
</linearGradient>
<linearGradient id="paint1_linear_145_968" x1="206.397" y1="41.5755" x2="206.397" y2="41.5755" gradientUnits="userSpaceOnUse">
<stop stop-color="#8E2DE2"/>
<stop offset="1" stop-color="#4A00E0"/>
</linearGradient>
<linearGradient id="paint2_linear_145_968" x1="-4.40409" y1="74.5511" x2="304.154" y2="47.0084" gradientUnits="userSpaceOnUse">
<stop stop-color="#6025F5"/>
<stop offset="1" stop-color="#FF5555"/>
</linearGradient>
<linearGradient id="paint3_linear_145_968" x1="31.3943" y1="110.508" x2="270.811" y2="75.5395" gradientUnits="userSpaceOnUse">
<stop offset="1" stop-color="#F80759"/>
</linearGradient>
</defs>
</svg>
