<svg width="371" height="145" viewBox="0 0 371 145" fill="none" xmlns="http://www.w3.org/2000/svg">
<g clip-path="url(#clip0_354_8398)">
<path d="M150.336 75.2128V60.0168C150.189 60.0168 150.189 59.8633 150.041 59.8633L144.435 60.6307V62.1657L146.795 62.7797V73.5244C146.058 73.9848 145.32 74.2918 144.582 74.5988C143.845 74.9058 143.107 75.0593 142.664 75.0593C141.632 75.0593 141.042 74.7523 140.599 74.2918C140.156 73.6778 140.009 72.9104 140.009 71.6824V60.0168L139.714 59.8633L134.107 60.6307V62.1657C134.55 62.3192 134.845 62.4727 135.288 62.4727C135.73 62.6262 136.025 62.6262 136.468 62.7797V73.2174C136.468 75.0593 136.911 76.2873 137.648 77.0547C138.533 77.8222 139.566 78.1292 141.042 78.1292C141.484 78.1292 142.074 78.1292 142.664 77.9757C143.255 77.9757 143.845 77.8222 144.435 77.6687C145.32 76.9012 146.058 76.1338 146.943 75.2128L147.68 77.8222L147.976 77.9757L152.992 77.2082V75.6733C152.549 75.5198 152.106 75.5198 151.664 75.3663C151.074 75.5198 150.631 75.3663 150.336 75.2128ZM171.728 64.7751C171.728 63.0867 171.286 61.8587 170.548 61.0912C169.81 60.3237 168.63 60.0168 167.155 60.0168C166.565 60.0168 166.122 60.0168 165.384 60.1702C164.794 60.1702 164.204 60.3237 163.614 60.4772L161.254 62.9332L160.516 60.3237L160.221 60.1702C159.483 60.3237 158.598 60.4772 157.86 60.6307C157.123 60.7842 156.237 60.9377 155.5 61.0912V62.6262L157.86 63.2402V75.6733L155.352 76.5943V78.1292H163.762V76.5943L161.401 75.8268V64.4681C162.139 64.0076 162.876 63.7006 163.614 63.3937C164.352 63.0867 164.942 63.0867 165.679 63.0867C166.712 63.0867 167.45 63.3937 167.745 63.8541C168.188 64.3146 168.335 65.2356 168.335 66.3101V75.2128L165.975 76.1338V77.6687H174.236V76.1338L171.876 75.3663L171.728 64.7751ZM179.105 53.1095C178.662 53.5699 178.367 54.1839 178.367 54.7979C178.367 55.5654 178.515 56.0259 178.957 56.6399C179.4 57.1003 179.99 57.4073 180.728 57.4073C181.465 57.4073 182.056 57.1003 182.498 56.6399C182.941 56.1794 183.236 55.5654 183.236 54.7979C183.236 54.1839 182.941 53.5699 182.498 53.1095C182.056 52.649 181.465 52.342 180.728 52.342C180.138 52.4955 179.695 52.649 179.105 53.1095ZM182.793 67.6915V60.0168L182.498 59.8633L176.892 60.7842V62.3192C177.335 62.4727 177.63 62.6262 178.072 62.6262C178.515 62.7797 178.81 62.7797 179.253 62.9332V75.2128L176.597 76.2873V77.8222H185.301V76.2873L182.646 75.3663C182.793 72.9104 182.793 70.3009 182.793 67.6915ZM202.415 60.1702H197.399V61.7052L199.464 62.4727C199.464 62.6262 199.317 62.9332 199.022 63.5471C198.874 64.0076 198.579 64.7751 198.432 65.3891C198.137 66.1566 197.989 66.924 197.694 67.6915L196.956 69.994C196.661 70.7614 196.514 71.3754 196.366 71.8359C196.219 72.1429 196.219 72.4499 196.071 72.7569H195.924L192.678 63.7006C192.383 63.0867 192.235 62.3192 192.088 61.5517C191.94 60.9377 191.793 60.3237 191.793 59.5563L186.039 59.8633V61.3982L187.809 62.0122C188.4 63.5471 188.99 64.9286 189.58 66.4636C190.022 67.538 190.465 68.6125 190.908 69.8405C191.35 71.0684 191.793 72.1429 192.235 73.2174C192.678 74.2918 192.973 75.2128 193.416 75.9803C193.711 76.7478 194.006 77.3617 194.006 77.5152L196.071 77.0547L200.497 66.1566C200.94 65.0821 201.382 64.0076 201.973 63.0867C202.415 62.1657 203.005 61.3982 203.743 60.7842L203.595 59.2493C203.3 60.1702 203.005 60.1702 202.415 60.1702ZM218.054 62.6262C217.463 61.8587 216.873 61.2447 215.988 60.7842C215.103 60.3237 213.923 60.0168 212.447 60.0168C210.825 60.0168 209.497 60.3237 208.464 60.7842C207.431 61.3982 206.546 62.0122 205.956 62.9332C205.366 63.8541 204.923 64.7751 204.628 65.8496C204.333 66.924 204.186 68.152 204.333 69.2265C204.333 70.6079 204.481 71.8359 204.776 73.0639C205.071 74.1383 205.513 75.0593 206.103 75.8268C206.694 76.5943 207.579 77.2082 208.612 77.6687C209.644 78.1292 210.825 78.2827 212.3 78.2827C213.48 78.2827 214.66 78.1292 215.841 77.6687C217.021 77.3617 217.906 76.7478 218.791 76.1338L218.201 74.2918C217.316 74.7523 216.431 74.9058 215.546 75.0593C214.66 75.2128 214.07 75.3663 213.48 75.3663C212.447 75.3663 211.71 75.2128 210.972 74.9058C210.382 74.5988 209.792 74.2918 209.349 73.6778C208.907 73.0639 208.612 72.4499 208.464 71.6824C208.316 70.9149 208.169 69.994 208.169 68.9195L219.086 68.3055L219.381 67.845C219.381 66.924 219.234 66.0031 219.086 65.0821C218.939 64.3146 218.644 63.3937 218.054 62.6262ZM208.316 67.231C208.316 66.7705 208.316 66.1566 208.464 65.6961C208.612 65.0821 208.759 64.6216 209.054 64.1611C209.349 63.7006 209.792 63.2402 210.234 62.9332C210.677 62.6262 211.267 62.4727 212.152 62.4727C212.89 62.4727 213.333 62.6262 213.775 62.7797C214.218 63.0867 214.513 63.3937 214.66 63.7006C214.955 64.1611 215.103 64.4681 215.103 65.0821C215.25 65.5426 215.25 66.0031 215.25 66.4636L208.316 67.231ZM234.282 59.7098C233.692 59.7098 233.249 59.8633 232.659 60.0168C232.069 60.1702 231.627 60.4772 231.184 60.7842C230.741 61.0912 230.299 61.3982 229.856 61.7052C229.414 62.0122 229.119 62.4727 228.676 62.7797L228.086 60.3237L227.791 60.1702L222.775 60.9377V62.4727L225.135 63.0867V75.5198L222.48 76.5943V78.1292H231.184V76.5943L228.528 75.8268V64.3146L233.987 64.7751C234.282 64.3146 234.577 63.7006 234.872 63.0867C235.02 62.4727 235.167 61.8587 235.167 61.2447C235.167 60.7842 235.02 60.4772 234.872 60.1702C234.725 59.7098 234.577 59.7098 234.282 59.7098ZM248.15 69.5335C247.708 69.073 247.118 68.766 246.527 68.459C245.79 68.152 245.052 67.6915 244.462 67.3845C243.872 67.0775 243.282 66.924 242.692 66.6171C242.249 66.4636 241.806 66.1566 241.511 66.0031C241.216 65.8496 240.921 65.5426 240.774 65.2356C240.626 64.9286 240.479 64.6216 240.626 64.3146C240.626 63.7006 240.921 63.0867 241.364 62.7797C241.806 62.4727 242.397 62.3192 243.134 62.3192C243.577 62.3192 244.019 62.3192 244.462 62.4727C245.052 62.6262 245.495 62.7797 246.085 63.0867L247.265 66.0031L248.593 65.8496V61.2447C247.708 60.7842 246.823 60.4772 245.79 60.3237C244.905 60.1702 244.019 60.0168 243.134 60.0168C241.954 60.0168 241.069 60.1702 240.184 60.4772C239.446 60.7842 238.708 61.0912 238.266 61.5517C237.823 62.0122 237.38 62.4727 237.233 63.0867C236.938 63.7006 236.938 64.3146 236.938 64.9286C236.938 65.6961 237.085 66.3101 237.38 66.924C237.675 67.3845 238.118 67.9985 238.561 68.3055C239.003 68.766 239.593 69.073 240.331 69.38L242.249 70.3009C242.692 70.6079 243.134 70.7614 243.577 70.9149C244.019 71.0684 244.314 71.3754 244.757 71.5289C245.052 71.8359 245.347 71.9894 245.495 72.2964C245.642 72.6034 245.79 73.0639 245.79 73.5244C245.79 74.2918 245.495 74.9058 244.905 75.3663C244.314 75.6733 243.429 75.9803 242.397 75.9803C241.954 75.9803 241.364 75.8268 240.774 75.6733C240.184 75.5198 239.593 75.2128 239.151 74.9058L237.675 71.6824C237.528 71.6824 237.233 71.8359 237.085 71.8359C236.938 71.8359 236.643 71.9894 236.495 71.9894L236.79 77.0547C237.38 77.5152 238.266 77.8222 239.298 77.9757C240.331 78.1292 241.364 78.2827 242.397 78.2827C243.577 78.2827 244.757 78.1292 245.642 77.8222C246.527 77.5152 247.265 77.2082 247.855 76.7478C248.445 76.2873 248.888 75.6733 249.183 75.0593C249.478 74.4453 249.626 73.6778 249.626 72.9104C249.626 72.1429 249.478 71.5289 249.331 70.9149C248.888 70.4544 248.593 69.8405 248.15 69.5335ZM256.265 57.4073C257.002 57.4073 257.592 57.1003 258.035 56.6399C258.478 56.1794 258.773 55.5654 258.773 54.7979C258.773 54.1839 258.478 53.5699 258.035 53.1095C257.592 52.649 257.002 52.342 256.265 52.342C255.674 52.342 255.084 52.649 254.642 53.1095C254.199 53.5699 253.904 54.1839 253.904 54.7979C253.904 55.5654 254.052 56.0259 254.494 56.6399C254.937 57.1003 255.527 57.4073 256.265 57.4073ZM258.183 67.6915V60.0168L257.887 59.8633L252.281 60.7842V62.3192C252.724 62.4727 253.019 62.6262 253.461 62.6262C253.904 62.7797 254.199 62.7797 254.642 62.9332V75.2128L251.986 76.2873V77.8222H260.691V76.2873L258.035 75.3663C258.183 72.9104 258.183 70.3009 258.183 67.6915ZM273.673 74.9058C272.936 75.0593 272.346 75.2128 271.903 75.3663C271.46 75.5198 271.018 75.5198 270.428 75.5198C269.543 75.5198 268.952 75.3663 268.51 74.9058C268.215 74.4453 267.92 73.8313 267.92 72.9104V62.4727H272.936V60.4772H267.92V56.0259L267.772 55.8724L267.625 55.7189L265.707 56.3329L264.526 60.1702C264.084 60.3237 263.641 60.4772 263.199 60.6307C262.756 60.7842 262.313 60.9377 261.871 61.0912V62.4727H264.231V73.0639C264.231 73.9848 264.231 74.7523 264.379 75.3663C264.526 75.9803 264.821 76.5943 265.117 77.0547C265.412 77.5152 265.854 77.8222 266.444 77.9757C267.034 78.1292 267.772 78.2827 268.657 78.2827C270.428 78.2827 272.198 77.8222 273.969 76.9012C273.821 76.5943 273.821 76.2873 273.673 75.9803C273.821 75.5198 273.673 75.2128 273.673 74.9058ZM292.853 60.9377C292.853 60.6307 292.853 60.4772 292.705 60.1702L286.509 60.3237V61.8587L288.574 62.6262C287.984 64.6216 287.246 66.4636 286.656 68.459L284.738 74.2918H284.591C284.148 72.6034 283.558 70.9149 282.968 69.2265C282.378 67.538 281.788 65.8496 281.345 64.1611C281.05 63.3937 280.903 62.6262 280.755 62.0122C280.607 61.2447 280.46 60.6307 280.46 60.0168L274.854 60.3237V61.8587L276.624 62.4727L279.427 70.1474C280.312 72.6034 281.345 75.2128 282.23 77.6687L283.411 77.8222L282.525 80.1247C282.378 80.4316 282.378 80.7386 282.23 81.0456C282.083 81.3526 281.935 81.6596 281.64 81.9666C281.493 82.2736 281.198 82.5806 280.903 82.7341L280.017 83.1946L277.067 81.3526C276.624 81.5061 276.329 81.8131 276.034 82.2736C275.739 82.7341 275.591 83.1946 275.591 83.655C275.591 84.269 275.886 84.883 276.477 85.3435C277.067 85.804 277.804 85.9575 278.69 85.9575C280.017 85.9575 281.198 85.497 282.083 84.576C282.968 83.655 283.706 82.4271 284.296 80.7386L287.099 73.8313C287.984 71.5289 288.869 69.2265 289.755 66.924C290.197 65.8496 290.64 64.7751 291.23 63.8541C291.672 62.9332 292.263 62.1657 293 61.7052C292.853 61.5517 292.853 61.2447 292.853 60.9377ZM178.072 37.7599V25.0198L181.17 24.2523L181.023 22.1034C181.023 22.1034 179.695 22.2569 177.925 22.2569C176.302 22.2569 172.023 22.1034 172.023 22.1034L171.876 24.0988L174.679 25.0198V36.225C174.679 37.1459 174.531 38.0669 174.384 38.8344C174.236 39.6019 173.941 40.3693 173.646 40.9833C173.204 41.5973 172.761 42.0578 172.023 42.3648C171.433 42.6718 170.548 42.8253 169.515 42.8253C168.483 42.8253 167.597 42.6718 166.86 42.3648C166.122 42.0578 165.679 41.5973 165.237 41.1368C164.942 40.5228 164.647 39.9088 164.499 39.2949C164.352 38.5274 164.352 37.7599 164.352 36.9924V25.1733L167.302 24.4058L167.155 22.2569C167.155 22.2569 166.417 22.4104 163.614 22.4104C160.811 22.4104 156.532 22.2569 156.532 22.2569L156.385 24.2523L159.336 25.1733V38.3739C159.336 40.0623 159.631 41.2903 160.221 42.3648C160.811 43.4392 161.549 44.2067 162.434 44.8207C163.319 45.4347 164.352 45.8952 165.384 46.0487C166.417 46.2022 167.45 46.3557 168.335 46.3557C169.368 46.3557 170.548 46.2022 171.581 46.0487C172.614 45.8952 173.646 45.4347 174.679 44.8207C175.564 44.2067 176.302 43.2857 176.892 42.2113C177.63 40.9833 178.072 39.6019 178.072 37.7599ZM188.4 45.7417H195.039C196.514 45.7417 197.842 45.5882 198.874 45.1277C199.907 44.6672 200.94 44.2067 201.677 43.5927C202.415 42.9788 203.153 42.2113 203.595 41.2903C204.038 40.3693 204.481 39.6019 204.776 38.6809C205.071 37.7599 205.218 36.9924 205.366 36.0715C205.513 35.304 205.513 34.5365 205.513 33.769C205.513 32.3876 205.366 31.0061 204.923 29.4712C204.628 28.0897 203.89 26.8617 203.153 25.6338C202.268 24.5593 201.087 23.6383 199.76 22.8709C198.284 22.2569 196.514 21.7964 194.448 21.7964H184.269L183.974 23.9453L186.629 24.7128V42.9788L183.678 43.8997L183.826 45.8952H186.777C187.514 45.7417 187.957 45.7417 188.4 45.7417ZM191.645 25.4803H193.268C194.153 25.4803 195.039 25.6338 195.924 25.7873C196.809 26.0943 197.547 26.4013 198.137 27.0152C198.727 27.6292 199.317 28.5502 199.76 29.6247C200.202 30.6991 200.35 32.0806 200.35 33.769C200.35 34.997 200.202 36.0715 200.055 37.1459C199.907 38.2204 199.464 39.1414 199.022 40.0623C198.579 40.8298 197.842 41.5973 197.104 42.0578C196.366 42.5183 195.334 42.8253 194.153 42.8253H192.826C192.383 42.8253 191.94 42.6718 191.645 42.6718V25.4803ZM207.136 43.7462L207.284 45.7417H216.726L216.873 43.5927L213.628 42.8253L213.48 28.0897H213.628L218.349 34.69L226.758 46.3557L229.266 45.7417V35.4575C229.266 33.9225 229.266 32.3876 229.414 31.0061V25.1733L232.807 24.4058L232.659 22.2569H223.365L223.217 24.2523L226.315 25.1733L226.611 37.7599H226.463L222.48 32.0806L216.873 24.2523C216.726 23.9453 216.431 23.6383 216.283 23.3313C215.988 22.8709 215.841 22.5639 215.693 22.1034C215.103 22.1034 214.07 22.1034 212.742 22.2569H207.874L207.579 24.2523L210.972 25.1733L210.529 42.8253L207.136 43.7462ZM133.96 43.7462L134.107 45.8952C134.107 45.8952 137.501 45.7417 139.419 45.7417C141.337 45.7417 144.877 45.8952 144.877 45.8952L145.025 43.7462L141.779 42.9788V36.0715C142.222 36.225 143.255 36.3785 144.73 36.3785L151.516 47.1231L155.5 46.2022L155.942 44.6672L149.008 35.4575C151.516 34.383 154.024 32.3876 153.287 27.4757C152.402 21.6429 146.353 22.1034 144.73 22.1034C142.959 22.1034 138.681 22.8709 134.845 21.9499L134.255 24.2523C134.255 24.2523 135.288 24.7128 136.911 25.1733V42.9788L133.96 43.7462ZM148.123 29.1642C148.123 31.4666 146.795 33.769 141.779 32.8481V25.4803H142.369C146.943 25.0198 148.123 26.8617 148.123 29.1642Z" fill="#0079C1"/>
<path d="M59.7509 84.269C68.6029 83.348 76.127 75.2128 79.3728 64.0076C79.5203 63.5471 79.2252 63.2401 78.9302 63.0866H78.7826C72.7338 62.1657 66.2424 61.5517 59.6034 61.5517C59.1608 61.5517 58.8657 61.8587 58.8657 62.3192V83.5015C58.8657 83.962 59.3083 84.269 59.7509 84.269ZM68.0127 20.2614C74.0616 24.0988 78.7826 31.6201 81.1432 40.6763C81.2907 40.9833 81.5858 41.1368 81.8808 41.1368C90.5853 39.4483 98.257 36.6854 104.306 33.3085C104.601 33.155 104.748 32.6945 104.601 32.3875L104.453 32.234C102.535 30.6991 100.617 29.4711 98.552 28.2432C95.4538 26.4012 92.2081 24.8663 88.5198 23.6383V16.2705C88.5198 13.3541 90.7328 11.0517 93.5359 11.0517H97.3718C98.1094 11.0517 98.6996 10.4377 98.6996 9.51672V1.53495C98.6996 0.767477 98.1094 0 97.3718 0H70.5208C69.7831 0 69.193 0.613982 69.193 1.53495V9.51672C69.193 10.2842 69.7831 11.0517 70.5208 11.0517H74.6517C77.3073 11.0517 79.6678 13.3541 79.6678 16.2705V20.8754C75.9795 19.9544 72.1437 19.3404 68.4553 19.0334C67.7177 19.0334 67.4226 19.9544 68.0127 20.2614ZM85.5691 16.2705V22.7173C85.2741 22.5638 84.979 22.5638 84.6839 22.4103V15.3495C84.979 12.5866 86.7494 10.2842 89.1099 9.51672C86.8969 11.0517 85.5691 13.5076 85.5691 16.2705ZM95.8964 3.06991V7.82827H91.1754C87.9297 7.82827 85.1265 9.9772 84.0938 12.8936C82.9136 9.82371 80.258 7.82827 77.0122 7.82827H71.9961V3.06991H95.8964ZM82.3234 19.0334V16.2705C82.3234 13.3541 80.8481 10.7447 78.6351 9.20973C81.4382 9.9772 83.5037 12.5866 83.6512 15.81V21.9499C83.2086 21.7964 82.9136 21.6429 82.471 21.6429V19.0334H82.3234Z" fill="#0079C1"/>
<path d="M59.3083 42.6716C66.2424 42.6716 73.0289 42.0577 79.3728 40.8297C76.4221 28.0896 68.3078 18.8799 58.8657 18.2659V42.0577C58.8657 42.5181 59.0133 42.6716 59.3083 42.6716Z" fill="#0079C1"/>
<path d="M103.863 71.2218C97.8144 67.8449 89.9952 65.2355 81.2908 63.7006C80.9957 63.7006 80.8482 63.8541 80.7006 64.0076C78.3401 73.0638 73.324 80.1246 66.9801 83.8085C66.5375 84.1155 66.685 84.7294 67.2752 84.7294C70.3733 84.4225 73.4715 83.962 76.5697 83.348C73.7666 87.4924 69.0456 90.1018 64.0294 90.1018H63.1442C57.8331 90.1018 52.9645 87.3389 50.1614 82.734C52.0793 83.655 54.1447 84.4224 56.2102 84.5759C56.6528 84.5759 56.9479 84.269 56.9479 83.8085V62.3191C56.9479 61.8586 56.6528 61.5516 56.2102 61.5516C53.4071 61.5516 50.604 61.7051 47.8008 61.8586V60.1702C50.604 60.0167 53.4071 59.8632 56.2102 59.8632C56.6528 59.8632 56.9479 59.5562 56.9479 59.0957V45.2811C56.9479 44.8206 56.6528 44.5136 56.2102 44.5136C53.4071 44.5136 50.604 44.3601 47.8008 44.2066V42.5182C50.604 42.6717 53.4071 42.8252 56.3577 42.8252C56.6528 42.8252 56.9479 42.5182 56.9479 42.2112V19.0334C53.7021 19.1869 50.604 20.4149 47.8008 22.4103V20.4149C48.2434 20.1079 48.686 19.8009 49.1286 19.6474C49.4237 19.4939 49.2762 18.8799 48.9811 19.0334C48.5385 19.0334 48.2434 19.1869 47.8008 19.1869V16.2705C47.8008 13.3541 50.0138 11.0516 52.817 11.0516H56.8003C57.538 11.0516 58.2757 10.4377 58.2757 9.67018V1.84191C58.2757 1.07443 57.6855 0.460449 56.8003 0.460449H16.3764C15.6387 0.460449 14.901 1.07443 14.901 1.84191V9.67018C14.901 10.4377 15.4912 11.0516 16.3764 11.0516H20.3598C23.1629 11.0516 25.3759 13.3541 25.3759 16.2705V18.2659V24.0987C22.5728 25.1732 19.9172 26.4012 17.4091 27.9361C15.3436 29.1641 13.4257 30.3921 11.6553 31.7735C11.2127 32.0805 11.2127 32.848 11.8029 33.0015C15.6387 35.1504 20.3598 36.9924 25.5234 38.5273V40.2158C19.1795 38.5273 13.7208 36.2249 9.29481 33.6155C3.24596 38.9878 0.000244141 45.2811 0.000244141 51.7279C0.000244141 58.1747 3.24596 64.6215 9.44234 69.9939C9.7374 70.1474 10.0325 70.3009 10.3275 70.1474C14.4585 67.6915 19.6221 65.696 25.3759 64.0076V65.696C20.5073 67.0775 16.0813 68.9194 12.393 70.9149C12.0979 71.0684 11.9504 71.5288 12.0979 71.9893C12.0979 72.1428 12.2455 72.1428 12.393 72.2963C14.0159 73.5243 15.7862 74.5987 17.5566 75.5197C20.6548 77.2082 23.9005 78.7431 27.4413 79.9711H27.8839C32.7525 92.2507 44.4076 101 58.1281 101H58.8658C71.4061 101 82.6186 92.8647 86.7495 80.7386V80.5851C91.0279 79.2036 95.0113 77.5152 98.5521 75.3662C100.47 74.2917 102.24 73.0638 104.011 71.8358C104.158 71.6823 104.306 71.3753 104.158 71.2218C104.06 71.2218 103.962 71.2218 103.863 71.2218ZM45.1453 16.2705V74.2918C45.1453 84.576 53.2596 92.8647 63.2918 92.8647H64.177C70.9635 92.8647 77.1599 89.0273 80.258 82.734C80.258 82.734 80.258 82.5805 80.4056 82.5805C80.7006 82.5805 80.8482 82.427 81.1432 82.427C77.3074 90.5623 69.4882 95.7811 60.4887 95.7811H60.0461C47.5058 95.7811 37.1785 85.1899 37.1785 72.2963V18.1124C37.326 13.2006 41.3094 9.20969 46.0305 9.20969H49.2762C46.7681 10.4377 45.1453 13.2006 45.1453 16.2705ZM55.6201 3.22337V7.98172H46.0305C41.752 7.98172 37.9161 10.7446 36.5884 14.889C35.113 10.7446 31.4247 7.98172 27.1463 7.98172H17.8517V3.22337H55.6201ZM58.7183 98.237H57.9806C41.6045 98.237 28.179 84.5759 28.179 67.6914V18.8799V16.2705C28.179 13.2006 26.4086 10.4377 24.0481 9.20969H27.1463C32.0148 9.20969 35.9982 13.2006 35.9982 18.1124V72.2963C35.9982 85.9574 46.7681 97.0091 59.8985 97.0091H60.4887C70.0783 97.0091 78.6352 91.1762 82.471 82.12C82.7661 82.12 83.0612 81.9665 83.3562 81.9665C79.0778 91.6367 69.3406 98.237 58.7183 98.237Z" fill="#0079C1"/>
<path d="M106.519 33.9225C106.224 33.6155 105.634 33.6155 105.339 33.769C99.2897 37.4529 91.3229 40.2158 82.3234 42.0578C81.7333 42.2113 81.4382 42.6718 81.4382 43.2858C81.8808 45.8952 82.1759 48.6581 82.1759 51.5745C82.1759 54.7979 81.8808 57.7143 81.2907 60.6307C81.1432 61.2447 81.5858 61.8587 82.1759 61.8587C91.0279 63.5472 98.8471 66.3101 104.748 69.8405C105.191 69.994 105.634 69.994 105.929 69.687C111.83 64.3146 115.076 58.0213 115.076 51.421C115.076 45.1277 112.125 39.1414 106.519 33.9225ZM59.6034 59.5563C66.3899 59.5563 72.8813 60.1703 79.0777 61.2447C79.5203 61.2447 79.8154 61.0912 79.9629 60.6307C80.553 57.8678 80.8481 54.7979 80.8481 51.728C80.8481 48.9651 80.553 46.2022 80.1104 43.5927C80.1104 43.1323 79.6678 42.9788 79.2252 42.9788C73.0289 44.0532 66.3899 44.5137 59.6034 44.6672C59.1608 44.6672 58.8657 44.9742 58.8657 45.4347V58.9423C58.8657 59.2493 59.1608 59.5563 59.6034 59.5563Z" fill="#0079C1"/>
</g>
<path d="M114.786 112.77C114.064 113.456 113.362 113.96 112.68 114.283C111.999 114.627 111.232 114.802 110.379 114.805C108.971 114.811 107.881 114.379 107.109 113.507C106.359 112.636 105.98 111.475 105.974 110.024C105.972 109.598 106.034 109.128 106.16 108.616L108.267 100.254C108.393 99.7844 108.616 99.4421 108.935 99.2274C109.275 98.9912 109.819 98.8715 110.565 98.8683C111.675 98.8634 112.231 99.1703 112.233 99.789C112.234 100.045 112.161 100.451 112.015 101.006L109.908 109.591C109.845 109.848 109.814 110.104 109.815 110.36C109.817 110.808 109.936 111.17 110.172 111.446C110.408 111.722 110.782 111.859 111.294 111.857C111.955 111.854 112.669 111.659 113.435 111.272C114.202 110.885 114.85 110.412 115.381 109.855L115.978 107.325C116.376 105.616 116.837 103.769 117.362 101.783C117.593 100.928 117.889 100.234 118.249 99.6988C118.631 99.1424 119.227 98.8625 120.037 98.859C121.168 98.854 121.735 99.1929 121.738 99.8756C121.738 99.9822 121.707 100.121 121.644 100.292C121.602 100.441 121.57 100.57 121.549 100.676L120.512 105.065C119.423 109.72 118.711 112.7 118.375 114.002C117.83 116.138 117.208 117.815 116.509 119.035C115.811 120.254 114.929 121.132 113.865 121.67C112.822 122.208 111.479 122.48 109.836 122.488C108.791 122.492 107.926 122.347 107.242 122.051C106.58 121.755 106.087 121.395 105.766 120.969C105.465 120.544 105.314 120.15 105.312 119.787C105.308 118.742 105.882 118.217 107.034 118.212C107.354 118.21 107.61 118.273 107.802 118.4C108.016 118.528 108.23 118.708 108.445 118.942C108.766 119.239 109.055 119.462 109.312 119.61C109.59 119.758 109.963 119.831 110.433 119.829C110.795 119.827 111.2 119.676 111.647 119.376C112.093 119.075 112.529 118.604 112.953 117.962C113.376 117.32 113.725 116.519 113.998 115.557L114.786 112.77ZM128.572 114.726C126.695 114.734 125.231 114.1 124.18 112.825C123.129 111.55 122.599 109.92 122.591 107.936C122.583 106.272 122.971 104.702 123.754 103.227C124.558 101.751 125.652 100.562 127.035 99.6605C128.417 98.7584 129.941 98.3038 131.605 98.2965C133.247 98.2894 134.594 98.8275 135.644 99.9109C136.715 100.973 137.255 102.549 137.264 104.64C137.271 106.112 136.872 107.639 136.068 109.221C135.265 110.803 134.182 112.12 132.822 113.171C131.482 114.201 130.066 114.719 128.572 114.726ZM129.041 112.164C129.724 112.161 130.405 111.731 131.084 110.875C131.784 110.019 132.355 108.939 132.797 107.635C133.24 106.332 133.458 105.062 133.453 103.825C133.445 101.926 132.651 100.98 131.072 100.987C130.198 100.991 129.4 101.41 128.678 102.245C127.956 103.08 127.385 104.118 126.963 105.357C126.542 106.575 126.334 107.717 126.338 108.784C126.341 109.402 126.482 109.978 126.762 110.51C127.041 111.021 127.385 111.424 127.791 111.721C128.219 112.018 128.636 112.166 129.041 112.164ZM151.443 113.858C151.359 114.221 151.168 114.467 150.87 114.597C150.572 114.747 150.178 114.824 149.687 114.826C148.215 114.832 147.478 114.505 147.475 113.843L147.661 112.627C146.939 113.312 146.226 113.817 145.524 114.14C144.843 114.484 144.065 114.658 143.19 114.662C141.953 114.668 140.906 114.341 140.05 113.684C139.215 113.005 138.794 111.801 138.786 110.073C138.784 109.647 138.846 109.177 138.972 108.665L141.079 100.111C141.205 99.6413 141.427 99.299 141.746 99.0843C142.087 98.8482 142.63 98.7285 143.377 98.7252C144.486 98.7204 145.042 99.0273 145.045 99.6459C145.046 99.9019 144.973 100.308 144.826 100.863L142.719 109.448C142.657 109.704 142.626 109.961 142.627 110.217C142.629 110.665 142.748 111.027 142.984 111.303C143.219 111.579 143.593 111.716 144.105 111.714C144.788 111.711 145.555 111.516 146.407 111.128C147.258 110.719 147.939 110.247 148.449 109.711L149.267 106.476C150.126 103.016 150.629 101.008 150.776 100.453C150.902 99.9831 151.018 99.6412 151.124 99.4274C151.251 99.1922 151.463 99.0206 151.762 98.9126C152.06 98.7833 152.507 98.7174 153.105 98.7148C154.235 98.7099 154.802 99.0487 154.805 99.7314C154.806 99.8381 154.774 99.9769 154.711 100.148C154.669 100.297 154.638 100.425 154.617 100.532L153.359 105.722C152.353 109.844 151.714 112.556 151.443 113.858ZM159.538 112.703C159.517 112.831 159.465 113.087 159.381 113.472C159.319 113.835 159.139 114.091 158.841 114.242C158.564 114.392 158.116 114.469 157.498 114.472C156.794 114.475 156.281 114.402 155.961 114.254C155.64 114.107 155.479 113.787 155.477 113.297C155.539 113.04 155.99 111.214 156.829 107.819C157.436 105.192 157.887 103.345 158.181 102.277C158.494 100.761 158.863 99.767 159.288 99.2958C159.712 98.8033 160.202 98.5558 160.756 98.5534C161.503 98.5502 161.983 98.6547 162.198 98.8671C162.433 99.0795 162.552 99.3563 162.553 99.6976L162.178 101.587C162.857 100.752 163.643 100.066 164.537 99.529C165.452 98.9703 166.261 98.6894 166.965 98.6864C167.882 98.6824 168.598 98.8392 169.111 99.157C169.624 99.4748 169.882 99.8897 169.884 100.402C169.886 100.786 169.642 101.096 169.153 101.333C168.684 101.548 168.066 101.69 167.298 101.757C166.147 101.869 164.965 102.375 163.753 103.276C162.562 104.178 161.671 105.238 161.079 106.456L159.538 112.703ZM177.637 110.192C178.075 107.971 178.797 104.747 179.803 100.518C180.474 97.8915 181.039 95.489 181.499 93.3109L181.496 92.6069C181.493 91.7963 181.628 91.113 181.903 90.5572C182.199 90.0012 182.796 89.7213 183.692 89.7173C184.204 89.7151 184.642 89.9052 185.006 90.2876C185.392 90.6486 185.586 91.2238 185.59 92.0131C185.591 92.2478 185.581 92.4291 185.56 92.5572L183.139 102.36C183.816 101.12 184.612 100.252 185.527 99.7574C186.464 99.2414 187.348 98.9815 188.18 98.9779C189.588 98.9717 190.689 99.4896 191.483 100.531C192.277 101.552 192.677 102.958 192.685 104.75C192.692 106.244 192.293 107.749 191.489 109.268C190.685 110.764 189.559 112.007 188.113 112.994C186.688 113.982 185.058 114.48 183.224 114.488C181.368 114.496 179.809 114.183 178.547 113.548C177.307 112.913 176.685 112.031 176.68 110.9C176.679 110.793 176.828 110.686 177.126 110.578C177.446 110.449 177.616 110.32 177.637 110.192ZM180.871 110.69C180.871 110.754 180.786 110.872 180.616 111.043C180.447 111.214 180.394 111.311 180.458 111.332C181.398 111.712 182.274 111.9 183.084 111.896C184.258 111.891 185.301 111.545 186.216 110.859C187.151 110.172 187.873 109.251 188.38 108.097C188.908 106.943 189.169 105.672 189.163 104.286C189.16 103.539 189.04 102.942 188.803 102.495C188.588 102.048 188.256 101.826 187.808 101.828C187.36 101.829 186.722 102.163 185.893 102.828C185.064 103.493 184.183 104.489 183.25 105.815C182.338 107.142 181.545 108.767 180.871 110.69ZM200.285 114.413C198.173 114.422 196.625 114.013 195.64 113.185C194.676 112.358 194.191 111.25 194.185 109.864C194.176 107.794 194.595 105.915 195.441 104.226C196.287 102.516 197.465 101.177 198.975 100.211C200.486 99.2229 202.211 98.7247 204.153 98.7162C205.369 98.7109 206.384 99.0478 207.197 99.727C208.032 100.406 208.453 101.418 208.458 102.761C208.465 104.191 208 105.313 207.065 106.128C206.151 106.942 204.948 107.534 203.457 107.903C201.986 108.251 200.131 108.537 197.892 108.76C197.83 109.037 197.799 109.368 197.801 109.752C197.803 110.349 198.061 110.807 198.575 111.125C199.088 111.442 199.804 111.599 200.721 111.595C201.382 111.592 202.15 111.45 203.023 111.169C203.918 110.888 204.598 110.426 205.065 109.784C205.341 109.42 205.659 109.131 206.021 108.916C206.404 108.701 206.777 108.593 207.14 108.591C207.481 108.59 207.759 108.706 207.973 108.94C208.209 109.152 208.328 109.482 208.33 109.93C208.098 110.614 207.61 111.309 206.867 112.017C206.123 112.702 205.176 113.272 204.026 113.725C202.897 114.178 201.65 114.407 200.285 114.413ZM198.712 105.812C200.077 105.785 201.473 105.523 202.9 105.026C204.327 104.508 205.038 103.619 205.033 102.36C205.031 102.062 204.892 101.838 204.614 101.69C204.336 101.521 204.037 101.437 203.717 101.438C203.098 101.441 202.448 101.678 201.768 102.151C201.108 102.602 200.503 103.17 199.951 103.855C199.399 104.518 198.986 105.171 198.712 105.812ZM220.305 101.27C220.049 101.143 219.729 101.08 219.345 101.082C218.385 101.086 217.426 101.282 216.467 101.671C215.509 102.059 215.031 102.551 215.034 103.149C215.035 103.575 215.229 103.916 215.614 104.17C215.999 104.425 216.608 104.71 217.442 105.026C218.339 105.385 219.066 105.723 219.622 106.041C220.178 106.358 220.66 106.826 221.068 107.443C221.498 108.038 221.714 108.805 221.718 109.744C221.725 111.28 221.09 112.467 219.814 113.304C218.559 114.12 216.865 114.533 214.731 114.542C213.686 114.547 212.715 114.391 211.817 114.075C210.92 113.759 210.203 113.357 209.668 112.868C209.154 112.359 208.874 111.858 208.829 111.368C208.827 110.856 209.049 110.439 209.496 110.117C209.942 109.774 210.571 109.547 211.381 109.437C211.404 109.863 211.63 110.268 212.058 110.65C212.487 111.011 212.989 111.307 213.566 111.539C214.164 111.75 214.677 111.854 215.104 111.853C215.829 111.849 216.489 111.655 217.085 111.268C217.681 110.86 217.977 110.389 217.975 109.856C217.971 108.875 217.018 108.1 215.117 107.533C213.899 107.175 212.958 106.603 212.293 105.817C211.65 105.03 211.326 104.2 211.322 103.325C211.315 101.597 212.088 100.356 213.642 99.6029C215.217 98.828 217.221 98.4352 219.653 98.4246C221.018 98.4187 222.075 98.5741 222.823 98.8908C223.571 99.2076 223.947 99.7606 223.95 100.55C223.953 101.083 223.752 101.553 223.349 101.961C222.966 102.368 222.413 102.573 221.687 102.576C221.047 102.579 220.631 102.538 220.439 102.453C220.268 102.347 220.171 102.177 220.148 101.943C220.147 101.729 220.2 101.505 220.305 101.27ZM229.207 110.031C229.209 110.522 229.295 110.863 229.467 111.054C229.638 111.245 229.959 111.34 230.428 111.338C231.047 111.335 231.558 111.205 231.963 110.947C232.388 110.668 232.898 110.239 233.493 109.66C233.663 109.489 233.854 109.403 234.068 109.402C234.324 109.401 234.527 109.592 234.678 109.975C234.829 110.337 234.906 110.71 234.907 111.094C234.91 111.628 234.698 112.151 234.274 112.665C233.85 113.179 233.233 113.598 232.424 113.921C231.614 114.245 230.666 114.409 229.578 114.414C228.127 114.42 227.091 114.094 226.469 113.435C225.869 112.776 225.566 111.764 225.56 110.399C225.559 110.207 225.653 109.705 225.842 108.894C226.03 108.082 226.271 107.111 226.565 105.979L227.445 102.327L225.494 102.495C225.238 102.496 225.045 102.401 224.916 102.21C224.788 102.018 224.723 101.784 224.721 101.507C224.719 100.973 224.909 100.439 225.29 99.9041C225.333 99.8399 225.546 99.775 225.929 99.7093C226.313 99.6436 226.782 99.5776 227.337 99.5112L228.2 99.4114L228.922 96.1122C229.133 95.5566 229.451 95.1286 229.876 94.828C230.323 94.5061 230.738 94.3443 231.122 94.3426C231.549 94.3407 231.912 94.4672 232.212 94.7219C232.512 94.9765 232.673 95.2745 232.696 95.6158L231.911 99.0432C232.742 98.9329 233.51 98.8442 234.214 98.7772C234.938 98.6887 235.504 98.6435 235.909 98.6418C236.72 98.6382 237.127 99.1058 237.131 100.044C237.133 100.407 236.974 100.738 236.655 101.039C236.358 101.317 236.028 101.489 235.666 101.555L231.188 102.022L229.207 110.031ZM261.754 108.705C261.523 109.41 260.971 110.191 260.101 111.048C259.251 111.905 258.209 112.646 256.974 113.27C255.739 113.873 254.45 114.177 253.106 114.183C252.018 114.188 250.993 113.989 250.031 113.588C249.091 113.187 248.331 112.572 247.751 111.742C247.172 110.913 246.879 109.901 246.874 108.706C246.865 106.701 247.252 104.918 248.035 103.357C248.817 101.796 249.932 100.575 251.379 99.6943C252.847 98.7919 254.541 98.3365 256.461 98.3282C257.698 98.3228 258.767 98.6808 259.666 99.4022C260.586 100.124 261.06 101.081 261.086 102.276C261.088 102.745 260.93 103.141 260.611 103.462C260.293 103.762 259.824 103.914 259.205 103.916C258.715 103.918 258.352 103.813 258.116 103.601C257.902 103.367 257.687 103.016 257.471 102.548C257.256 102.058 257.02 101.686 256.763 101.431C256.505 101.176 256.1 101.05 255.545 101.052C254.905 101.055 254.202 101.399 253.437 102.085C252.672 102.75 252.026 103.692 251.498 104.91C250.97 106.107 250.709 107.463 250.715 108.977C250.718 109.617 250.966 110.182 251.459 110.67C251.973 111.137 252.667 111.369 253.542 111.365C254.267 111.362 254.949 111.124 255.587 110.652C256.225 110.159 256.958 109.462 257.786 108.562C258.317 108.005 258.731 107.598 259.028 107.341C259.347 107.084 259.624 106.954 259.859 106.953C260.925 106.949 261.557 107.533 261.754 108.705ZM267.618 102.888C268.104 101.925 268.773 101.101 269.623 100.415C270.495 99.7283 271.378 99.2018 272.272 98.8352C273.167 98.4687 273.902 98.2841 274.478 98.2816C275.587 98.2768 276.388 98.4866 276.88 98.9111C277.373 99.3143 277.621 99.9639 277.625 100.86C276.381 104.151 275.564 107.696 275.175 111.495L275.63 113.061C275.376 113.553 275.037 113.938 274.611 114.217C274.186 114.518 273.536 114.67 272.661 114.674C272.149 114.676 271.775 114.507 271.539 114.167C271.303 113.826 271.184 113.4 271.181 112.888C271.175 111.459 271.371 109.89 271.769 108.182C272.188 106.452 272.671 104.69 273.218 102.895C273.428 102.212 273.533 101.859 273.533 101.838C273.532 101.539 273.361 101.391 273.019 101.392C272.571 101.394 271.922 101.727 271.072 102.393C270.221 103.058 269.341 104.181 268.43 105.764C267.52 107.325 266.761 109.377 266.153 111.918C266.132 112.025 266.08 112.249 265.996 112.591C265.912 112.932 265.721 113.179 265.423 113.329C265.125 113.48 264.667 113.557 264.048 113.559C263.302 113.562 262.725 113.49 262.319 113.343C261.913 113.174 261.709 112.855 261.707 112.385C264.454 101.387 266.152 94.5099 266.801 91.755C266.779 91.4778 266.756 91.1152 266.732 90.6673C266.73 90.198 266.729 89.8353 266.728 89.5793C266.79 89.2804 267.013 89.0554 267.397 88.9044C267.801 88.732 268.206 88.6449 268.612 88.6431C269.294 88.6401 269.871 88.8189 270.342 89.1796C270.813 89.5402 271.071 89.9977 271.116 90.5522L267.618 102.888ZM285.696 114.041C283.818 114.049 282.354 113.415 281.303 112.14C280.253 110.865 279.723 109.235 279.714 107.251C279.707 105.587 280.095 104.017 280.878 102.542C281.682 101.066 282.775 99.8774 284.158 98.9754C285.541 98.0734 287.064 97.6187 288.728 97.6115C290.371 97.6043 291.717 98.1424 292.767 99.2259C293.839 100.288 294.379 101.864 294.388 103.955C294.394 105.427 293.996 106.954 293.192 108.536C292.388 110.118 291.306 111.435 289.945 112.486C288.606 113.516 287.189 114.034 285.696 114.041ZM286.165 111.479C286.847 111.476 287.528 111.046 288.207 110.19C288.907 109.333 289.479 108.254 289.921 106.95C290.363 105.647 290.582 104.377 290.576 103.139C290.568 101.241 289.775 100.295 288.196 100.302C287.321 100.306 286.523 100.725 285.801 101.56C285.08 102.395 284.508 103.433 284.087 104.672C283.666 105.89 283.457 107.032 283.462 108.099C283.465 108.717 283.606 109.293 283.885 109.825C284.165 110.335 284.508 110.739 284.915 111.036C285.343 111.333 285.759 111.481 286.165 111.479ZM299.396 94.3009C299.393 93.6396 299.593 93.0521 299.996 92.5383C300.421 92.0244 301.006 91.7659 301.753 91.7626C302.542 91.7592 303.226 92.0015 303.804 92.4897C304.403 92.9778 304.705 93.5311 304.707 94.1498C304.71 94.7684 304.414 95.3031 303.818 95.7537C303.223 96.2043 302.531 96.4313 301.741 96.4347C300.973 96.4381 300.386 96.2486 299.979 95.8664C299.593 95.4628 299.399 94.9409 299.396 94.3009ZM296.429 111.178C296.428 110.794 297.36 106.95 299.227 99.6457L299.03 98.4626C299.029 98.2279 299.167 98.046 299.444 97.9168C299.72 97.7876 300.253 97.7212 301.043 97.7178C301.661 97.7151 302.11 97.8838 302.389 98.2239C302.689 98.5639 302.84 98.9686 302.842 99.438C302.843 99.566 302.822 99.7367 302.781 99.9502L299.983 111.483L300.18 112.666C300.181 112.9 300.043 113.082 299.766 113.211C299.49 113.341 298.956 113.407 298.167 113.41C297.463 113.414 297.004 113.213 296.789 112.808C296.573 112.383 296.454 111.839 296.429 111.178ZM317.462 110.318C317.082 111.408 316.329 112.286 315.201 112.952C314.073 113.597 312.496 113.924 310.469 113.933C309.061 113.939 307.898 113.699 306.978 113.212C306.059 112.725 305.384 112.088 304.954 111.301C304.524 110.513 304.307 109.661 304.303 108.744C304.294 106.696 304.691 104.87 305.495 103.266C306.298 101.642 307.434 100.378 308.902 99.4755C310.392 98.5517 312.118 98.0855 314.08 98.0769C315.318 98.0716 316.386 98.4296 317.285 99.151C318.184 99.8724 318.636 100.83 318.641 102.025C318.644 102.494 318.475 102.89 318.135 103.211C317.816 103.511 317.347 103.663 316.729 103.665C316.217 103.668 315.853 103.541 315.639 103.286C315.424 103.01 315.316 102.69 315.315 102.328C315.313 101.858 315.151 101.486 314.83 101.21C314.509 100.934 314.103 100.797 313.612 100.799C312.972 100.802 312.206 101.146 311.313 101.833C310.441 102.52 309.688 103.472 309.053 104.691C308.44 105.888 308.136 107.234 308.143 108.727C308.145 109.388 308.393 109.953 308.886 110.42C309.379 110.887 310.062 111.119 310.937 111.115C311.662 111.112 312.248 110.97 312.695 110.691C313.142 110.412 313.62 110.015 314.13 109.501C314.449 109.179 314.714 108.944 314.927 108.793C315.14 108.643 315.363 108.567 315.598 108.566C316.11 108.564 316.527 108.712 316.848 109.009C317.169 109.285 317.374 109.721 317.462 110.318ZM326.534 113.863C324.422 113.872 322.873 113.463 321.889 112.635C320.925 111.807 320.44 110.7 320.434 109.313C320.425 107.244 320.843 105.365 321.689 103.676C322.535 101.965 323.714 100.627 325.224 99.6604C326.734 98.6724 328.46 98.1743 330.402 98.1658C331.617 98.1605 332.632 98.4974 333.446 99.1765C334.281 99.8556 334.701 100.867 334.707 102.211C334.713 103.64 334.249 104.762 333.314 105.577C332.4 106.392 331.197 106.984 329.706 107.353C328.235 107.701 326.38 107.986 324.141 108.209C324.078 108.487 324.048 108.818 324.05 109.202C324.052 109.799 324.31 110.256 324.824 110.574C325.337 110.892 326.052 111.049 326.97 111.045C327.631 111.042 328.398 110.9 329.272 110.619C330.167 110.338 330.847 109.876 331.314 109.234C331.59 108.87 331.908 108.581 332.27 108.366C332.653 108.151 333.026 108.042 333.389 108.041C333.73 108.039 334.008 108.155 334.222 108.389C334.458 108.602 334.576 108.932 334.578 109.38C334.347 110.063 333.859 110.759 333.116 111.466C332.372 112.152 331.425 112.721 330.275 113.174C329.146 113.627 327.899 113.857 326.534 113.863ZM324.96 105.262C326.326 105.234 327.722 104.972 329.149 104.475C330.576 103.957 331.287 103.069 331.281 101.81C331.28 101.511 331.14 101.288 330.862 101.14C330.584 100.97 330.285 100.886 329.965 100.888C329.347 100.89 328.697 101.128 328.016 101.6C327.357 102.051 326.752 102.619 326.2 103.304C325.648 103.968 325.235 104.62 324.96 105.262Z" fill="#0079C1"/>
<defs>
<clipPath id="clip0_354_8398">
<rect width="293" height="101" fill="white" transform="translate(0.000244141)"/>
</clipPath>
</defs>
</svg>
